<svg fill="none" xmlns="http://www.w3.org/2000/svg" viewBox="0 0 48 16" class="design-iconfont">
  <path d="M8 0H46C47.1046 0 48 0.895431 48 2V14C48 15.1046 47.1046 16 46 16H8V0Z" fill="#E6EFFF"/>
  <rect width="16" height="16" rx="8" fill="#2475FC"/>
  <path d="M4.85 9.03L6.14 8.76C6.14 8.99 6.17 9.34 6.2 9.51C4.24 9.97 3.92 10.08 3.72 10.21C3.68 10.04 3.54 9.64 3.45 9.42C3.65 9.37 3.85 9.12 4.1 8.76C4.24 8.58 4.51 8.14 4.82 7.59C4 7.7 3.79 7.75 3.65 7.81C3.6 7.64 3.47 7.22 3.36 6.98C3.53 6.93 3.68 6.71 3.85 6.38C4.01 6.05 4.54 4.78 4.79 3.62L5.68 3.92C5.37 4.93 4.92 6 4.45 6.85L5.25 6.78C5.42 6.45 5.56 6.09 5.7 5.75L6.45 6.17C6.01 7.16 5.44 8.18 4.85 9.03ZM6.15 10.4L6.31 11.16C5.37 11.54 4.4 11.92 3.61 12.22L3.41 11.35C4.1 11.14 5.12 10.77 6.15 10.4ZM9.27 7.93H8.46C8.46 8.38 8.44 8.82 8.41 9.25H9.53V10.08H8.3C8.12 11.1 7.74 12.03 6.95 12.79C6.81 12.61 6.47 12.34 6.26 12.22C6.91 11.61 7.27 10.88 7.45 10.08H6.38V9.25H7.58C7.62 8.83 7.64 8.38 7.64 7.93H6.7V7.11H7.64V5.84H6.58V5.01H7.64V3.67H8.46V5.01H9.44V5.84H8.46V7.11H9.27V7.93ZM11.94 4.18L12.54 4.5C12.28 5.37 11.96 6.39 11.59 7.44C12.28 8.41 12.57 9.11 12.57 9.75C12.57 10.38 12.42 10.91 12.1 11.16C11.97 11.27 11.77 11.33 11.56 11.37C11.35 11.39 11.07 11.39 10.8 11.37C10.79 11.16 10.73 10.81 10.59 10.58C10.82 10.61 11.08 10.61 11.23 10.6C11.36 10.6 11.47 10.57 11.55 10.52C11.71 10.4 11.77 10.07 11.77 9.72C11.77 9.14 11.5 8.53 10.82 7.56C11.1 6.64 11.33 5.76 11.52 4.99H10.58V12.79H9.78V4.22H11.81L11.94 4.18Z" fill="#fff"/>
  <path d="M20.888 2.712H31.088V3.552H24.776L24.284 5.532H29.468L28.508 11.94H31.4V12.78H20.672V11.94H27.656L27.992 9.828H22.352L23.9 3.552H20.888V2.712ZM28.124 9.024L28.544 6.336H24.08L23.408 9.024H28.124ZM33.512 2.388C34.34 3.012 35.036 3.636 35.6 4.26L34.988 4.86C34.484 4.26 33.8 3.624 32.924 2.952L33.512 2.388ZM40.532 12.984C39.872 12.984 39.152 12.972 38.384 12.96C37.604 12.948 36.968 12.876 36.488 12.744C36.008 12.6 35.576 12.3 35.204 11.868C35.036 11.664 34.88 11.568 34.736 11.568C34.448 11.568 33.968 12.12 33.308 13.224L32.66 12.636C33.296 11.628 33.86 11.016 34.352 10.8V7.152H32.648V6.36H35.156V10.848C35.252 10.92 35.348 11.004 35.456 11.124C35.744 11.472 36.056 11.724 36.392 11.88C36.776 12.048 37.316 12.144 38.036 12.168C38.672 12.18 39.464 12.192 40.412 12.192C40.964 12.192 41.54 12.18 42.128 12.168C42.704 12.156 43.148 12.144 43.46 12.12L43.256 12.984H40.532ZM38.384 3.54C38.888 3.84 39.356 4.14 39.764 4.44C40.388 4.116 40.964 3.756 41.492 3.348H36.164V2.616H42.656V3.24C41.936 3.864 41.156 4.404 40.316 4.86L40.508 5.016H42.884V10.38C42.884 10.992 42.548 11.304 41.876 11.304H40.88L40.688 10.572L41.636 10.608C41.924 10.608 42.068 10.464 42.068 10.2V9.3H40.052V11.364H39.248V9.3H37.244V11.4H36.428V5.016H39.428C38.972 4.692 38.444 4.368 37.856 4.056L38.384 3.54ZM37.244 7.536V8.592H39.248V7.536H37.244ZM40.052 7.536V8.592H42.068V7.536H40.052ZM42.068 6.816V5.736H40.052V6.816H42.068ZM39.248 6.816V5.736H37.244V6.816H39.248Z" fill="#2475FC"/>
</svg>
