<svg width="12" height="12" viewBox="0 0 12 12" fill="none" xmlns="http://www.w3.org/2000/svg">
<g id="Group 346525811">
<path id="Rectangle 3469479" d="M3.59961 6.00053C3.59961 4.67507 4.6741 3.60059 5.99955 3.60059H11.9996V10.0002C11.9996 11.1047 11.1042 12.0002 9.99961 12.0002H3.59961V6.00053Z" fill="#BFBFBF"/>
<path id="&#231;&#187;&#145;" d="M5.90978 8.01785L6.68376 7.85585C6.68376 7.99385 6.70176 8.20384 6.71976 8.30584C5.54379 8.58183 5.35179 8.64783 5.23179 8.72583C5.20779 8.62383 5.1238 8.38384 5.0698 8.25184C5.1898 8.22184 5.30979 8.07185 5.45979 7.85585C5.54379 7.74785 5.70578 7.48386 5.89178 7.15387C5.39979 7.21987 5.27379 7.24987 5.1898 7.28587C5.1598 7.18387 5.0818 6.93187 5.0158 6.78788C5.1178 6.75788 5.20779 6.62588 5.30979 6.42789C5.40579 6.22989 5.72378 5.46791 5.87378 4.77193L6.40777 4.95192C6.22177 5.55791 5.95178 6.19989 5.66978 6.70988L6.14977 6.66788C6.25177 6.46989 6.33577 6.25389 6.41977 6.0499L6.86975 6.30189C6.60576 6.89588 6.26377 7.50786 5.90978 8.01785ZM6.68976 8.83983L6.78576 9.29582C6.22177 9.52381 5.63978 9.75181 5.1658 9.9318L5.0458 9.40981C5.45979 9.28382 6.07177 9.06182 6.68976 8.83983ZM8.56171 7.35786H8.07572C8.07572 7.62786 8.06373 7.89185 8.04573 8.14984H8.71771V8.64783H7.97973C7.87173 9.25982 7.64374 9.8178 7.16975 10.2738C7.08575 10.1658 6.88175 10.0038 6.75576 9.9318C7.14575 9.56581 7.36174 9.12782 7.46974 8.64783H6.82776V8.14984H7.54774C7.57174 7.89785 7.58374 7.62786 7.58374 7.35786H7.01975V6.86588H7.58374V6.10389H6.94775V5.60591H7.58374V4.80193H8.07572V5.60591H8.66371V6.10389H8.07572V6.86588H8.56171V7.35786ZM10.1637 5.10792L10.5237 5.29991C10.3677 5.8219 10.1757 6.43389 9.95368 7.06387C10.3677 7.64586 10.5417 8.06585 10.5417 8.44984C10.5417 8.82783 10.4517 9.14582 10.2597 9.29582C10.1817 9.36182 10.0617 9.39781 9.93568 9.42181C9.80968 9.43381 9.64169 9.43381 9.47969 9.42181C9.47369 9.29582 9.43769 9.08582 9.35369 8.94783C9.49169 8.96582 9.64769 8.96582 9.73768 8.95983C9.81568 8.95983 9.88168 8.94183 9.92968 8.91183C10.0257 8.83983 10.0617 8.64183 10.0617 8.43184C10.0617 8.08385 9.89968 7.71786 9.49169 7.13587C9.65969 6.58388 9.79768 6.0559 9.91168 5.59391H9.34769V10.2738H8.86771V5.13192H10.0857L10.1637 5.10792Z" fill="white"/>
<path id="Vector 56" d="M10.2002 3.59982H12.0002V0L10.2002 3.59982Z" fill="#BFBFBF"/>
<path id="Vector 58" d="M3.6 10.1992L3.6 11.9991L7.86805e-08 11.9991L3.6 10.1992Z" fill="#BFBFBF"/>
</g>
</svg>
