<svg fill="none" xmlns="http://www.w3.org/2000/svg" viewBox="0 0 48 16" class="design-iconfont">
  <path d="M8 0H46C47.1046 0 48 0.895431 48 2V14C48 15.1046 47.1046 16 46 16H8V0Z" fill="#FFF0EB"/>
  <rect width="16" height="16" rx="8" fill="#ED744A"/>
  <path d="M4.85 9.03L6.14 8.76C6.14 8.99 6.17 9.34 6.2 9.51C4.24 9.97 3.92 10.08 3.72 10.21C3.68 10.04 3.54 9.64 3.45 9.42C3.65 9.37 3.85 9.12 4.1 8.76C4.24 8.58 4.51 8.14 4.82 7.59C4 7.7 3.79 7.75 3.65 7.81C3.6 7.64 3.47 7.22 3.36 6.98C3.53 6.93 3.68 6.71 3.85 6.38C4.01 6.05 4.54 4.78 4.79 3.62L5.68 3.92C5.37 4.93 4.92 6 4.45 6.85L5.25 6.78C5.42 6.45 5.56 6.09 5.7 5.75L6.45 6.17C6.01 7.16 5.44 8.18 4.85 9.03ZM6.15 10.4L6.31 11.16C5.37 11.54 4.4 11.92 3.61 12.22L3.41 11.35C4.1 11.14 5.12 10.77 6.15 10.4ZM9.27 7.93H8.46C8.46 8.38 8.44 8.82 8.41 9.25H9.53V10.08H8.3C8.12 11.1 7.74 12.03 6.95 12.79C6.81 12.61 6.47 12.34 6.26 12.22C6.91 11.61 7.27 10.88 7.45 10.08H6.38V9.25H7.58C7.62 8.83 7.64 8.38 7.64 7.93H6.7V7.11H7.64V5.84H6.58V5.01H7.64V3.67H8.46V5.01H9.44V5.84H8.46V7.11H9.27V7.93ZM11.94 4.18L12.54 4.5C12.28 5.37 11.96 6.39 11.59 7.44C12.28 8.41 12.57 9.11 12.57 9.75C12.57 10.38 12.42 10.91 12.1 11.16C11.97 11.27 11.77 11.33 11.56 11.37C11.35 11.39 11.07 11.39 10.8 11.37C10.79 11.16 10.73 10.81 10.59 10.58C10.82 10.61 11.08 10.61 11.23 10.6C11.36 10.6 11.47 10.57 11.55 10.52C11.71 10.4 11.77 10.07 11.77 9.72C11.77 9.14 11.5 8.53 10.82 7.56C11.1 6.64 11.33 5.76 11.52 4.99H10.58V12.79H9.78V4.22H11.81L11.94 4.18Z" fill="#fff"/>
  <path d="M20.96 3.096H23.084V2.184H23.924V3.096H28.064V2.184H28.904V3.096H31.028V3.828H28.904V7.8H31.208V8.568H28.712C29.288 9.288 30.188 9.852 31.388 10.26L31.04 11.004C29.552 10.38 28.496 9.564 27.872 8.568H24.104C23.48 9.564 22.472 10.392 21.08 11.04L20.636 10.308C21.824 9.852 22.7 9.276 23.276 8.568H20.78V7.8H23.084V3.828H20.96V3.096ZM23.924 7.8H28.064V6.936H23.924V7.8ZM23.924 6.252H28.064V5.4H23.924V6.252ZM23.924 4.716H28.064V3.828H23.924V4.716ZM25.58 8.988H26.42V9.948H28.856V10.716H26.42V11.988H30.536V12.792H21.38V11.988H25.58V10.716H23.12V9.948H25.58V8.988ZM34.136 3.696H32.72V2.856H36.764V3.696H34.94C34.784 4.656 34.556 5.568 34.244 6.408H36.476V12.816H35.744V12.06H34.472V12.924H33.716V7.656C33.464 8.16 33.188 8.64 32.876 9.096L32.42 8.352C33.284 6.984 33.848 5.436 34.136 3.696ZM34.472 11.316H35.744V7.176H34.472V11.316ZM42.044 6.348V3.216H42.848V7.14H40.592V11.64H42.296V8.196H43.088V13.224H42.296V12.42H38.12V13.224H37.328V8.196H38.12V11.64H39.788V7.14H37.556V3.216H38.36V6.348H39.788V2.244H40.592V6.348H42.044Z" fill="#ED744A"/>
</svg>
