<svg width="20" height="20" viewBox="0 0 20 20" fill="none" xmlns="http://www.w3.org/2000/svg">
<g id="Group 346525811">
<path id="Rectangle 3469479" d="M6 10C6 7.79086 7.79086 6 10 6H20V18C20 19.1046 19.1046 20 18 20H6V10Z" fill="#ED744A"/>
<path id="&#231;&#187;&#145;" d="M9.85 14.03L11.14 13.76C11.14 13.99 11.17 14.34 11.2 14.51C9.24 14.97 8.92 15.08 8.72 15.21C8.68 15.04 8.54 14.64 8.45 14.42C8.65 14.37 8.85 14.12 9.1 13.76C9.24 13.58 9.51 13.14 9.82 12.59C9 12.7 8.79 12.75 8.65 12.81C8.6 12.64 8.47 12.22 8.36 11.98C8.53 11.93 8.68 11.71 8.85 11.38C9.01 11.05 9.54 9.78 9.79 8.62L10.68 8.92C10.37 9.93 9.92 11 9.45 11.85L10.25 11.78C10.42 11.45 10.56 11.09 10.7 10.75L11.45 11.17C11.01 12.16 10.44 13.18 9.85 14.03ZM11.15 15.4L11.31 16.16C10.37 16.54 9.4 16.92 8.61 17.22L8.41 16.35C9.1 16.14 10.12 15.77 11.15 15.4ZM14.27 12.93H13.46C13.46 13.38 13.44 13.82 13.41 14.25H14.53V15.08H13.3C13.12 16.1 12.74 17.03 11.95 17.79C11.81 17.61 11.47 17.34 11.26 17.22C11.91 16.61 12.27 15.88 12.45 15.08H11.38V14.25H12.58C12.62 13.83 12.64 13.38 12.64 12.93H11.7V12.11H12.64V10.84H11.58V10.01H12.64V8.67H13.46V10.01H14.44V10.84H13.46V12.11H14.27V12.93ZM16.94 9.18L17.54 9.5C17.28 10.37 16.96 11.39 16.59 12.44C17.28 13.41 17.57 14.11 17.57 14.75C17.57 15.38 17.42 15.91 17.1 16.16C16.97 16.27 16.77 16.33 16.56 16.37C16.35 16.39 16.07 16.39 15.8 16.37C15.79 16.16 15.73 15.81 15.59 15.58C15.82 15.61 16.08 15.61 16.23 15.6C16.36 15.6 16.47 15.57 16.55 15.52C16.71 15.4 16.77 15.07 16.77 14.72C16.77 14.14 16.5 13.53 15.82 12.56C16.1 11.64 16.33 10.76 16.52 9.99H15.58V17.79H14.78V9.22H16.81L16.94 9.18Z" fill="white"/>
<path id="Vector 56" d="M17 6H20V0L17 6Z" fill="#ED744A"/>
<path id="Vector 58" d="M6 17L6 20L1.31134e-07 20L6 17Z" fill="#ED744A"/>
</g>
</svg>
