<svg fill="none" xmlns="http://www.w3.org/2000/svg" viewBox="0 0 80 80" class="design-iconfont">
  <path d="M16.4116 48.4082C21.715 55.6866 30.305 60.4168 40 60.4168C49.695 60.4168 58.285 55.6866 63.5884 48.4082C68.862 53.8656 72.0833 61.1571 72.0833 69.1668H7.91666C7.91666 61.1571 11.138 53.8656 16.4116 48.4082Z" fill="#2475FC" stroke="#2475FC" stroke-width="5.83333" stroke-linejoin="round"/>
  <path d="M39.9998 48.7526C50.4702 48.7526 58.9582 40.2647 58.9582 29.7943C58.9582 19.3239 50.4702 10.8359 39.9998 10.8359C29.5294 10.8359 21.0415 19.3239 21.0415 29.7943C21.0415 40.2647 29.5294 48.7526 39.9998 48.7526Z" fill="#2475FC" stroke="#2475FC" stroke-width="5.83333" stroke-linejoin="round"/>
  <path d="M40 37.0833C44.0271 37.0833 47.2917 33.8187 47.2917 29.7917C47.2917 25.7646 44.0271 22.5 40 22.5C35.973 22.5 32.7083 25.7646 32.7083 29.7917C32.7083 33.8187 35.973 37.0833 40 37.0833Z" fill="#fff" stroke="#fff" stroke-width="5.83333" stroke-linejoin="round"/>
</svg>
