<svg width="640" height="420" viewBox="0 0 640 420" fill="none" xmlns="http://www.w3.org/2000/svg">
<g filter="url(#filter0_d_2233_55728)">
<rect x="32" y="32" width="485" height="264" rx="12" fill="white"/>
</g>
<rect x="174.5" y="216.5" width="199" height="51" rx="11.5" fill="#E6EFFF"/>
<rect x="174.5" y="216.5" width="199" height="51" rx="11.5" stroke="#2475FC"/>
<path d="M238.52 238.16H240.54V240.88H242.56V242.76H240.54V244.84C241.4 244.68 242.22 244.5 243 244.3V246.26C242.2 246.46 241.38 246.66 240.54 246.84V251.06H238.52V247.24C237.4 247.44 236.22 247.6 235 247.76L234.72 245.72C236.06 245.56 237.32 245.4 238.52 245.2V242.76H235.4L234.96 240.92C235.48 239.88 235.96 238.56 236.4 236.98H234.7V234.98H236.9C237.06 234.22 237.24 233.42 237.4 232.58L239.38 232.88C239.22 233.6 239.08 234.3 238.92 234.98H242.46V236.98H238.4C237.98 238.44 237.54 239.74 237.08 240.88H238.52V238.16ZM243.18 234.98H246.16L246.58 232.58L248.64 232.78C248.5 233.54 248.38 234.26 248.26 234.98H252.8V236.98H247.86C247.72 237.58 247.58 238.14 247.46 238.68H253.32V240.66H246.96C246.76 241.36 246.56 242.02 246.36 242.64H252.52V244.36C251.92 245.58 250.98 246.82 249.7 248.08C250.38 248.5 251.04 248.94 251.66 249.4L250.48 251.2C248.44 249.62 246.36 248.36 244.2 247.44L245.32 245.78C246.24 246.18 247.14 246.62 248.02 247.1C249 246.22 249.78 245.36 250.38 244.48H243.76C244.16 243.26 244.52 241.98 244.88 240.66H242.62V238.68H245.38C245.5 238.12 245.64 237.54 245.76 236.98H243.18V234.98ZM257.96 233.02C259.12 234.18 260 235.22 260.64 236.12L259 237.24C258.34 236.32 257.46 235.28 256.38 234.16L257.96 233.02ZM265.2 241.42C266.56 242.92 267.6 244.22 268.34 245.34L266.5 246.62C265.76 245.38 264.76 244 263.52 242.48L265.2 241.42ZM261.9 232.56H263.96V235.58C263.94 236.18 263.92 236.76 263.88 237.32H272.02C272.02 243.2 271.76 246.96 271.24 248.56C270.7 250.16 269.74 250.98 268.38 250.98C267.34 250.98 266.46 250.94 265.74 250.86L265.18 248.84C266.3 248.96 267.34 249.04 268.28 249.04C269.1 248.96 269.58 247.92 269.7 245.92C269.82 243.92 269.88 241.72 269.88 239.36H263.68C263.34 241.86 262.76 243.96 261.92 245.64C260.74 247.96 258.8 249.76 256.1 251.02L254.92 249.16C257.6 247.8 259.4 246.1 260.34 244.06C260.9 242.72 261.32 241.16 261.58 239.36H255.6V237.32H261.8C261.84 236.74 261.88 236.16 261.9 235.58V232.56ZM284.98 232.6C284.98 234.36 284.92 235.86 284.84 237.1C286 242.36 288.86 246.38 293.4 249.16L292 251C288.26 248.48 285.62 245.12 284.08 240.9C282.76 244.98 280.02 248.36 275.86 251.04L274.58 249.16C279.94 245.96 282.68 241.48 282.84 235.74C282.84 234.4 282.86 233.36 282.86 232.6H284.98ZM302.96 235.92H296.32V233.92H311.74V235.92H305.08V247.88H312.96V249.9H295.06V247.88H302.96V235.92Z" fill="#2475FC"/>
<g clip-path="url(#clip0_2233_55728)">
<rect x="56" y="56" width="48" height="48" rx="12" fill="#E6EFFF"/>
<path fill-rule="evenodd" clip-rule="evenodd" d="M87.871 81.2437C87.871 81.2437 91.3402 79.3861 92.2202 81.0613C93.1002 82.7361 90.9586 88.3517 87.871 87.1757V81.2437Z" fill="url(#paint0_linear_2233_55728)"/>
<path fill-rule="evenodd" clip-rule="evenodd" d="M72.2102 87.1756C69.1226 88.3516 66.9814 82.7364 67.861 81.0612C68.741 79.3864 72.2102 81.2436 72.2102 81.2436V87.1756Z" fill="url(#paint1_linear_2233_55728)"/>
<path fill-rule="evenodd" clip-rule="evenodd" d="M83.8921 92.8926L80.0421 92.9478L76.1921 92.8926C76.1921 92.8926 76.2921 95.2258 75.8625 96.8914C75.6421 97.7462 76.4533 98.4854 77.3357 98.4854H79.9353H80.1489H83.1261C84.0709 98.4854 84.6457 97.6318 84.4177 96.715C84.0061 95.0634 83.8921 92.8926 83.8921 92.8926Z" fill="url(#paint2_linear_2233_55728)"/>
<g filter="url(#filter1_i_2233_55728)">
<path fill-rule="evenodd" clip-rule="evenodd" d="M84.1331 93.9277C85.6155 94.9077 86.4215 95.3981 86.4215 95.3981C86.5486 95.4738 86.6255 95.5898 86.6544 95.7149C87.9765 96.448 89.3852 97.1553 90.1664 97.5118C94.6544 99.739 97.1588 107.885 97.1588 107.885H62.84C64.8016 100.296 67.6448 98.1158 70.526 97.3522C71.0335 97.2178 72.2419 96.4691 73.5081 95.6845C74.0565 95.3448 74.6158 94.9983 75.1337 94.692C75.5594 94.3542 75.9035 94.0626 76.0472 93.9277C76.0576 94.0361 76.0707 94.1468 76.0864 94.2598C76.3185 94.4056 76.5611 94.7612 76.8463 95.1792C77.4842 96.1141 78.3352 97.3615 79.7584 97.273C81.1087 97.1889 81.9997 96.1582 82.7199 95.3252C83.2605 94.6999 83.7049 94.1859 84.175 94.2671C84.1748 94.1352 84.1613 94.0213 84.1331 93.9277Z" fill="#659EFC"/>
</g>
<path fill-rule="evenodd" clip-rule="evenodd" d="M76.2375 95.6875L79.7103 104.531H80.7508L83.9451 95.7775L76.2375 95.6875Z" fill="white"/>
<path fill-rule="evenodd" clip-rule="evenodd" d="M76.1967 94.0387C75.8583 93.9963 76.2027 93.7188 76.2027 93.7188L76.1967 94.0387Z" fill="url(#paint3_linear_2233_55728)"/>
<path fill-rule="evenodd" clip-rule="evenodd" d="M83.9456 93.6602C83.9456 93.6602 84.3604 94.0518 83.9832 94.0322L83.9456 93.6602Z" fill="url(#paint4_linear_2233_55728)"/>
<path fill-rule="evenodd" clip-rule="evenodd" d="M89.596 83.3668C89.596 84.3508 89.3884 85.5564 89.1688 86.558C88.898 87.7916 88.3312 88.9408 87.516 89.906L86.8152 90.7356C85.804 91.9328 84.4544 92.796 82.9436 93.212L80.8544 93.7872C80.294 93.9416 79.702 93.9408 79.142 93.7856L76.9908 93.1892C75.5404 92.7872 74.234 91.9808 73.2236 90.8648L72.5436 90.1132C71.8592 89.3572 71.3628 88.5312 71.0912 87.5484C70.7672 86.3752 70.4 84.6772 70.4 83.3668C70.4 74.88 70.804 68 79.9984 68C88.1944 68 89.596 74.88 89.596 83.3668Z" fill="url(#paint5_linear_2233_55728)"/>
<path fill-rule="evenodd" clip-rule="evenodd" d="M79.1904 97.0176L77.8408 103.282L79.9988 104.43L82.532 103.003L81.1328 97.0448L79.1904 97.0176Z" fill="#E5EFFF"/>
<path fill-rule="evenodd" clip-rule="evenodd" d="M79.1808 97.0703L79.1512 97.2071C79.1464 97.2291 79.1628 97.2495 79.1852 97.2499L81.1212 97.2811C81.1552 97.2815 81.1804 97.2499 81.1724 97.2171L81.1436 97.0983L79.1808 97.0703Z" fill="#C8D4EE"/>
<path fill-rule="evenodd" clip-rule="evenodd" d="M76.4485 95.9453C76.4485 95.9453 78.2213 97.2453 78.5681 97.2585C78.9149 97.2721 79.0313 96.7089 79.0313 96.7089L78.8593 96.2797L76.4485 95.9453Z" fill="#C8D4EE"/>
<path fill-rule="evenodd" clip-rule="evenodd" d="M83.9121 95.9453C83.9121 95.9453 82.1393 97.2453 81.7925 97.2585C81.4457 97.2721 81.3293 96.7089 81.3293 96.7089L81.5013 96.2797L83.9121 95.9453Z" fill="#C8D4EE"/>
<path fill-rule="evenodd" clip-rule="evenodd" d="M79.1855 95.001C79.1855 95.001 80.8087 95.101 81.1519 94.9922L81.4391 96.1574L81.1547 97.0734C81.1415 97.1154 81.1027 97.1434 81.0587 97.143L79.2567 97.117C79.2163 97.1166 79.1807 97.0914 79.1659 97.0538L78.8391 96.2142L79.1855 95.001Z" fill="#E5EFFF"/>
<path fill-rule="evenodd" clip-rule="evenodd" d="M76.0467 93.9609C76.0467 93.9609 75.5115 95.0393 75.6219 95.3537C75.7323 95.6685 78.3691 96.9873 78.6591 96.9149C78.8891 96.8573 79.0595 95.8721 79.2015 95.0293C79.2107 94.9745 79.1727 94.9237 79.1175 94.9157C77.4883 94.6889 76.0467 93.9609 76.0467 93.9609Z" fill="white"/>
<path fill-rule="evenodd" clip-rule="evenodd" d="M84.1337 93.9612C84.2065 93.9412 84.8153 95.1076 84.7277 95.3568C84.6173 95.6716 81.9805 96.9904 81.6905 96.918C81.4601 96.8604 81.2069 96.4236 81.1449 95.062C81.1409 94.974 81.2085 94.9 81.2961 94.8944C82.6589 94.806 84.1337 93.9612 84.1337 93.9612Z" fill="white"/>
<g opacity="0.7">
<mask id="mask0_2233_55728" style="mask-type:alpha" maskUnits="userSpaceOnUse" x="70" y="68" width="20" height="26">
<path fill-rule="evenodd" clip-rule="evenodd" d="M89.596 83.3668C89.596 84.3508 89.3884 85.5564 89.1688 86.558C88.898 87.7916 88.3312 88.9408 87.516 89.906L86.8152 90.7356C85.804 91.9328 84.4544 92.796 82.9436 93.212L80.8544 93.7872C80.294 93.9416 79.702 93.9408 79.142 93.7856L76.9908 93.1892C75.5404 92.7872 74.234 91.9808 73.2236 90.8648L72.5436 90.1132C71.8592 89.3572 71.3628 88.5312 71.0912 87.5484C70.7672 86.3752 70.4 84.6772 70.4 83.3668C70.4 74.88 70.804 68 79.9984 68C88.1944 68 89.596 74.88 89.596 83.3668Z" fill="url(#paint6_linear_2233_55728)"/>
</mask>
<g mask="url(#mask0_2233_55728)">
<g filter="url(#filter2_f_2233_55728)">
<circle cx="96.5814" cy="90.2197" r="12" fill="white"/>
</g>
<g filter="url(#filter3_f_2233_55728)">
<circle cx="63.5927" cy="90.2197" r="12" fill="white"/>
</g>
</g>
</g>
<g filter="url(#filter4_ii_2233_55728)">
<path fill-rule="evenodd" clip-rule="evenodd" d="M85.7315 66.9337C85.2054 66.8383 84.8577 66.8281 84.8577 66.8281C81.7921 63.7003 79.4158 64.2561 76.6485 64.9032C76.39 64.9637 76.128 65.0249 75.8617 65.0841C70.8337 66.2081 67.2497 69.3681 67.2577 74.8481C67.2617 77.4761 68.1777 79.2001 69.7297 79.1241C69.9152 79.1154 70.0948 79.1076 70.2698 79.1C72.5177 79.0025 74.0002 78.9382 77.2697 77.4761C78.9977 76.7041 79.6137 72.2161 79.6137 72.2161C81.1017 75.2281 87.0217 78.8721 89.5417 79.3041C89.5543 79.3062 89.5679 79.5894 89.5809 79.8597C89.5928 80.1063 89.6042 80.3422 89.6137 80.3441C89.6367 80.3482 89.6335 80.347 89.6309 80.3459C89.6285 80.345 89.6266 80.3442 89.6457 80.3481C90.2577 80.4441 90.9897 80.0161 90.9897 80.0161C90.9897 80.0161 91.6497 73.4361 90.2897 70.1921C89.8201 69.0718 89.027 68.3241 88.1899 67.8253C88.342 67.5393 88.8002 66.9262 89.9171 66.9818C89.9171 66.9818 88.8039 65.8202 87.1823 66.8366C87.1827 66.837 86.6155 64.925 84.0795 64.7314C84.0795 64.7314 85.1366 65.6162 85.7315 66.9337Z" fill="#364A6A"/>
</g>
</g>
<path opacity="0.3" d="M556.277 132.863C555.21 133.149 554.577 134.246 554.863 135.313L559.522 152.699C559.808 153.766 560.904 154.399 561.971 154.113C563.038 153.828 563.671 152.731 563.386 151.664L559.244 136.209L574.699 132.068C575.766 131.782 576.399 130.686 576.113 129.619C575.828 128.552 574.731 127.918 573.664 128.204L556.277 132.863ZM597.522 292.254C596.97 293.21 597.297 294.434 598.254 294.986C599.21 295.538 600.434 295.21 600.986 294.254L597.522 292.254ZM603.76 289.169C604.266 288.187 603.879 286.981 602.897 286.476C601.915 285.97 600.709 286.357 600.204 287.339L603.76 289.169ZM604.834 277.15C604.426 278.177 604.929 279.34 605.956 279.747C606.982 280.154 608.145 279.652 608.552 278.625L604.834 277.15ZM612.286 267.661C612.59 266.599 611.976 265.492 610.914 265.188C609.852 264.884 608.745 265.498 608.441 266.56L612.286 267.661ZM610.985 255.666C610.787 256.753 611.508 257.794 612.594 257.992C613.681 258.189 614.722 257.469 614.92 256.382L610.985 255.666ZM616.427 244.898C616.517 243.797 615.697 242.832 614.596 242.743C613.495 242.653 612.53 243.473 612.441 244.574L616.427 244.898ZM612.797 233.392C612.816 234.496 613.727 235.376 614.832 235.357C615.936 235.338 616.816 234.427 616.797 233.323L612.797 233.392ZM616.029 221.767C615.902 220.67 614.909 219.884 613.812 220.011C612.715 220.138 611.928 221.13 612.056 222.228L616.029 221.767ZM610.227 211.188C610.46 212.268 611.525 212.954 612.604 212.72C613.684 212.487 614.37 211.422 614.136 210.343L610.227 211.188ZM611.139 199.157C610.802 198.105 609.675 197.526 608.624 197.864C607.572 198.201 606.993 199.328 607.33 200.379L611.139 199.157ZM603.395 189.905C603.833 190.919 605.011 191.385 606.024 190.946C607.038 190.508 607.504 189.33 607.066 188.317L603.395 189.905ZM601.953 177.926C601.417 176.96 600.2 176.611 599.234 177.146C598.268 177.682 597.919 178.899 598.455 179.865L601.953 177.926ZM592.555 170.36C593.183 171.268 594.429 171.496 595.337 170.868C596.246 170.24 596.474 168.994 595.846 168.085L592.555 170.36ZM588.798 158.894C588.084 158.052 586.822 157.948 585.979 158.663C585.137 159.377 585.034 160.639 585.748 161.482L588.798 158.894ZM578.098 153.319C578.892 154.087 580.158 154.065 580.926 153.271C581.694 152.477 581.672 151.211 580.878 150.443L578.098 153.319ZM572.162 142.815C571.296 142.129 570.038 142.276 569.352 143.142C568.667 144.008 568.813 145.266 569.679 145.951L572.162 142.815ZM560.575 139.443C561.504 140.041 562.742 139.772 563.339 138.843C563.937 137.915 563.669 136.677 562.74 136.079L560.575 139.443ZM600.986 294.254C601.957 292.573 602.881 290.877 603.76 289.169L600.204 287.339C599.354 288.99 598.46 290.628 597.522 292.254L600.986 294.254ZM608.552 278.625C609.987 275.007 611.23 271.348 612.286 267.661L608.441 266.56C607.421 270.121 606.22 273.655 604.834 277.15L608.552 278.625ZM614.92 256.382C615.615 252.565 616.116 248.732 616.427 244.898L612.441 244.574C612.139 248.277 611.655 251.979 610.985 255.666L614.92 256.382ZM616.797 233.323C616.73 229.453 616.473 225.597 616.029 221.767L612.056 222.228C612.484 225.928 612.733 229.654 612.797 233.392L616.797 233.323ZM614.136 210.343C613.32 206.568 612.319 202.834 611.139 199.157L607.33 200.379C608.471 203.933 609.438 207.541 610.227 211.188L614.136 210.343ZM607.066 188.317C605.535 184.778 603.83 181.31 601.953 177.926L598.455 179.865C600.268 183.135 601.916 186.486 603.395 189.905L607.066 188.317ZM595.846 168.085C593.659 164.921 591.308 161.853 588.798 158.894L585.748 161.482C588.172 164.339 590.442 167.303 592.555 170.36L595.846 168.085ZM580.878 150.443C578.12 147.778 575.214 145.231 572.162 142.815L569.679 145.951C572.627 148.285 575.434 150.745 578.098 153.319L580.878 150.443ZM562.74 136.079C561.125 135.04 559.476 134.034 557.795 133.063L555.795 136.527C557.42 137.465 559.014 138.438 560.575 139.443L562.74 136.079ZM556.277 132.863C555.21 133.149 554.577 134.246 554.863 135.313L559.522 152.699C559.808 153.766 560.904 154.399 561.971 154.113C563.038 153.828 563.671 152.731 563.386 151.664L559.244 136.209L574.699 132.068C575.766 131.782 576.399 130.686 576.113 129.619C575.828 128.552 574.731 127.918 573.664 128.204L556.277 132.863ZM597.522 292.254C596.97 293.21 597.297 294.434 598.254 294.986C599.21 295.538 600.434 295.21 600.986 294.254L597.522 292.254ZM603.76 289.169C604.266 288.187 603.879 286.981 602.897 286.476C601.915 285.97 600.709 286.357 600.204 287.339L603.76 289.169ZM604.834 277.15C604.426 278.177 604.929 279.34 605.956 279.747C606.982 280.154 608.145 279.652 608.552 278.625L604.834 277.15ZM612.286 267.661C612.59 266.599 611.976 265.492 610.914 265.188C609.852 264.884 608.745 265.498 608.441 266.56L612.286 267.661ZM610.985 255.666C610.787 256.753 611.508 257.794 612.594 257.992C613.681 258.189 614.722 257.469 614.92 256.382L610.985 255.666ZM616.427 244.898C616.517 243.797 615.697 242.832 614.596 242.743C613.495 242.653 612.53 243.473 612.441 244.574L616.427 244.898ZM612.797 233.392C612.816 234.496 613.727 235.376 614.832 235.357C615.936 235.338 616.816 234.427 616.797 233.323L612.797 233.392ZM616.029 221.767C615.902 220.67 614.909 219.884 613.812 220.011C612.715 220.138 611.928 221.13 612.056 222.228L616.029 221.767ZM610.227 211.188C610.46 212.268 611.525 212.954 612.604 212.72C613.684 212.487 614.37 211.422 614.136 210.343L610.227 211.188ZM611.139 199.157C610.802 198.105 609.675 197.526 608.624 197.864C607.572 198.201 606.993 199.328 607.33 200.379L611.139 199.157ZM603.395 189.905C603.833 190.919 605.011 191.385 606.024 190.946C607.038 190.508 607.504 189.33 607.066 188.317L603.395 189.905ZM601.953 177.926C601.417 176.96 600.2 176.611 599.234 177.146C598.268 177.682 597.919 178.899 598.455 179.865L601.953 177.926ZM592.555 170.36C593.183 171.268 594.429 171.496 595.337 170.868C596.246 170.24 596.474 168.994 595.846 168.085L592.555 170.36ZM588.798 158.894C588.084 158.052 586.822 157.948 585.979 158.663C585.137 159.377 585.034 160.639 585.748 161.482L588.798 158.894ZM578.098 153.319C578.892 154.087 580.158 154.065 580.926 153.271C581.694 152.477 581.672 151.211 580.878 150.443L578.098 153.319ZM572.162 142.815C571.296 142.129 570.038 142.276 569.352 143.142C568.667 144.008 568.813 145.266 569.679 145.951L572.162 142.815ZM560.575 139.443C561.504 140.041 562.742 139.772 563.339 138.843C563.937 137.915 563.669 136.677 562.74 136.079L560.575 139.443ZM600.986 294.254C601.957 292.573 602.881 290.877 603.76 289.169L600.204 287.339C599.354 288.99 598.46 290.628 597.522 292.254L600.986 294.254ZM608.552 278.625C609.987 275.007 611.23 271.348 612.286 267.661L608.441 266.56C607.421 270.121 606.22 273.655 604.834 277.15L608.552 278.625ZM614.92 256.382C615.615 252.565 616.116 248.732 616.427 244.898L612.441 244.574C612.139 248.277 611.655 251.979 610.985 255.666L614.92 256.382ZM616.797 233.323C616.73 229.453 616.473 225.597 616.029 221.767L612.056 222.228C612.484 225.928 612.733 229.654 612.797 233.392L616.797 233.323ZM614.136 210.343C613.32 206.568 612.319 202.834 611.139 199.157L607.33 200.379C608.471 203.933 609.438 207.541 610.227 211.188L614.136 210.343ZM607.066 188.317C605.535 184.778 603.83 181.31 601.953 177.926L598.455 179.865C600.268 183.135 601.916 186.486 603.395 189.905L607.066 188.317ZM595.846 168.085C593.659 164.921 591.308 161.853 588.798 158.894L585.748 161.482C588.172 164.339 590.442 167.303 592.555 170.36L595.846 168.085ZM580.878 150.443C578.12 147.778 575.214 145.231 572.162 142.815L569.679 145.951C572.627 148.285 575.434 150.745 578.098 153.319L580.878 150.443ZM562.74 136.079C561.125 135.04 559.476 134.034 557.795 133.063L555.795 136.527C557.42 137.465 559.014 138.438 560.575 139.443L562.74 136.079Z" fill="#3A4559"/>
<path opacity="0.3" d="M348.863 331.277C349.149 330.21 350.246 329.577 351.313 329.863L368.699 334.522C369.766 334.808 370.399 335.904 370.113 336.971C369.828 338.038 368.731 338.671 367.664 338.386L352.209 334.244L348.068 349.699C347.782 350.766 346.686 351.399 345.619 351.113C344.552 350.828 343.918 349.731 344.204 348.664L348.863 331.277ZM508.254 372.522C509.21 371.97 510.434 372.297 510.986 373.254C511.538 374.21 511.21 375.434 510.254 375.986L508.254 372.522ZM505.169 378.76C504.187 379.266 502.981 378.879 502.476 377.897C501.97 376.915 502.357 375.709 503.339 375.204L505.169 378.76ZM493.15 379.834C494.177 379.426 495.34 379.929 495.747 380.956C496.154 381.982 495.652 383.145 494.625 383.552L493.15 379.834ZM483.661 387.286C482.599 387.59 481.492 386.976 481.188 385.914C480.884 384.852 481.498 383.745 482.56 383.441L483.661 387.286ZM471.666 385.985C472.753 385.787 473.794 386.508 473.992 387.594C474.189 388.681 473.469 389.722 472.382 389.92L471.666 385.985ZM460.898 391.427C459.797 391.517 458.832 390.697 458.743 389.596C458.653 388.495 459.473 387.53 460.574 387.441L460.898 391.427ZM449.392 387.797C450.496 387.816 451.376 388.727 451.357 389.832C451.338 390.936 450.427 391.816 449.323 391.797L449.392 387.797ZM437.767 391.029C436.67 390.902 435.884 389.909 436.011 388.812C436.138 387.715 437.13 386.928 438.228 387.056L437.767 391.029ZM427.188 385.227C428.268 385.46 428.954 386.525 428.72 387.604C428.487 388.684 427.422 389.37 426.343 389.136L427.188 385.227ZM415.157 386.139C414.105 385.802 413.526 384.675 413.864 383.624C414.201 382.572 415.328 381.993 416.379 382.33L415.157 386.139ZM405.905 378.395C406.919 378.833 407.385 380.011 406.946 381.024C406.508 382.038 405.33 382.504 404.317 382.066L405.905 378.395ZM393.926 376.953C392.96 376.417 392.611 375.2 393.146 374.234C393.682 373.268 394.899 372.919 395.865 373.455L393.926 376.953ZM386.36 367.555C387.268 368.183 387.496 369.429 386.868 370.337C386.24 371.246 384.994 371.474 384.085 370.846L386.36 367.555ZM374.894 363.798C374.052 363.084 373.948 361.822 374.663 360.979C375.377 360.137 376.639 360.034 377.482 360.748L374.894 363.798ZM369.319 353.098C370.087 353.892 370.065 355.158 369.271 355.926C368.477 356.694 367.211 356.672 366.443 355.878L369.319 353.098ZM358.815 347.162C358.129 346.296 358.276 345.038 359.142 344.352C360.008 343.667 361.266 343.813 361.951 344.679L358.815 347.162ZM355.443 335.575C356.041 336.504 355.772 337.742 354.843 338.339C353.915 338.937 352.677 338.669 352.079 337.74L355.443 335.575ZM510.254 375.986C508.573 376.957 506.877 377.881 505.169 378.76L503.339 375.204C504.99 374.354 506.628 373.46 508.254 372.522L510.254 375.986ZM494.625 383.552C491.007 384.987 487.348 386.23 483.661 387.286L482.56 383.441C486.121 382.421 489.655 381.22 493.15 379.834L494.625 383.552ZM472.382 389.92C468.565 390.615 464.732 391.116 460.898 391.427L460.574 387.441C464.277 387.139 467.979 386.655 471.666 385.985L472.382 389.92ZM449.323 391.797C445.453 391.73 441.597 391.473 437.767 391.029L438.228 387.056C441.928 387.484 445.654 387.733 449.392 387.797L449.323 391.797ZM426.343 389.136C422.568 388.32 418.834 387.319 415.157 386.139L416.379 382.33C419.933 383.471 423.541 384.438 427.188 385.227L426.343 389.136ZM404.317 382.066C400.778 380.535 397.31 378.83 393.926 376.953L395.865 373.455C399.135 375.268 402.486 376.916 405.905 378.395L404.317 382.066ZM384.085 370.846C380.921 368.659 377.853 366.308 374.894 363.798L377.482 360.748C380.339 363.172 383.303 365.442 386.36 367.555L384.085 370.846ZM366.443 355.878C363.778 353.12 361.231 350.214 358.815 347.162L361.951 344.679C364.285 347.627 366.745 350.434 369.319 353.098L366.443 355.878ZM352.079 337.74C351.04 336.125 350.034 334.476 349.063 332.795L352.527 330.795C353.466 332.42 354.438 334.014 355.443 335.575L352.079 337.74ZM348.863 331.277C349.149 330.21 350.246 329.577 351.313 329.863L368.699 334.522C369.766 334.808 370.399 335.904 370.113 336.971C369.828 338.038 368.731 338.671 367.664 338.386L352.209 334.244L348.068 349.699C347.782 350.766 346.686 351.399 345.619 351.113C344.552 350.828 343.918 349.731 344.204 348.664L348.863 331.277ZM508.254 372.522C509.21 371.97 510.434 372.297 510.986 373.254C511.538 374.21 511.21 375.434 510.254 375.986L508.254 372.522ZM505.169 378.76C504.187 379.266 502.981 378.879 502.476 377.897C501.97 376.915 502.357 375.709 503.339 375.204L505.169 378.76ZM493.15 379.834C494.177 379.426 495.34 379.929 495.747 380.956C496.154 381.982 495.652 383.145 494.625 383.552L493.15 379.834ZM483.661 387.286C482.599 387.59 481.492 386.976 481.188 385.914C480.884 384.852 481.498 383.745 482.56 383.441L483.661 387.286ZM471.666 385.985C472.753 385.787 473.794 386.508 473.992 387.594C474.189 388.681 473.469 389.722 472.382 389.92L471.666 385.985ZM460.898 391.427C459.797 391.517 458.832 390.697 458.743 389.596C458.653 388.495 459.473 387.53 460.574 387.441L460.898 391.427ZM449.392 387.797C450.496 387.816 451.376 388.727 451.357 389.832C451.338 390.936 450.427 391.816 449.323 391.797L449.392 387.797ZM437.767 391.029C436.67 390.902 435.884 389.909 436.011 388.812C436.138 387.715 437.13 386.928 438.228 387.056L437.767 391.029ZM427.188 385.227C428.268 385.46 428.954 386.525 428.72 387.604C428.487 388.684 427.422 389.37 426.343 389.136L427.188 385.227ZM415.157 386.139C414.105 385.802 413.526 384.675 413.864 383.624C414.201 382.572 415.328 381.993 416.379 382.33L415.157 386.139ZM405.905 378.395C406.919 378.833 407.385 380.011 406.946 381.024C406.508 382.038 405.33 382.504 404.317 382.066L405.905 378.395ZM393.926 376.953C392.96 376.417 392.611 375.2 393.146 374.234C393.682 373.268 394.899 372.919 395.865 373.455L393.926 376.953ZM386.36 367.555C387.268 368.183 387.496 369.429 386.868 370.337C386.24 371.246 384.994 371.474 384.085 370.846L386.36 367.555ZM374.894 363.798C374.052 363.084 373.948 361.822 374.663 360.979C375.377 360.137 376.639 360.034 377.482 360.748L374.894 363.798ZM369.319 353.098C370.087 353.892 370.065 355.158 369.271 355.926C368.477 356.694 367.211 356.672 366.443 355.878L369.319 353.098ZM358.815 347.162C358.129 346.296 358.276 345.038 359.142 344.352C360.008 343.667 361.266 343.813 361.951 344.679L358.815 347.162ZM355.443 335.575C356.041 336.504 355.772 337.742 354.843 338.339C353.915 338.937 352.677 338.669 352.079 337.74L355.443 335.575ZM510.254 375.986C508.573 376.957 506.877 377.881 505.169 378.76L503.339 375.204C504.99 374.354 506.628 373.46 508.254 372.522L510.254 375.986ZM494.625 383.552C491.007 384.987 487.348 386.23 483.661 387.286L482.56 383.441C486.121 382.421 489.655 381.22 493.15 379.834L494.625 383.552ZM472.382 389.92C468.565 390.615 464.732 391.116 460.898 391.427L460.574 387.441C464.277 387.139 467.979 386.655 471.666 385.985L472.382 389.92ZM449.323 391.797C445.453 391.73 441.597 391.473 437.767 391.029L438.228 387.056C441.928 387.484 445.654 387.733 449.392 387.797L449.323 391.797ZM426.343 389.136C422.568 388.32 418.834 387.319 415.157 386.139L416.379 382.33C419.933 383.471 423.541 384.438 427.188 385.227L426.343 389.136ZM404.317 382.066C400.778 380.535 397.31 378.83 393.926 376.953L395.865 373.455C399.135 375.268 402.486 376.916 405.905 378.395L404.317 382.066ZM384.085 370.846C380.921 368.659 377.853 366.308 374.894 363.798L377.482 360.748C380.339 363.172 383.303 365.442 386.36 367.555L384.085 370.846ZM366.443 355.878C363.778 353.12 361.231 350.214 358.815 347.162L361.951 344.679C364.285 347.627 366.745 350.434 369.319 353.098L366.443 355.878ZM352.079 337.74C351.04 336.125 350.034 334.476 349.063 332.795L352.527 330.795C353.466 332.42 354.438 334.014 355.443 335.575L352.079 337.74Z" fill="#3A4559"/>
<rect x="523" y="300" width="77" height="77" rx="38.5" fill="#2475FC"/>
<path d="M563.088 357.5C562.382 358.722 560.618 358.722 559.912 357.5L556.737 352C556.031 350.778 556.913 349.25 558.325 349.25H564.675C566.087 349.25 566.969 350.778 566.263 352L563.088 357.5Z" fill="white"/>
<path d="M579.833 340.083C579.833 350.209 571.625 354.75 561.5 354.75C551.375 354.75 543.167 350.209 543.167 340.083C543.167 329.958 551.375 321.75 561.5 321.75C571.625 321.75 579.833 329.958 579.833 340.083Z" fill="white"/>
<path d="M576.167 336.509C576.167 341.274 569.6 343.75 561.5 343.75C553.4 343.75 546.833 341.274 546.833 336.509C546.833 331.745 553.4 325.417 561.5 325.417C569.6 325.417 576.167 331.745 576.167 336.509Z" fill="#2475FC"/>
<path d="M556 334.583L556 337.333" stroke="white" stroke-width="3.66667" stroke-linecap="round"/>
<path d="M567 334.583L567 337.333" stroke="white" stroke-width="3.66667" stroke-linecap="round"/>
<path d="M572.5 327.251L578 323.584" stroke="white" stroke-width="3.66667" stroke-linecap="round"/>
<circle cx="543" cy="323" r="3" fill="white"/>
<circle cx="543" cy="323" r="3" fill="white"/>
<circle cx="580" cy="323" r="3" fill="white"/>
<path d="M549.583 327.251L544.083 323.584" stroke="white" stroke-width="3.66667" stroke-linecap="round"/>
<path d="M437 142.2C437 138.224 440.224 135 444.2 135H477.8C481.776 135 485 138.224 485 142.2V175.8C485 179.776 481.776 183 477.8 183H444.2C440.224 183 437 179.776 437 175.8V142.2Z" fill="#E6EFFF"/>
<path d="M449.039 162.95C449.803 163.714 450.693 164.314 451.685 164.733C452.712 165.168 453.803 165.388 454.926 165.388H455.031C457.463 165.388 459.556 166.843 460.485 168.93C460.576 169.133 460.778 169.263 461 169.263C461.223 169.263 461.424 169.133 461.515 168.93C462.445 166.843 464.537 165.388 466.97 165.388H467.074C468.198 165.388 469.288 165.168 470.316 164.733C471.308 164.314 472.198 163.714 472.962 162.95C473.726 162.186 474.326 161.295 474.745 160.304C475.18 159.276 475.4 158.186 475.4 157.062C475.4 155.939 475.18 154.848 474.745 153.821C474.326 152.829 473.725 151.939 472.962 151.175C472.198 150.411 471.307 149.811 470.316 149.392C469.288 148.957 468.198 148.736 467.075 148.736H454.926C453.803 148.736 452.712 148.957 451.685 149.391C450.693 149.811 449.803 150.411 449.039 151.175C448.275 151.939 447.675 152.829 447.255 153.821C446.821 154.848 446.6 155.939 446.6 157.062C446.6 158.186 446.821 159.276 447.255 160.304C447.675 161.296 448.275 162.186 449.039 162.95H449.039ZM450.224 152.36C451.427 151.157 453.09 150.412 454.926 150.412H467.075C470.747 150.412 473.725 153.389 473.725 157.062C473.725 158.899 472.98 160.561 471.777 161.765C470.574 162.968 468.911 163.713 467.075 163.713H454.926C451.253 163.713 448.276 160.735 448.276 157.062C448.276 155.226 449.02 153.563 450.224 152.36Z" fill="#2475FC"/>
<path d="M469.55 157.171C469.582 155.818 468.511 154.695 467.158 154.663C465.805 154.631 464.682 155.702 464.65 157.055C464.618 158.408 465.689 159.531 467.042 159.563C468.395 159.595 469.518 158.524 469.55 157.171Z" fill="#2475FC"/>
<path d="M454.953 159.565C456.306 159.536 457.379 158.415 457.35 157.062C457.321 155.709 456.2 154.635 454.847 154.665C453.494 154.694 452.421 155.815 452.45 157.168C452.479 158.521 453.6 159.594 454.953 159.565Z" fill="#2475FC"/>
<path d="M112 60C112 57.7909 113.791 56 116 56H246C257.046 56 266 64.9543 266 76V84C266 95.0457 257.046 104 246 104H132C120.954 104 112 95.0457 112 84V60Z" fill="#EDEFF2"/>
<path d="M418 139C418 136.791 416.209 135 414 135H132C120.954 135 112 143.954 112 155V163C112 174.046 120.954 183 132 183H398C409.046 183 418 174.046 418 163V139Z" fill="#EDEFF2"/>
<g filter="url(#filter5_d_2233_55728)">
<mask id="path-43-outside-1_2233_55728" maskUnits="userSpaceOnUse" x="340" y="251" width="28" height="34" fill="black">
<rect fill="white" x="340" y="251" width="28" height="34"/>
<path fill-rule="evenodd" clip-rule="evenodd" d="M348.645 270.324L347.109 267.977C346.06 266.375 343.826 265.79 342.117 266.669L342.515 266.464C342.091 266.682 341.888 267.225 342.063 267.677L344.189 273.178C344.526 274.05 345.387 275.283 346.1 275.903C346.1 275.903 350.377 279.443 350.377 280.77V282.451H357.307L359.039 278.986L360.771 282.451H362.504V280.77C362.504 279.443 365.118 275.262 365.118 275.262C365.599 274.45 366 273.018 366 272.068V265.078C365.969 263.53 364.653 262.276 363.03 262.276C362.218 262.276 361.56 262.903 361.56 263.677V264.237C361.56 262.69 360.245 261.436 358.622 261.436C357.81 261.436 357.152 262.063 357.152 262.837V263.397C357.152 261.849 355.836 260.595 354.213 260.595C353.401 260.595 352.743 261.222 352.743 261.996V262.556C352.743 262.307 352.717 262.11 352.666 261.953L352.217 254.735C352.157 253.758 351.334 253 350.377 253C349.414 253 348.645 253.775 348.645 254.732V261.662V270.324ZM360.803 268.592H362.535V275.521H360.803V268.592ZM357.338 268.592H359.071V275.521H357.338V268.592ZM353.873 268.592H355.606V275.521H353.873V268.592Z"/>
</mask>
<path fill-rule="evenodd" clip-rule="evenodd" d="M348.645 270.324L347.109 267.977C346.06 266.375 343.826 265.79 342.117 266.669L342.515 266.464C342.091 266.682 341.888 267.225 342.063 267.677L344.189 273.178C344.526 274.05 345.387 275.283 346.1 275.903C346.1 275.903 350.377 279.443 350.377 280.77V282.451H357.307L359.039 278.986L360.771 282.451H362.504V280.77C362.504 279.443 365.118 275.262 365.118 275.262C365.599 274.45 366 273.018 366 272.068V265.078C365.969 263.53 364.653 262.276 363.03 262.276C362.218 262.276 361.56 262.903 361.56 263.677V264.237C361.56 262.69 360.245 261.436 358.622 261.436C357.81 261.436 357.152 262.063 357.152 262.837V263.397C357.152 261.849 355.836 260.595 354.213 260.595C353.401 260.595 352.743 261.222 352.743 261.996V262.556C352.743 262.307 352.717 262.11 352.666 261.953L352.217 254.735C352.157 253.758 351.334 253 350.377 253C349.414 253 348.645 253.775 348.645 254.732V261.662V270.324ZM360.803 268.592H362.535V275.521H360.803V268.592ZM357.338 268.592H359.071V275.521H357.338V268.592ZM353.873 268.592H355.606V275.521H353.873V268.592Z" fill="white"/>
<path d="M348.645 270.324L347.195 271.273L350.377 276.134V270.324H348.645ZM347.109 267.977L348.558 267.028L347.109 267.977ZM342.063 267.677L340.447 268.302V268.302L342.063 267.677ZM344.189 273.178L345.805 272.553L344.189 273.178ZM346.1 275.903L344.964 277.211L344.979 277.224L344.995 277.237L346.1 275.903ZM350.377 282.451H348.645V284.183H350.377V282.451ZM357.307 282.451V284.183H358.377L358.856 283.225L357.307 282.451ZM359.039 278.986L360.589 278.211L359.039 275.112L357.49 278.211L359.039 278.986ZM360.771 282.451L359.222 283.225L359.701 284.183H360.771V282.451ZM362.504 282.451V284.183H364.236V282.451H362.504ZM365.118 275.262L366.587 276.181L366.598 276.163L366.608 276.145L365.118 275.262ZM366 265.078H367.732V265.06L367.732 265.043L366 265.078ZM352.666 261.953L350.936 262.06L350.95 262.282L351.019 262.493L352.666 261.953ZM352.217 254.735L350.488 254.842V254.842L352.217 254.735ZM348.645 254.732H346.912H348.645ZM362.535 268.592H364.268V266.859H362.535V268.592ZM362.535 275.521V277.254H364.268V275.521H362.535ZM360.803 275.521H359.071V277.254H360.803V275.521ZM359.071 268.592H360.803V266.859H359.071V268.592ZM359.071 275.521V277.254H360.803V275.521H359.071ZM357.338 275.521H355.606V277.254H357.338V275.521ZM355.606 268.592H357.338V266.859H355.606L355.606 268.592ZM355.606 275.521V277.254H357.338V275.521H355.606ZM353.873 275.521H352.141V277.254H353.873V275.521ZM350.094 269.375L348.558 267.028L345.659 268.926L347.195 271.273L350.094 269.375ZM348.558 267.028C347.021 264.679 343.817 263.847 341.325 265.128L342.909 268.209C343.835 267.733 345.099 268.07 345.659 268.926L348.558 267.028ZM342.909 268.209L343.307 268.005L341.723 264.923L341.325 265.128L342.909 268.209ZM341.723 264.923C340.495 265.555 339.96 267.041 340.447 268.302L343.678 267.053C343.757 267.257 343.74 267.448 343.687 267.589C343.635 267.73 343.518 267.896 343.307 268.005L341.723 264.923ZM340.447 268.302L342.573 273.802L345.805 272.553L343.678 267.053L340.447 268.302ZM342.573 273.802C343.011 274.935 344.035 276.404 344.964 277.211L347.236 274.595C346.738 274.163 346.041 273.165 345.805 272.553L342.573 273.802ZM346.1 275.903C344.995 277.237 344.995 277.237 344.995 277.237C344.995 277.237 344.995 277.237 344.995 277.237C344.995 277.237 344.995 277.237 344.995 277.237C344.995 277.237 344.996 277.238 344.996 277.238C344.998 277.24 345 277.241 345.004 277.244C345.01 277.25 345.021 277.259 345.035 277.271C345.064 277.295 345.107 277.331 345.162 277.378C345.272 277.472 345.432 277.609 345.624 277.778C346.01 278.117 346.52 278.579 347.024 279.074C347.536 279.578 348.007 280.082 348.338 280.51C348.505 280.725 348.606 280.883 348.658 280.982C348.728 281.117 348.645 281.02 348.645 280.77H352.109C352.109 280.189 351.892 279.691 351.729 279.378C351.547 279.03 351.314 278.694 351.079 278.39C350.608 277.781 350.01 277.151 349.453 276.603C348.888 276.048 348.328 275.542 347.912 275.176C347.703 274.992 347.529 274.842 347.406 274.737C347.344 274.685 347.295 274.644 347.261 274.615C347.244 274.601 347.23 274.59 347.221 274.582C347.216 274.578 347.212 274.575 347.21 274.572C347.208 274.571 347.207 274.57 347.206 274.57C347.206 274.569 347.205 274.569 347.205 274.569C347.205 274.569 347.205 274.569 347.205 274.569C347.205 274.568 347.205 274.568 346.1 275.903ZM348.645 280.77V282.451H352.109V280.77H348.645ZM350.377 284.183H357.307V280.718H350.377V284.183ZM358.856 283.225L360.589 279.761L357.49 278.211L355.757 281.676L358.856 283.225ZM357.49 279.761L359.222 283.225L362.321 281.676L360.589 278.211L357.49 279.761ZM360.771 284.183H362.504V280.718H360.771V284.183ZM364.236 282.451V280.77H360.771V282.451H364.236ZM364.236 280.77C364.236 280.832 364.255 280.621 364.508 280.025C364.722 279.518 365.02 278.925 365.335 278.341C365.648 277.763 365.962 277.221 366.199 276.821C366.317 276.622 366.415 276.46 366.484 276.348C366.518 276.293 366.544 276.25 366.562 276.221C366.57 276.207 366.577 276.196 366.581 276.19C366.583 276.186 366.585 276.184 366.586 276.182C366.586 276.182 366.587 276.181 366.587 276.181C366.587 276.181 366.587 276.181 366.587 276.181C366.587 276.181 366.587 276.181 366.587 276.181C366.587 276.181 366.587 276.181 365.118 275.262C363.649 274.344 363.649 274.344 363.649 274.344C363.649 274.344 363.649 274.345 363.648 274.345C363.648 274.345 363.648 274.345 363.648 274.346C363.647 274.346 363.647 274.347 363.646 274.349C363.644 274.351 363.642 274.355 363.639 274.359C363.634 274.369 363.626 274.382 363.615 274.398C363.595 274.432 363.565 274.48 363.527 274.541C363.453 274.663 363.347 274.838 363.22 275.052C362.967 275.478 362.628 276.063 362.286 276.696C361.948 277.323 361.592 278.024 361.317 278.674C361.079 279.236 360.771 280.045 360.771 280.77H364.236ZM366.608 276.145C366.951 275.566 367.223 274.851 367.409 274.18C367.595 273.51 367.732 272.751 367.732 272.068H364.268C364.268 272.335 364.205 272.767 364.07 273.254C363.935 273.739 363.766 274.146 363.627 274.38L366.608 276.145ZM367.732 272.068V265.078H364.268V272.068H367.732ZM367.732 265.043C367.68 262.497 365.54 260.544 363.03 260.544V264.009C363.767 264.009 364.257 264.564 364.268 265.113L367.732 265.043ZM363.03 260.544C361.34 260.544 359.828 261.87 359.828 263.677H363.293C363.293 263.796 363.239 263.889 363.186 263.94C363.134 263.99 363.075 264.009 363.03 264.009V260.544ZM359.828 263.677V264.237H363.293V263.677H359.828ZM363.293 264.237C363.293 261.656 361.123 259.703 358.622 259.703V263.168C359.367 263.168 359.828 263.723 359.828 264.237H363.293ZM358.622 259.703C356.932 259.703 355.419 261.029 355.419 262.837H358.884C358.884 262.955 358.831 263.049 358.778 263.1C358.726 263.149 358.667 263.168 358.622 263.168V259.703ZM355.419 262.837V263.397H358.884V262.837H355.419ZM358.884 263.397C358.884 260.815 356.714 258.863 354.213 258.863V262.327C354.958 262.327 355.419 262.883 355.419 263.397H358.884ZM354.213 258.863C352.523 258.863 351.011 260.188 351.011 261.996H354.476C354.476 262.115 354.423 262.208 354.369 262.259C354.317 262.309 354.258 262.327 354.213 262.327V258.863ZM351.011 261.996V262.556H354.476V261.996H351.011ZM354.476 262.556C354.476 262.197 354.439 261.802 354.312 261.413L351.019 262.493C351.006 262.451 351.004 262.432 351.006 262.444C351.008 262.457 351.011 262.492 351.011 262.556H354.476ZM354.395 261.846L353.946 254.627L350.488 254.842L350.936 262.06L354.395 261.846ZM353.946 254.627C353.829 252.732 352.243 251.268 350.377 251.268V254.732C350.392 254.732 350.42 254.738 350.449 254.766C350.477 254.792 350.487 254.819 350.488 254.842L353.946 254.627ZM350.377 251.268C348.453 251.268 346.912 252.823 346.912 254.732H350.377V254.732V251.268ZM346.912 254.732V261.662H350.377V254.732H346.912ZM346.912 261.662V270.324H350.377V261.662H346.912ZM360.803 270.324H362.535V266.859L360.803 266.859V270.324ZM360.803 268.592V275.521H364.268V268.592H360.803ZM362.535 273.789H360.803V277.254H362.535V273.789ZM362.535 275.521V268.592H359.071V275.521H362.535ZM357.338 270.324H359.071V266.859L357.338 266.859V270.324ZM357.338 268.592V275.521H360.803V268.592H357.338ZM359.071 273.789H357.338V277.254H359.071V273.789ZM359.071 275.521V268.592H355.606V275.521H359.071ZM353.873 270.324H355.606L355.606 266.859L353.873 266.859V270.324ZM353.873 268.592V275.521H357.338V268.592H353.873ZM355.606 273.789H353.873V277.254H355.606V273.789ZM355.606 275.521V268.592H352.141V275.521H355.606Z" fill="black" fill-opacity="0.8" mask="url(#path-43-outside-1_2233_55728)"/>
</g>
<defs>
<filter id="filter0_d_2233_55728" x="8" y="12" width="533" height="312" filterUnits="userSpaceOnUse" color-interpolation-filters="sRGB">
<feFlood flood-opacity="0" result="BackgroundImageFix"/>
<feColorMatrix in="SourceAlpha" type="matrix" values="0 0 0 0 0 0 0 0 0 0 0 0 0 0 0 0 0 0 127 0" result="hardAlpha"/>
<feOffset dy="4"/>
<feGaussianBlur stdDeviation="12"/>
<feComposite in2="hardAlpha" operator="out"/>
<feColorMatrix type="matrix" values="0 0 0 0 0.143233 0 0 0 0 0.304677 0 0 0 0 0.562987 0 0 0 0.12 0"/>
<feBlend mode="normal" in2="BackgroundImageFix" result="effect1_dropShadow_2233_55728"/>
<feBlend mode="normal" in="SourceGraphic" in2="effect1_dropShadow_2233_55728" result="shape"/>
</filter>
<filter id="filter1_i_2233_55728" x="62.84" y="93.9277" width="34.3188" height="15.457" filterUnits="userSpaceOnUse" color-interpolation-filters="sRGB">
<feFlood flood-opacity="0" result="BackgroundImageFix"/>
<feBlend mode="normal" in="SourceGraphic" in2="BackgroundImageFix" result="shape"/>
<feColorMatrix in="SourceAlpha" type="matrix" values="0 0 0 0 0 0 0 0 0 0 0 0 0 0 0 0 0 0 127 0" result="hardAlpha"/>
<feOffset dy="1.5"/>
<feGaussianBlur stdDeviation="1.5"/>
<feComposite in2="hardAlpha" operator="arithmetic" k2="-1" k3="1"/>
<feColorMatrix type="matrix" values="0 0 0 0 0.8625 0 0 0 0 0.912759 0 0 0 0 1 0 0 0 0.7 0"/>
<feBlend mode="lighten" in2="shape" result="effect1_innerShadow_2233_55728"/>
</filter>
<filter id="filter2_f_2233_55728" x="78.5814" y="72.2197" width="36" height="36" filterUnits="userSpaceOnUse" color-interpolation-filters="sRGB">
<feFlood flood-opacity="0" result="BackgroundImageFix"/>
<feBlend mode="normal" in="SourceGraphic" in2="BackgroundImageFix" result="shape"/>
<feGaussianBlur stdDeviation="3" result="effect1_foregroundBlur_2233_55728"/>
</filter>
<filter id="filter3_f_2233_55728" x="45.5927" y="72.2197" width="36" height="36" filterUnits="userSpaceOnUse" color-interpolation-filters="sRGB">
<feFlood flood-opacity="0" result="BackgroundImageFix"/>
<feBlend mode="normal" in="SourceGraphic" in2="BackgroundImageFix" result="shape"/>
<feGaussianBlur stdDeviation="3" result="effect1_foregroundBlur_2233_55728"/>
</filter>
<filter id="filter4_ii_2233_55728" x="67.2577" y="58.4004" width="23.8921" height="24.9619" filterUnits="userSpaceOnUse" color-interpolation-filters="sRGB">
<feFlood flood-opacity="0" result="BackgroundImageFix"/>
<feBlend mode="normal" in="SourceGraphic" in2="BackgroundImageFix" result="shape"/>
<feColorMatrix in="SourceAlpha" type="matrix" values="0 0 0 0 0 0 0 0 0 0 0 0 0 0 0 0 0 0 127 0" result="hardAlpha"/>
<feOffset dy="3"/>
<feGaussianBlur stdDeviation="1.5"/>
<feComposite in2="hardAlpha" operator="arithmetic" k2="-1" k3="1"/>
<feColorMatrix type="matrix" values="0 0 0 0 0.9 0 0 0 0 0.928333 0 0 0 0 1 0 0 0 0.6 0"/>
<feBlend mode="lighten" in2="shape" result="effect1_innerShadow_2233_55728"/>
<feColorMatrix in="SourceAlpha" type="matrix" values="0 0 0 0 0 0 0 0 0 0 0 0 0 0 0 0 0 0 127 0" result="hardAlpha"/>
<feOffset dy="-6"/>
<feGaussianBlur stdDeviation="6"/>
<feComposite in2="hardAlpha" operator="arithmetic" k2="-1" k3="1"/>
<feColorMatrix type="matrix" values="0 0 0 0 0.097309 0 0 0 0 0.181891 0 0 0 0 0.395833 0 0 0 0.16 0"/>
<feBlend mode="multiply" in2="effect1_innerShadow_2233_55728" result="effect2_innerShadow_2233_55728"/>
</filter>
<filter id="filter5_d_2233_55728" x="335.071" y="247.803" width="37.8589" height="43.3104" filterUnits="userSpaceOnUse" color-interpolation-filters="sRGB">
<feFlood flood-opacity="0" result="BackgroundImageFix"/>
<feColorMatrix in="SourceAlpha" type="matrix" values="0 0 0 0 0 0 0 0 0 0 0 0 0 0 0 0 0 0 127 0" result="hardAlpha"/>
<feOffset dy="1.7324"/>
<feGaussianBlur stdDeviation="2.5986"/>
<feColorMatrix type="matrix" values="0 0 0 0 0 0 0 0 0 0 0 0 0 0 0 0 0 0 0.2 0"/>
<feBlend mode="normal" in2="BackgroundImageFix" result="effect1_dropShadow_2233_55728"/>
<feBlend mode="normal" in="SourceGraphic" in2="effect1_dropShadow_2233_55728" result="shape"/>
</filter>
<linearGradient id="paint0_linear_2233_55728" x1="88.2255" y1="86.7289" x2="90.6794" y2="80.9713" gradientUnits="userSpaceOnUse">
<stop offset="4.98403e-07" stop-color="#FFDBD4"/>
<stop offset="1" stop-color="#FFD1BF"/>
</linearGradient>
<linearGradient id="paint1_linear_2233_55728" x1="3.201" y1="86.7287" x2="0.747075" y2="80.9711" gradientUnits="userSpaceOnUse">
<stop offset="4.98403e-07" stop-color="#FFDBD4"/>
<stop offset="1" stop-color="#FFD1BF"/>
</linearGradient>
<linearGradient id="paint2_linear_2233_55728" x1="80.13" y1="98.2712" x2="80.2077" y2="92.9386" gradientUnits="userSpaceOnUse">
<stop offset="9.92013e-07" stop-color="#FFDBD4"/>
<stop offset="1" stop-color="#FFBFAA"/>
</linearGradient>
<linearGradient id="paint3_linear_2233_55728" x1="76.0477" y1="93.8787" x2="76.2027" y2="93.8787" gradientUnits="userSpaceOnUse">
<stop offset="9.92013e-07" stop-color="#FFDBD4"/>
<stop offset="1" stop-color="#FFDCD1"/>
</linearGradient>
<linearGradient id="paint4_linear_2233_55728" x1="-207.261" y1="93.8463" x2="-207.457" y2="93.8463" gradientUnits="userSpaceOnUse">
<stop offset="9.92013e-07" stop-color="#FFDBD4"/>
<stop offset="1" stop-color="#FFDCD1"/>
</linearGradient>
<linearGradient id="paint5_linear_2233_55728" x1="79.9625" y1="72.4859" x2="79.7832" y2="93.822" gradientUnits="userSpaceOnUse">
<stop offset="4.98403e-07" stop-color="#D19083"/>
<stop offset="0.297551" stop-color="#FAC6BA"/>
<stop offset="1" stop-color="#FFD4C4"/>
</linearGradient>
<linearGradient id="paint6_linear_2233_55728" x1="79.9625" y1="76.0654" x2="79.7832" y2="93.822" gradientUnits="userSpaceOnUse">
<stop offset="4.98403e-07" stop-color="#FFDBD4"/>
<stop offset="1" stop-color="#FFC5AE"/>
</linearGradient>
<clipPath id="clip0_2233_55728">
<rect x="56" y="56" width="48" height="48" rx="12" fill="white"/>
</clipPath>
</defs>
</svg>
