<svg fill="none" xmlns="http://www.w3.org/2000/svg" viewBox="0 0 602 429" class="design-iconfont">
  <g clip-path="url(#1oy97hldz__clip0_2824_34660)">
    <g opacity=".3" filter="url(#1oy97hldz__filter0_f_2824_34660)">
      <path fill="#17489A" d="M375.5 401A9.5 2 0 1 0 375.5 405A9.5 2 0 1 0 375.5 401Z"/>
    </g>
    <g opacity=".3" filter="url(#1oy97hldz__filter1_f_2824_34660)">
      <path fill="#17489A" d="M402.5 401A9.5 2 0 1 0 402.5 405A9.5 2 0 1 0 402.5 401Z"/>
    </g>
    <g opacity=".15" filter="url(#1oy97hldz__filter2_f_2824_34660)">
      <rect x="116" y="301" width="386" height="34" rx="17" fill="#1D3E74"/>
    </g>
    <g filter="url(#1oy97hldz__filter3_d_2824_34660)">
      <path fill-rule="evenodd" clip-rule="evenodd" d="M124.42 47H493.747L495.659 47.1022L497.486 47.379L499.236 47.8262L500.919 48.4438L502.541 49.2317L504.053 50.1474L505.459 51.1994L506.771 52.3919L507.967 53.7036L509.019 55.1134L509.935 56.6253L510.719 58.248L511.34 59.9303L511.788 61.6807L512.064 63.5078L512.167 65.4201V83.4697H106V65.4201L106.102 63.5078L106.379 61.6807L106.826 59.9303L107.444 58.248L108.232 56.6253L109.147 55.1134L110.199 53.7036L111.392 52.3919L112.708 51.1994L114.113 50.1474L115.625 49.2317L117.248 48.4438L118.93 47.8262L120.681 47.379L122.508 47.1022L124.42 47Z" fill="#fff"/>
    </g>
    <path fill-rule="evenodd" clip-rule="evenodd" d="M164.673 60L165.58 60.0852L166.411 60.3109L167.182 60.6814L167.88 61.1755L168.472 61.7675L168.966 62.466L169.332 63.2368L169.558 64.0673L169.643 64.9745L169.558 65.8817L169.332 66.7164L168.966 67.4873L168.472 68.1815L167.88 68.7735L167.182 69.2718L166.411 69.6381L165.58 69.8638L164.673 69.949L163.762 69.8638L162.931 69.6381L162.16 69.2718L161.462 68.7735L160.87 68.1815L160.376 67.4873L160.009 66.7164L159.784 65.8817L159.698 64.9745L159.784 64.0673L160.009 63.2368L160.376 62.466L160.87 61.7675L161.462 61.1755L162.16 60.6814L162.931 60.3109L163.762 60.0852L164.673 60Z" fill="#28C840"/>
    <path fill-rule="evenodd" clip-rule="evenodd" d="M133.974 60.001L134.882 60.0862L135.712 60.3119L136.483 60.6824L137.182 61.1765L137.774 61.7685L138.268 62.4669L138.638 63.2378L138.864 64.0683L138.949 64.9755L138.864 65.8826L138.638 66.7174L138.268 67.4883L137.774 68.1825L137.182 68.7745L136.483 69.2728L135.712 69.6391L134.882 69.8648L133.974 69.95L133.067 69.8648L132.233 69.6391L131.462 69.2728L130.767 68.7745L130.171 68.1825L129.677 67.4883L129.311 66.7174L129.085 65.8826L129 64.9755L129.085 64.0683L129.311 63.2378L129.677 62.4669L130.171 61.7685L130.767 61.1765L131.462 60.6824L132.233 60.3119L133.067 60.0862L133.974 60.001Z" fill="#FF5F58"/>
    <g filter="url(#1oy97hldz__filter4_d_2824_34660)">
      <path d="M106 83H512V311C512 319.837 504.837 327 496 327H122C113.163 327 106 319.837 106 311V83Z" fill="#fff"/>
    </g>
    <path d="M114 91H504V305C504 313.837 496.837 321 488 321H130C121.163 321 114 313.837 114 305V91Z" fill="#F2F4F7"/>
    <rect x="124" y="101" width="82" height="60" rx="8" fill="#fff"/>
    <rect x="124" y="169" width="176" height="133" rx="8" fill="#fff"/>
    <rect x="312" y="169" width="176" height="133" rx="8" fill="#fff"/>
    <path d="M366.5 207.5C372.233 207.5 377.864 209.016 382.821 211.895C387.779 214.774 391.886 218.913 394.728 223.892C397.569 228.872 399.043 234.514 398.999 240.246C398.956 245.979 397.397 251.598 394.48 256.534L388.884 253.227C391.217 249.279 392.464 244.783 392.499 240.197C392.534 235.611 391.355 231.097 389.082 227.114C386.809 223.131 383.523 219.819 379.557 217.516C375.591 215.213 371.086 214 366.5 214L366.5 207.5Z" fill="#2475FC"/>
    <path d="M345.051 264.417C338.74 258.873 334.821 251.102 334.115 242.733L340.592 242.186C341.157 248.882 344.292 255.099 349.34 259.533L345.051 264.417Z" fill="#C766FF"/>
    <path d="M334.073 242.184C333.773 237.72 334.397 233.242 335.907 229.031C337.417 224.82 339.78 220.965 342.849 217.71L347.579 222.168C345.124 224.772 343.234 227.856 342.026 231.225C340.818 234.594 340.318 238.176 340.559 241.747L334.073 242.184Z" fill="#FC8D3D"/>
    <path d="M343.223 217.319C347.828 212.592 353.764 209.38 360.24 208.109L361.492 214.487C356.311 215.504 351.563 218.074 347.878 221.855L343.223 217.319Z" fill="#FE6ABD"/>
    <path d="M360.472 208.064C362.358 207.708 364.272 207.52 366.191 207.501L366.253 214.001C364.718 214.016 363.187 214.166 361.678 214.451L360.472 208.064Z" fill="#00C5FF"/>
    <path d="M394.31 256.818C391.868 260.856 388.577 264.313 384.664 266.951C380.751 269.588 376.31 271.341 371.651 272.089C366.992 272.837 362.226 272.561 357.684 271.281C353.142 270.001 348.934 267.748 345.351 264.677L349.58 259.742C352.447 262.198 355.814 264.001 359.447 265.025C363.081 266.049 366.894 266.27 370.621 265.671C374.348 265.073 377.9 263.67 381.031 261.56C384.161 259.451 386.795 256.684 388.748 253.454L394.31 256.818Z" fill="#8A78FF"/>
    <path d="M141.298 132.808C142.25 132.808 143.034 133.046 143.622 133.536C144.196 134.026 144.49 134.684 144.49 135.524C144.49 136.644 143.944 137.4 142.852 137.764C143.44 137.946 143.888 138.226 144.196 138.618C144.532 139.01 144.7 139.5 144.7 140.088C144.7 140.998 144.378 141.74 143.748 142.314C143.104 142.902 142.264 143.196 141.228 143.196C140.276 143.196 139.506 142.944 138.904 142.468C138.19 141.88 137.798 141.026 137.714 139.906H138.876C138.904 140.69 139.17 141.292 139.66 141.698C140.08 142.034 140.598 142.216 141.228 142.216C141.942 142.216 142.516 142.006 142.95 141.6C143.342 141.208 143.552 140.718 143.552 140.13C143.552 139.528 143.356 139.066 142.964 138.73C142.572 138.394 142.04 138.24 141.34 138.24H140.528V137.344H141.298C141.97 137.344 142.474 137.19 142.824 136.896C143.174 136.588 143.356 136.154 143.356 135.594C143.356 135.034 143.174 134.6 142.838 134.292C142.474 133.956 141.956 133.802 141.312 133.802C140.64 133.802 140.122 133.97 139.744 134.334C139.352 134.698 139.128 135.216 139.058 135.888H137.924C138.008 134.922 138.372 134.166 138.988 133.62C139.576 133.074 140.346 132.808 141.298 132.808ZM149.735 132.808C151.583 132.808 152.647 133.69 152.927 135.482H151.793C151.569 134.334 150.883 133.774 149.721 133.774C148.937 133.774 148.321 134.152 147.873 134.936C147.425 135.664 147.215 136.602 147.215 137.736C147.215 137.792 147.215 137.918 147.229 138.1H147.285C147.537 137.582 147.887 137.176 148.363 136.896C148.811 136.602 149.329 136.462 149.917 136.462C150.869 136.462 151.639 136.77 152.227 137.386C152.801 138.002 153.095 138.786 153.095 139.766C153.095 140.746 152.773 141.572 152.143 142.216C151.499 142.86 150.701 143.196 149.721 143.196C148.503 143.196 147.593 142.734 146.977 141.838C146.389 140.984 146.109 139.794 146.109 138.268C146.109 136.672 146.417 135.37 147.047 134.376C147.705 133.326 148.601 132.808 149.735 132.808ZM149.693 137.414C149.035 137.414 148.489 137.638 148.055 138.086C147.621 138.534 147.411 139.094 147.411 139.794C147.411 140.494 147.607 141.068 148.027 141.516C148.447 141.992 148.993 142.23 149.693 142.23C150.365 142.23 150.911 141.992 151.331 141.544C151.751 141.068 151.961 140.48 151.961 139.766C151.961 139.052 151.751 138.492 151.345 138.072C150.925 137.624 150.379 137.414 149.693 137.414ZM157.009 133.004H157.905V143H156.757V134.404C156.127 135.048 155.343 135.496 154.405 135.776V134.628C154.853 134.502 155.329 134.306 155.805 134.026C156.281 133.718 156.673 133.382 157.009 133.004Z" fill="#262626"/>
    <rect x="137" y="110" width="46" height="11" rx="5.5" fill="#E4E6EB"/>
    <rect x="218" y="101" width="82" height="60" rx="8" fill="#fff"/>
    <path d="M235.34 132.808C236.264 132.808 237.02 133.074 237.622 133.606C238.21 134.138 238.518 134.852 238.518 135.72C238.518 136.588 238.182 137.372 237.538 138.072C237.188 138.436 236.502 138.982 235.466 139.682C234.192 140.536 233.464 141.306 233.282 141.978H238.532V143H231.868C231.868 142.09 232.19 141.264 232.862 140.522C233.254 140.074 233.968 139.472 235.032 138.744C235.816 138.184 236.334 137.778 236.6 137.498C237.104 136.952 237.37 136.35 237.37 135.706C237.37 135.09 237.188 134.628 236.824 134.292C236.46 133.956 235.942 133.788 235.298 133.788C234.612 133.788 234.08 134.012 233.716 134.488C233.324 134.936 233.114 135.608 233.1 136.49H231.952C231.952 135.37 232.274 134.474 232.89 133.816C233.506 133.144 234.332 132.808 235.34 132.808ZM243.735 132.808C245.583 132.808 246.647 133.69 246.927 135.482H245.793C245.569 134.334 244.883 133.774 243.721 133.774C242.937 133.774 242.321 134.152 241.873 134.936C241.425 135.664 241.215 136.602 241.215 137.736C241.215 137.792 241.215 137.918 241.229 138.1H241.285C241.537 137.582 241.887 137.176 242.363 136.896C242.811 136.602 243.329 136.462 243.917 136.462C244.869 136.462 245.639 136.77 246.227 137.386C246.801 138.002 247.095 138.786 247.095 139.766C247.095 140.746 246.773 141.572 246.143 142.216C245.499 142.86 244.701 143.196 243.721 143.196C242.503 143.196 241.593 142.734 240.977 141.838C240.389 140.984 240.109 139.794 240.109 138.268C240.109 136.672 240.417 135.37 241.047 134.376C241.705 133.326 242.601 132.808 243.735 132.808ZM243.693 137.414C243.035 137.414 242.489 137.638 242.055 138.086C241.621 138.534 241.411 139.094 241.411 139.794C241.411 140.494 241.607 141.068 242.027 141.516C242.447 141.992 242.993 142.23 243.693 142.23C244.365 142.23 244.911 141.992 245.331 141.544C245.751 141.068 245.961 140.48 245.961 139.766C245.961 139.052 245.751 138.492 245.345 138.072C244.925 137.624 244.379 137.414 243.693 137.414ZM252.087 132.808C253.039 132.808 253.823 133.046 254.411 133.536C254.985 134.026 255.279 134.684 255.279 135.524C255.279 136.644 254.733 137.4 253.641 137.764C254.229 137.946 254.677 138.226 254.985 138.618C255.321 139.01 255.489 139.5 255.489 140.088C255.489 140.998 255.167 141.74 254.537 142.314C253.893 142.902 253.053 143.196 252.017 143.196C251.065 143.196 250.295 142.944 249.693 142.468C248.979 141.88 248.587 141.026 248.503 139.906H249.665C249.693 140.69 249.959 141.292 250.449 141.698C250.869 142.034 251.387 142.216 252.017 142.216C252.731 142.216 253.305 142.006 253.739 141.6C254.131 141.208 254.341 140.718 254.341 140.13C254.341 139.528 254.145 139.066 253.753 138.73C253.361 138.394 252.829 138.24 252.129 138.24H251.317V137.344H252.087C252.759 137.344 253.263 137.19 253.613 136.896C253.963 136.588 254.145 136.154 254.145 135.594C254.145 135.034 253.963 134.6 253.627 134.292C253.263 133.956 252.745 133.802 252.101 133.802C251.429 133.802 250.911 133.97 250.533 134.334C250.141 134.698 249.917 135.216 249.847 135.888H248.713C248.797 134.922 249.161 134.166 249.777 133.62C250.365 133.074 251.135 132.808 252.087 132.808Z" fill="#262626"/>
    <rect x="231" y="110" width="46" height="11" rx="5.5" fill="#E4E6EB"/>
    <rect x="312" y="101" width="82" height="60" rx="8" fill="#fff"/>
    <path d="M329.2 132.808C330.236 132.808 331.062 133.074 331.65 133.62C332.182 134.11 332.462 134.726 332.462 135.454C332.462 135.986 332.336 136.434 332.084 136.798C331.804 137.19 331.412 137.484 330.894 137.666V137.694C331.412 137.82 331.86 138.114 332.224 138.562C332.616 139.038 332.812 139.598 332.812 140.242C332.812 141.124 332.504 141.838 331.888 142.37C331.244 142.916 330.348 143.196 329.2 143.196C328.038 143.196 327.142 142.916 326.512 142.37C325.896 141.838 325.588 141.124 325.588 140.242C325.588 139.598 325.784 139.038 326.176 138.562C326.54 138.114 326.974 137.82 327.506 137.694V137.666C326.974 137.484 326.582 137.19 326.316 136.798C326.064 136.434 325.938 135.986 325.938 135.454C325.938 134.726 326.204 134.11 326.75 133.62C327.338 133.074 328.15 132.808 329.2 132.808ZM329.2 133.746C328.486 133.746 327.926 133.928 327.534 134.292C327.184 134.6 327.016 135.006 327.016 135.496C327.016 136 327.17 136.42 327.478 136.728C327.842 137.092 328.416 137.288 329.2 137.288C329.97 137.288 330.544 137.092 330.922 136.728C331.23 136.42 331.384 136 331.384 135.496C331.384 135.006 331.202 134.6 330.866 134.292C330.46 133.928 329.9 133.746 329.2 133.746ZM329.2 138.184C328.388 138.184 327.772 138.38 327.338 138.786C326.918 139.15 326.722 139.64 326.722 140.242C326.722 140.83 326.918 141.32 327.338 141.684C327.758 142.062 328.388 142.258 329.2 142.258C330.012 142.258 330.628 142.062 331.076 141.67C331.468 141.306 331.678 140.83 331.678 140.242C331.678 139.64 331.468 139.15 331.076 138.786C330.628 138.38 329.998 138.184 329.2 138.184Z" fill="#262626"/>
    <rect x="325" y="110" width="46" height="11" rx="5.5" fill="#E4E6EB"/>
    <rect x="406" y="101" width="82" height="60" rx="8" fill="#fff"/>
    <path d="M423.34 132.808C424.264 132.808 425.02 133.074 425.622 133.606C426.21 134.138 426.518 134.852 426.518 135.72C426.518 136.588 426.182 137.372 425.538 138.072C425.188 138.436 424.502 138.982 423.466 139.682C422.192 140.536 421.464 141.306 421.282 141.978H426.532V143H419.868C419.868 142.09 420.19 141.264 420.862 140.522C421.254 140.074 421.968 139.472 423.032 138.744C423.816 138.184 424.334 137.778 424.6 137.498C425.104 136.952 425.37 136.35 425.37 135.706C425.37 135.09 425.188 134.628 424.824 134.292C424.46 133.956 423.942 133.788 423.298 133.788C422.612 133.788 422.08 134.012 421.716 134.488C421.324 134.936 421.114 135.608 421.1 136.49H419.952C419.952 135.37 420.274 134.474 420.89 133.816C421.506 133.144 422.332 132.808 423.34 132.808Z" fill="#262626"/>
    <rect x="419" y="110" width="46" height="11" rx="5.5" fill="#E4E6EB"/>
    <rect x="438" y="190" width="34" height="11" rx="5.5" fill="#E4E6EB"/>
    <rect x="438" y="207" width="34" height="11" rx="5.5" fill="#E4E6EB"/>
    <rect x="438" y="224" width="34" height="11" rx="5.5" fill="#E4E6EB"/>
    <rect x="438" y="241" width="34" height="11" rx="5.5" fill="#E4E6EB"/>
    <rect x="438" y="258" width="34" height="11" rx="5.5" fill="#E4E6EB"/>
    <rect x="438" y="275" width="34" height="11" rx="5.5" fill="#E4E6EB"/>
    <rect x="419" y="190" width="17" height="11" rx="5.5" fill="#D8DDE6"/>
    <rect x="419" y="207" width="17" height="11" rx="5.5" fill="#D8DDE6"/>
    <rect x="419" y="224" width="17" height="11" rx="5.5" fill="#D8DDE6"/>
    <rect x="419" y="241" width="17" height="11" rx="5.5" fill="#D8DDE6"/>
    <rect x="419" y="258" width="17" height="11" rx="5.5" fill="#D8DDE6"/>
    <rect x="419" y="275" width="17" height="11" rx="5.5" fill="#D8DDE6"/>
    <path d="M142 224C142 222.895 142.895 222 144 222H148C149.105 222 150 222.895 150 224V285H142V224Z" fill="#2475FC"/>
    <path d="M170 270C170 268.895 170.895 268 172 268H176C177.105 268 178 268.895 178 270V285H170V270Z" fill="#2475FC"/>
    <path d="M198 248C198 246.895 198.895 246 200 246H204C205.105 246 206 246.895 206 248V285H198V248Z" fill="#2475FC"/>
    <path d="M226 238C226 236.895 226.895 236 228 236H232C233.105 236 234 236.895 234 238V285H226V238Z" fill="#2475FC"/>
    <path d="M254 254C254 252.895 254.895 252 256 252H260C261.105 252 262 252.895 262 254V285H254V254Z" fill="#2475FC"/>
    <path d="M282 242C282 240.895 282.895 240 284 240H288C289.105 240 290 240.895 290 242V285H282V242Z" fill="#2475FC"/>
    <path d="M134 191C134 189.895 134.895 189 136 189H140C141.105 189 142 189.895 142 191V285H134V191Z" fill="#00CEBF"/>
    <path d="M162 209C162 207.895 162.895 207 164 207H168C169.105 207 170 207.895 170 209V285H162V209Z" fill="#00CEBF"/>
    <path d="M190 238C190 236.895 190.895 236 192 236H196C197.105 236 198 236.895 198 238V285H190V238Z" fill="#00CEBF"/>
    <path d="M218 220C218 218.895 218.895 218 220 218H224C225.105 218 226 218.895 226 220V285H218V220Z" fill="#00CEBF"/>
    <path d="M246 229C246 227.895 246.895 227 248 227H252C253.105 227 254 227.895 254 229V285H246V229Z" fill="#00CEBF"/>
    <path d="M274 209C274 207.895 274.895 207 276 207H280C281.105 207 282 207.895 282 209V285H274V209Z" fill="#00CEBF"/>
    <path d="M149.83 60.0852L148.923 60L148.012 60.0852L147.181 60.3109L146.41 60.6814L145.712 61.1755L145.12 61.7675L144.626 62.466L144.26 63.2368L144.034 64.0673L143.949 64.9745L144.034 65.8817L144.26 66.7164L144.626 67.4873L145.12 68.1815L145.712 68.7735L146.41 69.2718L147.181 69.6381L148.012 69.8638L148.923 69.949L149.83 69.8638L150.661 69.6381L151.432 69.2718L152.13 68.7735L152.722 68.1815L153.216 67.4873L153.583 66.7164L153.813 65.8817L153.893 64.9745L153.813 64.0673L153.583 63.2368L153.216 62.466L152.722 61.7675L152.13 61.1755L151.432 60.6814L150.661 60.3109L149.83 60.0852Z" fill="#FEBB2E"/>
    <path d="M211.666 291.229L212.769 290.519L213.693 289.59L214.393 288.477L214.835 287.245L215.004 285.938L214.88 284.631L214.478 283.379L213.817 282.246L218.318 238.216H208.59L205.013 281.208L204.238 281.998L203.627 282.902L203.189 283.906L202.936 284.979L202.886 286.082L203.03 287.165L203.363 288.204L203.89 289.177L204.58 290.037L205.41 290.747L206.349 291.299L207.388 291.681L208.476 291.86L209.569 291.845L210.637 291.637L211.666 291.229Z" fill="url(#1oy97hldz__paint0_linear_2824_34660)"/>
    <path d="M220.599 213.915L222.492 213.786L224.271 213.423L225.96 212.832L227.56 212.027L229.015 211.048L230.337 209.881L231.505 208.559L232.483 207.103L233.288 205.504L233.88 203.814L234.237 202.036L234.372 200.143L234.237 198.255L233.88 196.471L233.288 194.787L232.483 193.187L231.505 191.731L230.337 190.409L229.015 189.242L227.56 188.258L225.96 187.458L224.271 186.867L222.492 186.504L220.599 186.375L218.78 186.494L217.027 186.847L215.332 187.423L213.723 188.213L212.237 189.207L210.866 190.409L209.663 191.781L208.67 193.266L207.88 194.876L207.303 196.57L206.956 198.324L206.831 200.143L206.956 201.966L207.303 203.72L207.88 205.414L208.67 207.024L209.663 208.51L210.866 209.881L212.237 211.083L213.723 212.077L215.332 212.867L217.027 213.443L218.78 213.791L220.599 213.915Z" fill="url(#1oy97hldz__paint1_linear_2824_34660)"/>
    <path d="M223.193 263.858L222.388 263.724L221.667 263.341L221.106 262.75L220.768 262.009L219.844 259.133L218.254 255.039L215.795 249.399L212.237 241.867L211.547 240.233L211.04 238.563L210.712 236.854L210.563 235.09L210.602 233.316L210.826 231.587L211.224 229.893L211.81 228.224L212.57 226.624L213.479 225.138L214.538 223.752L215.755 222.465L217.106 221.318L218.542 220.334L220.072 219.504L221.712 218.828L223.858 218.227L226.04 217.919L228.27 217.904L230.481 218.188L232.608 218.759L234.67 219.613L236.598 220.736L238.336 222.083L239.902 223.673L241.243 225.456L242.316 227.379L243.141 229.451L244.304 233.649L245.153 237.778L245.749 241.882L246.117 245.648L246.316 249.275L246.375 252.301L246.266 256.976L246.092 257.776L245.67 258.482L245.044 259.008L244.284 259.312L223.734 263.803L223.193 263.858Z" fill="url(#1oy97hldz__paint2_linear_2824_34660)"/>
    <path d="M243.091 394.612H249.967L253.237 368.105H243.091V394.612Z" fill="#F3DADD"/>
    <path d="M263.223 400.997H241.62V392.65H254.876L255.969 392.72L257.033 392.934L258.071 393.286L259.055 393.768L259.954 394.369L260.779 395.095L261.504 395.92L262.105 396.819L262.587 397.803L262.94 398.841L263.154 399.899L263.223 400.997Z" fill="#0D187E"/>
    <path d="M174.367 385.704L180.389 389.018L196.025 367.366L187.136 362.477L174.367 385.704Z" fill="#F3DADD"/>
    <path d="M188.93 400.997L170 390.588L174.02 383.274L185.636 389.664L186.57 390.26L187.395 390.956L188.13 391.761L188.751 392.65L189.253 393.609L189.63 394.647L189.869 395.73L189.958 396.809L189.914 397.892L189.72 398.96L189.397 399.993L188.93 400.997Z" fill="#0D187E"/>
    <path d="M242.515 393.759L241.889 393.674L241.342 393.466L240.85 393.128L240.453 392.685L240.175 392.169L240.016 391.558L231.678 311.461L231.554 311.044L231.306 310.681L230.963 310.413L230.55 310.269L230.113 310.254L229.691 310.373L229.328 310.621L229.06 310.964L186.108 387.111L185.526 387.816L184.766 388.259L183.902 388.413L183.002 388.249L175.192 385.277L174.596 384.95L174.129 384.502L173.776 383.926L173.592 383.27L173.587 382.624L173.756 381.969L205.698 309.856L205.822 309.374L206.816 302.881L207.929 297.182L209.146 292.213L210.582 287.28L211.988 283.091L213.36 279.569L215.585 274.625L217.419 271.157L219.207 268.231L220.281 266.695L220.509 266.288L220.633 265.841L220.653 265.374L220.559 264.917L220.211 263.868L220.082 263.227L220.127 262.576L220.335 261.96L220.693 261.414L222.318 259.794L223.997 258.477L225.736 257.444L227.584 256.604L229.428 255.978L231.281 255.551L234.078 255.198L236.706 255.144L239.24 255.308L241.382 255.606L243.339 255.998L244.676 256.336L245.968 256.733L246.047 256.763L246.097 256.833L247.478 258.92L248.79 261.275L250.032 263.923L251.194 266.894L252.496 270.874L253.679 275.251L254.722 280.055L255.577 284.89L256.312 289.982L256.918 295.348L257.594 303.447L258.031 311.784L258.26 320.146L258.304 328.384L258.2 336.522L257.981 344.169L257.668 351.582L257.306 358.15L256.521 369.359L255.612 390.663L255.368 391.528L254.866 392.223L254.161 392.71L253.291 392.934L242.708 393.749L242.515 393.759Z" fill="#2E2E41"/>
    <path d="M242.515 393.759L241.889 393.674L241.342 393.466L240.85 393.128L240.453 392.685L240.175 392.169L240.016 391.558L231.678 311.461L231.554 311.044L231.306 310.681L230.963 310.413L230.55 310.269L230.113 310.254L229.691 310.373L229.328 310.621L229.06 310.964L186.108 387.111L185.526 387.816L184.766 388.259L183.902 388.413L183.002 388.249L175.192 385.277L174.596 384.95L174.129 384.502L173.776 383.926L173.592 383.27L173.587 382.624L173.756 381.969L205.698 309.856L205.822 309.374L206.816 302.881L207.929 297.182L209.146 292.213L210.582 287.28L211.988 283.091L213.36 279.569L215.585 274.625L217.419 271.157L219.207 268.231L220.281 266.695L220.509 266.288L220.633 265.841L220.653 265.374L220.559 264.917L220.211 263.868L220.082 263.227L220.127 262.576L220.335 261.96L220.693 261.414L222.318 259.794L223.997 258.477L225.736 257.444L227.584 256.604L229.428 255.978L231.281 255.551L234.078 255.198L236.706 255.144L239.24 255.308L241.382 255.606L243.339 255.998L244.676 256.336L245.968 256.733L246.047 256.763L246.097 256.833L247.478 258.92L248.79 261.275L250.032 263.923L251.194 266.894L252.496 270.874L253.679 275.251L254.722 280.055L255.577 284.89L256.312 289.982L256.918 295.348L257.594 303.447L258.031 311.784L258.26 320.146L258.304 328.384L258.2 336.522L257.981 344.169L257.668 351.582L257.306 358.15L256.521 369.359L255.612 390.663L255.368 391.528L254.866 392.223L254.161 392.71L253.291 392.934L242.708 393.749L242.515 393.759Z" fill="#112444"/>
    <path d="M274.134 216.141L274 217.06L249.913 230.952L244.06 227.583L237.82 235.751L247.602 242.727L248.452 243.199L249.351 243.477L250.315 243.557L251.279 243.427L252.164 243.109L252.983 242.593L277.821 223.002L278.978 223.3L280.136 223.36L281.319 223.186L282.441 222.773L283.43 222.162L284.3 221.347L284.99 220.369L285.457 219.305L285.711 218.138L285.721 216.945L285.502 215.803L285.045 214.7L284.374 213.711L283.549 212.896L282.546 212.245L281.428 211.813L280.285 211.614L279.093 211.649L277.93 211.927L276.877 212.414L275.913 213.125L275.113 214.009L274.522 215.008L274.134 216.141Z" fill="url(#1oy97hldz__paint3_linear_2824_34660)"/>
    <path d="M249.113 231.612L241.327 241.698L240.955 242.086L240.507 242.389L240.001 242.587L239.469 242.677L238.927 242.647L238.406 242.503L237.929 242.254L237.511 241.907L228.702 232.755L227.704 231.806L226.919 230.693L226.367 229.446L226.064 228.099L226.029 226.718L226.258 225.377L226.745 224.105L227.48 222.937L228.429 221.938L229.542 221.148L230.784 220.592L232.131 220.284L233.507 220.244L234.853 220.473L236.125 220.955L237.298 221.685L248.348 227.866L248.79 228.179L249.153 228.581L249.421 229.048L249.585 229.565L249.639 230.102L249.575 230.638L249.396 231.15L249.113 231.612Z" fill="url(#1oy97hldz__paint4_linear_2824_34660)"/>
    <g filter="url(#1oy97hldz__filter5_ii_2824_34660)">
      <path d="M222.78 196.977L224.623 198.165L226.611 199.233L227.997 199.814L229.353 200.192L230.7 200.391L232.036 200.346L233.318 199.988L234.58 199.312L235.37 198.602L236.031 197.782L236.553 196.873L236.92 195.879L237.129 194.836L237.169 193.787L237.039 192.744L236.741 191.726L236.036 190.156L235.166 188.794L234.118 187.617L232.926 186.578L231.619 185.659L230.203 184.854L227.982 183.816L225.706 182.931L222.715 181.893L219.65 181.009L216.544 180.358L213.439 180.02L211.362 180L209.305 180.189L207.253 180.586L205.748 181.063L204.297 181.704L202.901 182.504L201.594 183.448L200.417 184.501L199.359 185.674L198.439 186.956L197.709 188.302L197.163 189.718L196.82 191.189L196.72 192.694L196.859 194.25L197.351 196.078L198.097 197.857L199.905 201.315L200.76 203.049L201.42 204.778L201.719 205.955L201.838 207.163L201.783 208.405L201.505 209.632L201.058 210.74L200.427 211.753L199.657 212.673L198.757 213.512L197.729 214.267L196.045 215.226L194.211 216.002L192.303 216.598L190.41 217.02L185.293 217.865L182.754 218.406L180.354 219.171L178.849 219.857L177.458 220.736L176.176 221.815L175.142 223.052L174.342 224.383L173.766 225.834L173.403 227.359L173.234 228.924L173.269 230.554L173.488 232.169L173.88 233.754L174.447 235.319L175.172 236.819L176.042 238.201L177.055 239.482L178.58 241.003L180.235 242.349L182.029 243.522L183.917 244.545L185.884 245.45L187.936 246.23L191.076 247.213L194.241 248.028L198.474 248.928L202.787 249.573L205.678 249.822L208.545 249.877L211.387 249.737L214.204 249.36L216.952 248.704L219.655 247.765L221.602 246.831L223.446 245.693L225.19 244.352L226.789 242.841L228.201 241.202L229.433 239.423L230.461 237.53L231.226 235.577L231.748 233.555L231.986 231.493L231.907 229.426L231.51 227.325L230.908 225.615L230.153 223.981L229.229 222.416L227.674 220.155L226.019 217.969L224.375 215.773L222.849 213.497L221.96 211.907L221.25 210.253L220.708 208.529L220.46 207.028L220.42 205.483L220.599 203.958L220.996 202.497L221.622 201.141L222.482 199.943L222.914 199.293L223.123 198.542L223.088 197.767L222.815 197.037L222.78 196.977Z" fill="#364A6A"/>
    </g>
    <path fill-rule="evenodd" clip-rule="evenodd" d="M396.008 196.969C391.198 201.086 388.914 212.945 392.075 215.886C393.421 217.139 396.546 218.682 399.882 218.749C399.178 220.235 398.556 221.496 398.009 222.536C396.383 225.623 394.445 227.53 392.193 228.252L412.437 231.745C409.741 229.138 408.26 226.52 407.993 223.886C407.821 222.184 408.054 219.523 408.696 215.894C412.747 213.354 416.044 209.438 416.846 205.314C418.808 195.192 400.82 192.855 396.008 196.969Z" fill="url(#1oy97hldz__paint5_linear_2824_34660)"/>
    <g filter="url(#1oy97hldz__filter6_i_2824_34660)">
      <path fill-rule="evenodd" clip-rule="evenodd" d="M407.249 220.133C413.734 213.484 419.086 206.07 419.347 202.593C419.521 200.275 418.646 198.556 416.722 197.431C416.942 192.802 414.017 189.975 407.948 188.954C406.598 188.726 404.382 189.626 403.07 189.154C400.724 188.306 400.004 187.859 398.32 187.558C396.106 187.162 394.561 187.828 393.341 189.298C391.844 191.106 392.065 194.335 394.108 196.97C395.949 199.338 398.595 199.08 400.095 200.18C401.101 200.919 402.075 204.02 403.018 209.487L403.779 208.081C405.497 205.331 407.012 204.514 408.329 205.627C409.642 206.74 409.638 208.136 408.311 209.82C406.451 213.266 405.459 215.546 405.339 216.654C405.218 217.763 405.855 218.922 407.249 220.133Z" fill="#3E2D0E"/>
    </g>
    <path d="M384.368 395.532H377.228L373.834 367.992H384.368V395.532Z" fill="#F3DADD"/>
    <path d="M372.13 393.49H385.898V402.16H363.46L363.535 401.027L363.753 399.924L364.121 398.841L364.623 397.823L365.249 396.889L365.999 396.029L366.854 395.279L367.793 394.658L368.811 394.151L369.889 393.788L370.992 393.565L372.13 393.49Z" fill="#0D187E"/>
    <path d="M411.158 395.532H404.018L400.625 367.992H411.158V395.532Z" fill="#F3DADD"/>
    <path d="M398.92 393.49H412.688V402.16H390.25L390.325 401.027L390.543 399.924L390.906 398.846L391.413 397.823L392.034 396.889L392.789 396.034L393.644 395.284L394.578 394.658L395.601 394.151L396.679 393.788L397.782 393.565L398.92 393.49Z" fill="#0D187E"/>
    <path d="M410.283 313.513L409.225 312.654L408.375 311.591L407.779 310.363L407.461 309.037L407.441 307.671L407.714 306.339L408.271 305.092L409.086 303.999L404.381 237.282L417.925 238.599L418.297 303.929L419.003 304.834L419.534 305.837L419.872 306.92L420.011 308.058L419.942 309.201L419.669 310.304L419.202 311.337L418.551 312.281L417.736 313.091L416.802 313.732L415.768 314.194L414.65 314.467L413.508 314.532L412.38 314.393L411.302 314.05L410.283 313.513Z" fill="url(#1oy97hldz__paint6_linear_2824_34660)"/>
    <path d="M384.079 393.889L376.219 393.511L375.539 393.387L374.957 393.124L374.45 392.711L374.063 392.19L373.819 391.598L373.72 390.913L373.129 299.16L373.184 298.603L373.357 298.067L373.646 297.585L374.028 297.167L374.49 296.849L375.007 296.631L375.563 296.531L376.125 296.551L407.57 301.117L408.176 301.276L408.703 301.564L409.17 301.982L409.523 302.503L409.737 303.065L409.811 303.691L414.148 390.913L414.059 391.603L413.811 392.219L413.388 392.776L412.837 393.203L412.221 393.457L411.53 393.551H403.054L402.418 393.471L401.856 393.263L401.35 392.925L400.937 392.478L400.644 391.956L400.465 391.34L394.945 344.571L394.707 343.881L394.24 343.324L393.609 342.962L392.893 342.847L392.183 342.991L391.567 343.374L391.12 343.95L390.906 344.641L386.802 391.583L386.638 392.219L386.355 392.761L385.938 393.228L385.426 393.586L384.854 393.804L384.199 393.889H384.079Z" fill="#112444"/>
    <path d="M389.565 303.69L386.126 301.941L383.19 300.709L380.363 299.75L378.107 299.154L376.03 298.752L374.609 298.568L374.103 298.463L373.621 298.265L373.193 297.967L372.831 297.594L372.548 297.152L372.359 296.66L372.269 296.143L372.289 295.617L379.821 239.677L380.303 237.257L381.083 234.932L382.147 232.721L383.498 230.654L385.093 228.771L386.906 227.121L388.919 225.71L391.1 224.562L393.341 223.698L395.656 223.132L398.031 222.863L400.431 222.898L402.805 223.241L405.106 223.872L407.307 224.796L409.384 225.993L410.144 226.52L411.625 227.722L412.966 229.049L414.168 230.5L415.232 232.06L416.131 233.714L416.871 235.473L417.438 237.297L417.815 239.14L418.014 241.018L418.029 242.901L417.86 244.779L417.502 246.652L416.429 251.521L415.44 256.937L414.586 262.487L413.831 268.21L413.18 273.929L412.633 279.434L411.798 289.59L411.277 297.639L411.023 302.557L410.879 303.308L410.526 303.983L409.995 304.525L409.324 304.893L407.153 305.573L404.962 306.06L402.731 306.363L400.46 306.468L398.557 306.398L396.684 306.17L394.831 305.782L393.023 305.235L391.269 304.54L389.565 303.69Z" fill="#FEBE26"/>
    <path d="M407.451 259.7L407.019 259.312L406.686 258.835L406.462 258.294L406.368 257.723L405.374 239.742L405.424 238.41L405.712 237.128L406.224 235.921L406.959 234.813L407.883 233.859L408.956 233.099L410.144 232.547L411.431 232.214L412.757 232.125L414.064 232.274L415.316 232.662L416.498 233.278L417.542 234.097L418.411 235.081L419.087 236.209L419.549 237.451L423.911 253.529L424.001 254.22L423.916 254.871L423.653 255.517L423.231 256.068L422.704 256.47L422.063 256.744L409.667 260.102L409.09 260.192L408.509 260.152L407.953 259.988L407.451 259.7Z" fill="url(#1oy97hldz__paint7_linear_2824_34660)"/>
    <path d="M344.034 230.764L344.178 231.723L369.194 246.151L375.27 242.653L381.754 251.139L368.747 260.41L340.203 237.893L339.006 238.201L337.798 238.266L336.571 238.082L335.408 237.655L334.38 237.024L333.476 236.174L332.76 235.161L332.273 234.058L332.01 232.84L332 231.598L332.229 230.416L332.701 229.268L333.396 228.24L334.256 227.395L335.299 226.719L336.457 226.272L337.644 226.063L338.881 226.103L340.094 226.386L341.187 226.893L342.185 227.629L343.015 228.553L343.631 229.591L344.034 230.764Z" fill="url(#1oy97hldz__paint8_linear_2824_34660)"/>
    <path d="M370.083 244.923L370.088 244.342L370.217 243.776L370.471 243.249L370.838 242.797L383.573 230.063L384.591 229.213L385.739 228.572L386.981 228.15L388.298 227.956L389.624 228.011L390.906 228.299L392.113 228.816L393.221 229.556L394.17 230.485L394.931 231.553L395.477 232.746L395.805 234.037L395.894 235.364L395.74 236.666L395.353 237.923L394.732 239.1L385.664 253.072L385.212 253.598L384.666 253.971L384.015 254.204L383.319 254.259L382.668 254.14L382.042 253.842L371.266 246.846L370.814 246.478L370.456 246.021L370.207 245.495L370.083 244.923Z" fill="#FEBE26"/>
    <g filter="url(#1oy97hldz__filter7_d_2824_34660)">
      <rect x="52" y="90" width="113" height="40" rx="8" fill="#fff" shape-rendering="crispEdges"/>
      <path d="M80.704 112.64V117.648H79.584V116.96H72.704V117.648H71.584V112.64H80.704ZM72.704 115.92H79.584V113.68H72.704V115.92ZM73.984 105.504L75.104 105.744C74.864 106.112 74.624 106.464 74.368 106.8H80.272V107.728C79.616 108.64 78.672 109.44 77.44 110.144C79.184 110.832 81.136 111.248 83.296 111.408L83.04 112.448C80.48 112.256 78.224 111.696 76.24 110.736C74.352 111.6 71.968 112.272 69.088 112.768L68.656 111.744C71.232 111.328 73.376 110.8 75.072 110.128C74.256 109.648 73.504 109.104 72.816 108.496C72.192 109.056 71.52 109.552 70.816 110L70.08 109.104C71.664 108.192 72.96 106.992 73.984 105.504ZM76.256 109.616C77.36 109.072 78.24 108.448 78.896 107.776H73.536L73.488 107.824C74.336 108.528 75.264 109.12 76.256 109.616ZM82.496 104.128V107.152H81.328V105.168H70.672V107.152H69.504V104.128H75.36C75.168 103.712 74.976 103.344 74.768 103.008L76.032 102.816C76.224 103.2 76.4 103.648 76.592 104.128H82.496ZM86.912 108.4V111.072H89.488V108.4H86.912ZM89.488 107.36V104.656H86.912V107.36H89.488ZM86.896 112.112C86.8 114.352 86.416 116.192 85.76 117.632L84.896 116.832C85.536 115.392 85.856 113.536 85.872 111.296V103.616H90.544V116.096C90.544 117.056 90.096 117.552 89.2 117.552H87.92L87.648 116.528C88.096 116.56 88.496 116.592 88.88 116.592C89.28 116.592 89.488 116.304 89.488 115.728V112.112H86.896ZM92.976 110.528V117.616H91.888V103.6H98.368C98.368 105.584 98.272 106.896 98.08 107.536C97.888 108.192 97.296 108.528 96.288 108.528H94.992L94.688 107.536C94.96 107.536 95.312 107.552 95.76 107.552C96.144 107.552 96.416 107.52 96.608 107.472C96.8 107.408 96.944 107.248 97.04 107.008C97.152 106.656 97.216 105.872 97.248 104.656H92.976V109.504H98.416V110.48C98.112 112.128 97.584 113.536 96.848 114.688C97.568 115.392 98.416 116.016 99.392 116.576L98.816 117.552C97.792 116.96 96.928 116.304 96.192 115.584C95.488 116.4 94.672 117.056 93.712 117.568L93.104 116.64C94.016 116.144 94.784 115.52 95.424 114.752C94.4 113.504 93.712 112.096 93.36 110.528H92.976ZM94.352 110.528C94.688 111.76 95.264 112.864 96.08 113.856C96.672 112.896 97.104 111.792 97.392 110.528H94.352ZM107.76 105.392C107.28 106.272 106.672 107.056 105.968 107.744L105.264 106.832C106.384 105.744 107.136 104.432 107.52 102.864L108.672 103.008C108.544 103.472 108.416 103.904 108.272 104.304H114.416V105.232C113.952 106.288 113.44 107.184 112.88 107.92L112.016 107.248C112.448 106.72 112.832 106.096 113.184 105.392H107.76ZM102.096 103.28C103.184 103.968 104.112 104.656 104.864 105.36L104.064 106.144C103.408 105.472 102.496 104.768 101.328 104.032L102.096 103.28ZM104.512 107.184L105.392 107.84C104.224 109.264 103.008 110.448 101.744 111.392L100.992 110.544C102.288 109.584 103.456 108.464 104.512 107.184ZM113.264 111.808V117.616H112.144V116.848H103.92V117.616H102.8V111.808H113.264ZM103.92 115.76H112.144V112.896H103.92V115.76ZM109.536 105.872L110.624 105.984C110.56 106.384 110.496 106.768 110.4 107.12C111.072 108.688 112.72 109.776 115.344 110.4L114.784 111.392C112.4 110.752 110.784 109.712 109.936 108.288C109.696 108.72 109.408 109.12 109.072 109.472C108.304 110.24 106.96 110.864 105.04 111.312L104.608 110.304C106.272 109.952 107.456 109.44 108.176 108.768C108.912 108.08 109.376 107.12 109.536 105.872ZM122.768 107.6H127.664V114.928H122.768V107.6ZM126.576 113.936V111.712H123.888V113.936H126.576ZM123.888 110.752H126.576V108.592H123.888V110.752ZM123.824 102.88L124.976 103.04C124.832 103.6 124.656 104.128 124.464 104.64H130.768C130.768 110.48 130.688 114.096 130.544 115.472C130.384 116.8 129.616 117.472 128.272 117.472C127.984 117.472 127.472 117.456 126.752 117.424L126.48 116.384C127.12 116.416 127.664 116.448 128.128 116.448C128.864 116.448 129.296 115.968 129.424 115.024C129.536 114.016 129.6 110.912 129.632 105.728H123.968C123.408 106.8 122.704 107.76 121.84 108.592L121.12 107.664C122.464 106.352 123.36 104.768 123.824 102.88ZM118.592 103.088C119.648 103.904 120.56 104.72 121.296 105.552L120.512 106.352C119.84 105.568 118.944 104.736 117.792 103.872L118.592 103.088ZM116.672 107.824H120.128V114.912C120.64 114.464 121.184 113.936 121.776 113.344L122.096 114.56C121.168 115.488 120.176 116.304 119.12 117.024L118.672 116C118.896 115.792 119.024 115.552 119.024 115.296V108.928H116.672V107.824ZM134.448 109.632H145.584V113.712H140.56V114.608H145.984V115.376H140.56V116.32H147.152V117.216H132.848V116.32H139.408V115.376H134.048V114.608H139.408V113.712H134.448V109.632ZM144.48 112.992V112.016H140.56V112.992H144.48ZM139.408 112.992V112.016H135.552V112.992H139.408ZM135.552 111.344H139.408V110.352H135.552V111.344ZM140.56 110.352V111.344H144.48V110.352H140.56ZM134.8 103.184H145.248V107.136H134.8V103.184ZM144.128 106.448V105.504H135.92V106.448H144.128ZM135.92 104.816H144.128V103.888H135.92V104.816ZM132.832 107.968H147.168V108.832H132.832V107.968Z" fill="#262626"/>
    </g>
    <g filter="url(#1oy97hldz__filter8_d_2824_34660)">
      <rect x="465" y="91" width="96" height="40" rx="8" fill="#fff" shape-rendering="crispEdges"/>
      <path d="M488.584 103.976H489.416C491.432 106.088 493.752 107.736 496.376 108.952L495.8 109.976C493.144 108.696 490.888 107.048 489 105.016C487.256 106.952 484.968 108.632 482.136 110.056L481.576 109.048C484.392 107.688 486.728 105.992 488.584 103.976ZM484.536 109.032H493.464V110.136H489.592V112.92H494.216V114.024H489.592V116.984H495.672V118.12H482.344V116.984H488.408V114.024H483.768V112.92H488.408V110.136H484.536V109.032ZM500.008 107.192C500.392 107.928 500.76 108.824 501.08 109.88H502.76C503.224 109 503.624 108.056 503.944 107.064L505.016 107.432C504.68 108.344 504.312 109.16 503.896 109.88H505.832V111H497.816V109.88H499.976C499.688 109.048 499.352 108.28 498.952 107.576L500.008 107.192ZM506.568 104.6H511.816V105.464C511.32 107.144 510.792 108.712 510.216 110.152C511.416 111.656 512.024 112.904 512.04 113.864C512.04 114.856 511.832 115.544 511.416 115.928C510.968 116.312 510.088 116.52 508.776 116.52L508.408 115.304C508.856 115.336 509.224 115.368 509.528 115.368C510.104 115.336 510.472 115.224 510.632 115.032C510.792 114.824 510.872 114.44 510.888 113.864C510.872 112.92 510.232 111.688 508.984 110.152C509.512 108.888 510.04 107.384 510.552 105.656H507.688V118.568H506.568V104.6ZM498.12 105.48H501.336C501.144 104.952 500.952 104.472 500.744 104.04L501.928 103.832C502.104 104.312 502.28 104.872 502.456 105.48H505.72V106.6H498.12V105.48ZM505.096 112.456V118.488H503.96V117.592H499.864V118.488H498.728V112.456H505.096ZM499.864 116.504H503.96V113.544H499.864V116.504ZM514.664 105.32H520.408V103.96H521.592V105.32H527.336V106.376H521.592V107.896H526.408V108.952H521.592V110.472H527.896V111.512H522.072C522.504 112.536 523.032 113.448 523.656 114.248C524.552 113.832 525.416 113.192 526.248 112.312L527.048 113.08C526.232 113.896 525.32 114.536 524.296 114.984C525.352 116.104 526.632 116.952 528.12 117.512L527.512 118.52C524.536 117.32 522.36 114.984 521.016 111.512H520.456C519.896 112.312 519.176 113.048 518.296 113.72V117.128C519.496 116.776 520.68 116.344 521.864 115.864L522.088 116.936C520.424 117.608 518.744 118.152 517.032 118.568L516.648 117.576C516.984 117.448 517.16 117.256 517.16 117V114.488C516.296 115.016 515.336 115.496 514.248 115.928L513.64 114.936C516.2 114.04 518.056 112.904 519.24 111.512H514.104V110.472H520.408V108.952H515.592V107.896H520.408V106.376H514.664V105.32ZM531.416 106.424H538.312C538.824 105.624 539.288 104.744 539.688 103.816L540.808 104.216C540.424 105.032 539.992 105.768 539.512 106.424H542.584V113H537.576V114.52H544.104V115.608H537.576V118.648H536.424V115.608H529.896V114.52H536.424V113H531.416V106.424ZM541.464 111.976V110.184H537.576V111.976H541.464ZM536.424 111.976V110.184H532.536V111.976H536.424ZM532.536 109.192H536.424V107.432H532.536V109.192ZM537.576 107.432V109.192H541.464V107.432H537.576ZM534.248 103.896C534.776 104.504 535.272 105.192 535.752 105.928L534.792 106.408C534.312 105.64 533.816 104.968 533.272 104.36L534.248 103.896Z" fill="#262626"/>
    </g>
    <g filter="url(#1oy97hldz__filter9_d_2824_34660)">
      <rect x="21" y="155" width="113" height="40" rx="8" fill="#fff" shape-rendering="crispEdges"/>
      <path d="M40.568 180.792H47.24C48.232 178.52 49.096 175.72 49.832 172.36L50.968 172.664C50.296 175.704 49.48 178.424 48.488 180.792H51.864V181.912H40.568V180.792ZM42.312 173.144C42.952 174.84 43.528 176.808 44.04 179.016L42.952 179.288C42.52 177.272 41.976 175.32 41.304 173.464L42.312 173.144ZM45.4 172.008C45.944 173.768 46.44 175.8 46.888 178.072L45.784 178.328C45.432 176.248 44.968 174.248 44.392 172.328L45.4 172.008ZM45.416 167.8C45.72 168.296 46.008 168.856 46.264 169.464H52.12V170.584H40.264V174.152C40.2 177.672 39.656 180.488 38.616 182.6L37.672 181.752C38.568 179.928 39.048 177.4 39.08 174.152V169.464H45.016C44.76 168.952 44.472 168.472 44.152 168.024L45.416 167.8ZM56.408 173.512V176.312H60.472V173.512H56.408ZM56.344 177.368C56.168 179.416 55.576 181.112 54.552 182.456L53.672 181.672C54.696 180.248 55.224 178.44 55.256 176.248V168.568H67.176V180.552C67.176 181.672 66.616 182.232 65.496 182.232H63.656L63.352 181.096C63.992 181.128 64.584 181.16 65.128 181.16C65.704 181.16 66.008 180.824 66.008 180.152V177.368H61.656V182.056H60.472V177.368H56.344ZM66.008 176.312V173.512H61.656V176.312H66.008ZM66.008 172.44V169.688H61.656V172.44H66.008ZM60.472 169.688H56.408V172.44H60.472V169.688ZM76.76 170.392C76.28 171.272 75.672 172.056 74.968 172.744L74.264 171.832C75.384 170.744 76.136 169.432 76.52 167.864L77.672 168.008C77.544 168.472 77.416 168.904 77.272 169.304H83.416V170.232C82.952 171.288 82.44 172.184 81.88 172.92L81.016 172.248C81.448 171.72 81.832 171.096 82.184 170.392H76.76ZM71.096 168.28C72.184 168.968 73.112 169.656 73.864 170.36L73.064 171.144C72.408 170.472 71.496 169.768 70.328 169.032L71.096 168.28ZM73.512 172.184L74.392 172.84C73.224 174.264 72.008 175.448 70.744 176.392L69.992 175.544C71.288 174.584 72.456 173.464 73.512 172.184ZM82.264 176.808V182.616H81.144V181.848H72.92V182.616H71.8V176.808H82.264ZM72.92 180.76H81.144V177.896H72.92V180.76ZM78.536 170.872L79.624 170.984C79.56 171.384 79.496 171.768 79.4 172.12C80.072 173.688 81.72 174.776 84.344 175.4L83.784 176.392C81.4 175.752 79.784 174.712 78.936 173.288C78.696 173.72 78.408 174.12 78.072 174.472C77.304 175.24 75.96 175.864 74.04 176.312L73.608 175.304C75.272 174.952 76.456 174.44 77.176 173.768C77.912 173.08 78.376 172.12 78.536 170.872ZM91.768 172.6H96.664V179.928H91.768V172.6ZM95.576 178.936V176.712H92.888V178.936H95.576ZM92.888 175.752H95.576V173.592H92.888V175.752ZM92.824 167.88L93.976 168.04C93.832 168.6 93.656 169.128 93.464 169.64H99.768C99.768 175.48 99.688 179.096 99.544 180.472C99.384 181.8 98.616 182.472 97.272 182.472C96.984 182.472 96.472 182.456 95.752 182.424L95.48 181.384C96.12 181.416 96.664 181.448 97.128 181.448C97.864 181.448 98.296 180.968 98.424 180.024C98.536 179.016 98.6 175.912 98.632 170.728H92.968C92.408 171.8 91.704 172.76 90.84 173.592L90.12 172.664C91.464 171.352 92.36 169.768 92.824 167.88ZM87.592 168.088C88.648 168.904 89.56 169.72 90.296 170.552L89.512 171.352C88.84 170.568 87.944 169.736 86.792 168.872L87.592 168.088ZM85.672 172.824H89.128V179.912C89.64 179.464 90.184 178.936 90.776 178.344L91.096 179.56C90.168 180.488 89.176 181.304 88.12 182.024L87.672 181C87.896 180.792 88.024 180.552 88.024 180.296V173.928H85.672V172.824ZM103.448 174.632H114.584V178.712H109.56V179.608H114.984V180.376H109.56V181.32H116.152V182.216H101.848V181.32H108.408V180.376H103.048V179.608H108.408V178.712H103.448V174.632ZM113.48 177.992V177.016H109.56V177.992H113.48ZM108.408 177.992V177.016H104.552V177.992H108.408ZM104.552 176.344H108.408V175.352H104.552V176.344ZM109.56 175.352V176.344H113.48V175.352H109.56ZM103.8 168.184H114.248V172.136H103.8V168.184ZM113.128 171.448V170.504H104.92V171.448H113.128ZM104.92 169.816H113.128V168.888H104.92V169.816ZM101.832 172.968H116.168V173.832H101.832V172.968Z" fill="#262626"/>
    </g>
    <g filter="url(#1oy97hldz__filter10_d_2824_34660)">
      <rect x="465" y="221" width="96" height="40" rx="8" fill="#fff" shape-rendering="crispEdges"/>
      <path d="M482.152 234.568H495.864V235.64H489.576V237.032H494.536V243.368H489.384C489.192 244.424 488.888 245.272 488.44 245.912C490.68 246.856 493.336 247.384 496.408 247.48L496.12 248.584C492.904 248.456 490.104 247.832 487.72 246.744C486.6 247.704 484.76 248.312 482.216 248.6L481.72 247.544C483.944 247.368 485.576 246.92 486.6 246.184C485.672 245.672 484.808 245.08 484.024 244.408L484.904 243.8C485.656 244.424 486.488 244.968 487.384 245.432C487.768 244.888 488.056 244.2 488.216 243.368H483.528V237.032H488.424V235.64H482.152V234.568ZM493.4 242.36V240.664H489.576V241.224L489.528 242.36H493.4ZM488.376 242.36C488.408 241.992 488.424 241.608 488.424 241.224V240.664H484.664V242.36H488.376ZM484.664 239.704H488.424V238.024H484.664V239.704ZM489.576 238.024V239.704H493.4V238.024H489.576ZM504.936 233.88L505.96 234.424C505.672 234.744 505.368 235.048 505.048 235.336H509.64V236.248C507.912 239.32 504.696 241.048 500.024 241.416L499.528 240.376C500.968 240.28 502.248 240.072 503.4 239.736C502.904 239.128 502.376 238.568 501.832 238.072L502.84 237.592C503.416 238.136 503.96 238.712 504.472 239.352C506.136 238.68 507.432 237.672 508.328 236.36H503.656C502.408 237.096 500.936 237.656 499.224 238.04L498.552 236.984C501.4 236.44 503.528 235.416 504.936 233.88ZM504.328 243.88C504.936 244.504 505.528 245.176 506.072 245.896C507.848 245.128 509.24 244.024 510.264 242.616H505.528C504.12 243.288 502.456 243.8 500.52 244.136L499.832 243.112C503.32 242.76 505.896 241.688 507.56 239.928L508.552 240.472C508.168 240.856 507.768 241.224 507.32 241.56H511.704V242.472C509.432 246.248 505.208 248.2 499 248.344L498.536 247.24C501.032 247.224 503.192 246.92 505 246.312C504.456 245.592 503.896 244.936 503.304 244.36L504.328 243.88ZM519.112 244.952V246.056C517.64 246.792 515.976 247.4 514.12 247.848L513.976 246.696C515.928 246.264 517.64 245.688 519.112 244.952ZM516.552 233.896L517.656 234.344C516.856 236.392 516.04 238.024 515.208 239.24C515.912 239.144 516.616 239.016 517.32 238.888C517.608 238.344 517.896 237.784 518.2 237.176L519.24 237.576C517.832 240.232 516.664 242.136 515.736 243.288C516.856 243 517.976 242.616 519.112 242.12V243.192C517.432 243.896 515.816 244.36 514.28 244.616L513.96 243.56C514.168 243.464 514.344 243.336 514.488 243.208C515.096 242.568 515.848 241.496 516.728 239.96C515.864 240.12 514.984 240.28 514.104 240.408L513.8 239.352C513.992 239.272 514.152 239.128 514.312 238.904C515.176 237.448 515.912 235.784 516.552 233.896ZM519.656 240.92L519.4 239.896C519.496 239.864 519.56 239.832 519.624 239.816C520.168 239.416 520.856 238.392 521.72 236.728H518.984V235.624H523.064C522.84 235.016 522.6 234.472 522.344 233.976L523.512 233.784C523.752 234.328 523.992 234.952 524.216 235.624H527.816V236.728H522.92C522.216 238.12 521.592 239.128 521.048 239.768C522.536 239.64 524.024 239.464 525.496 239.224C525.144 238.712 524.76 238.184 524.36 237.672L525.24 237.128C526.328 238.52 527.176 239.736 527.768 240.792L526.872 241.416C526.648 241 526.408 240.6 526.136 240.184C524.152 240.504 521.992 240.744 519.656 240.92ZM520.952 241.576H522.072C521.992 243.592 521.736 245.08 521.32 246.024C520.856 247.016 520.088 247.864 519 248.568L518.264 247.656C519.208 247.048 519.88 246.344 520.28 245.528C520.664 244.696 520.888 243.384 520.952 241.576ZM526.648 248.312H525.528C524.568 248.312 524.088 247.848 524.088 246.92V241.432H525.192V246.728C525.192 247.064 525.304 247.24 525.56 247.272H526.6C526.952 247.24 527.16 247.048 527.224 246.696C527.288 246.248 527.336 245.56 527.336 244.616L528.328 244.968C528.328 246.472 528.216 247.416 528.008 247.768C527.8 248.088 527.352 248.28 526.648 248.312ZM534.728 238.728H539.064V233.912H540.248V238.728H544.36V239.88H540.248V248.632H539.064V239.88H534.728V238.728ZM531.592 234.088C532.68 234.904 533.592 235.72 534.328 236.552L533.544 237.352C532.872 236.568 531.944 235.736 530.792 234.872L531.592 234.088ZM529.72 238.824H533.176V245.944C533.752 245.464 534.392 244.92 535.064 244.28L535.352 245.464C534.36 246.424 533.288 247.272 532.152 248.024L531.704 246.984C531.944 246.792 532.072 246.568 532.072 246.312V239.928H529.72V238.824Z" fill="#262626"/>
    </g>
    <g filter="url(#1oy97hldz__filter11_d_2824_34660)">
      <rect x="52" y="220" width="113" height="40" rx="8" fill="#fff" shape-rendering="crispEdges"/>
      <path d="M80.704 242.64V247.648H79.584V246.96H72.704V247.648H71.584V242.64H80.704ZM72.704 245.92H79.584V243.68H72.704V245.92ZM73.984 235.504L75.104 235.744C74.864 236.112 74.624 236.464 74.368 236.8H80.272V237.728C79.616 238.64 78.672 239.44 77.44 240.144C79.184 240.832 81.136 241.248 83.296 241.408L83.04 242.448C80.48 242.256 78.224 241.696 76.24 240.736C74.352 241.6 71.968 242.272 69.088 242.768L68.656 241.744C71.232 241.328 73.376 240.8 75.072 240.128C74.256 239.648 73.504 239.104 72.816 238.496C72.192 239.056 71.52 239.552 70.816 240L70.08 239.104C71.664 238.192 72.96 236.992 73.984 235.504ZM76.256 239.616C77.36 239.072 78.24 238.448 78.896 237.776H73.536L73.488 237.824C74.336 238.528 75.264 239.12 76.256 239.616ZM82.496 234.128V237.152H81.328V235.168H70.672V237.152H69.504V234.128H75.36C75.168 233.712 74.976 233.344 74.768 233.008L76.032 232.816C76.224 233.2 76.4 233.648 76.592 234.128H82.496ZM86.912 238.4V241.072H89.488V238.4H86.912ZM89.488 237.36V234.656H86.912V237.36H89.488ZM86.896 242.112C86.8 244.352 86.416 246.192 85.76 247.632L84.896 246.832C85.536 245.392 85.856 243.536 85.872 241.296V233.616H90.544V246.096C90.544 247.056 90.096 247.552 89.2 247.552H87.92L87.648 246.528C88.096 246.56 88.496 246.592 88.88 246.592C89.28 246.592 89.488 246.304 89.488 245.728V242.112H86.896ZM92.976 240.528V247.616H91.888V233.6H98.368C98.368 235.584 98.272 236.896 98.08 237.536C97.888 238.192 97.296 238.528 96.288 238.528H94.992L94.688 237.536C94.96 237.536 95.312 237.552 95.76 237.552C96.144 237.552 96.416 237.52 96.608 237.472C96.8 237.408 96.944 237.248 97.04 237.008C97.152 236.656 97.216 235.872 97.248 234.656H92.976V239.504H98.416V240.48C98.112 242.128 97.584 243.536 96.848 244.688C97.568 245.392 98.416 246.016 99.392 246.576L98.816 247.552C97.792 246.96 96.928 246.304 96.192 245.584C95.488 246.4 94.672 247.056 93.712 247.568L93.104 246.64C94.016 246.144 94.784 245.52 95.424 244.752C94.4 243.504 93.712 242.096 93.36 240.528H92.976ZM94.352 240.528C94.688 241.76 95.264 242.864 96.08 243.856C96.672 242.896 97.104 241.792 97.392 240.528H94.352ZM108.32 232.944H109.424V247.6H108.32V244.08H105.168V243.024H108.32V240.256H106.064V239.2H108.32V236.544H105.808V235.504H108.32V232.944ZM102.48 247.456H101.008L100.752 246.336C101.216 246.368 101.664 246.4 102.08 246.4C102.528 246.4 102.768 246.208 102.768 245.824V242C102.192 242.224 101.6 242.448 101.008 242.64L100.736 241.472C101.424 241.296 102.096 241.088 102.768 240.832V237.104H101.04V236H102.768V232.976H103.888V236H105.312V237.104H103.888V240.368C104.416 240.112 104.928 239.856 105.44 239.568V240.752C104.928 241.024 104.416 241.28 103.888 241.52V246.112C103.888 247.008 103.408 247.456 102.48 247.456ZM111.328 232.944H112.448V235.504H115.184V236.544H112.448V239.2H114.848V240.256H112.448V243.024H115.296V244.08H112.448V247.6H111.328V232.944ZM122.8 233.952H130.464V235.088H122.8V233.952ZM122.368 238.016H131.168V239.152H128.576V246.144C128.576 247.072 128.048 247.536 127.024 247.536H124.672L124.432 246.4C125.2 246.448 125.92 246.48 126.624 246.48C127.136 246.48 127.408 246.272 127.408 245.856V239.152H122.368V238.016ZM120.272 233.072L121.312 233.552C120.416 235.328 118.976 236.896 116.992 238.256L116.656 237.104C118.32 235.92 119.52 234.576 120.272 233.072ZM121.024 236.72L122.064 237.2C121.6 238.096 121.024 238.96 120.32 239.76V247.6H119.184V240.928C118.544 241.504 117.856 242.064 117.088 242.592L116.752 241.44C118.704 240.064 120.128 238.496 121.024 236.72ZM132.832 235.856H134.88V232.928H136V235.856H137.696V236.976H136V238.144C136.64 238.912 137.28 239.776 137.92 240.704L137.28 241.68C136.784 240.72 136.352 239.952 136 239.376V247.552H134.88V239.552C134.416 241.056 133.824 242.432 133.088 243.68L132.592 242.416C133.648 240.816 134.4 239.008 134.848 236.976H132.832V235.856ZM138.384 234.304H142.08C141.888 233.84 141.696 233.408 141.472 233.024L142.624 232.832C142.832 233.264 143.024 233.76 143.216 234.304H146.832V235.328H145.248C145.104 235.968 144.912 236.608 144.688 237.216H146.896V239.632H145.792V238.24H139.392V239.696H138.288V237.216H140.592C140.4 236.512 140.192 235.888 139.968 235.328H138.384V234.304ZM143.584 237.216C143.84 236.608 144.016 235.984 144.144 235.328H141.12C141.312 235.904 141.504 236.528 141.68 237.216H143.584ZM138.224 240.464H142.208C142.016 239.92 141.792 239.424 141.568 238.976L142.704 238.784C142.928 239.28 143.136 239.84 143.328 240.464H147.136V241.52H141.808C141.776 242.032 141.728 242.528 141.632 242.992H146.064C146.064 245.312 145.824 246.672 145.36 247.072C145.168 247.232 144.864 247.36 144.48 247.44C144.16 247.488 143.824 247.52 143.504 247.52H142.576L142.272 246.496H143.696C144.112 246.496 144.416 246.4 144.592 246.24C144.784 246.064 144.896 245.312 144.944 244H141.36C140.784 245.616 139.728 246.864 138.176 247.728L137.568 246.768C139.536 245.712 140.592 243.968 140.72 241.52H138.224V240.464Z" fill="#262626"/>
    </g>
    <g filter="url(#1oy97hldz__filter12_d_2824_34660)">
      <rect x="207" y="27" width="96" height="40" rx="8" fill="#fff" shape-rendering="crispEdges"/>
      <path d="M228.68 40.088H229.848V52.808H232.12V40.088H233.288V52.808H238.088V53.928H223.912V52.808H228.68V40.088ZM236.632 43L237.656 43.288C237.016 46.072 236.216 48.504 235.24 50.6L234.2 50.232C235.128 48.344 235.944 45.928 236.632 43ZM225.288 42.968C226.12 45.128 226.872 47.608 227.528 50.408L226.472 50.68C225.896 48.12 225.176 45.656 224.312 43.288L225.288 42.968ZM245.144 51.416V52.504C243.64 53.112 241.944 53.592 240.04 53.976L239.912 52.856C241.896 52.488 243.64 52.008 245.144 51.416ZM242.504 39.912L243.576 40.328C242.792 42.408 241.992 44.056 241.192 45.288C241.912 45.192 242.632 45.08 243.336 44.952C243.624 44.408 243.912 43.832 244.216 43.224L245.24 43.624C243.832 46.328 242.648 48.248 241.72 49.384C242.824 49.16 243.944 48.84 245.064 48.44V49.48C243.432 50.024 241.864 50.408 240.36 50.616L240.072 49.592C240.264 49.512 240.44 49.416 240.568 49.288C241.176 48.648 241.896 47.544 242.76 46.008C241.896 46.168 241.016 46.296 240.12 46.424L239.848 45.4C240.008 45.32 240.168 45.176 240.312 44.984C241.144 43.512 241.88 41.816 242.504 39.912ZM245.736 40.792H249.224V39.944H250.344V40.792H253.784V41.752H250.344V42.776H253.416V43.672H250.344V44.712H254.184V45.704H245.352V44.712H249.224V43.672H246.136V42.776H249.224V41.752H245.736V40.792ZM253.208 46.824V51.848H252.12V47.832H247.464V51.896H246.36V46.824H253.208ZM249.304 48.648H250.408C250.408 49.912 250.168 50.984 249.704 51.864C249.096 53.016 247.72 53.96 245.56 54.696L244.84 53.816C246.728 53.224 247.976 52.472 248.584 51.576C249.064 50.792 249.304 49.816 249.304 48.648ZM250.616 51.784C251.992 52.312 253.256 52.952 254.408 53.72L253.784 54.648C252.568 53.8 251.32 53.128 250.04 52.648L250.616 51.784ZM261.112 50.952V52.056C259.64 52.792 257.976 53.4 256.12 53.848L255.976 52.696C257.928 52.264 259.64 51.688 261.112 50.952ZM258.552 39.896L259.656 40.344C258.856 42.392 258.04 44.024 257.208 45.24C257.912 45.144 258.616 45.016 259.32 44.888C259.608 44.344 259.896 43.784 260.2 43.176L261.24 43.576C259.832 46.232 258.664 48.136 257.736 49.288C258.856 49 259.976 48.616 261.112 48.12V49.192C259.432 49.896 257.816 50.36 256.28 50.616L255.96 49.56C256.168 49.464 256.344 49.336 256.488 49.208C257.096 48.568 257.848 47.496 258.728 45.96C257.864 46.12 256.984 46.28 256.104 46.408L255.8 45.352C255.992 45.272 256.152 45.128 256.312 44.904C257.176 43.448 257.912 41.784 258.552 39.896ZM261.656 46.92L261.4 45.896C261.496 45.864 261.56 45.832 261.624 45.816C262.168 45.416 262.856 44.392 263.72 42.728H260.984V41.624H265.064C264.84 41.016 264.6 40.472 264.344 39.976L265.512 39.784C265.752 40.328 265.992 40.952 266.216 41.624H269.816V42.728H264.92C264.216 44.12 263.592 45.128 263.048 45.768C264.536 45.64 266.024 45.464 267.496 45.224C267.144 44.712 266.76 44.184 266.36 43.672L267.24 43.128C268.328 44.52 269.176 45.736 269.768 46.792L268.872 47.416C268.648 47 268.408 46.6 268.136 46.184C266.152 46.504 263.992 46.744 261.656 46.92ZM262.952 47.576H264.072C263.992 49.592 263.736 51.08 263.32 52.024C262.856 53.016 262.088 53.864 261 54.568L260.264 53.656C261.208 53.048 261.88 52.344 262.28 51.528C262.664 50.696 262.888 49.384 262.952 47.576ZM268.648 54.312H267.528C266.568 54.312 266.088 53.848 266.088 52.92V47.432H267.192V52.728C267.192 53.064 267.304 53.24 267.56 53.272H268.6C268.952 53.24 269.16 53.048 269.224 52.696C269.288 52.248 269.336 51.56 269.336 50.616L270.328 50.968C270.328 52.472 270.216 53.416 270.008 53.768C269.8 54.088 269.352 54.28 268.648 54.312ZM276.728 44.728H281.064V39.912H282.248V44.728H286.36V45.88H282.248V54.632H281.064V45.88H276.728V44.728ZM273.592 40.088C274.68 40.904 275.592 41.72 276.328 42.552L275.544 43.352C274.872 42.568 273.944 41.736 272.792 40.872L273.592 40.088ZM271.72 44.824H275.176V51.944C275.752 51.464 276.392 50.92 277.064 50.28L277.352 51.464C276.36 52.424 275.288 53.272 274.152 54.024L273.704 52.984C273.944 52.792 274.072 52.568 274.072 52.312V45.928H271.72V44.824Z" fill="#262626"/>
    </g>
    <g filter="url(#1oy97hldz__filter13_d_2824_34660)">
      <rect x="338" y="27" width="96" height="40" rx="8" fill="#fff" shape-rendering="crispEdges"/>
      <path d="M359.392 43.592C360.32 44.744 361.184 45.848 361.968 46.904C362.608 45.704 363.12 44.408 363.504 43.032L364.64 43.224C364.16 44.952 363.52 46.52 362.72 47.928C363.696 49.304 364.528 50.584 365.216 51.752L364.176 52.456C363.536 51.352 362.832 50.2 362.032 49.016C361.04 50.456 359.872 51.688 358.496 52.728L357.728 51.752C359.152 50.664 360.352 49.416 361.312 47.976C360.448 46.744 359.488 45.48 358.448 44.168L359.392 43.592ZM356.544 40.568H366.896V46.968C366.896 49.592 366.976 51.272 367.168 52.008C367.344 52.728 367.552 53.096 367.808 53.096C368.016 53.096 368.192 52.36 368.336 50.904L369.36 51.4C369.168 52.6 368.96 53.416 368.736 53.864C368.496 54.248 368.224 54.44 367.936 54.44C367.168 54.44 366.624 53.928 366.272 52.936C365.888 51.96 365.712 49.976 365.712 46.968V41.688H357.696V46.776C357.664 49.88 357.008 52.488 355.744 54.6L354.784 53.816C355.904 51.944 356.496 49.592 356.544 46.776V40.568ZM371.36 40.616H376.096V41.496C375.616 42.936 375.056 44.456 374.416 46.024C375.408 47.448 375.936 48.744 376.016 49.896C376.016 50.552 375.856 51.032 375.536 51.336C375.088 51.688 374.336 51.88 373.264 51.896L372.896 50.744C373.136 50.776 373.344 50.808 373.504 50.808C374.048 50.776 374.432 50.696 374.624 50.568C374.8 50.44 374.896 50.216 374.896 49.896C374.896 48.792 374.352 47.56 373.28 46.2C374 44.536 374.56 43.016 374.96 41.672H372.48V54.616H371.36V40.616ZM377.984 44.664C377.376 45.288 376.736 45.832 376.064 46.312L375.488 45.4C377.408 44.008 378.896 42.2 379.936 39.992H380.976C381.84 42.04 383.36 43.816 385.52 45.352L384.896 46.312C384.176 45.8 383.536 45.272 382.976 44.696V45.624H377.984V44.664ZM382.848 44.568C381.84 43.528 381.04 42.376 380.448 41.128C379.744 42.472 378.96 43.608 378.08 44.568H382.848ZM375.68 52.936H381.296C382.048 51.208 382.704 49.096 383.248 46.6L384.368 46.904C383.84 49.176 383.2 51.176 382.448 52.936H385.168V54.04H375.68V52.936ZM377.536 47.176C378.08 48.52 378.576 50.056 379.024 51.784L378.016 52.04C377.632 50.472 377.136 48.952 376.544 47.512L377.536 47.176ZM380.08 46.552C380.544 47.848 380.96 49.336 381.312 51.016L380.32 51.272C380 49.736 379.584 48.28 379.088 46.872L380.08 46.552ZM388.64 54.456H387.2L386.96 53.336C387.408 53.368 387.824 53.4 388.24 53.4C388.624 53.4 388.832 53.192 388.832 52.792V48.888C388.224 49.128 387.6 49.352 386.976 49.544L386.704 48.392C387.424 48.216 388.128 47.992 388.832 47.72V44.104H386.896V43H388.832V39.976H390.016V43H391.632V44.104H390.016V47.224C390.48 47 390.944 46.776 391.392 46.52V47.688C390.944 47.928 390.48 48.152 390.016 48.376V53.096C390.016 53.992 389.552 54.456 388.64 54.456ZM392.88 40.488H399.856V46.04H392.88V40.488ZM398.736 45.096V43.72H394V45.096H398.736ZM394 42.824H398.736V41.432H394V42.824ZM391.76 47.16H400.912V48.184H396.912V49.992H400.256V51.032H396.912V53.096C397.552 53.192 398.304 53.24 399.184 53.24C400.016 53.24 400.736 53.208 401.328 53.16L401.008 54.28C400.368 54.28 399.776 54.264 399.264 54.264C397.152 54.248 395.712 54.04 394.944 53.656C394.336 53.336 393.776 52.728 393.296 51.832C392.912 52.824 392.384 53.736 391.696 54.568L390.848 53.832C392.064 52.36 392.736 50.696 392.864 48.872L393.888 48.984C393.856 49.56 393.776 50.104 393.648 50.648C394.16 51.72 394.752 52.408 395.424 52.712C395.536 52.76 395.664 52.808 395.808 52.856V48.184H391.76V47.16ZM409.152 54.408H407.088L406.848 53.288C407.52 53.32 408.144 53.352 408.752 53.352C409.232 53.352 409.472 53.112 409.472 52.664V46.008H403.184V44.872H416.816V46.008H410.64V52.952C410.64 53.912 410.144 54.408 409.152 54.408ZM405.648 47.768L406.784 48.008C406.112 50.216 405.184 52.12 403.968 53.72L402.96 53.096C404.192 51.496 405.088 49.72 405.648 47.768ZM414.096 47.608C415.184 49.336 416.144 51.16 416.944 53.112L415.888 53.592C415.024 51.464 414.08 49.592 413.056 47.96L414.096 47.608ZM404.656 40.808H415.392V41.928H404.656V40.808Z" fill="#262626"/>
    </g>
    <g filter="url(#1oy97hldz__filter14_d_2824_34660)">
      <rect x="488" y="156" width="96" height="40" rx="8" fill="#fff" shape-rendering="crispEdges"/>
      <path d="M512.368 172.288H513.536V174.192H518.816V175.28H513.536V177.616H517.744V183.584H516.608V182.784H509.856V183.584H508.72V177.616H512.368V172.288ZM509.856 181.696H516.608V178.688H509.856V181.696ZM512.464 168.848C512.72 169.328 512.976 169.888 513.232 170.496H519.12V171.616H507.328V175.12C507.28 178.608 506.704 181.408 505.584 183.52L504.72 182.752C505.664 180.928 506.16 178.384 506.192 175.12V170.496H512.064C511.824 169.968 511.552 169.488 511.264 169.04L512.464 168.848ZM522.656 168.944L523.76 169.168C523.632 169.712 523.488 170.24 523.344 170.736H526.096V171.824H522.976C522.576 172.912 522.112 173.904 521.584 174.8L520.64 174.208C521.568 172.624 522.24 170.864 522.656 168.944ZM522.208 173.84H525.632V174.896H524.304V176.976H526.272V178.032H524.304V181.76C524.944 181.52 525.584 181.216 526.224 180.832L526.416 181.856C525.488 182.384 524.416 182.816 523.2 183.168L522.72 182.176C523.024 182.064 523.184 181.888 523.184 181.664V178.032H521.088V176.976H523.184V174.896H522.208V173.84ZM526.576 170.848H530.384V168.976H531.456V170.848H533.744C533.408 170.368 532.992 169.84 532.512 169.296L533.28 168.832C533.856 169.456 534.304 170 534.624 170.48L534.112 170.848H535.376V171.904H531.456V173.488H534.704V182.144C534.704 183.04 534.272 183.504 533.408 183.504H532.48L532.208 182.464L533.072 182.512C533.44 182.512 533.632 182.304 533.632 181.904V180.112H531.456V183.52H530.384V180.112H528.288V183.568H527.216V173.488H530.384V171.904H526.576V170.848ZM530.384 174.528H528.288V176.336H530.384V174.528ZM528.288 177.36V179.104H530.384V177.36H528.288ZM533.632 179.104V177.36H531.456V179.104H533.632ZM533.632 176.336V174.528H531.456V176.336H533.632ZM542.112 179.952V181.056C540.64 181.792 538.976 182.4 537.12 182.848L536.976 181.696C538.928 181.264 540.64 180.688 542.112 179.952ZM539.552 168.896L540.656 169.344C539.856 171.392 539.04 173.024 538.208 174.24C538.912 174.144 539.616 174.016 540.32 173.888C540.608 173.344 540.896 172.784 541.2 172.176L542.24 172.576C540.832 175.232 539.664 177.136 538.736 178.288C539.856 178 540.976 177.616 542.112 177.12V178.192C540.432 178.896 538.816 179.36 537.28 179.616L536.96 178.56C537.168 178.464 537.344 178.336 537.488 178.208C538.096 177.568 538.848 176.496 539.728 174.96C538.864 175.12 537.984 175.28 537.104 175.408L536.8 174.352C536.992 174.272 537.152 174.128 537.312 173.904C538.176 172.448 538.912 170.784 539.552 168.896ZM542.656 175.92L542.4 174.896C542.496 174.864 542.56 174.832 542.624 174.816C543.168 174.416 543.856 173.392 544.72 171.728H541.984V170.624H546.064C545.84 170.016 545.6 169.472 545.344 168.976L546.512 168.784C546.752 169.328 546.992 169.952 547.216 170.624H550.816V171.728H545.92C545.216 173.12 544.592 174.128 544.048 174.768C545.536 174.64 547.024 174.464 548.496 174.224C548.144 173.712 547.76 173.184 547.36 172.672L548.24 172.128C549.328 173.52 550.176 174.736 550.768 175.792L549.872 176.416C549.648 176 549.408 175.6 549.136 175.184C547.152 175.504 544.992 175.744 542.656 175.92ZM543.952 176.576H545.072C544.992 178.592 544.736 180.08 544.32 181.024C543.856 182.016 543.088 182.864 542 183.568L541.264 182.656C542.208 182.048 542.88 181.344 543.28 180.528C543.664 179.696 543.888 178.384 543.952 176.576ZM549.648 183.312H548.528C547.568 183.312 547.088 182.848 547.088 181.92V176.432H548.192V181.728C548.192 182.064 548.304 182.24 548.56 182.272H549.6C549.952 182.24 550.16 182.048 550.224 181.696C550.288 181.248 550.336 180.56 550.336 179.616L551.328 179.968C551.328 181.472 551.216 182.416 551.008 182.768C550.8 183.088 550.352 183.28 549.648 183.312ZM557.728 173.728H562.064V168.912H563.248V173.728H567.36V174.88H563.248V183.632H562.064V174.88H557.728V173.728ZM554.592 169.088C555.68 169.904 556.592 170.72 557.328 171.552L556.544 172.352C555.872 171.568 554.944 170.736 553.792 169.872L554.592 169.088ZM552.72 173.824H556.176V180.944C556.752 180.464 557.392 179.92 558.064 179.28L558.352 180.464C557.36 181.424 556.288 182.272 555.152 183.024L554.704 181.984C554.944 181.792 555.072 181.568 555.072 181.312V174.928H552.72V173.824Z" fill="#262626"/>
    </g>
    <rect x="424" y="20" width="20" height="20" rx="10" fill="#FB363F"/>
    <path d="M433.6 25.264C434.488 25.264 435.196 25.492 435.7 25.96C436.156 26.38 436.396 26.908 436.396 27.532C436.396 27.988 436.288 28.372 436.072 28.684C435.832 29.02 435.496 29.272 435.052 29.428V29.452C435.496 29.56 435.88 29.812 436.192 30.196C436.528 30.604 436.696 31.084 436.696 31.636C436.696 32.392 436.432 33.004 435.904 33.46C435.352 33.928 434.584 34.168 433.6 34.168C432.604 34.168 431.836 33.928 431.296 33.46C430.768 33.004 430.504 32.392 430.504 31.636C430.504 31.084 430.672 30.604 431.008 30.196C431.32 29.812 431.692 29.56 432.148 29.452V29.428C431.692 29.272 431.356 29.02 431.128 28.684C430.912 28.372 430.804 27.988 430.804 27.532C430.804 26.908 431.032 26.38 431.5 25.96C432.004 25.492 432.7 25.264 433.6 25.264ZM433.6 26.068C432.988 26.068 432.508 26.224 432.172 26.536C431.872 26.8 431.728 27.148 431.728 27.568C431.728 28 431.86 28.36 432.124 28.624C432.436 28.936 432.928 29.104 433.6 29.104C434.26 29.104 434.752 28.936 435.076 28.624C435.34 28.36 435.472 28 435.472 27.568C435.472 27.148 435.316 26.8 435.028 26.536C434.68 26.224 434.2 26.068 433.6 26.068ZM433.6 29.872C432.904 29.872 432.376 30.04 432.004 30.388C431.644 30.7 431.476 31.12 431.476 31.636C431.476 32.14 431.644 32.56 432.004 32.872C432.364 33.196 432.904 33.364 433.6 33.364C434.296 33.364 434.824 33.196 435.208 32.86C435.544 32.548 435.724 32.14 435.724 31.636C435.724 31.12 435.544 30.7 435.208 30.388C434.824 30.04 434.284 29.872 433.6 29.872Z" fill="#fff"/>
    <g opacity=".3" filter="url(#1oy97hldz__filter15_f_2824_34660)">
      <path fill="#17489A" d="M251.5 399A11.5 2 0 1 0 251.5 403A11.5 2 0 1 0 251.5 399Z"/>
    </g>
    <g opacity=".3" filter="url(#1oy97hldz__filter16_f_2824_34660)">
      <path fill="#17489A" d="M179.5 398A9.5 2 0 1 0 179.5 402A9.5 2 0 1 0 179.5 398Z"/>
    </g>
  </g>
  <defs>
    <filter id="1oy97hldz__filter0_f_2824_34660" x="358" y="393" width="35" height="20" filterUnits="userSpaceOnUse" color-interpolation-filters="sRGB">
      <feFlood flood-opacity="0" result="BackgroundImageFix"/>
      <feBlend in="SourceGraphic" in2="BackgroundImageFix" result="shape"/>
      <feGaussianBlur stdDeviation="4" result="effect1_foregroundBlur_2824_34660"/>
    </filter>
    <filter id="1oy97hldz__filter1_f_2824_34660" x="385" y="393" width="35" height="20" filterUnits="userSpaceOnUse" color-interpolation-filters="sRGB">
      <feFlood flood-opacity="0" result="BackgroundImageFix"/>
      <feBlend in="SourceGraphic" in2="BackgroundImageFix" result="shape"/>
      <feGaussianBlur stdDeviation="4" result="effect1_foregroundBlur_2824_34660"/>
    </filter>
    <filter id="1oy97hldz__filter2_f_2824_34660" x="112" y="297" width="394" height="42" filterUnits="userSpaceOnUse" color-interpolation-filters="sRGB">
      <feFlood flood-opacity="0" result="BackgroundImageFix"/>
      <feBlend in="SourceGraphic" in2="BackgroundImageFix" result="shape"/>
      <feGaussianBlur stdDeviation="2" result="effect1_foregroundBlur_2824_34660"/>
    </filter>
    <filter id="1oy97hldz__filter3_d_2824_34660" x="72.9591" y="22.2193" width="472.249" height="102.552" filterUnits="userSpaceOnUse" color-interpolation-filters="sRGB">
      <feFlood flood-opacity="0" result="BackgroundImageFix"/>
      <feColorMatrix in="SourceAlpha" values="0 0 0 0 0 0 0 0 0 0 0 0 0 0 0 0 0 0 127 0" result="hardAlpha"/>
      <feOffset dy="8.26023"/>
      <feGaussianBlur stdDeviation="16.5205"/>
      <feComposite in2="hardAlpha" operator="out"/>
      <feColorMatrix values="0 0 0 0 0.111353 0 0 0 0 0.206019 0 0 0 0 0.357485 0 0 0 0.08 0"/>
      <feBlend in2="BackgroundImageFix" result="effect1_dropShadow_2824_34660"/>
      <feBlend in="SourceGraphic" in2="effect1_dropShadow_2824_34660" result="shape"/>
    </filter>
    <filter id="1oy97hldz__filter4_d_2824_34660" x="90" y="71" width="438" height="276" filterUnits="userSpaceOnUse" color-interpolation-filters="sRGB">
      <feFlood flood-opacity="0" result="BackgroundImageFix"/>
      <feColorMatrix in="SourceAlpha" values="0 0 0 0 0 0 0 0 0 0 0 0 0 0 0 0 0 0 127 0" result="hardAlpha"/>
      <feOffset dy="4"/>
      <feGaussianBlur stdDeviation="8"/>
      <feComposite in2="hardAlpha" operator="out"/>
      <feColorMatrix values="0 0 0 0 0.468337 0 0 0 0 0.340078 0 0 0 0 0.14769 0 0 0 0.08 0"/>
      <feBlend in2="BackgroundImageFix" result="effect1_dropShadow_2824_34660"/>
      <feBlend in="SourceGraphic" in2="effect1_dropShadow_2824_34660" result="shape"/>
    </filter>
    <filter id="1oy97hldz__filter5_ii_2824_34660" x="173.234" y="164.684" width="63.9343" height="92.851" filterUnits="userSpaceOnUse" color-interpolation-filters="sRGB">
      <feFlood flood-opacity="0" result="BackgroundImageFix"/>
      <feBlend in="SourceGraphic" in2="BackgroundImageFix" result="shape"/>
      <feColorMatrix in="SourceAlpha" values="0 0 0 0 0 0 0 0 0 0 0 0 0 0 0 0 0 0 127 0" result="hardAlpha"/>
      <feOffset dy="7.65802"/>
      <feGaussianBlur stdDeviation="3.82901"/>
      <feComposite in2="hardAlpha" operator="arithmetic" k2="-1" k3="1"/>
      <feColorMatrix values="0 0 0 0 0.9 0 0 0 0 0.928333 0 0 0 0 1 0 0 0 0.6 0"/>
      <feBlend mode="lighten" in2="shape" result="effect1_innerShadow_2824_34660"/>
      <feColorMatrix in="SourceAlpha" values="0 0 0 0 0 0 0 0 0 0 0 0 0 0 0 0 0 0 127 0" result="hardAlpha"/>
      <feOffset dy="-15.316"/>
      <feGaussianBlur stdDeviation="15.316"/>
      <feComposite in2="hardAlpha" operator="arithmetic" k2="-1" k3="1"/>
      <feColorMatrix values="0 0 0 0 0.097309 0 0 0 0 0.181891 0 0 0 0 0.395833 0 0 0 0.16 0"/>
      <feBlend mode="multiply" in2="effect1_innerShadow_2824_34660" result="effect2_innerShadow_2824_34660"/>
    </filter>
    <filter id="1oy97hldz__filter6_i_2824_34660" x="392.371" y="187.445" width="26.9973" height="36.6885" filterUnits="userSpaceOnUse" color-interpolation-filters="sRGB">
      <feFlood flood-opacity="0" result="BackgroundImageFix"/>
      <feBlend in="SourceGraphic" in2="BackgroundImageFix" result="shape"/>
      <feColorMatrix in="SourceAlpha" values="0 0 0 0 0 0 0 0 0 0 0 0 0 0 0 0 0 0 127 0" result="hardAlpha"/>
      <feOffset dy="4"/>
      <feGaussianBlur stdDeviation="4"/>
      <feComposite in2="hardAlpha" operator="arithmetic" k2="-1" k3="1"/>
      <feColorMatrix values="0 0 0 0 1 0 0 0 0 1 0 0 0 0 1 0 0 0 0.25 0"/>
      <feBlend in2="shape" result="effect1_innerShadow_2824_34660"/>
    </filter>
    <filter id="1oy97hldz__filter7_d_2824_34660" x="28" y="70" width="161" height="88" filterUnits="userSpaceOnUse" color-interpolation-filters="sRGB">
      <feFlood flood-opacity="0" result="BackgroundImageFix"/>
      <feColorMatrix in="SourceAlpha" values="0 0 0 0 0 0 0 0 0 0 0 0 0 0 0 0 0 0 127 0" result="hardAlpha"/>
      <feOffset dy="4"/>
      <feGaussianBlur stdDeviation="12"/>
      <feComposite in2="hardAlpha" operator="out"/>
      <feColorMatrix values="0 0 0 0 0.143233 0 0 0 0 0.304677 0 0 0 0 0.562987 0 0 0 0.12 0"/>
      <feBlend in2="BackgroundImageFix" result="effect1_dropShadow_2824_34660"/>
      <feBlend in="SourceGraphic" in2="effect1_dropShadow_2824_34660" result="shape"/>
    </filter>
    <filter id="1oy97hldz__filter8_d_2824_34660" x="441" y="71" width="144" height="88" filterUnits="userSpaceOnUse" color-interpolation-filters="sRGB">
      <feFlood flood-opacity="0" result="BackgroundImageFix"/>
      <feColorMatrix in="SourceAlpha" values="0 0 0 0 0 0 0 0 0 0 0 0 0 0 0 0 0 0 127 0" result="hardAlpha"/>
      <feOffset dy="4"/>
      <feGaussianBlur stdDeviation="12"/>
      <feComposite in2="hardAlpha" operator="out"/>
      <feColorMatrix values="0 0 0 0 0.143233 0 0 0 0 0.304677 0 0 0 0 0.562987 0 0 0 0.12 0"/>
      <feBlend in2="BackgroundImageFix" result="effect1_dropShadow_2824_34660"/>
      <feBlend in="SourceGraphic" in2="effect1_dropShadow_2824_34660" result="shape"/>
    </filter>
    <filter id="1oy97hldz__filter9_d_2824_34660" x="-3" y="135" width="161" height="88" filterUnits="userSpaceOnUse" color-interpolation-filters="sRGB">
      <feFlood flood-opacity="0" result="BackgroundImageFix"/>
      <feColorMatrix in="SourceAlpha" values="0 0 0 0 0 0 0 0 0 0 0 0 0 0 0 0 0 0 127 0" result="hardAlpha"/>
      <feOffset dy="4"/>
      <feGaussianBlur stdDeviation="12"/>
      <feComposite in2="hardAlpha" operator="out"/>
      <feColorMatrix values="0 0 0 0 0.143233 0 0 0 0 0.304677 0 0 0 0 0.562987 0 0 0 0.12 0"/>
      <feBlend in2="BackgroundImageFix" result="effect1_dropShadow_2824_34660"/>
      <feBlend in="SourceGraphic" in2="effect1_dropShadow_2824_34660" result="shape"/>
    </filter>
    <filter id="1oy97hldz__filter10_d_2824_34660" x="441" y="201" width="144" height="88" filterUnits="userSpaceOnUse" color-interpolation-filters="sRGB">
      <feFlood flood-opacity="0" result="BackgroundImageFix"/>
      <feColorMatrix in="SourceAlpha" values="0 0 0 0 0 0 0 0 0 0 0 0 0 0 0 0 0 0 127 0" result="hardAlpha"/>
      <feOffset dy="4"/>
      <feGaussianBlur stdDeviation="12"/>
      <feComposite in2="hardAlpha" operator="out"/>
      <feColorMatrix values="0 0 0 0 0.143233 0 0 0 0 0.304677 0 0 0 0 0.562987 0 0 0 0.12 0"/>
      <feBlend in2="BackgroundImageFix" result="effect1_dropShadow_2824_34660"/>
      <feBlend in="SourceGraphic" in2="effect1_dropShadow_2824_34660" result="shape"/>
    </filter>
    <filter id="1oy97hldz__filter11_d_2824_34660" x="28" y="200" width="161" height="88" filterUnits="userSpaceOnUse" color-interpolation-filters="sRGB">
      <feFlood flood-opacity="0" result="BackgroundImageFix"/>
      <feColorMatrix in="SourceAlpha" values="0 0 0 0 0 0 0 0 0 0 0 0 0 0 0 0 0 0 127 0" result="hardAlpha"/>
      <feOffset dy="4"/>
      <feGaussianBlur stdDeviation="12"/>
      <feComposite in2="hardAlpha" operator="out"/>
      <feColorMatrix values="0 0 0 0 0.143233 0 0 0 0 0.304677 0 0 0 0 0.562987 0 0 0 0.12 0"/>
      <feBlend in2="BackgroundImageFix" result="effect1_dropShadow_2824_34660"/>
      <feBlend in="SourceGraphic" in2="effect1_dropShadow_2824_34660" result="shape"/>
    </filter>
    <filter id="1oy97hldz__filter12_d_2824_34660" x="183" y="7" width="144" height="88" filterUnits="userSpaceOnUse" color-interpolation-filters="sRGB">
      <feFlood flood-opacity="0" result="BackgroundImageFix"/>
      <feColorMatrix in="SourceAlpha" values="0 0 0 0 0 0 0 0 0 0 0 0 0 0 0 0 0 0 127 0" result="hardAlpha"/>
      <feOffset dy="4"/>
      <feGaussianBlur stdDeviation="12"/>
      <feComposite in2="hardAlpha" operator="out"/>
      <feColorMatrix values="0 0 0 0 0.143233 0 0 0 0 0.304677 0 0 0 0 0.562987 0 0 0 0.12 0"/>
      <feBlend in2="BackgroundImageFix" result="effect1_dropShadow_2824_34660"/>
      <feBlend in="SourceGraphic" in2="effect1_dropShadow_2824_34660" result="shape"/>
    </filter>
    <filter id="1oy97hldz__filter13_d_2824_34660" x="314" y="7" width="144" height="88" filterUnits="userSpaceOnUse" color-interpolation-filters="sRGB">
      <feFlood flood-opacity="0" result="BackgroundImageFix"/>
      <feColorMatrix in="SourceAlpha" values="0 0 0 0 0 0 0 0 0 0 0 0 0 0 0 0 0 0 127 0" result="hardAlpha"/>
      <feOffset dy="4"/>
      <feGaussianBlur stdDeviation="12"/>
      <feComposite in2="hardAlpha" operator="out"/>
      <feColorMatrix values="0 0 0 0 0.143233 0 0 0 0 0.304677 0 0 0 0 0.562987 0 0 0 0.12 0"/>
      <feBlend in2="BackgroundImageFix" result="effect1_dropShadow_2824_34660"/>
      <feBlend in="SourceGraphic" in2="effect1_dropShadow_2824_34660" result="shape"/>
    </filter>
    <filter id="1oy97hldz__filter14_d_2824_34660" x="464" y="136" width="144" height="88" filterUnits="userSpaceOnUse" color-interpolation-filters="sRGB">
      <feFlood flood-opacity="0" result="BackgroundImageFix"/>
      <feColorMatrix in="SourceAlpha" values="0 0 0 0 0 0 0 0 0 0 0 0 0 0 0 0 0 0 127 0" result="hardAlpha"/>
      <feOffset dy="4"/>
      <feGaussianBlur stdDeviation="12"/>
      <feComposite in2="hardAlpha" operator="out"/>
      <feColorMatrix values="0 0 0 0 0.143233 0 0 0 0 0.304677 0 0 0 0 0.562987 0 0 0 0.12 0"/>
      <feBlend in2="BackgroundImageFix" result="effect1_dropShadow_2824_34660"/>
      <feBlend in="SourceGraphic" in2="effect1_dropShadow_2824_34660" result="shape"/>
    </filter>
    <filter id="1oy97hldz__filter15_f_2824_34660" x="232" y="391" width="39" height="20" filterUnits="userSpaceOnUse" color-interpolation-filters="sRGB">
      <feFlood flood-opacity="0" result="BackgroundImageFix"/>
      <feBlend in="SourceGraphic" in2="BackgroundImageFix" result="shape"/>
      <feGaussianBlur stdDeviation="4" result="effect1_foregroundBlur_2824_34660"/>
    </filter>
    <filter id="1oy97hldz__filter16_f_2824_34660" x="162" y="390" width="35" height="20" filterUnits="userSpaceOnUse" color-interpolation-filters="sRGB">
      <feFlood flood-opacity="0" result="BackgroundImageFix"/>
      <feBlend in="SourceGraphic" in2="BackgroundImageFix" result="shape"/>
      <feGaussianBlur stdDeviation="4" result="effect1_foregroundBlur_2824_34660"/>
    </filter>
    <linearGradient id="1oy97hldz__paint0_linear_2824_34660" x1="202.89" y1="265.024" x2="218.32" y2="265.024" gradientUnits="userSpaceOnUse">
      <stop stop-color="#F4B9A4"/>
      <stop offset=".652" stop-color="#FAD1BB"/>
    </linearGradient>
    <linearGradient id="1oy97hldz__paint1_linear_2824_34660" x1="206.838" y1="200.138" x2="234.375" y2="200.138" gradientUnits="userSpaceOnUse">
      <stop stop-color="#F4B9A4"/>
      <stop offset=".652" stop-color="#FAD1BB"/>
    </linearGradient>
    <linearGradient id="1oy97hldz__paint2_linear_2824_34660" x1="228.671" y1="221.11" x2="211.601" y2="235.748" gradientUnits="userSpaceOnUse">
      <stop stop-color="#83AEFF"/>
      <stop offset="1" stop-color="#3778F6"/>
    </linearGradient>
    <linearGradient id="1oy97hldz__paint3_linear_2824_34660" x1="237.831" y1="227.577" x2="285.726" y2="227.577" gradientUnits="userSpaceOnUse">
      <stop stop-color="#F4B9A4"/>
      <stop offset=".652" stop-color="#FAD1BB"/>
    </linearGradient>
    <linearGradient id="1oy97hldz__paint4_linear_2824_34660" x1="229.83" y1="221.486" x2="233.201" y2="239.554" gradientUnits="userSpaceOnUse">
      <stop stop-color="#83AEFF"/>
      <stop offset="1" stop-color="#3778F6"/>
    </linearGradient>
    <linearGradient id="1oy97hldz__paint5_linear_2824_34660" x1="390.823" y1="214.471" x2="417.593" y2="212.728" gradientUnits="userSpaceOnUse">
      <stop stop-color="#F4B9A4"/>
      <stop offset=".652" stop-color="#FAD1BB"/>
    </linearGradient>
    <linearGradient id="1oy97hldz__paint6_linear_2824_34660" x1="404.384" y1="275.887" x2="420.013" y2="275.887" gradientUnits="userSpaceOnUse">
      <stop stop-color="#F4B9A4"/>
      <stop offset=".652" stop-color="#FAD1BB"/>
    </linearGradient>
    <linearGradient id="1oy97hldz__paint7_linear_2824_34660" x1="420.569" y1="257.933" x2="427.667" y2="244.707" gradientUnits="userSpaceOnUse">
      <stop stop-color="#FFAF26"/>
      <stop offset="1" stop-color="#FEBE26"/>
    </linearGradient>
    <linearGradient id="1oy97hldz__paint8_linear_2824_34660" x1="332.012" y1="243.228" x2="381.76" y2="243.228" gradientUnits="userSpaceOnUse">
      <stop stop-color="#F4B9A4"/>
      <stop offset=".652" stop-color="#FAD1BB"/>
    </linearGradient>
    <clipPath id="1oy97hldz__clip0_2824_34660">
      <path fill="#fff" d="M0 0H602V429H0z"/>
    </clipPath>
  </defs>
</svg>
