<svg fill="none" xmlns="http://www.w3.org/2000/svg" viewBox="0 0 48 48" class="design-iconfont">
  <path d="M48 24C48 43.8823 43.8823 48 24 48C4.11775 48 0 43.8823 0 24C0 4.11775 4.11775 0 24 0C43.8823 0 48 4.11775 48 24Z" fill="url(#7dhnv0o6v__paint0_linear_2556_5613)"/>
  <path d="M15.3226 21.5759C15.6166 24.1598 17.0323 26.6888 19.1313 28.2828C19.2204 28.3333 19.2952 28.4115 19.3471 28.5084C19.3989 28.6054 19.4258 28.7171 19.4245 28.8308C19.4726 28.8868 19.4245 28.9967 19.4245 29.0507L19.3483 29.4077L19.2713 29.7887C19.2002 30.1273 19.1375 30.4681 19.0832 30.8107C19.0342 30.9207 19.0342 30.9757 19.0342 31.0857C19.0832 31.2507 19.2293 31.4157 19.3755 31.4157C19.4726 31.4157 19.5216 31.4157 19.5706 31.3607L21.5235 29.9307C21.6671 29.8195 21.8375 29.7621 22.0109 29.7667H22.2559C22.8421 29.8767 23.4765 29.9867 24.1117 29.9867C26.0656 29.9867 27.5784 29.4367 28.995 28.2828C28.946 28.9427 28.7517 29.7667 28.6039 30.2607C27.2372 34.2737 23.2814 35.9786 19.0832 34.4387C15.4696 33.1187 13.2235 28.3368 14.249 24.3238C14.5421 23.2238 14.7862 22.5099 15.3226 21.5759ZM25.0891 19.1559C27.9695 18.0029 31.1439 18.7169 32.9508 21.4109C35.245 24.7638 34.6097 29.9327 31.3872 32.7337C30.6058 33.3937 29.6775 33.8337 28.75 34.1097C29.5044 33.149 30.0854 32.0276 30.4597 30.8097C30.7981 29.6712 30.9349 28.4671 30.8621 27.2675C30.7894 26.068 30.5085 24.897 30.0359 23.8227C29.5632 22.7485 28.9083 21.7924 28.1092 21.0103C27.3101 20.2281 26.3828 19.6355 25.3813 19.2669C25.2842 19.2109 25.1862 19.2109 25.0891 19.1569V19.1559ZM24.1117 13C26.6509 13 28.995 14.484 30.4107 17.0129C30.4107 17.0129 30.5078 17.1789 30.6058 17.3969C30.4107 17.2869 30.1666 17.2329 29.9233 17.1769C29.8743 17.1229 29.8743 17.1229 29.8245 17.1229C29.6294 17.0689 29.4342 17.0129 29.1901 16.9589H29.093C28.8489 16.9029 28.6529 16.8489 28.4088 16.8489H28.3108C28.0675 16.7929 27.8234 16.7929 27.5793 16.7929C27.3833 16.7929 27.1392 16.8489 26.944 16.8489H26.6798C26.4908 16.8489 26.3009 16.8669 26.1137 16.9029H26.0166C25.8214 16.9029 25.6254 16.9589 25.4303 17.0129H25.3813C25.1862 17.0689 24.9911 17.1789 24.796 17.2329C24.747 17.2869 24.747 17.2869 24.6971 17.2869C24.3069 17.4529 23.9175 17.6169 23.5255 17.8369C23.5255 17.8929 23.4765 17.8929 23.4765 17.8929C23.3304 18.0569 23.1353 18.1669 22.9401 18.2769H22.892C22.6969 18.4429 22.549 18.5529 22.3539 18.7169L22.0669 18.9669C20.3373 20.5413 19.2001 22.812 18.8881 25.3138C17.9606 24.2698 17.3245 22.5658 17.1784 21.3009C17.0452 20.3561 17.0941 19.3895 17.3217 18.4685C17.5493 17.5476 17.9501 16.6945 18.4961 15.969C20.2557 13.604 22.598 13 24.1117 13Z" fill="#EBFFF6"/>
  <defs>
    <linearGradient id="7dhnv0o6v__paint0_linear_2556_5613" x1="24" y1="0" x2="24" y2="48" gradientUnits="userSpaceOnUse">
      <stop stop-color="#21A67C"/>
      <stop offset="1" stop-color="#21A665"/>
    </linearGradient>
  </defs>
</svg>
