<svg fill="none" xmlns="http://www.w3.org/2000/svg" viewBox="0 0 48 48" class="design-iconfont">
  <path d="M48 24C48 43.8823 43.8823 48 24 48C4.11775 48 0 43.8823 0 24C0 4.11775 4.11775 0 24 0C43.8823 0 48 4.11775 48 24Z" fill="#EC804B"/>
  <path d="M30.6269 12H18.0896C16.9194 12 16 12.9329 16 14.1201V33.7951C16 34.9823 16.9194 36 18.1731 36H23.4388H26.2806H30.6269C31.797 36 32.8 35.0671 32.8 33.7951V14.1201C32.8 12.9329 31.8806 12 30.6269 12ZM22.3522 13.5265H26.5313C26.6985 13.5265 26.8657 13.6961 26.8657 13.8657C26.8657 14.0353 26.6985 14.2049 26.5313 14.2049H22.3522C22.1851 14.2049 22.0179 14.0353 22.0179 13.8657C22.0179 13.6961 22.1015 13.5265 22.3522 13.5265ZM24.3582 34.3039C23.5224 34.3039 22.8537 33.6254 22.8537 32.7774C22.8537 31.9293 23.5224 31.2509 24.3582 31.2509C25.194 31.2509 25.8627 31.9293 25.8627 32.7774C25.8627 33.6254 25.194 34.3039 24.3582 34.3039Z" fill="#FFF1EB"/>
</svg>
