<svg fill="none" xmlns="http://www.w3.org/2000/svg" viewBox="0 0 48 48" class="design-iconfont">
  <path d="M48 24C48 43.8823 43.8823 48 24 48C4.11775 48 0 43.8823 0 24C0 4.11775 4.11775 0 24 0C43.8823 0 48 4.11775 48 24Z" fill="url(#x501xblk2__paint0_linear_2556_25320)"/>
  <path fill-rule="evenodd" clip-rule="evenodd" d="M24 32.9843C29.9756 32.9843 34.8197 28.5369 34.8197 23.0507C34.8197 17.5646 29.9756 13.1172 24 13.1172C18.0244 13.1172 13.1803 17.5646 13.1803 23.0507C13.1803 25.5366 14.1749 27.8093 15.8187 29.5515C15.9242 29.6634 15.9806 29.8134 15.97 29.9669L15.6519 34.5441C15.6234 34.9551 16.0504 35.2429 16.4206 35.0621L21.2532 32.7025C21.2873 32.6858 21.3258 32.6786 21.3628 32.6871C22.2069 32.8812 23.0903 32.9843 24 32.9843Z" fill="#EBFFF1"/>
  <path fill-rule="evenodd" clip-rule="evenodd" d="M20.3592 25.3174C21.1588 26.4193 22.4906 27.1406 23.9983 27.1406C25.506 27.1406 26.8378 26.4193 27.6375 25.3174H20.3592Z" fill="#57AE71"/>
  <defs>
    <linearGradient id="x501xblk2__paint0_linear_2556_25320" x1="24" y1="0" x2="24" y2="48" gradientUnits="userSpaceOnUse">
      <stop stop-color="#6FBD91"/>
      <stop offset="1" stop-color="#4FAA68"/>
    </linearGradient>
  </defs>
</svg>
