<svg fill="none" xmlns="http://www.w3.org/2000/svg" viewBox="0 0 48 48" class="design-iconfont">
  <path d="M48 24C48 43.8823 43.8823 48 24 48C4.11775 48 0 43.8823 0 24C0 4.11775 4.11775 0 24 0C43.8823 0 48 4.11775 48 24Z" fill="#2475FC"/>
  <path d="M14.0322 26.8444C14.6689 27.4811 15.4108 27.9811 16.2372 28.3307C17.0933 28.6928 18.0023 28.8765 18.9383 28.8765H19.0255C21.0526 28.8765 22.7964 30.0886 23.5712 31.8277C23.6466 31.9969 23.8147 32.1057 24.0001 32.1057C24.1854 32.1057 24.3535 31.9969 24.429 31.8277C25.2039 30.0888 26.9476 28.8765 28.9746 28.8765H29.0618C29.9979 28.8765 30.9068 28.6928 31.763 28.3307C32.5895 27.9811 33.3312 27.481 33.9679 26.8444C34.6046 26.2077 35.1046 25.4659 35.4542 24.6395C35.8163 23.7834 36 22.8744 36 21.9383C36 21.0023 35.8163 20.0933 35.4542 19.2372C35.1046 18.4106 34.6045 17.6689 33.9679 17.0322C33.3312 16.3955 32.5894 15.8955 31.763 15.546C30.907 15.1837 29.9981 15 29.0621 15H18.9383C18.0023 15 17.0933 15.1837 16.2372 15.5458C15.4106 15.8954 14.6689 16.3955 14.0322 17.0321C13.3955 17.6688 12.8955 18.4106 12.546 19.237C12.1837 20.0933 12 21.0023 12 21.9383C12 22.8744 12.1837 23.7834 12.5458 24.6395C12.8954 25.466 13.3955 26.2077 14.0321 26.8444H14.0322ZM15.0197 18.0197C16.0225 17.0169 17.4079 16.3964 18.9383 16.3964H29.0621C32.1228 16.3964 34.6041 18.8775 34.6041 21.9383C34.6041 23.4687 33.9835 24.8541 32.9807 25.8569C31.9779 26.8597 30.5925 27.4803 29.0621 27.4803H18.9383C15.8777 27.4803 13.3964 24.9991 13.3964 21.9383C13.3964 20.4079 14.0169 19.0225 15.0197 18.0197Z" fill="#fff"/>
  <path d="M31.1248 22.0309C31.1516 20.9034 30.2592 19.9676 29.1317 19.9409C28.0042 19.9141 27.0684 20.8065 27.0416 21.934C27.0149 23.0615 27.9072 23.9973 29.0348 24.0241C30.1623 24.0508 31.0981 23.1585 31.1248 22.0309Z" fill="#fff"/>
  <path d="M18.9602 24.0236C20.0877 23.9992 20.9821 23.0653 20.9577 21.9377C20.9332 20.8101 19.9994 19.9158 18.8718 19.9402C17.7442 19.9646 16.8499 20.8985 16.8743 22.0261C16.8987 23.1537 17.8326 24.048 18.9602 24.0236Z" fill="#fff"/>
</svg>
