<svg width="640" height="420" viewBox="0 0 640 420" fill="none" xmlns="http://www.w3.org/2000/svg">
<g filter="url(#filter0_d_2297_54087)">
<path d="M38 57C38 50.3726 43.3726 45 50 45H590C596.627 45 602 50.3726 602 57V362C602 368.627 596.627 374 590 374H50C43.3726 374 38 368.627 38 362V57Z" fill="white"/>
</g>
<g clip-path="url(#clip0_2297_54087)">
<rect x="533" y="200" width="48" height="48" rx="12" fill="#E6EFFF"/>
<g filter="url(#filter1_i_2297_54087)">
<path fill-rule="evenodd" clip-rule="evenodd" d="M545.815 221.184C545.815 221.184 543.252 224.403 544.241 226.69C545.23 228.978 545.523 231.627 545.118 232.529C544.713 233.431 542.841 235.357 543.867 237.143C544.893 238.929 544.303 244.514 543.564 244.556C542.825 244.599 541.431 249.134 543.365 249.53H558.126L557.507 219.601L545.815 221.184Z" fill="#334666"/>
</g>
<g filter="url(#filter2_i_2297_54087)">
<path fill-rule="evenodd" clip-rule="evenodd" d="M568.444 221.194C568.444 221.194 569.804 222.019 569.909 226.982C569.961 229.463 568.411 230.42 568.875 232.596C569.051 233.425 571.151 235.411 570.125 237.19C569.099 238.969 569.689 244.529 570.428 244.572C571.167 244.615 572.561 249.13 570.628 249.524H555.866L556.486 219.722L568.444 221.194Z" fill="#334666"/>
</g>
<path fill-rule="evenodd" clip-rule="evenodd" d="M545.829 221.671C545.829 221.671 545.304 228.329 547.26 231.253C547.716 231.935 548.605 232.16 549.328 232.34L548.739 222.386C548.74 222.386 545.805 219.763 545.829 221.671Z" fill="#3D3F47"/>
<path fill-rule="evenodd" clip-rule="evenodd" d="M568.038 221.896C568.038 221.896 568.563 228.554 566.608 231.478C566.151 232.16 565.262 232.385 564.539 232.564L565.128 222.611C565.128 222.611 568.062 219.988 568.038 221.896Z" fill="#32333F"/>
<path fill-rule="evenodd" clip-rule="evenodd" d="M564.54 224.871C564.54 224.871 567.762 223.146 568.58 224.702C569.397 226.258 567.408 231.474 564.54 230.382V224.871Z" fill="url(#paint0_linear_2297_54087)"/>
<path fill-rule="evenodd" clip-rule="evenodd" d="M566.61 225.011C566.61 225.011 568.312 224.542 568.205 225.845C568.098 227.149 567.335 229.803 565.009 229.895L566.61 225.011Z" fill="url(#paint1_linear_2297_54087)"/>
<path fill-rule="evenodd" clip-rule="evenodd" d="M566.61 225.011C566.61 225.011 568.312 224.542 568.205 225.845C568.098 227.149 567.335 229.803 565.009 229.895L566.61 225.011Z" fill="url(#paint2_linear_2297_54087)"/>
<path fill-rule="evenodd" clip-rule="evenodd" d="M549.372 230.29C546.504 231.382 544.515 226.166 545.332 224.61C546.15 223.054 549.372 224.779 549.372 224.779V230.29Z" fill="url(#paint3_linear_2297_54087)"/>
<path fill-rule="evenodd" clip-rule="evenodd" d="M547.303 224.917C547.303 224.917 545.601 224.448 545.707 225.752C545.814 227.055 546.577 229.709 548.903 229.802L547.303 224.917Z" fill="url(#paint4_linear_2297_54087)"/>
<path fill-rule="evenodd" clip-rule="evenodd" d="M560.616 235.597L557.04 235.648L553.464 235.597C553.464 235.597 553.239 237.677 552.84 239.224C552.635 240.018 553.233 240.792 554.052 240.792H556.941H557.139H559.904C560.782 240.792 561.425 239.967 561.212 239.116C560.83 237.582 560.616 235.597 560.616 235.597Z" fill="url(#paint5_linear_2297_54087)"/>
<path fill-rule="evenodd" clip-rule="evenodd" d="M553.269 237.366C551.635 238.247 548.995 240.076 548.201 240.286C545.524 240.995 542.883 243.02 541.061 250.069H572.94C572.94 250.069 570.613 242.503 566.444 240.434C565.247 239.888 562.462 238.454 561.07 237.489C559.966 236.883 559.108 240.067 556.776 240.212C554.775 240.337 553.992 237.617 553.269 237.366Z" fill="#659DFC"/>
<path fill-rule="evenodd" clip-rule="evenodd" d="M560.616 235.603L557.04 235.654L553.464 235.603C553.464 235.603 553.556 237.77 553.157 239.317C552.953 240.111 553.706 240.798 554.526 240.798H556.941H557.139H559.905C560.782 240.798 561.316 240.005 561.104 239.153C560.722 237.619 560.616 235.603 560.616 235.603Z" fill="#FFC7B6"/>
<path fill-rule="evenodd" clip-rule="evenodd" d="M553.506 238.2L556.732 246.415H557.698L560.665 238.284L553.506 238.2Z" fill="white"/>
<path fill-rule="evenodd" clip-rule="evenodd" d="M556.248 239.437L554.994 245.255L556.999 246.321L559.352 244.997L558.052 239.462L556.248 239.437Z" fill="#E5EFFF"/>
<path fill-rule="evenodd" clip-rule="evenodd" d="M556.24 239.485L556.213 239.612C556.208 239.633 556.223 239.652 556.244 239.652L558.043 239.681C558.074 239.682 558.098 239.652 558.09 239.622L558.063 239.511L556.24 239.485Z" fill="#C8D4EE"/>
<path fill-rule="evenodd" clip-rule="evenodd" d="M553.701 238.44C553.701 238.44 555.348 239.648 555.67 239.66C555.992 239.673 556.1 239.15 556.1 239.15L555.941 238.751L553.701 238.44Z" fill="#C8D4EE"/>
<path fill-rule="evenodd" clip-rule="evenodd" d="M560.635 238.44C560.635 238.44 558.988 239.648 558.666 239.66C558.343 239.673 558.235 239.15 558.235 239.15L558.395 238.751L560.635 238.44Z" fill="#C8D4EE"/>
<path fill-rule="evenodd" clip-rule="evenodd" d="M556.243 237.566C556.243 237.566 557.751 237.659 558.07 237.558L558.337 238.64L558.073 239.491C558.06 239.53 558.024 239.556 557.983 239.555L556.31 239.531C556.272 239.531 556.239 239.508 556.225 239.473L555.922 238.693L556.243 237.566Z" fill="#E5EFFF"/>
<path fill-rule="evenodd" clip-rule="evenodd" d="M553.328 236.599C553.328 236.599 552.831 237.6 552.934 237.892C553.036 238.185 555.486 239.41 555.755 239.343C555.969 239.289 556.127 238.374 556.259 237.591C556.267 237.54 556.232 237.493 556.181 237.486C554.668 237.275 553.328 236.599 553.328 236.599Z" fill="white"/>
<path fill-rule="evenodd" clip-rule="evenodd" d="M560.84 236.597C560.908 236.578 561.473 237.662 561.392 237.893C561.289 238.186 558.84 239.411 558.57 239.343C558.356 239.29 558.121 238.884 558.064 237.619C558.06 237.538 558.123 237.469 558.204 237.464C559.47 237.382 560.84 236.597 560.84 236.597Z" fill="#EAEAEA"/>
<path fill-rule="evenodd" clip-rule="evenodd" d="M560.84 236.565C562.217 237.476 562.965 237.931 562.965 237.931C563.293 238.126 563.262 238.61 562.912 238.762L561.195 239.507L562.45 241.098C562.587 241.272 562.584 241.518 562.443 241.687C562.443 241.687 558.789 246.27 556.344 247.398C557 246.517 561.332 238.201 560.84 236.565Z" fill="white"/>
<path fill-rule="evenodd" clip-rule="evenodd" d="M553.328 236.565C553.081 236.798 552.194 237.53 551.37 238.109C551.022 238.353 550.845 238.741 551.253 238.857L552.921 239.334L551.685 240.902C551.537 241.089 551.541 241.354 551.693 241.537L556.511 247.102L557 246.292C557 246.292 553.665 240.061 553.328 236.565Z" fill="white"/>
<path fill-rule="evenodd" clip-rule="evenodd" d="M566.737 227.117C566.737 235 560.85 237.014 556.964 237.014C553.169 237.014 547.192 235 547.192 227.117C547.192 219.234 547.603 212.843 556.964 212.843C565.31 212.843 566.737 219.233 566.737 227.117Z" fill="url(#paint6_linear_2297_54087)"/>
<g opacity="0.7">
<mask id="mask0_2297_54087" style="mask-type:alpha" maskUnits="userSpaceOnUse" x="547" y="212" width="20" height="26">
<path fill-rule="evenodd" clip-rule="evenodd" d="M566.737 227.117C566.737 235 560.85 237.014 556.965 237.014C553.17 237.014 547.192 235 547.192 227.117C547.192 219.234 547.603 212.843 556.965 212.843C565.311 212.843 566.737 219.233 566.737 227.117Z" fill="url(#paint7_linear_2297_54087)"/>
</mask>
<g mask="url(#mask0_2297_54087)">
<g filter="url(#filter3_f_2297_54087)">
<circle cx="573.541" cy="230.08" r="12.2608" fill="white"/>
</g>
<g filter="url(#filter4_f_2297_54087)">
<circle cx="539.835" cy="230.08" r="12.2608" fill="white"/>
</g>
</g>
</g>
<g filter="url(#filter5_ii_2297_54087)">
<path fill-rule="evenodd" clip-rule="evenodd" d="M562.74 211.138C562.74 211.138 566.161 211.922 567.471 214.936C568.781 217.949 569.545 223.582 569.545 223.582C569.545 223.582 567.292 223.94 566.738 224.099C566.698 224.093 566.772 223.405 566.751 223.401C564.325 222.999 558.631 222.403 557.199 219.602C557.199 219.602 556.608 220.982 554.946 221.7C551.556 223.165 543.809 226.4 543.805 223.961C543.799 218.871 546.39 208.889 553.825 209.969C556.855 210.409 559.213 208.17 562.74 211.138Z" fill="#364A6A"/>
</g>
<path fill-rule="evenodd" clip-rule="evenodd" d="M543.846 223.783C543.846 223.783 543.349 229.519 544.259 231.408C545.169 233.296 545.972 234.28 545.45 235.597C544.097 239.013 547.638 242.182 548.279 242.992C548.279 242.992 545.147 237.069 547.683 234.685C548.981 233.465 545.854 229.61 545.765 228.488C545.451 224.504 546.195 224.88 548.065 224.173C548.025 223.683 543.846 223.783 543.846 223.783Z" fill="#32333F"/>
<path d="M569.667 223.774C569.667 215.706 563.958 209.165 556.916 209.165C549.874 209.165 544.165 215.706 544.165 223.774" stroke="#FCC024" stroke-width="1.09091"/>
<path d="M542.645 225.742C542.645 224.236 543.866 223.015 545.372 223.015H546.14C546.542 223.015 546.867 223.34 546.867 223.742V230.732C546.867 231.134 546.542 231.459 546.14 231.459H545.372C543.866 231.459 542.645 230.238 542.645 228.732V225.742Z" fill="url(#paint8_linear_2297_54087)"/>
<g opacity="0.3">
<mask id="mask1_2297_54087" style="mask-type:alpha" maskUnits="userSpaceOnUse" x="541" y="237" width="32" height="14">
<path fill-rule="evenodd" clip-rule="evenodd" d="M553.269 237.365C551.635 238.246 548.994 240.075 548.2 240.285C545.524 240.994 542.883 243.019 541.061 250.068H572.939C572.939 250.068 570.613 242.502 566.444 240.433C565.247 239.887 562.461 238.453 561.07 237.488C559.965 236.882 559.108 240.066 556.776 240.211C554.775 240.336 553.991 237.616 553.269 237.365Z" fill="#6091FF"/>
</mask>
<g mask="url(#mask1_2297_54087)">
<g filter="url(#filter6_f_2297_54087)">
<ellipse cx="571.324" cy="235.356" rx="12.2608" ry="18.1557" transform="rotate(-47.7102 571.324 235.356)" fill="white"/>
</g>
<g filter="url(#filter7_f_2297_54087)">
<ellipse cx="12.2608" cy="18.1557" rx="12.2608" ry="18.1557" transform="matrix(-0.67288 -0.739751 -0.739751 0.67288 562.353 232.209)" fill="white"/>
</g>
</g>
</g>
<path d="M569.582 223.941C569.582 232.01 565.647 238.044 558.604 238.044" stroke="#3C3425" stroke-width="1.2"/>
<rect x="555.818" y="237.031" width="4.22225" height="2.19557" rx="1.09779" fill="url(#paint9_linear_2297_54087)"/>
<path d="M571.525 225.741C571.525 224.235 570.304 223.014 568.798 223.014H568.03C567.628 223.014 567.303 223.339 567.303 223.741V230.731C567.303 231.133 567.628 231.458 568.03 231.458H568.798C570.304 231.458 571.525 230.237 571.525 228.731V225.741Z" fill="#FCC024"/>
<path d="M571.525 225.741C571.525 224.235 570.304 223.014 568.798 223.014H568.03C567.628 223.014 567.303 223.339 567.303 223.741V230.731C567.303 231.133 567.628 231.458 568.03 231.458H568.798C570.304 231.458 571.525 230.237 571.525 228.731V225.741Z" fill="url(#paint10_linear_2297_54087)"/>
</g>
<path d="M525 204C525 201.791 523.209 200 521 200H303C291.954 200 283 208.954 283 220V227C283 238.046 291.954 247 303 247H505C516.046 247 525 238.046 525 227V204Z" fill="#D8DDE6"/>
<path d="M246 137C246 134.791 247.791 133 250 133H405C416.046 133 425 141.954 425 153V161C425 172.046 416.046 181 405 181H266C254.954 181 246 172.046 246 161V137Z" fill="#E6EFFF"/>
<g clip-path="url(#clip1_2297_54087)">
<rect x="190" y="133" width="48" height="48" rx="12" fill="#E6EFFF"/>
<path fill-rule="evenodd" clip-rule="evenodd" d="M221.871 158.244C221.871 158.244 225.34 156.386 226.22 158.061C227.1 159.736 224.959 165.352 221.871 164.176V158.244Z" fill="url(#paint11_linear_2297_54087)"/>
<path fill-rule="evenodd" clip-rule="evenodd" d="M206.21 164.176C203.123 165.352 200.981 159.736 201.861 158.061C202.741 156.386 206.21 158.244 206.21 158.244V164.176Z" fill="url(#paint12_linear_2297_54087)"/>
<path fill-rule="evenodd" clip-rule="evenodd" d="M217.892 169.893L214.042 169.948L210.192 169.893C210.192 169.893 210.292 172.226 209.863 173.891C209.642 174.746 210.453 175.485 211.336 175.485H213.935H214.149H217.126C218.071 175.485 218.646 174.632 218.418 173.715C218.006 172.063 217.892 169.893 217.892 169.893Z" fill="url(#paint13_linear_2297_54087)"/>
<g filter="url(#filter8_i_2297_54087)">
<path fill-rule="evenodd" clip-rule="evenodd" d="M218.133 170.928C219.615 171.908 220.421 172.398 220.421 172.398C220.51 172.451 220.574 172.522 220.614 172.603C221.992 173.375 223.506 174.137 224.327 174.512C228.815 176.739 231.319 184.885 231.319 184.885H197C198.962 177.296 201.805 175.116 204.686 174.352C205.194 174.218 206.402 173.469 207.668 172.685C207.969 172.498 208.274 172.309 208.573 172.127C209.241 171.622 209.844 171.118 210.047 170.928C210.057 171.03 210.069 171.135 210.084 171.241C210.104 171.23 210.123 171.22 210.143 171.209C210.407 171.301 210.679 171.699 211.006 172.179C211.644 173.114 212.495 174.361 213.919 174.273C215.269 174.189 216.16 173.158 216.88 172.325C217.359 171.771 217.762 171.305 218.175 171.262C218.174 171.132 218.161 171.02 218.133 170.928Z" fill="#659EFC"/>
</g>
<path fill-rule="evenodd" clip-rule="evenodd" d="M210.238 172.688L213.71 181.531H214.751L217.945 172.777L210.238 172.688Z" fill="white"/>
<path fill-rule="evenodd" clip-rule="evenodd" d="M210.197 171.039C209.858 170.996 210.203 170.719 210.203 170.719L210.197 171.039Z" fill="url(#paint14_linear_2297_54087)"/>
<path fill-rule="evenodd" clip-rule="evenodd" d="M217.946 170.66C217.946 170.66 218.36 171.052 217.983 171.032L217.946 170.66Z" fill="url(#paint15_linear_2297_54087)"/>
<path fill-rule="evenodd" clip-rule="evenodd" d="M223.596 160.367C223.596 161.351 223.388 162.556 223.169 163.558C222.898 164.792 222.331 165.941 221.516 166.906L220.815 167.736C219.804 168.933 218.454 169.796 216.944 170.212L214.854 170.787C214.294 170.942 213.702 170.941 213.142 170.786L210.991 170.189C209.54 169.787 208.234 168.981 207.224 167.865L206.544 167.113C205.859 166.357 205.363 165.531 205.091 164.548C204.767 163.375 204.4 161.677 204.4 160.367C204.4 151.88 204.804 145 213.998 145C222.194 145 223.596 151.88 223.596 160.367Z" fill="url(#paint16_linear_2297_54087)"/>
<path fill-rule="evenodd" clip-rule="evenodd" d="M213.19 174.018L211.841 180.282L213.999 181.43L216.532 180.003L215.133 174.045L213.19 174.018Z" fill="#E5EFFF"/>
<path fill-rule="evenodd" clip-rule="evenodd" d="M213.181 174.07L213.151 174.207C213.146 174.229 213.163 174.25 213.185 174.25L215.121 174.281C215.155 174.282 215.18 174.25 215.172 174.217L215.144 174.098L213.181 174.07Z" fill="#C8D4EE"/>
<path fill-rule="evenodd" clip-rule="evenodd" d="M210.448 172.945C210.448 172.945 212.221 174.245 212.568 174.259C212.915 174.272 213.031 173.709 213.031 173.709L212.859 173.28L210.448 172.945Z" fill="#C8D4EE"/>
<path fill-rule="evenodd" clip-rule="evenodd" d="M217.912 172.945C217.912 172.945 216.139 174.245 215.793 174.259C215.446 174.272 215.329 173.709 215.329 173.709L215.501 173.28L217.912 172.945Z" fill="#C8D4EE"/>
<path fill-rule="evenodd" clip-rule="evenodd" d="M213.186 172.001C213.186 172.001 214.809 172.101 215.152 171.992L215.439 173.157L215.155 174.073C215.142 174.115 215.103 174.143 215.059 174.143L213.257 174.117C213.216 174.117 213.181 174.091 213.166 174.054L212.839 173.214L213.186 172.001Z" fill="#E5EFFF"/>
<path fill-rule="evenodd" clip-rule="evenodd" d="M210.047 170.961C210.047 170.961 209.512 172.039 209.622 172.354C209.732 172.669 212.369 173.987 212.659 173.915C212.889 173.857 213.06 172.872 213.202 172.029C213.211 171.975 213.173 171.924 213.118 171.916C211.488 171.689 210.047 170.961 210.047 170.961Z" fill="white"/>
<path fill-rule="evenodd" clip-rule="evenodd" d="M218.134 170.961C218.207 170.941 218.815 172.108 218.728 172.357C218.617 172.672 215.981 173.99 215.691 173.918C215.46 173.86 215.207 173.424 215.145 172.062C215.141 171.974 215.209 171.9 215.296 171.894C216.659 171.806 218.134 170.961 218.134 170.961Z" fill="white"/>
<g opacity="0.7">
<mask id="mask2_2297_54087" style="mask-type:alpha" maskUnits="userSpaceOnUse" x="204" y="145" width="20" height="26">
<path fill-rule="evenodd" clip-rule="evenodd" d="M223.596 160.367C223.596 161.351 223.388 162.556 223.169 163.558C222.898 164.792 222.331 165.941 221.516 166.906L220.815 167.736C219.804 168.933 218.454 169.796 216.944 170.212L214.854 170.787C214.294 170.942 213.702 170.941 213.142 170.786L210.991 170.189C209.54 169.787 208.234 168.981 207.224 167.865L206.544 167.113C205.859 166.357 205.363 165.531 205.091 164.548C204.767 163.375 204.4 161.677 204.4 160.367C204.4 151.88 204.804 145 213.998 145C222.194 145 223.596 151.88 223.596 160.367Z" fill="url(#paint17_linear_2297_54087)"/>
</mask>
<g mask="url(#mask2_2297_54087)">
<g filter="url(#filter9_f_2297_54087)">
<circle cx="230.581" cy="167.22" r="12" fill="white"/>
</g>
<g filter="url(#filter10_f_2297_54087)">
<circle cx="197.593" cy="167.22" r="12" fill="white"/>
</g>
</g>
</g>
<g filter="url(#filter11_ii_2297_54087)">
<path fill-rule="evenodd" clip-rule="evenodd" d="M219.731 143.934C219.205 143.838 218.858 143.828 218.858 143.828C215.792 140.7 213.416 141.256 210.649 141.903C210.39 141.964 210.128 142.025 209.862 142.084C204.834 143.208 201.25 146.368 201.258 151.848C201.262 154.476 202.178 156.2 203.73 156.124C203.915 156.115 204.095 156.108 204.27 156.1C206.518 156.003 208 155.938 211.27 154.476C212.998 153.704 213.614 149.216 213.614 149.216C215.102 152.228 221.022 155.872 223.542 156.304C223.554 156.306 223.568 156.589 223.581 156.86C223.593 157.106 223.604 157.342 223.614 157.344C223.637 157.348 223.633 157.347 223.631 157.346C223.628 157.345 223.627 157.344 223.646 157.348C224.258 157.444 224.99 157.016 224.99 157.016C224.99 157.016 225.65 150.436 224.29 147.192C223.82 146.072 223.027 145.324 222.19 144.825C222.342 144.539 222.8 143.926 223.917 143.982C223.917 143.982 222.804 142.82 221.182 143.837C221.182 143.837 220.615 141.925 218.079 141.732C218.079 141.732 219.136 142.616 219.731 143.934Z" fill="#364A6A"/>
</g>
</g>
<path d="M253 269C253 266.791 254.791 265 257 265H442C453.046 265 462 273.954 462 285V293C462 304.046 453.046 313 442 313H273C261.954 313 253 304.046 253 293V269Z" fill="#E6EFFF"/>
<g clip-path="url(#clip2_2297_54087)">
<rect x="197" y="265" width="48" height="48" rx="12" fill="#E6EFFF"/>
<path fill-rule="evenodd" clip-rule="evenodd" d="M228.871 290.244C228.871 290.244 232.34 288.386 233.22 290.061C234.1 291.736 231.959 297.352 228.871 296.176V290.244Z" fill="url(#paint18_linear_2297_54087)"/>
<path fill-rule="evenodd" clip-rule="evenodd" d="M213.21 296.176C210.123 297.352 207.981 291.736 208.861 290.061C209.741 288.386 213.21 290.244 213.21 290.244V296.176Z" fill="url(#paint19_linear_2297_54087)"/>
<path fill-rule="evenodd" clip-rule="evenodd" d="M224.892 301.893L221.042 301.948L217.192 301.893C217.192 301.893 217.292 304.226 216.863 305.891C216.642 306.746 217.453 307.485 218.336 307.485H220.935H221.149H224.126C225.071 307.485 225.646 306.632 225.418 305.715C225.006 304.063 224.892 301.893 224.892 301.893Z" fill="url(#paint20_linear_2297_54087)"/>
<g filter="url(#filter12_i_2297_54087)">
<path fill-rule="evenodd" clip-rule="evenodd" d="M225.133 302.928C226.615 303.908 227.421 304.398 227.421 304.398C227.549 304.474 227.626 304.59 227.654 304.715C228.977 305.448 230.385 306.155 231.166 306.512C235.654 308.739 238.159 316.885 238.159 316.885H203.84C205.802 309.296 208.645 307.116 211.526 306.352C212.033 306.218 213.242 305.469 214.508 304.685C215.057 304.345 215.616 303.998 216.134 303.692C216.559 303.354 216.903 303.063 217.047 302.928C217.058 303.036 217.071 303.147 217.086 303.26C217.318 303.406 217.561 303.761 217.846 304.179C218.484 305.114 219.335 306.361 220.758 306.273C222.109 306.189 223 305.158 223.72 304.325C224.261 303.7 224.705 303.186 225.175 303.267C225.175 303.135 225.161 303.021 225.133 302.928Z" fill="#659EFC"/>
</g>
<path fill-rule="evenodd" clip-rule="evenodd" d="M217.238 304.688L220.71 313.531H221.751L224.945 304.777L217.238 304.688Z" fill="white"/>
<path fill-rule="evenodd" clip-rule="evenodd" d="M217.197 303.039C216.858 302.996 217.203 302.719 217.203 302.719L217.197 303.039Z" fill="url(#paint21_linear_2297_54087)"/>
<path fill-rule="evenodd" clip-rule="evenodd" d="M224.946 302.66C224.946 302.66 225.36 303.052 224.983 303.032L224.946 302.66Z" fill="url(#paint22_linear_2297_54087)"/>
<path fill-rule="evenodd" clip-rule="evenodd" d="M230.596 292.367C230.596 293.351 230.388 294.556 230.169 295.558C229.898 296.792 229.331 297.941 228.516 298.906L227.815 299.736C226.804 300.933 225.454 301.796 223.944 302.212L221.854 302.787C221.294 302.942 220.702 302.941 220.142 302.786L217.991 302.189C216.54 301.787 215.234 300.981 214.224 299.865L213.544 299.113C212.859 298.357 212.363 297.531 212.091 296.548C211.767 295.375 211.4 293.677 211.4 292.367C211.4 283.88 211.804 277 220.998 277C229.194 277 230.596 283.88 230.596 292.367Z" fill="url(#paint23_linear_2297_54087)"/>
<path fill-rule="evenodd" clip-rule="evenodd" d="M220.19 306.018L218.841 312.282L220.999 313.43L223.532 312.003L222.133 306.045L220.19 306.018Z" fill="#E5EFFF"/>
<path fill-rule="evenodd" clip-rule="evenodd" d="M220.181 306.07L220.151 306.207C220.146 306.229 220.163 306.25 220.185 306.25L222.121 306.281C222.155 306.282 222.18 306.25 222.172 306.217L222.144 306.098L220.181 306.07Z" fill="#C8D4EE"/>
<path fill-rule="evenodd" clip-rule="evenodd" d="M217.448 304.945C217.448 304.945 219.221 306.245 219.568 306.259C219.915 306.272 220.031 305.709 220.031 305.709L219.859 305.28L217.448 304.945Z" fill="#C8D4EE"/>
<path fill-rule="evenodd" clip-rule="evenodd" d="M224.912 304.945C224.912 304.945 223.139 306.245 222.793 306.259C222.446 306.272 222.329 305.709 222.329 305.709L222.501 305.28L224.912 304.945Z" fill="#C8D4EE"/>
<path fill-rule="evenodd" clip-rule="evenodd" d="M220.186 304.001C220.186 304.001 221.809 304.101 222.152 303.992L222.439 305.157L222.155 306.073C222.142 306.115 222.103 306.143 222.059 306.143L220.257 306.117C220.216 306.117 220.181 306.091 220.166 306.054L219.839 305.214L220.186 304.001Z" fill="#E5EFFF"/>
<path fill-rule="evenodd" clip-rule="evenodd" d="M217.047 302.961C217.047 302.961 216.512 304.039 216.622 304.354C216.732 304.669 219.369 305.987 219.659 305.915C219.889 305.857 220.06 304.872 220.202 304.029C220.211 303.975 220.173 303.924 220.118 303.916C218.488 303.689 217.047 302.961 217.047 302.961Z" fill="white"/>
<path fill-rule="evenodd" clip-rule="evenodd" d="M225.134 302.961C225.207 302.941 225.815 304.108 225.728 304.357C225.617 304.672 222.981 305.99 222.691 305.918C222.46 305.86 222.207 305.424 222.145 304.062C222.141 303.974 222.209 303.9 222.296 303.894C223.659 303.806 225.134 302.961 225.134 302.961Z" fill="white"/>
<g opacity="0.7">
<mask id="mask3_2297_54087" style="mask-type:alpha" maskUnits="userSpaceOnUse" x="211" y="277" width="20" height="26">
<path fill-rule="evenodd" clip-rule="evenodd" d="M230.596 292.367C230.596 293.351 230.388 294.556 230.169 295.558C229.898 296.792 229.331 297.941 228.516 298.906L227.815 299.736C226.804 300.933 225.454 301.796 223.944 302.212L221.854 302.787C221.294 302.942 220.702 302.941 220.142 302.786L217.991 302.189C216.54 301.787 215.234 300.981 214.224 299.865L213.544 299.113C212.859 298.357 212.363 297.531 212.091 296.548C211.767 295.375 211.4 293.677 211.4 292.367C211.4 283.88 211.804 277 220.998 277C229.194 277 230.596 283.88 230.596 292.367Z" fill="url(#paint24_linear_2297_54087)"/>
</mask>
<g mask="url(#mask3_2297_54087)">
<g filter="url(#filter13_f_2297_54087)">
<circle cx="237.581" cy="299.22" r="12" fill="white"/>
</g>
<g filter="url(#filter14_f_2297_54087)">
<circle cx="204.593" cy="299.22" r="12" fill="white"/>
</g>
</g>
</g>
<g filter="url(#filter15_ii_2297_54087)">
<path fill-rule="evenodd" clip-rule="evenodd" d="M226.731 275.934C226.205 275.838 225.858 275.828 225.858 275.828C222.792 272.7 220.416 273.256 217.649 273.903C217.39 273.964 217.128 274.025 216.862 274.084C211.834 275.208 208.25 278.368 208.258 283.848C208.262 286.476 209.178 288.2 210.73 288.124C210.915 288.115 211.095 288.108 211.27 288.1C213.518 288.003 215 287.938 218.27 286.476C219.998 285.704 220.614 281.216 220.614 281.216C222.102 284.228 228.022 287.872 230.542 288.304C230.554 288.306 230.568 288.589 230.581 288.86C230.593 289.106 230.604 289.342 230.614 289.344C230.637 289.348 230.633 289.347 230.631 289.346C230.628 289.345 230.627 289.344 230.646 289.348C231.258 289.444 231.99 289.016 231.99 289.016C231.99 289.016 232.65 282.436 231.29 279.192C230.82 278.072 230.027 277.324 229.19 276.825C229.342 276.539 229.8 275.926 230.917 275.982C230.917 275.982 229.804 274.82 228.182 275.837C228.182 275.837 227.615 273.925 225.079 273.732C225.079 273.732 226.136 274.616 226.731 275.934Z" fill="#364A6A"/>
</g>
</g>
<rect x="456.5" y="61.5" width="124" height="51" rx="11.5" fill="#E6EFFF"/>
<rect x="456.5" y="61.5" width="124" height="51" rx="11.5" stroke="#2475FC"/>
<path d="M495.97 88.42H507.97V87.52H510.07V88.42H514.35V90.46H510.07V94.16C510.07 95.48 509.35 96.14 507.91 96.14H505.41L504.93 94.1C505.73 94.18 506.47 94.24 507.19 94.24C507.71 94.24 507.97 94.04 507.97 93.64V90.46H495.97V88.42ZM511.47 78.2V83.38H500.05V84.24C500.05 84.78 500.33 85.06 500.93 85.06H511.27C511.57 85.04 511.77 84.94 511.89 84.74C511.97 84.6 512.05 84.14 512.15 83.36L514.13 84.02C513.99 84.94 513.85 85.58 513.71 85.98C513.47 86.62 512.87 86.94 511.95 86.98H500.09C498.65 86.98 497.95 86.34 497.95 85.08V78.2H511.47ZM500.05 81.5H509.37V80.08H500.05V81.5ZM501.11 90.56C502.39 91.56 503.49 92.56 504.37 93.56L502.81 95.12C502.05 94.16 500.99 93.12 499.61 92L501.11 90.56ZM536.89 84.32V79.06H538.99V86.32H532.91V93.04H537.89V87.82H539.99V95.94H537.89V95.06H525.77V95.94H523.67V87.82H525.77V93.04H530.75V86.32H524.67V79.06H526.77V84.32H530.75V77.56H532.91V84.32H536.89Z" fill="#2475FC"/>
<g filter="url(#filter16_d_2297_54087)">
<mask id="path-84-outside-1_2297_54087" maskUnits="userSpaceOnUse" x="555" y="87" width="28" height="34" fill="black">
<rect fill="white" x="555" y="87" width="28" height="34"/>
<path fill-rule="evenodd" clip-rule="evenodd" d="M563.645 106.324L562.109 103.977C561.06 102.375 558.826 101.79 557.117 102.669L557.515 102.464C557.091 102.682 556.888 103.225 557.063 103.677L559.189 109.178C559.526 110.05 560.387 111.283 561.1 111.903C561.1 111.903 565.377 115.443 565.377 116.77V118.451H572.307L574.039 114.986L575.771 118.451H577.504V116.77C577.504 115.443 580.118 111.262 580.118 111.262C580.599 110.45 581 109.018 581 108.068V101.078C580.969 99.5304 579.653 98.2762 578.03 98.2762C577.218 98.2762 576.56 98.9033 576.56 99.6775V100.237C576.56 98.6898 575.245 97.4356 573.622 97.4356C572.81 97.4356 572.152 98.0627 572.152 98.8369V99.3967C572.152 97.8492 570.836 96.595 569.213 96.595C568.401 96.595 567.743 97.2221 567.743 97.9963V98.5561C567.743 98.3074 567.717 98.1097 567.666 97.953L567.217 90.7345C567.157 89.7584 566.334 89 565.377 89C564.414 89 563.645 89.7755 563.645 90.7321V97.662V106.324ZM575.803 104.592H577.535V111.521H575.803V104.592ZM572.338 104.592H574.071V111.521H572.338V104.592ZM568.873 104.592H570.606V111.521H568.873V104.592Z"/>
</mask>
<path fill-rule="evenodd" clip-rule="evenodd" d="M563.645 106.324L562.109 103.977C561.06 102.375 558.826 101.79 557.117 102.669L557.515 102.464C557.091 102.682 556.888 103.225 557.063 103.677L559.189 109.178C559.526 110.05 560.387 111.283 561.1 111.903C561.1 111.903 565.377 115.443 565.377 116.77V118.451H572.307L574.039 114.986L575.771 118.451H577.504V116.77C577.504 115.443 580.118 111.262 580.118 111.262C580.599 110.45 581 109.018 581 108.068V101.078C580.969 99.5304 579.653 98.2762 578.03 98.2762C577.218 98.2762 576.56 98.9033 576.56 99.6775V100.237C576.56 98.6898 575.245 97.4356 573.622 97.4356C572.81 97.4356 572.152 98.0627 572.152 98.8369V99.3967C572.152 97.8492 570.836 96.595 569.213 96.595C568.401 96.595 567.743 97.2221 567.743 97.9963V98.5561C567.743 98.3074 567.717 98.1097 567.666 97.953L567.217 90.7345C567.157 89.7584 566.334 89 565.377 89C564.414 89 563.645 89.7755 563.645 90.7321V97.662V106.324ZM575.803 104.592H577.535V111.521H575.803V104.592ZM572.338 104.592H574.071V111.521H572.338V104.592ZM568.873 104.592H570.606V111.521H568.873V104.592Z" fill="white"/>
<path d="M563.645 106.324L562.195 107.273L565.377 112.134V106.324H563.645ZM562.109 103.977L563.558 103.028L562.109 103.977ZM557.063 103.677L555.447 104.302V104.302L557.063 103.677ZM559.189 109.178L560.805 108.553L559.189 109.178ZM561.1 111.903L559.964 113.211L559.979 113.224L559.995 113.237L561.1 111.903ZM565.377 118.451H563.645V120.183H565.377V118.451ZM572.307 118.451V120.183H573.377L573.856 119.225L572.307 118.451ZM574.039 114.986L575.589 114.211L574.039 111.112L572.49 114.211L574.039 114.986ZM575.771 118.451L574.222 119.225L574.701 120.183H575.771V118.451ZM577.504 118.451V120.183H579.236V118.451H577.504ZM580.118 111.262L581.587 112.181L581.598 112.163L581.608 112.145L580.118 111.262ZM581 101.078H582.732V101.06L582.732 101.043L581 101.078ZM567.666 97.953L565.936 98.0604L565.95 98.2818L566.019 98.4926L567.666 97.953ZM567.217 90.7345L565.488 90.8419V90.8419L567.217 90.7345ZM563.645 90.7321H561.912H563.645ZM577.535 104.592H579.268V102.859H577.535V104.592ZM577.535 111.521V113.254H579.268V111.521H577.535ZM575.803 111.521H574.071V113.254H575.803V111.521ZM574.071 104.592H575.803V102.859H574.071V104.592ZM574.071 111.521V113.254H575.803V111.521H574.071ZM572.338 111.521H570.606V113.254H572.338V111.521ZM570.606 104.592H572.338V102.859H570.606L570.606 104.592ZM570.606 111.521V113.254H572.338V111.521H570.606ZM568.873 111.521H567.141V113.254H568.873V111.521ZM565.094 105.375L563.558 103.028L560.659 104.926L562.195 107.273L565.094 105.375ZM563.558 103.028C562.021 100.679 558.817 99.8467 556.325 101.128L557.909 104.209C558.835 103.733 560.099 104.07 560.659 104.926L563.558 103.028ZM557.909 104.209L558.307 104.005L556.723 100.923L556.325 101.128L557.909 104.209ZM556.723 100.923C555.495 101.555 554.96 103.041 555.447 104.302L558.678 103.053C558.757 103.257 558.74 103.448 558.687 103.589C558.635 103.73 558.518 103.896 558.307 104.005L556.723 100.923ZM555.447 104.302L557.573 109.802L560.805 108.553L558.678 103.053L555.447 104.302ZM557.573 109.802C558.011 110.935 559.035 112.404 559.964 113.211L562.236 110.595C561.738 110.163 561.041 109.165 560.805 108.553L557.573 109.802ZM561.1 111.903C559.995 113.237 559.995 113.237 559.995 113.237C559.995 113.237 559.995 113.237 559.995 113.237C559.995 113.237 559.995 113.237 559.995 113.237C559.995 113.237 559.996 113.238 559.996 113.238C559.998 113.24 560 113.241 560.004 113.244C560.01 113.25 560.021 113.259 560.035 113.271C560.064 113.295 560.107 113.331 560.162 113.378C560.272 113.472 560.432 113.609 560.624 113.778C561.01 114.117 561.52 114.579 562.024 115.074C562.536 115.578 563.007 116.082 563.338 116.51C563.505 116.725 563.606 116.883 563.658 116.982C563.728 117.117 563.645 117.02 563.645 116.77H567.109C567.109 116.189 566.892 115.691 566.729 115.378C566.547 115.03 566.314 114.694 566.079 114.39C565.608 113.781 565.01 113.151 564.453 112.603C563.888 112.048 563.328 111.542 562.912 111.176C562.703 110.992 562.529 110.842 562.406 110.737C562.344 110.685 562.295 110.644 562.261 110.615C562.244 110.601 562.23 110.59 562.221 110.582C562.216 110.578 562.212 110.575 562.21 110.572C562.208 110.571 562.207 110.57 562.206 110.57C562.206 110.569 562.205 110.569 562.205 110.569C562.205 110.569 562.205 110.569 562.205 110.569C562.205 110.568 562.205 110.568 561.1 111.903ZM563.645 116.77V118.451H567.109V116.77H563.645ZM565.377 120.183H572.307V116.718H565.377V120.183ZM573.856 119.225L575.589 115.761L572.49 114.211L570.757 117.676L573.856 119.225ZM572.49 115.761L574.222 119.225L577.321 117.676L575.589 114.211L572.49 115.761ZM575.771 120.183H577.504V116.718H575.771V120.183ZM579.236 118.451V116.77H575.771V118.451H579.236ZM579.236 116.77C579.236 116.832 579.255 116.621 579.508 116.025C579.722 115.518 580.02 114.925 580.335 114.341C580.648 113.763 580.962 113.221 581.199 112.821C581.317 112.622 581.415 112.46 581.484 112.348C581.518 112.293 581.544 112.25 581.562 112.221C581.57 112.207 581.577 112.196 581.581 112.19C581.583 112.186 581.585 112.184 581.586 112.182C581.586 112.182 581.587 112.181 581.587 112.181C581.587 112.181 581.587 112.181 581.587 112.181C581.587 112.181 581.587 112.181 581.587 112.181C581.587 112.181 581.587 112.181 580.118 111.262C578.649 110.344 578.649 110.344 578.649 110.344C578.649 110.344 578.649 110.345 578.648 110.345C578.648 110.345 578.648 110.345 578.648 110.346C578.647 110.346 578.647 110.347 578.646 110.349C578.644 110.351 578.642 110.355 578.639 110.359C578.634 110.369 578.626 110.382 578.615 110.398C578.595 110.432 578.565 110.48 578.527 110.541C578.453 110.663 578.347 110.838 578.22 111.052C577.967 111.478 577.628 112.063 577.286 112.696C576.948 113.323 576.592 114.024 576.317 114.674C576.079 115.236 575.771 116.045 575.771 116.77H579.236ZM581.608 112.145C581.951 111.566 582.223 110.851 582.409 110.18C582.595 109.51 582.732 108.751 582.732 108.068H579.268C579.268 108.335 579.205 108.767 579.07 109.254C578.935 109.739 578.766 110.146 578.627 110.38L581.608 112.145ZM582.732 108.068V101.078H579.268V108.068H582.732ZM582.732 101.043C582.68 98.4967 580.54 96.5438 578.03 96.5438V100.009C578.767 100.009 579.257 100.564 579.268 101.113L582.732 101.043ZM578.03 96.5438C576.34 96.5438 574.828 97.8695 574.828 99.6775H578.293C578.293 99.7958 578.239 99.8894 578.186 99.9404C578.134 99.9899 578.075 100.009 578.03 100.009V96.5438ZM574.828 99.6775V100.237H578.293V99.6775H574.828ZM578.293 100.237C578.293 97.656 576.123 95.7032 573.622 95.7032V99.168C574.367 99.168 574.828 99.7235 574.828 100.237H578.293ZM573.622 95.7032C571.932 95.7032 570.419 97.0289 570.419 98.8369H573.884C573.884 98.9552 573.831 99.0488 573.778 99.0997C573.726 99.1493 573.667 99.168 573.622 99.168V95.7032ZM570.419 98.8369V99.3967H573.884V98.8369H570.419ZM573.884 99.3967C573.884 96.8154 571.714 94.8626 569.213 94.8626V98.3274C569.958 98.3274 570.419 98.8829 570.419 99.3967H573.884ZM569.213 94.8626C567.523 94.8626 566.011 96.1883 566.011 97.9963H569.476C569.476 98.1146 569.423 98.2082 569.369 98.2591C569.317 98.3086 569.258 98.3274 569.213 98.3274V94.8626ZM566.011 97.9963V98.5561H569.476V97.9963H566.011ZM569.476 98.5561C569.476 98.1969 569.439 97.8021 569.312 97.4134L566.019 98.4926C566.006 98.4511 566.004 98.4318 566.006 98.4443C566.008 98.4567 566.011 98.492 566.011 98.5561H569.476ZM569.395 97.8456L568.946 90.6271L565.488 90.8419L565.936 98.0604L569.395 97.8456ZM568.946 90.6271C568.829 88.7315 567.243 87.2676 565.377 87.2676V90.7324C565.392 90.7324 565.42 90.7384 565.449 90.7659C565.477 90.792 565.487 90.8186 565.488 90.8419L568.946 90.6271ZM565.377 87.2676C563.453 87.2676 561.912 88.8227 561.912 90.7321H565.377V90.7324V87.2676ZM561.912 90.7321V97.662H565.377V90.7321H561.912ZM561.912 97.662V106.324H565.377V97.662H561.912ZM575.803 106.324H577.535V102.859L575.803 102.859V106.324ZM575.803 104.592V111.521H579.268V104.592H575.803ZM577.535 109.789H575.803V113.254H577.535V109.789ZM577.535 111.521V104.592H574.071V111.521H577.535ZM572.338 106.324H574.071V102.859L572.338 102.859V106.324ZM572.338 104.592V111.521H575.803V104.592H572.338ZM574.071 109.789H572.338V113.254H574.071V109.789ZM574.071 111.521V104.592H570.606V111.521H574.071ZM568.873 106.324H570.606L570.606 102.859L568.873 102.859V106.324ZM568.873 104.592V111.521H572.338V104.592H568.873ZM570.606 109.789H568.873V113.254H570.606V109.789ZM570.606 111.521V104.592H567.141V111.521H570.606Z" fill="black" fill-opacity="0.8" mask="url(#path-84-outside-1_2297_54087)"/>
</g>
<rect x="190.5" y="72.5" width="117" height="29" rx="7.5" stroke="#D8DDE6"/>
<rect x="316.5" y="72.5" width="117" height="29" rx="7.5" stroke="#D8DDE6"/>
<path d="M295 85L291 89L287 85" stroke="#7A8699" stroke-width="1.3" stroke-linecap="round" stroke-linejoin="round"/>
<path d="M421 85L417 89L413 85" stroke="#7A8699" stroke-width="1.3" stroke-linecap="round" stroke-linejoin="round"/>
<rect opacity="0.5" x="178" y="61" width="4" height="294" rx="2" fill="#E4E6EB"/>
<path d="M59 67L65 73L59 79V67Z" fill="#EDEFF2" stroke="#EDEFF2" stroke-width="1.33333" stroke-linejoin="round"/>
<path d="M68 102L62 108L56 102L68 102Z" fill="#EDEFF2" stroke="#EDEFF2" stroke-width="1.33333" stroke-linejoin="round"/>
<path d="M68 206L62 212L56 206L68 206Z" fill="#EDEFF2" stroke="#EDEFF2" stroke-width="1.33333" stroke-linejoin="round"/>
<path d="M68 278L62 284L56 278L68 278Z" fill="#659EFC" stroke="#659EFC" stroke-width="1.33333" stroke-linejoin="round"/>
<path d="M92 134L86 140L80 134L92 134Z" fill="#EDEFF2" stroke="#EDEFF2" stroke-width="1.33333" stroke-linejoin="round"/>
<path d="M83 235L89 241L83 247L83 235Z" fill="#EDEFF2" stroke="#EDEFF2" stroke-width="1.33333" stroke-linejoin="round"/>
<path d="M116 166L110 172L104 166L116 166Z" fill="#EDEFF2" stroke="#EDEFF2" stroke-width="1.33333" stroke-linejoin="round"/>
<rect x="78" y="61" width="84" height="24" rx="8" fill="#EDEFF2"/>
<rect x="78" y="93" width="84" height="24" rx="8" fill="#EDEFF2"/>
<rect x="78" y="197" width="84" height="24" rx="8" fill="#EDEFF2"/>
<rect x="78" y="269" width="84" height="24" rx="8" fill="#659EFC"/>
<rect x="102" y="125" width="60" height="24" rx="8" fill="#EDEFF2"/>
<rect x="102" y="229" width="60" height="24" rx="8" fill="#EDEFF2"/>
<rect x="78" y="301" width="84" height="24" rx="8" fill="#EDEFF2"/>
<rect x="126" y="157" width="36" height="24" rx="8" fill="#EDEFF2"/>
<defs>
<filter id="filter0_d_2297_54087" x="14" y="25" width="612" height="377" filterUnits="userSpaceOnUse" color-interpolation-filters="sRGB">
<feFlood flood-opacity="0" result="BackgroundImageFix"/>
<feColorMatrix in="SourceAlpha" type="matrix" values="0 0 0 0 0 0 0 0 0 0 0 0 0 0 0 0 0 0 127 0" result="hardAlpha"/>
<feOffset dy="4"/>
<feGaussianBlur stdDeviation="12"/>
<feComposite in2="hardAlpha" operator="out"/>
<feColorMatrix type="matrix" values="0 0 0 0 0.143233 0 0 0 0 0.304677 0 0 0 0 0.562987 0 0 0 0.12 0"/>
<feBlend mode="normal" in2="BackgroundImageFix" result="effect1_dropShadow_2297_54087"/>
<feBlend mode="normal" in="SourceGraphic" in2="effect1_dropShadow_2297_54087" result="shape"/>
</filter>
<filter id="filter1_i_2297_54087" x="537.583" y="219.601" width="20.5429" height="34.7287" filterUnits="userSpaceOnUse" color-interpolation-filters="sRGB">
<feFlood flood-opacity="0" result="BackgroundImageFix"/>
<feBlend mode="normal" in="SourceGraphic" in2="BackgroundImageFix" result="shape"/>
<feColorMatrix in="SourceAlpha" type="matrix" values="0 0 0 0 0 0 0 0 0 0 0 0 0 0 0 0 0 0 127 0" result="hardAlpha"/>
<feOffset dx="-4.8" dy="12"/>
<feGaussianBlur stdDeviation="2.4"/>
<feComposite in2="hardAlpha" operator="arithmetic" k2="-1" k3="1"/>
<feColorMatrix type="matrix" values="0 0 0 0 1 0 0 0 0 1 0 0 0 0 1 0 0 0 0.3 0"/>
<feBlend mode="lighten" in2="shape" result="effect1_innerShadow_2297_54087"/>
</filter>
<filter id="filter2_i_2297_54087" x="555.866" y="214.922" width="20.5429" height="34.6027" filterUnits="userSpaceOnUse" color-interpolation-filters="sRGB">
<feFlood flood-opacity="0" result="BackgroundImageFix"/>
<feBlend mode="normal" in="SourceGraphic" in2="BackgroundImageFix" result="shape"/>
<feColorMatrix in="SourceAlpha" type="matrix" values="0 0 0 0 0 0 0 0 0 0 0 0 0 0 0 0 0 0 127 0" result="hardAlpha"/>
<feOffset dx="4.8" dy="-12"/>
<feGaussianBlur stdDeviation="2.4"/>
<feComposite in2="hardAlpha" operator="arithmetic" k2="-1" k3="1"/>
<feColorMatrix type="matrix" values="0 0 0 0 1 0 0 0 0 1 0 0 0 0 1 0 0 0 0.3 0"/>
<feBlend mode="lighten" in2="shape" result="effect1_innerShadow_2297_54087"/>
</filter>
<filter id="filter3_f_2297_54087" x="555.281" y="211.819" width="36.5216" height="36.5215" filterUnits="userSpaceOnUse" color-interpolation-filters="sRGB">
<feFlood flood-opacity="0" result="BackgroundImageFix"/>
<feBlend mode="normal" in="SourceGraphic" in2="BackgroundImageFix" result="shape"/>
<feGaussianBlur stdDeviation="3" result="effect1_foregroundBlur_2297_54087"/>
</filter>
<filter id="filter4_f_2297_54087" x="521.574" y="211.819" width="36.5216" height="36.5215" filterUnits="userSpaceOnUse" color-interpolation-filters="sRGB">
<feFlood flood-opacity="0" result="BackgroundImageFix"/>
<feBlend mode="normal" in="SourceGraphic" in2="BackgroundImageFix" result="shape"/>
<feGaussianBlur stdDeviation="3" result="effect1_foregroundBlur_2297_54087"/>
</filter>
<filter id="filter5_ii_2297_54087" x="543.805" y="203.569" width="25.7394" height="24.2744" filterUnits="userSpaceOnUse" color-interpolation-filters="sRGB">
<feFlood flood-opacity="0" result="BackgroundImageFix"/>
<feBlend mode="normal" in="SourceGraphic" in2="BackgroundImageFix" result="shape"/>
<feColorMatrix in="SourceAlpha" type="matrix" values="0 0 0 0 0 0 0 0 0 0 0 0 0 0 0 0 0 0 127 0" result="hardAlpha"/>
<feOffset dy="3"/>
<feGaussianBlur stdDeviation="1.5"/>
<feComposite in2="hardAlpha" operator="arithmetic" k2="-1" k3="1"/>
<feColorMatrix type="matrix" values="0 0 0 0 0.9 0 0 0 0 0.928333 0 0 0 0 1 0 0 0 0.6 0"/>
<feBlend mode="lighten" in2="shape" result="effect1_innerShadow_2297_54087"/>
<feColorMatrix in="SourceAlpha" type="matrix" values="0 0 0 0 0 0 0 0 0 0 0 0 0 0 0 0 0 0 127 0" result="hardAlpha"/>
<feOffset dy="-6"/>
<feGaussianBlur stdDeviation="6"/>
<feComposite in2="hardAlpha" operator="arithmetic" k2="-1" k3="1"/>
<feColorMatrix type="matrix" values="0 0 0 0 0.097309 0 0 0 0 0.181891 0 0 0 0 0.395833 0 0 0 0.16 0"/>
<feBlend mode="multiply" in2="effect1_innerShadow_2297_54087" result="effect2_innerShadow_2297_54087"/>
</filter>
<filter id="filter6_f_2297_54087" x="549.56" y="214.14" width="43.5288" height="42.4326" filterUnits="userSpaceOnUse" color-interpolation-filters="sRGB">
<feFlood flood-opacity="0" result="BackgroundImageFix"/>
<feBlend mode="normal" in="SourceGraphic" in2="BackgroundImageFix" result="shape"/>
<feGaussianBlur stdDeviation="3" result="effect1_foregroundBlur_2297_54087"/>
</filter>
<filter id="filter7_f_2297_54087" x="518.908" y="214.14" width="43.5288" height="42.4326" filterUnits="userSpaceOnUse" color-interpolation-filters="sRGB">
<feFlood flood-opacity="0" result="BackgroundImageFix"/>
<feBlend mode="normal" in="SourceGraphic" in2="BackgroundImageFix" result="shape"/>
<feGaussianBlur stdDeviation="3" result="effect1_foregroundBlur_2297_54087"/>
</filter>
<filter id="filter8_i_2297_54087" x="197" y="170.928" width="34.3188" height="15.457" filterUnits="userSpaceOnUse" color-interpolation-filters="sRGB">
<feFlood flood-opacity="0" result="BackgroundImageFix"/>
<feBlend mode="normal" in="SourceGraphic" in2="BackgroundImageFix" result="shape"/>
<feColorMatrix in="SourceAlpha" type="matrix" values="0 0 0 0 0 0 0 0 0 0 0 0 0 0 0 0 0 0 127 0" result="hardAlpha"/>
<feOffset dy="1.5"/>
<feGaussianBlur stdDeviation="1.5"/>
<feComposite in2="hardAlpha" operator="arithmetic" k2="-1" k3="1"/>
<feColorMatrix type="matrix" values="0 0 0 0 0.8625 0 0 0 0 0.912759 0 0 0 0 1 0 0 0 0.7 0"/>
<feBlend mode="lighten" in2="shape" result="effect1_innerShadow_2297_54087"/>
</filter>
<filter id="filter9_f_2297_54087" x="212.581" y="149.22" width="36" height="36" filterUnits="userSpaceOnUse" color-interpolation-filters="sRGB">
<feFlood flood-opacity="0" result="BackgroundImageFix"/>
<feBlend mode="normal" in="SourceGraphic" in2="BackgroundImageFix" result="shape"/>
<feGaussianBlur stdDeviation="3" result="effect1_foregroundBlur_2297_54087"/>
</filter>
<filter id="filter10_f_2297_54087" x="179.593" y="149.22" width="36" height="36" filterUnits="userSpaceOnUse" color-interpolation-filters="sRGB">
<feFlood flood-opacity="0" result="BackgroundImageFix"/>
<feBlend mode="normal" in="SourceGraphic" in2="BackgroundImageFix" result="shape"/>
<feGaussianBlur stdDeviation="3" result="effect1_foregroundBlur_2297_54087"/>
</filter>
<filter id="filter11_ii_2297_54087" x="201.258" y="135.4" width="23.8921" height="24.9619" filterUnits="userSpaceOnUse" color-interpolation-filters="sRGB">
<feFlood flood-opacity="0" result="BackgroundImageFix"/>
<feBlend mode="normal" in="SourceGraphic" in2="BackgroundImageFix" result="shape"/>
<feColorMatrix in="SourceAlpha" type="matrix" values="0 0 0 0 0 0 0 0 0 0 0 0 0 0 0 0 0 0 127 0" result="hardAlpha"/>
<feOffset dy="3"/>
<feGaussianBlur stdDeviation="1.5"/>
<feComposite in2="hardAlpha" operator="arithmetic" k2="-1" k3="1"/>
<feColorMatrix type="matrix" values="0 0 0 0 0.9 0 0 0 0 0.928333 0 0 0 0 1 0 0 0 0.6 0"/>
<feBlend mode="lighten" in2="shape" result="effect1_innerShadow_2297_54087"/>
<feColorMatrix in="SourceAlpha" type="matrix" values="0 0 0 0 0 0 0 0 0 0 0 0 0 0 0 0 0 0 127 0" result="hardAlpha"/>
<feOffset dy="-6"/>
<feGaussianBlur stdDeviation="6"/>
<feComposite in2="hardAlpha" operator="arithmetic" k2="-1" k3="1"/>
<feColorMatrix type="matrix" values="0 0 0 0 0.097309 0 0 0 0 0.181891 0 0 0 0 0.395833 0 0 0 0.16 0"/>
<feBlend mode="multiply" in2="effect1_innerShadow_2297_54087" result="effect2_innerShadow_2297_54087"/>
</filter>
<filter id="filter12_i_2297_54087" x="203.84" y="302.928" width="34.3188" height="15.457" filterUnits="userSpaceOnUse" color-interpolation-filters="sRGB">
<feFlood flood-opacity="0" result="BackgroundImageFix"/>
<feBlend mode="normal" in="SourceGraphic" in2="BackgroundImageFix" result="shape"/>
<feColorMatrix in="SourceAlpha" type="matrix" values="0 0 0 0 0 0 0 0 0 0 0 0 0 0 0 0 0 0 127 0" result="hardAlpha"/>
<feOffset dy="1.5"/>
<feGaussianBlur stdDeviation="1.5"/>
<feComposite in2="hardAlpha" operator="arithmetic" k2="-1" k3="1"/>
<feColorMatrix type="matrix" values="0 0 0 0 0.8625 0 0 0 0 0.912759 0 0 0 0 1 0 0 0 0.7 0"/>
<feBlend mode="lighten" in2="shape" result="effect1_innerShadow_2297_54087"/>
</filter>
<filter id="filter13_f_2297_54087" x="219.581" y="281.22" width="36" height="36" filterUnits="userSpaceOnUse" color-interpolation-filters="sRGB">
<feFlood flood-opacity="0" result="BackgroundImageFix"/>
<feBlend mode="normal" in="SourceGraphic" in2="BackgroundImageFix" result="shape"/>
<feGaussianBlur stdDeviation="3" result="effect1_foregroundBlur_2297_54087"/>
</filter>
<filter id="filter14_f_2297_54087" x="186.593" y="281.22" width="36" height="36" filterUnits="userSpaceOnUse" color-interpolation-filters="sRGB">
<feFlood flood-opacity="0" result="BackgroundImageFix"/>
<feBlend mode="normal" in="SourceGraphic" in2="BackgroundImageFix" result="shape"/>
<feGaussianBlur stdDeviation="3" result="effect1_foregroundBlur_2297_54087"/>
</filter>
<filter id="filter15_ii_2297_54087" x="208.258" y="267.4" width="23.8921" height="24.9619" filterUnits="userSpaceOnUse" color-interpolation-filters="sRGB">
<feFlood flood-opacity="0" result="BackgroundImageFix"/>
<feBlend mode="normal" in="SourceGraphic" in2="BackgroundImageFix" result="shape"/>
<feColorMatrix in="SourceAlpha" type="matrix" values="0 0 0 0 0 0 0 0 0 0 0 0 0 0 0 0 0 0 127 0" result="hardAlpha"/>
<feOffset dy="3"/>
<feGaussianBlur stdDeviation="1.5"/>
<feComposite in2="hardAlpha" operator="arithmetic" k2="-1" k3="1"/>
<feColorMatrix type="matrix" values="0 0 0 0 0.9 0 0 0 0 0.928333 0 0 0 0 1 0 0 0 0.6 0"/>
<feBlend mode="lighten" in2="shape" result="effect1_innerShadow_2297_54087"/>
<feColorMatrix in="SourceAlpha" type="matrix" values="0 0 0 0 0 0 0 0 0 0 0 0 0 0 0 0 0 0 127 0" result="hardAlpha"/>
<feOffset dy="-6"/>
<feGaussianBlur stdDeviation="6"/>
<feComposite in2="hardAlpha" operator="arithmetic" k2="-1" k3="1"/>
<feColorMatrix type="matrix" values="0 0 0 0 0.097309 0 0 0 0 0.181891 0 0 0 0 0.395833 0 0 0 0.16 0"/>
<feBlend mode="multiply" in2="effect1_innerShadow_2297_54087" result="effect2_innerShadow_2297_54087"/>
</filter>
<filter id="filter16_d_2297_54087" x="550.071" y="83.8028" width="37.8589" height="43.3104" filterUnits="userSpaceOnUse" color-interpolation-filters="sRGB">
<feFlood flood-opacity="0" result="BackgroundImageFix"/>
<feColorMatrix in="SourceAlpha" type="matrix" values="0 0 0 0 0 0 0 0 0 0 0 0 0 0 0 0 0 0 127 0" result="hardAlpha"/>
<feOffset dy="1.7324"/>
<feGaussianBlur stdDeviation="2.5986"/>
<feColorMatrix type="matrix" values="0 0 0 0 0 0 0 0 0 0 0 0 0 0 0 0 0 0 0.2 0"/>
<feBlend mode="normal" in2="BackgroundImageFix" result="effect1_dropShadow_2297_54087"/>
<feBlend mode="normal" in="SourceGraphic" in2="effect1_dropShadow_2297_54087" result="shape"/>
</filter>
<linearGradient id="paint0_linear_2297_54087" x1="564.869" y1="229.966" x2="567.148" y2="224.618" gradientUnits="userSpaceOnUse">
<stop offset="4.98403e-07" stop-color="#FFDBD4"/>
<stop offset="1" stop-color="#FFD1BF"/>
</linearGradient>
<linearGradient id="paint1_linear_2297_54087" x1="566.664" y1="225.01" x2="566.569" y2="229.911" gradientUnits="userSpaceOnUse">
<stop offset="2.58786e-07" stop-color="#FAC1B6"/>
<stop offset="1" stop-color="#FFDED1"/>
</linearGradient>
<linearGradient id="paint2_linear_2297_54087" x1="566.664" y1="225.01" x2="566.569" y2="229.911" gradientUnits="userSpaceOnUse">
<stop offset="2.58786e-07" stop-color="#FAC1B6"/>
<stop offset="1" stop-color="#FFDED1"/>
</linearGradient>
<linearGradient id="paint3_linear_2297_54087" x1="485.27" y1="229.875" x2="482.991" y2="224.526" gradientUnits="userSpaceOnUse">
<stop offset="4.98403e-07" stop-color="#FFDBD4"/>
<stop offset="1" stop-color="#FFD1BF"/>
</linearGradient>
<linearGradient id="paint4_linear_2297_54087" x1="483.475" y1="224.916" x2="483.57" y2="229.817" gradientUnits="userSpaceOnUse">
<stop offset="2.58786e-07" stop-color="#FAC1B6"/>
<stop offset="1" stop-color="#FFDED1"/>
</linearGradient>
<linearGradient id="paint5_linear_2297_54087" x1="557.01" y1="240.598" x2="557.082" y2="235.638" gradientUnits="userSpaceOnUse">
<stop offset="9.92013e-07" stop-color="#FFDBD4"/>
<stop offset="1" stop-color="#FFBFAA"/>
</linearGradient>
<linearGradient id="paint6_linear_2297_54087" x1="556.928" y1="217.029" x2="556.775" y2="236.94" gradientUnits="userSpaceOnUse">
<stop offset="4.98403e-07" stop-color="#D19083"/>
<stop offset="0.35817" stop-color="#FAC6BA"/>
<stop offset="1" stop-color="#FFD4C4"/>
</linearGradient>
<linearGradient id="paint7_linear_2297_54087" x1="556.928" y1="217.029" x2="556.775" y2="236.94" gradientUnits="userSpaceOnUse">
<stop offset="4.98403e-07" stop-color="#D19083"/>
<stop offset="0.35817" stop-color="#FAC6BA"/>
<stop offset="1" stop-color="#FFD4C4"/>
</linearGradient>
<linearGradient id="paint8_linear_2297_54087" x1="544.756" y1="223.015" x2="544.756" y2="231.459" gradientUnits="userSpaceOnUse">
<stop stop-color="#FFCA63"/>
<stop offset="0.502649" stop-color="#FFB931"/>
<stop offset="1" stop-color="#EFAD2C"/>
</linearGradient>
<linearGradient id="paint9_linear_2297_54087" x1="557.929" y1="237.031" x2="557.929" y2="239.227" gradientUnits="userSpaceOnUse">
<stop stop-color="#305188"/>
<stop offset="1" stop-color="#123164"/>
</linearGradient>
<linearGradient id="paint10_linear_2297_54087" x1="569.414" y1="223.014" x2="569.414" y2="231.458" gradientUnits="userSpaceOnUse">
<stop stop-color="#FFCA63"/>
<stop offset="0.502649" stop-color="#FFB931"/>
<stop offset="1" stop-color="#EFAD2C"/>
</linearGradient>
<linearGradient id="paint11_linear_2297_54087" x1="222.225" y1="163.729" x2="224.679" y2="157.971" gradientUnits="userSpaceOnUse">
<stop offset="4.98403e-07" stop-color="#FFDBD4"/>
<stop offset="1" stop-color="#FFD1BF"/>
</linearGradient>
<linearGradient id="paint12_linear_2297_54087" x1="137.201" y1="163.729" x2="134.747" y2="157.971" gradientUnits="userSpaceOnUse">
<stop offset="4.98403e-07" stop-color="#FFDBD4"/>
<stop offset="1" stop-color="#FFD1BF"/>
</linearGradient>
<linearGradient id="paint13_linear_2297_54087" x1="214.13" y1="175.271" x2="214.208" y2="169.939" gradientUnits="userSpaceOnUse">
<stop offset="9.92013e-07" stop-color="#FFDBD4"/>
<stop offset="1" stop-color="#FFBFAA"/>
</linearGradient>
<linearGradient id="paint14_linear_2297_54087" x1="210.048" y1="170.879" x2="210.203" y2="170.879" gradientUnits="userSpaceOnUse">
<stop offset="9.92013e-07" stop-color="#FFDBD4"/>
<stop offset="1" stop-color="#FFDCD1"/>
</linearGradient>
<linearGradient id="paint15_linear_2297_54087" x1="-73.2612" y1="170.846" x2="-73.4573" y2="170.846" gradientUnits="userSpaceOnUse">
<stop offset="9.92013e-07" stop-color="#FFDBD4"/>
<stop offset="1" stop-color="#FFDCD1"/>
</linearGradient>
<linearGradient id="paint16_linear_2297_54087" x1="213.963" y1="149.486" x2="213.783" y2="170.822" gradientUnits="userSpaceOnUse">
<stop offset="4.98403e-07" stop-color="#D19083"/>
<stop offset="0.297551" stop-color="#FAC6BA"/>
<stop offset="1" stop-color="#FFD4C4"/>
</linearGradient>
<linearGradient id="paint17_linear_2297_54087" x1="213.963" y1="153.065" x2="213.783" y2="170.822" gradientUnits="userSpaceOnUse">
<stop offset="4.98403e-07" stop-color="#FFDBD4"/>
<stop offset="1" stop-color="#FFC5AE"/>
</linearGradient>
<linearGradient id="paint18_linear_2297_54087" x1="229.225" y1="295.729" x2="231.679" y2="289.971" gradientUnits="userSpaceOnUse">
<stop offset="4.98403e-07" stop-color="#FFDBD4"/>
<stop offset="1" stop-color="#FFD1BF"/>
</linearGradient>
<linearGradient id="paint19_linear_2297_54087" x1="144.201" y1="295.729" x2="141.747" y2="289.971" gradientUnits="userSpaceOnUse">
<stop offset="4.98403e-07" stop-color="#FFDBD4"/>
<stop offset="1" stop-color="#FFD1BF"/>
</linearGradient>
<linearGradient id="paint20_linear_2297_54087" x1="221.13" y1="307.271" x2="221.208" y2="301.939" gradientUnits="userSpaceOnUse">
<stop offset="9.92013e-07" stop-color="#FFDBD4"/>
<stop offset="1" stop-color="#FFBFAA"/>
</linearGradient>
<linearGradient id="paint21_linear_2297_54087" x1="217.048" y1="302.879" x2="217.203" y2="302.879" gradientUnits="userSpaceOnUse">
<stop offset="9.92013e-07" stop-color="#FFDBD4"/>
<stop offset="1" stop-color="#FFDCD1"/>
</linearGradient>
<linearGradient id="paint22_linear_2297_54087" x1="-66.2612" y1="302.846" x2="-66.4573" y2="302.846" gradientUnits="userSpaceOnUse">
<stop offset="9.92013e-07" stop-color="#FFDBD4"/>
<stop offset="1" stop-color="#FFDCD1"/>
</linearGradient>
<linearGradient id="paint23_linear_2297_54087" x1="220.963" y1="281.486" x2="220.783" y2="302.822" gradientUnits="userSpaceOnUse">
<stop offset="4.98403e-07" stop-color="#D19083"/>
<stop offset="0.297551" stop-color="#FAC6BA"/>
<stop offset="1" stop-color="#FFD4C4"/>
</linearGradient>
<linearGradient id="paint24_linear_2297_54087" x1="220.963" y1="285.065" x2="220.783" y2="302.822" gradientUnits="userSpaceOnUse">
<stop offset="4.98403e-07" stop-color="#FFDBD4"/>
<stop offset="1" stop-color="#FFC5AE"/>
</linearGradient>
<clipPath id="clip0_2297_54087">
<rect x="533" y="200" width="48" height="48" rx="12" fill="white"/>
</clipPath>
<clipPath id="clip1_2297_54087">
<rect x="190" y="133" width="48" height="48" rx="12" fill="white"/>
</clipPath>
<clipPath id="clip2_2297_54087">
<rect x="197" y="265" width="48" height="48" rx="12" fill="white"/>
</clipPath>
</defs>
</svg>
