<?xml version="1.0" encoding="UTF-8"?>
<svg width="24px" height="24px" viewBox="0 0 24 24" version="1.1" xmlns="http://www.w3.org/2000/svg" xmlns:xlink="http://www.w3.org/1999/xlink">
    <title>默认头像 (7)</title>
    <g id="AntDesign-Pro-4.0" stroke="none" stroke-width="1" fill="none" fill-rule="evenodd">
        <g id="2.通知/2.消息为空" transform="translate(-1145.000000, -7.000000)" fill-rule="nonzero">
            <g id="默认头像-(7)" transform="translate(1145.000000, 7.000000)">
                <path d="M7.38489208,23.0750752 C11.8675008,24.9423493 17.0336437,23.9236947 20.4719179,20.4945893 C23.9101921,17.0654838 24.9426378,11.9020794 23.0873399,7.41450058 C21.232042,2.92692179 16.8548285,-1.8631224e-05 11.9988535,-1.8631224e-05 C8.82081246,-0.00423254092 5.77124938,1.25416882 3.52103475,3.49838288 C1.27082011,5.74259694 0.00428022593,8.78878893 -8.80360416e-05,11.9668299 C-0.0129092653,16.8227877 2.90228335,21.207801 7.38489208,23.0750752 Z" id="路径" fill="#5196FF"></path>
                <polygon id="路径" fill="#F4BAC2" points="11.6142248 10.0690176 12.3828155 10.0690176 12.3828155 12.3754562 11.6142248 12.3754562"></polygon>
                <path d="M11.9988535,5.12350666 C9.02675085,5.12350666 6.61738563,7.53287187 6.61738563,10.5049745 C6.61738563,13.4770771 9.02675084,15.8864423 11.9988534,15.8864423 C14.9709561,15.8864423 17.3803213,13.4770771 17.3803213,10.5049745 L17.3803213,5.12350666 L11.9988535,5.12350666 Z" id="路径" fill="#FFFFFF"></path>
                <path d="M4.9835472,21.5232183 C4.9835472,18.5635109 7.31664982,17.0149974 10.1550358,17.0149974 L13.8400047,17.0149974 C16.6777241,17.0149974 18.9681643,18.5915082 18.9681643,21.5512155 C17.0312418,23.1818572 14.5668719,24.0514954 12.0355165,23.9976402 C9.467321,24.0210354 6.97177596,23.14572 4.98088078,21.5232183 L4.9835472,21.5232183 Z" id="路径" fill="#FFFFFF"></path>
            </g>
        </g>
    </g>
</svg>