<svg width="640" height="420" viewBox="0 0 640 420" fill="none" xmlns="http://www.w3.org/2000/svg">
<path opacity="0.05" d="M296 302L227 371L158 302" stroke="#2475FC" stroke-width="10" stroke-linecap="round"/>
<path opacity="0.05" d="M158 128L227 59L296 128" stroke="#2475FC" stroke-width="10" stroke-linecap="round"/>
<path opacity="0.05" d="M91 279L22 210L91 141" stroke="#2475FC" stroke-width="10" stroke-linecap="round"/>
<circle cx="227" cy="210" r="40" fill="#2475FC"/>
<path d="M210.333 195H243.667V220H231.167L227 224.167L222.833 220H210.333V195Z" fill="white" stroke="white" stroke-width="3.33333" stroke-linecap="round" stroke-linejoin="round"/>
<path d="M226.167 207.5H227.835" stroke="#2475FC" stroke-width="3.33333" stroke-linecap="round"/>
<path d="M234.501 207.5H236.167" stroke="#2475FC" stroke-width="3.33333" stroke-linecap="round"/>
<path d="M217.834 207.5H219.5" stroke="#2475FC" stroke-width="3.33333" stroke-linecap="round"/>
<g filter="url(#filter0_d_2293_52478)">
<rect x="32" y="156" width="112" height="40" rx="8" fill="white" shape-rendering="crispEdges"/>
<path d="M54.816 175.264V176.416C54.064 176.752 53.296 177.056 52.528 177.344V182.096C52.528 182.992 52.048 183.456 51.12 183.456H49.44L49.184 182.336C49.728 182.368 50.24 182.4 50.72 182.4C51.136 182.4 51.344 182.192 51.344 181.792V177.76C50.512 178.016 49.696 178.272 48.864 178.496L48.576 177.408C49.504 177.2 50.432 176.96 51.344 176.672V172.976H48.832V171.872H51.344V168.976H52.528V171.872H54.608V172.976H52.528V176.256C53.296 175.952 54.064 175.616 54.816 175.264ZM55.104 170.176H63.136V171.296H60.544V181.936C60.544 182.928 60.064 183.424 59.104 183.424H56.48L56.24 182.32C57.104 182.352 57.92 182.384 58.704 182.384C59.136 182.384 59.36 182.128 59.36 181.648V171.296H55.104V170.176ZM65.792 169.888H78.256V171.008H75.584V175.248H79.088V176.352H75.584V183.44H74.416V176.352H69.792C69.648 178 69.344 179.36 68.864 180.448C68.256 181.792 67.248 182.832 65.84 183.568L65.216 182.576C66.512 181.84 67.424 180.864 67.936 179.648C68.272 178.72 68.496 177.632 68.624 176.352H64.928V175.248H68.688C68.688 175.04 68.704 174.848 68.704 174.688V171.008H65.792V169.888ZM69.888 171.008V174.688C69.888 174.88 69.872 175.072 69.872 175.248H74.416V171.008H69.888ZM92.704 178.64V183.648H91.584V182.96H84.704V183.648H83.584V178.64H92.704ZM84.704 181.92H91.584V179.68H84.704V181.92ZM85.984 171.504L87.104 171.744C86.864 172.112 86.624 172.464 86.368 172.8H92.272V173.728C91.616 174.64 90.672 175.44 89.44 176.144C91.184 176.832 93.136 177.248 95.296 177.408L95.04 178.448C92.48 178.256 90.224 177.696 88.24 176.736C86.352 177.6 83.968 178.272 81.088 178.768L80.656 177.744C83.232 177.328 85.376 176.8 87.072 176.128C86.256 175.648 85.504 175.104 84.816 174.496C84.192 175.056 83.52 175.552 82.816 176L82.08 175.104C83.664 174.192 84.96 172.992 85.984 171.504ZM88.256 175.616C89.36 175.072 90.24 174.448 90.896 173.776H85.536L85.488 173.824C86.336 174.528 87.264 175.12 88.256 175.616ZM94.496 170.128V173.152H93.328V171.168H82.672V173.152H81.504V170.128H87.36C87.168 169.712 86.976 169.344 86.768 169.008L88.032 168.816C88.224 169.2 88.4 169.648 88.592 170.128H94.496ZM98.912 174.4V177.072H101.488V174.4H98.912ZM101.488 173.36V170.656H98.912V173.36H101.488ZM98.896 178.112C98.8 180.352 98.416 182.192 97.76 183.632L96.896 182.832C97.536 181.392 97.856 179.536 97.872 177.296V169.616H102.544V182.096C102.544 183.056 102.096 183.552 101.2 183.552H99.92L99.648 182.528C100.096 182.56 100.496 182.592 100.88 182.592C101.28 182.592 101.488 182.304 101.488 181.728V178.112H98.896ZM104.976 176.528V183.616H103.888V169.6H110.368C110.368 171.584 110.272 172.896 110.08 173.536C109.888 174.192 109.296 174.528 108.288 174.528H106.992L106.688 173.536C106.96 173.536 107.312 173.552 107.76 173.552C108.144 173.552 108.416 173.52 108.608 173.472C108.8 173.408 108.944 173.248 109.04 173.008C109.152 172.656 109.216 171.872 109.248 170.656H104.976V175.504H110.416V176.48C110.112 178.128 109.584 179.536 108.848 180.688C109.568 181.392 110.416 182.016 111.392 182.576L110.816 183.552C109.792 182.96 108.928 182.304 108.192 181.584C107.488 182.4 106.672 183.056 105.712 183.568L105.104 182.64C106.016 182.144 106.784 181.52 107.424 180.752C106.4 179.504 105.712 178.096 105.36 176.528H104.976ZM106.352 176.528C106.688 177.76 107.264 178.864 108.08 179.856C108.672 178.896 109.104 177.792 109.392 176.528H106.352ZM124.944 172.432V180H123.792V173.552H116.144V180.032H114.992V172.432H119.04C119.2 171.872 119.312 171.296 119.392 170.688H112.96V169.6H127.04V170.688H120.608C120.512 171.296 120.4 171.888 120.24 172.432H124.944ZM121.056 180.032C123.12 180.736 125.008 181.568 126.704 182.56L126 183.648C124.176 182.512 122.32 181.616 120.416 180.976L121.056 180.032ZM119.408 174.512H120.592V177.056C120.528 178.816 119.952 180.208 118.896 181.264C117.872 182.24 116.192 182.992 113.856 183.536L113.2 182.512C115.52 182 117.136 181.328 118.048 180.48C118.912 179.6 119.36 178.464 119.408 177.056V174.512Z" fill="#262626"/>
</g>
<g filter="url(#filter1_d_2293_52478)">
<rect x="171" y="264" width="112" height="40" rx="8" fill="#FF9900" shape-rendering="crispEdges"/>
<path d="M195.496 279.728H198.056V276.992H199.16V279.728H201.752V286.16H199.16V289.664C199.704 289.552 200.248 289.44 200.776 289.312C200.568 288.64 200.344 287.984 200.104 287.36L201.048 287.056C201.528 288.272 201.96 289.664 202.344 291.232L201.352 291.472C201.256 291.056 201.144 290.64 201.048 290.256C199.288 290.688 197.416 291.056 195.416 291.344L195.144 290.272C196.136 290.16 197.112 290.032 198.056 289.872V286.16H195.496V279.728ZM200.68 285.104V280.784H199.112V285.104H200.68ZM198.104 285.104V280.784H196.568V285.104H198.104ZM189.48 284.704V286.416C189.48 286.544 189.464 286.656 189.464 286.784H191V284.704H189.48ZM189.416 287.76C189.288 289.28 188.936 290.56 188.392 291.6L187.56 290.848C188.152 289.696 188.456 288.24 188.472 286.48V281.536C188.392 281.616 188.312 281.696 188.248 281.776L187.56 280.944C188.584 279.904 189.448 278.544 190.12 276.864L191.16 277.104C191.032 277.456 190.888 277.808 190.728 278.128H193.672V278.928C193.32 279.632 192.984 280.24 192.632 280.736H194.552V290.32C194.552 291.088 194.184 291.472 193.464 291.472H192.632L192.376 290.544C192.664 290.56 192.92 290.576 193.16 290.576C193.432 290.576 193.576 290.368 193.576 289.968V287.76H191.96V291.312H191V287.76H189.416ZM193.576 286.784V284.704H191.96V286.784H193.576ZM193.576 283.712V281.728H191.96V283.712H193.576ZM189.16 280.736H191.448C191.784 280.256 192.12 279.696 192.456 279.072H190.248C189.912 279.68 189.544 280.224 189.16 280.736ZM191 281.728H189.48V283.712H191V281.728ZM204.856 281.84L206.12 277.392L207.256 277.584L206.344 280.736H209.144C209.464 279.488 209.72 278.192 209.912 276.816L211.08 276.96C210.872 278.304 210.616 279.552 210.328 280.736H217.816V281.84H210.024C209.832 282.48 209.64 283.088 209.416 283.664H215.96V284.656C215.528 286.032 214.664 287.28 213.352 288.4C214.648 289.168 216.232 289.872 218.088 290.512L217.496 291.584C215.448 290.832 213.752 290.016 212.408 289.136C211.096 290.064 209.464 290.896 207.528 291.648L206.92 290.576C208.712 289.92 210.2 289.2 211.4 288.416C210.152 287.456 209.272 286.416 208.744 285.296C207.576 287.824 206.072 289.824 204.248 291.312L203.656 290.256C205.992 288.208 207.704 285.408 208.824 281.84H204.856ZM209.608 284.72C210.152 285.808 211.064 286.816 212.344 287.744C213.528 286.816 214.344 285.808 214.792 284.72H209.608ZM213.768 276.944C214.92 277.824 215.864 278.704 216.632 279.584L215.816 280.4C215.144 279.552 214.2 278.656 213 277.696L213.768 276.944ZM223.96 276.992C224.6 277.824 225.208 278.72 225.784 279.712L224.744 280.24C224.168 279.216 223.56 278.304 222.904 277.504L223.96 276.992ZM229.976 276.848L231.08 277.152C230.696 278.304 230.216 279.344 229.64 280.256H232.936V281.376H227.592V282.128C227.56 282.928 227.496 283.68 227.368 284.352H233.864V285.472H228.04C228.824 287.632 230.888 289.312 234.248 290.512L233.576 291.584C230.056 290.16 227.88 288.224 227.016 285.792C226.712 286.704 226.312 287.504 225.8 288.192C224.712 289.6 222.936 290.704 220.472 291.488L219.848 290.48C222.296 289.696 224.008 288.656 224.968 287.376C225.352 286.8 225.656 286.176 225.88 285.472H220.136V284.352H226.168C226.312 283.648 226.392 282.912 226.408 282.128V281.376H221.048V280.256H228.36C228.968 279.328 229.496 278.192 229.976 276.848ZM236.552 282.672C236.52 282.752 236.472 282.832 236.44 282.912L235.544 282.336C236.296 280.672 236.84 278.832 237.192 276.816L238.28 277.04C238.152 277.632 238.04 278.192 237.912 278.736H240.344V279.84H237.608C237.384 280.608 237.128 281.312 236.856 281.984H240.296V283.008H238.888V284.976H240.536V286.032H238.888V289.712C239.416 289.424 239.96 289.072 240.504 288.624L240.696 289.616C239.88 290.224 238.936 290.736 237.88 291.136L237.416 290.176C237.704 290.064 237.848 289.904 237.848 289.68V286.032H236.056V284.976H237.848V283.008H236.552V282.672ZM249.4 283.648H247.176V284.88H249.576V285.792H247.176V287.056H249.976V288.016H247.176V289.584H246.136V288.016H243.992V287.056H246.136V285.792H244.392V284.88H246.136V283.648H244.552V282.72H246.136V281.424H244.008V280.496H246.136V279.136H244.552V278.208H246.136V277.024H247.176V278.208H249.4V280.496H250.152V281.424H249.4V283.648ZM247.176 279.136V280.496H248.424V279.136H247.176ZM247.176 281.424V282.72H248.424V281.424H247.176ZM247.848 290.288C248.904 290.288 249.752 290.256 250.376 290.224L250.168 291.328H248.424C246.056 291.296 244.44 291.008 243.608 290.464C243.224 290.224 242.888 289.936 242.6 289.6C242.248 290.336 241.816 290.96 241.32 291.504L240.536 290.736C241.08 290.16 241.544 289.472 241.896 288.672C241.336 287.776 240.888 286.656 240.568 285.312L241.432 284.992C241.64 285.936 241.944 286.768 242.328 287.504C242.648 286.416 242.84 285.168 242.904 283.76H241V282.96C241.64 281.872 242.232 280.688 242.744 279.424H240.888V278.432H243.784V279.376C243.24 280.72 242.712 281.856 242.184 282.816H243.832V283.44C243.8 285.44 243.528 287.152 243.032 288.56C243.448 289.072 243.928 289.44 244.44 289.68C245.16 290.032 246.296 290.224 247.848 290.288ZM263.992 291.536H262.152L261.864 290.432L263.752 290.464C264.28 290.464 264.552 290.176 264.552 289.6V278.688H256.904V277.6H265.688V289.936C265.688 290.992 265.112 291.536 263.992 291.536ZM257.272 280.576H263.448V281.68H257.272V280.576ZM257.848 283.424H262.808V288.384H257.848V283.424ZM261.72 287.376V284.432H258.968V287.376H261.72ZM253.592 277.088C254.68 277.904 255.592 278.72 256.328 279.552L255.544 280.352C254.872 279.568 253.944 278.736 252.792 277.872L253.592 277.088ZM251.704 281.824H255.128V288.832C255.592 288.4 256.088 287.904 256.632 287.344L256.936 288.576C256.056 289.488 255.112 290.304 254.12 291.008L253.672 289.984C253.896 289.776 254.024 289.552 254.024 289.296V282.928H251.704V281.824Z" fill="white"/>
</g>
<g filter="url(#filter2_d_2293_52478)">
<rect x="32" y="224" width="112" height="40" rx="8" fill="white" shape-rendering="crispEdges"/>
<path d="M52.96 236.992C53.6 237.824 54.208 238.72 54.784 239.712L53.744 240.24C53.168 239.216 52.56 238.304 51.904 237.504L52.96 236.992ZM58.976 236.848L60.08 237.152C59.696 238.304 59.216 239.344 58.64 240.256H61.936V241.376H56.592V242.128C56.56 242.928 56.496 243.68 56.368 244.352H62.864V245.472H57.04C57.824 247.632 59.888 249.312 63.248 250.512L62.576 251.584C59.056 250.16 56.88 248.224 56.016 245.792C55.712 246.704 55.312 247.504 54.8 248.192C53.712 249.6 51.936 250.704 49.472 251.488L48.848 250.48C51.296 249.696 53.008 248.656 53.968 247.376C54.352 246.8 54.656 246.176 54.88 245.472H49.136V244.352H55.168C55.312 243.648 55.392 242.912 55.408 242.128V241.376H50.048V240.256H57.36C57.968 239.328 58.496 238.192 58.976 236.848ZM66.096 237.168C67.2 237.968 68.128 238.752 68.88 239.536L68.064 240.352C67.392 239.6 66.448 238.8 65.264 237.968L66.096 237.168ZM65.696 240.944C66.752 241.728 67.632 242.512 68.336 243.312L67.52 244.128C66.88 243.392 66 242.592 64.88 241.728L65.696 240.944ZM67.712 245.36L68.736 245.776C68.016 247.792 67.216 249.696 66.336 251.472L65.184 250.976C66.144 249.152 66.992 247.28 67.712 245.36ZM69.504 239.632H73.808C73.488 238.768 73.136 237.952 72.72 237.152L73.808 236.848C74.256 237.776 74.608 238.608 74.848 239.376L74.192 239.632H78.96V240.768H74.832V244.608H78.528V245.712H74.832V249.92H79.264V251.056H69.104V249.92H73.664V245.712H69.952V244.608H73.664V240.768H69.504V239.632ZM85.264 237.088L86.32 237.504C85.136 240.864 83.584 243.424 81.632 245.184L80.736 244.4C82.736 242.576 84.24 240.144 85.264 237.088ZM90.72 245.568C91.968 247.296 93.024 249.152 93.92 251.12L92.848 251.6C92.608 251.056 92.368 250.544 92.128 250.064C89.312 250.512 86.16 250.832 82.672 251.056L82.464 249.936C83.744 249.264 85.344 246.736 87.28 242.352L88.4 242.736C87.024 245.776 85.648 248.16 84.272 249.888C86.88 249.728 89.328 249.456 91.616 249.088C90.992 247.936 90.352 246.88 89.68 245.92L90.72 245.568ZM90.48 236.976C91.408 239.952 93.008 242.384 95.296 244.272L94.48 245.216C92.096 243.232 90.432 240.656 89.504 237.52L90.48 236.976ZM103.568 236.976H104.432C106.384 239.44 108.624 241.376 111.168 242.784L110.56 243.856C108 242.368 105.808 240.416 104 238.016C102.304 240.288 100.08 242.24 97.328 243.888L96.736 242.816C99.472 241.248 101.744 239.312 103.568 236.976ZM100.512 242.592H101.616C101.616 243.712 101.536 244.72 101.392 245.616C102.384 246.544 103.232 247.472 103.936 248.4L103.12 249.216C102.608 248.416 101.952 247.6 101.168 246.736L101.024 247.232C100.512 248.88 99.36 250.24 97.536 251.296L96.816 250.416C98.384 249.504 99.408 248.368 99.92 246.992C100.304 245.84 100.512 244.384 100.512 242.592ZM106.128 242.448H107.232C107.232 243.408 107.184 244.304 107.088 245.12C107.888 247.36 109.28 249.136 111.28 250.448L110.528 251.328C108.864 250.144 107.616 248.688 106.768 246.96L106.704 247.216C106.256 248.912 105.2 250.304 103.552 251.392L102.848 250.528C104.224 249.584 105.152 248.4 105.6 246.992C105.936 245.808 106.112 244.288 106.128 242.448ZM115.312 237.504H124.688V241.824H115.312V237.504ZM123.504 240.784V238.544H116.496V240.784H123.504ZM116.464 244.304H112.8V243.2H127.184V244.304H117.632L117.088 246.176H124.912C124.816 248.736 124.56 250.272 124.176 250.768C123.792 251.248 123.056 251.488 121.968 251.488C121.168 251.488 120.464 251.456 119.84 251.392L119.456 250.336C120.304 250.4 121.056 250.432 121.712 250.432C122.576 250.432 123.104 250.256 123.312 249.904C123.504 249.552 123.648 248.656 123.744 247.216H115.712L116.464 244.304Z" fill="#262626"/>
</g>
<g filter="url(#filter3_d_2293_52478)">
<rect x="171" y="318" width="112" height="40" rx="8" fill="white" shape-rendering="crispEdges"/>
<path d="M197.96 333.12C197.576 333.712 197.144 334.224 196.664 334.656L195.976 333.792C196.744 333.088 197.384 332.096 197.912 330.816L198.952 331.04C198.808 331.424 198.664 331.776 198.52 332.096H203.096V333.12H200.68C200.648 333.664 200.6 334.192 200.536 334.672H203.544V335.728H200.296C200.248 335.888 200.2 336.032 200.168 336.176C201.384 336.784 202.408 337.408 203.24 338.048L202.424 338.864C201.752 338.256 200.888 337.648 199.8 337.008C199.16 338.128 198.04 339.056 196.456 339.792L195.688 338.848C197.352 338.112 198.44 337.2 198.968 336.112L199.128 335.728H195.912V334.672H199.416C199.512 334.176 199.56 333.664 199.592 333.12H197.96ZM204.216 332.016H209.48V337.872H204.216V332.016ZM208.36 336.848V333.04H205.336V336.848H208.36ZM208.344 339.024V345.632H207.176V344.912H199.256V345.632H198.104V339.024H208.344ZM199.256 343.888H207.176V342.512H199.256V343.888ZM199.256 341.504H207.176V340.048H199.256V341.504ZM213.864 340.112V341.6H217.56V340.112H213.864ZM217.56 339.152V337.6H213.864V339.152H217.56ZM213.864 342.576V345.632H212.76V336.592H218.664V344.112C218.664 345.04 218.216 345.52 217.32 345.52H216.04L215.752 344.432L216.952 344.48C217.352 344.48 217.56 344.272 217.56 343.872V342.576H213.864ZM224.28 337.92H221.64C220.664 337.92 220.184 337.392 220.184 336.352V330.976H221.32V333.056C223.08 332.784 224.504 332.496 225.608 332.208L225.976 333.216C224.632 333.552 223.08 333.856 221.32 334.112V336.112C221.32 336.624 221.528 336.88 221.96 336.88H224.056C224.376 336.88 224.6 336.784 224.728 336.624C224.888 336.4 224.984 335.808 225.048 334.816L226.12 335.152C226.008 336.464 225.8 337.264 225.512 337.552C225.256 337.792 224.84 337.92 224.28 337.92ZM221.32 341.536V343.824C221.32 344.144 221.512 344.32 221.928 344.32H224.104C224.424 344.32 224.664 344.24 224.792 344.096C224.968 343.872 225.08 343.28 225.144 342.304L226.184 342.624C226.088 343.92 225.88 344.704 225.576 344.992C225.32 345.232 224.904 345.36 224.328 345.36H221.608C220.648 345.36 220.184 344.928 220.184 344.08V338.528H221.32V340.496C222.92 340.336 224.344 340.064 225.608 339.68L225.976 340.704C224.536 341.12 222.984 341.392 221.32 341.536ZM217.512 332.064C218.472 333.36 219.224 334.48 219.752 335.44L218.808 336.112C218.632 335.76 218.44 335.408 218.232 335.056C216.52 335.328 214.472 335.52 212.104 335.648L211.784 334.688C211.992 334.624 212.168 334.512 212.312 334.384C213.304 333.36 214.136 332.208 214.776 330.928L215.864 331.264C215.128 332.688 214.328 333.808 213.432 334.624C214.776 334.544 216.2 334.416 217.704 334.224C217.368 333.712 217 333.168 216.616 332.624L217.512 332.064ZM228.056 331.984H231.736V330.944H232.856V331.984H237.144V330.928H238.264V331.984H241.896V333.008H238.264V334.112H237.144V333.008H232.856V334.192H231.736V333.008H228.056V331.984ZM239.4 336L240.36 336.464C239.8 337.456 239.144 338.336 238.376 339.072L237.528 338.448C238.248 337.76 238.872 336.944 239.4 336ZM234.904 336.368C235.224 336.944 235.496 337.6 235.736 338.352L234.712 338.608C234.504 337.936 234.248 337.28 233.944 336.672L234.904 336.368ZM230.792 336.576C231.224 337.312 231.608 338.112 231.928 338.96L230.984 339.376C230.632 338.448 230.232 337.616 229.816 336.896L230.792 336.576ZM240.28 334.224L240.84 335.168C237.944 335.712 234.104 336 229.304 336L228.952 334.928C233.496 334.928 237.272 334.688 240.28 334.224ZM228.296 340.032H234.44V339.008H235.56V340.032H241.704V341.104H236.664C237.816 342.272 239.672 343.312 242.232 344.224L241.448 345.232C238.728 343.984 236.792 342.608 235.672 341.104H235.56V345.6H234.44V341.104H234.328C233.112 342.768 231.16 344.144 228.456 345.232L227.816 344.16C230.312 343.36 232.136 342.336 233.32 341.104H228.296V340.032ZM245.416 333.424H252.312C252.824 332.624 253.288 331.744 253.688 330.816L254.808 331.216C254.424 332.032 253.992 332.768 253.512 333.424H256.584V340H251.576V341.52H258.104V342.608H251.576V345.648H250.424V342.608H243.896V341.52H250.424V340H245.416V333.424ZM255.464 338.976V337.184H251.576V338.976H255.464ZM250.424 338.976V337.184H246.536V338.976H250.424ZM246.536 336.192H250.424V334.432H246.536V336.192ZM251.576 334.432V336.192H255.464V334.432H251.576ZM248.248 330.896C248.776 331.504 249.272 332.192 249.752 332.928L248.792 333.408C248.312 332.64 247.816 331.968 247.272 331.36L248.248 330.896Z" fill="#262626"/>
</g>
<g filter="url(#filter4_d_2293_52478)">
<rect x="171" y="62" width="112" height="40" rx="8" fill="white" shape-rendering="crispEdges"/>
<path d="M196.44 86.432L196.088 85.456C196.312 85.36 196.44 85.232 196.44 85.072V76.304H197.56V85.04C198.36 84.816 199.16 84.544 199.96 84.24V75.008H201.096V89.504H199.96V85.36C198.84 85.76 197.656 86.112 196.44 86.432ZM204.36 78.496C204.168 79.008 203.976 79.488 203.768 79.936C204.344 81.504 205.08 82.944 206.008 84.256C206.968 82.624 207.48 80.704 207.576 78.496H204.36ZM203.096 81.184C202.792 81.664 202.472 82.096 202.136 82.496L201.416 81.616C202.728 79.952 203.624 77.696 204.088 74.88L205.24 75.072C205.08 75.888 204.904 76.656 204.712 77.36H210.056V78.496H208.68C208.568 81.12 207.928 83.376 206.744 85.232C207.8 86.544 209.016 87.712 210.424 88.736L209.64 89.664C208.248 88.624 207.048 87.472 206.04 86.224C204.984 87.552 203.624 88.656 201.96 89.552L201.304 88.512C202.984 87.68 204.328 86.608 205.32 85.296C204.424 84.016 203.672 82.656 203.096 81.184ZM220.04 86.928V88.064C217.576 88.576 214.92 89.024 212.072 89.376L211.816 88.272C213.096 88.128 214.344 87.968 215.56 87.776V84.752H212.44V83.632H215.56V81.776H216.712V83.632H219.592V84.752H216.712V87.584C217.848 87.392 218.952 87.168 220.04 86.928ZM212.024 75.632H219.976V76.72H215.864C215.096 78.32 214.376 79.52 213.704 80.336C215.288 80.176 216.792 79.984 218.232 79.728C217.88 79.152 217.48 78.576 217.048 77.984L217.928 77.408C219 78.848 219.816 80.112 220.392 81.184L219.432 81.856C219.224 81.44 219 81.024 218.744 80.592C216.728 80.944 214.504 81.248 212.104 81.488L211.832 80.448C212.024 80.416 212.184 80.384 212.296 80.336C212.952 79.76 213.736 78.56 214.648 76.72H212.024V75.632ZM224.2 89.456H221.848L221.592 88.336C222.36 88.368 223.096 88.4 223.8 88.4C224.248 88.4 224.488 88.16 224.488 87.696V74.976H225.656V87.984C225.656 88.96 225.16 89.456 224.2 89.456ZM221.288 76.416H222.408V86.32H221.288V76.416ZM236.536 74.976H237.72V79.344H241.176V87.92C241.176 88.976 240.664 89.504 239.672 89.504H237.8L237.496 88.384L239.288 88.416C239.784 88.416 240.04 88.16 240.04 87.664V86.096H234.264V89.52H233.112V79.344H236.536V74.976ZM234.264 83.28V85.104H240.04V83.28H234.264ZM240.04 82.288V80.448H234.264V82.288H240.04ZM233.352 75.392C233.96 76.224 234.536 77.136 235.096 78.128L234.168 78.576C233.624 77.568 233.032 76.656 232.392 75.856L233.352 75.392ZM240.92 75.312L241.864 75.76C241.384 76.784 240.76 77.76 239.992 78.704L239.08 78.24C239.848 77.248 240.472 76.272 240.92 75.312ZM230.728 83.232L231.736 83.632C230.936 85.68 230.072 87.616 229.112 89.424L228.056 88.96C229.08 87.088 229.96 85.184 230.728 83.232ZM229.16 75.168C230.264 75.968 231.192 76.768 231.944 77.568L231.128 78.384C230.456 77.616 229.528 76.816 228.344 75.952L229.16 75.168ZM228.696 78.928C229.752 79.728 230.616 80.528 231.32 81.328L230.504 82.144C229.864 81.392 229 80.576 227.88 79.712L228.696 78.928ZM246.056 76.112H249.576C249.8 75.696 249.96 75.28 250.072 74.832L251.272 74.992C251.144 75.392 250.984 75.76 250.792 76.112H256.072V83.936H246.056V76.112ZM254.952 82.944V81.6H247.176V82.944H254.952ZM247.176 80.672H254.952V79.36H247.176V80.672ZM247.176 78.432H254.952V77.12H247.176V78.432ZM245.256 85.024L246.344 85.248C245.96 86.72 245.432 87.984 244.744 89.072L243.768 88.448C244.456 87.424 244.952 86.272 245.256 85.024ZM252.968 89.36H248.856C247.928 89.36 247.48 88.896 247.48 88V84.944H248.648V87.76C248.648 88.128 248.824 88.32 249.192 88.32H252.744C253.112 88.32 253.368 88.224 253.496 88.064C253.688 87.84 253.832 87.216 253.896 86.176L255 86.528C254.872 87.872 254.648 88.688 254.328 88.992C254.04 89.232 253.576 89.36 252.968 89.36ZM250.824 84.368C251.688 85.2 252.344 85.936 252.808 86.56L251.928 87.168C251.448 86.48 250.808 85.728 249.976 84.896L250.824 84.368ZM255.992 84.736C257.016 86.016 257.8 87.152 258.344 88.112L257.432 88.752C256.856 87.712 256.072 86.56 255.096 85.296L255.992 84.736Z" fill="#262626"/>
</g>
<g filter="url(#filter5_d_2293_52478)">
<rect x="171" y="116" width="112" height="40" rx="8" fill="white" shape-rendering="crispEdges"/>
<path d="M203.464 131.632C203.88 132.352 204.248 133.136 204.6 134H206.168C206.616 133.2 206.984 132.352 207.304 131.456L208.392 131.84C208.088 132.64 207.752 133.36 207.384 134H209.976V135.104H201.048V134H203.496C203.176 133.296 202.856 132.656 202.52 132.08L203.464 131.632ZM205.576 128.832C205.752 129.28 205.928 129.792 206.104 130.352H209.688V131.408H201.416V130.352H204.936C204.76 129.872 204.568 129.424 204.376 129.024L205.576 128.832ZM197.592 143.456H196.2L195.96 142.336C196.392 142.368 196.808 142.4 197.192 142.4C197.608 142.4 197.832 142.192 197.832 141.776V137.84C197.192 138.096 196.536 138.336 195.88 138.544L195.592 137.392C196.344 137.2 197.096 136.96 197.832 136.672V133.104H195.88V132H197.832V128.976H199.016V132H200.344V133.104H199.016V136.176C199.464 135.952 199.912 135.728 200.36 135.488V136.656C199.912 136.896 199.464 137.12 199.016 137.328V142.064C199.016 142.992 198.536 143.456 197.592 143.456ZM204.168 135.552L205.272 135.68C205.112 136.112 204.936 136.528 204.744 136.928H210.232V138.048H208.472C208.232 139.232 207.736 140.24 206.984 141.056C208.072 141.568 209.128 142.112 210.136 142.688L209.512 143.616C208.552 143.024 207.448 142.432 206.168 141.824C205.112 142.592 203.432 143.216 201.128 143.664L200.68 142.624C202.536 142.288 203.976 141.84 204.968 141.264C203.992 140.816 202.952 140.384 201.832 139.936C202.264 139.28 202.648 138.656 202.984 138.048H200.84V136.928H203.576C203.8 136.448 203.992 136 204.168 135.552ZM207.384 138.048H204.152C203.864 138.544 203.56 139.024 203.24 139.472C204.168 139.824 205.064 140.192 205.928 140.576C206.648 139.904 207.128 139.072 207.384 138.048ZM214.952 128.832L215.96 129.296C215.128 131.056 213.8 132.624 211.944 133.984L211.608 132.88C213.144 131.696 214.248 130.352 214.952 128.832ZM215.544 132.512L216.536 132.976C216.152 133.84 215.672 134.656 215.096 135.424V143.52H213.992V136.704C213.416 137.312 212.776 137.872 212.088 138.4L211.752 137.296C213.48 135.904 214.744 134.304 215.544 132.512ZM220.936 128.896H222.04V130.64H225.64V131.68H222.04V133.68H226.296V134.736H216.76V133.68H220.936V131.68H217.368V130.64H220.936V128.896ZM216.84 136.688H223.048V135.504H224.2V136.688H226.072V137.76H224.2V141.872C224.2 142.912 223.672 143.44 222.648 143.44H220.376L220.12 142.336C220.856 142.384 221.576 142.416 222.248 142.416C222.776 142.416 223.048 142.128 223.048 141.584V137.76H216.84V136.688ZM218.728 138.384C219.624 139.296 220.312 140.096 220.792 140.768L219.896 141.408C219.384 140.672 218.696 139.84 217.832 138.944L218.728 138.384ZM231.304 136.624V129.024H232.44V143.552H231.304V137.984C230.344 139.008 229.24 139.984 228.024 140.88L227.672 139.68C229 138.8 230.216 137.776 231.304 136.624ZM228.968 130.608C229.576 131.888 230.104 133.264 230.552 134.72L229.544 135.184C229.048 133.584 228.488 132.176 227.88 130.96L228.968 130.608ZM239.768 129.248C240.632 130.208 241.288 131.056 241.752 131.776L240.856 132.416C240.376 131.616 239.704 130.752 238.872 129.808L239.768 129.248ZM237.992 128.976C237.992 130.16 237.976 131.568 237.944 133.232H241.848V134.336H238.072C238.76 137.92 240.2 140.704 242.408 142.656L241.624 143.52C239.608 141.616 238.248 139.2 237.544 136.288C236.872 139.184 235.608 141.616 233.784 143.568L233.016 142.704C235.16 140.304 236.392 137.504 236.712 134.336H233.496V133.232H236.776C236.824 131.376 236.856 129.952 236.856 128.976H237.992ZM250.424 128.784L251.576 128.896C251.512 129.504 251.4 130.064 251.272 130.608H257.448V131.712H252.328C253.112 133.488 255.096 134.864 258.28 135.856L257.672 136.848C254.12 135.6 251.96 133.888 251.16 131.712H250.92C250.568 132.64 250.088 133.456 249.496 134.128C249.432 134.192 249.384 134.24 249.336 134.304C250.04 134.8 250.808 135.44 251.672 136.224L250.872 137.024C250.104 136.256 249.336 135.568 248.568 134.96C247.512 135.744 246.008 136.384 244.088 136.896L243.64 135.84C245.912 135.264 247.56 134.432 248.568 133.376C249.016 132.896 249.368 132.336 249.656 131.712H244.408V130.608H250.056C250.232 130.032 250.36 129.424 250.424 128.784ZM245.288 138.24L246.424 138.48C246.04 140.144 245.496 141.584 244.808 142.8L243.816 142.176C244.488 140.992 244.984 139.68 245.288 138.24ZM251.352 137.664C251.912 138.496 252.408 139.392 252.824 140.352L251.768 140.816C251.32 139.744 250.856 138.8 250.344 137.984L251.352 137.664ZM256.136 138C256.904 139.184 257.576 140.464 258.152 141.84L257.096 142.304C256.472 140.8 255.784 139.488 255.032 138.352L256.136 138ZM253.208 143.264H249.144C248.12 143.264 247.624 142.72 247.624 141.664V138.192H248.808V141.424C248.808 141.904 249.032 142.144 249.512 142.144H253C253.336 142.144 253.576 142.048 253.72 141.856C253.912 141.632 254.04 140.976 254.104 139.872L255.192 140.224C255.08 141.664 254.856 142.528 254.536 142.848C254.248 143.12 253.816 143.264 253.208 143.264Z" fill="#262626"/>
</g>
<g filter="url(#filter6_d_2293_52478)">
<path fill-rule="evenodd" clip-rule="evenodd" d="M354 78C347.373 78 342 83.3726 342 90V192.602L323 203.572C317.667 206.651 317.667 214.349 323 217.429L342 228.398V330C342 336.627 347.373 342 354 342H589C595.627 342 601 336.627 601 330V90C601 83.3726 595.627 78 589 78H354Z" fill="white"/>
</g>
<rect x="385.5" y="256.5" width="199" height="51" rx="11.5" fill="#E6EFFF"/>
<rect x="385.5" y="256.5" width="199" height="51" rx="11.5" stroke="#2475FC"/>
<path d="M428.44 272.84C429.72 273.8 430.8 274.76 431.68 275.72L430.26 277.16C429.48 276.24 428.4 275.24 427.02 274.2L428.44 272.84ZM425.78 278.52H430.4V286.82C430.98 286.3 431.6 285.74 432.26 285.12L432.84 287.32C431.52 288.52 430.12 289.58 428.64 290.54L427.84 288.66C428.18 288.36 428.36 287.98 428.36 287.54V280.52H425.78V278.52ZM432.94 280.92H442.7V282.82C442.14 284.54 441.22 286.04 439.94 287.3C441.18 288.1 442.68 288.8 444.46 289.42L443.34 291.22C441.38 290.42 439.72 289.54 438.4 288.56C436.84 289.66 434.94 290.54 432.66 291.2L431.5 289.44C433.56 288.84 435.3 288.08 436.74 287.16C435.46 285.88 434.56 284.48 434.08 282.92H432.94V280.92ZM436.04 282.92C436.48 284.06 437.2 285.1 438.24 286.02C439.26 285.1 440.04 284.08 440.6 282.92H436.04ZM434.3 273.18H441.5V277.32C441.5 277.76 441.74 278 442.24 278H443.96V279.9H441.68C440.18 279.9 439.44 279.2 439.44 277.8V275.14H436.36V275.68C436.36 277.76 435.28 279.38 433.16 280.5L431.76 278.9C433.44 278.2 434.3 277.2 434.3 275.9V273.18ZM446.34 278.12H453.9C453.94 277.84 453.96 277.56 453.98 277.28H447.58V273.2H462.42V277.28H456.12L456 278.12H463.66V279.66H455.74L455.56 280.48H461.22V289.16H464.02V290.76H445.98V289.16H448.78V280.48H453.5L453.66 279.66H446.34V278.12ZM450.84 289.16H459.18V288.22H450.84V289.16ZM450.84 287H459.18V286.1H450.84V287ZM450.84 284.86H459.18V283.96H450.84V284.86ZM450.84 282.74H459.18V281.86H450.84V282.74ZM460.46 275.86V274.7H458.12V275.86H460.46ZM456.26 275.86V274.7H453.74V275.86H456.26ZM451.88 275.86V274.7H449.54V275.86H451.88ZM481.94 274.76V291.08H479.82V290H470.18V291.08H468.06V274.76H472.38C472.78 274.04 473.1 273.28 473.3 272.52L475.42 272.82C475.22 273.52 474.94 274.16 474.6 274.76H481.94ZM470.18 288.02H479.82V285.4H470.18V288.02ZM470.18 283.48H479.82V281.02H470.18V283.48ZM470.18 279.1H479.82V276.76H470.18V279.1ZM486.66 273.76H494.18V275.74H486.66V273.76ZM485.92 279.14H494.9V281.18H490.42C489.76 283.78 489.18 285.7 488.68 286.98C489.94 286.7 491.18 286.32 492.4 285.88C491.96 284.92 491.52 284.04 491.08 283.2L492.82 282.36C493.7 284 494.58 285.82 495.42 287.82C496.76 285.5 497.44 282.42 497.48 278.62V278.46H495.02V276.46H497.48V272.62H499.56V276.46H503.86C503.86 283.06 503.76 287.14 503.58 288.7C503.34 290.18 502.3 290.92 500.46 290.92C500.14 290.92 499.6 290.88 498.8 290.82L498.32 289C499.02 289.04 499.62 289.08 500.14 289.08C500.98 289.08 501.46 288.64 501.62 287.76C501.74 286.86 501.8 283.76 501.84 278.46H499.56V278.62C499.5 284.36 498.12 288.56 495.4 291.22L493.82 289.84C494.4 289.28 494.9 288.64 495.34 287.94L493.62 288.82C493.46 288.38 493.3 287.98 493.14 287.6C491.04 288.32 488.78 288.88 486.38 289.32L485.9 287.36C486.1 287.3 486.24 287.24 486.32 287.18C486.84 286.42 487.54 284.42 488.4 281.18H485.92V279.14ZM510.96 278.06H519.06V285.56H510.96V278.06ZM517.1 283.82V279.8H512.9V283.82H517.1ZM523.26 273.66V290.68H521.24V290.04H508.76V290.68H506.74V273.66H523.26ZM508.76 288.2H521.24V275.5H508.76V288.2ZM530.76 275.66C530.56 275.98 530.34 276.28 530.14 276.58H541.56V283.28H533.68C533.44 283.64 533.2 283.96 532.96 284.28H541.66V285.72C540.82 286.78 539.72 287.7 538.4 288.46C540.08 288.82 541.94 289.04 543.94 289.12L543.46 291.02C540.62 290.88 538.08 290.42 535.84 289.62C533.5 290.46 530.66 290.98 527.32 291.18L526.5 289.36C529.12 289.26 531.4 288.98 533.34 288.54C532.26 287.96 531.26 287.32 530.36 286.6C529.58 287.12 528.74 287.6 527.82 288.04L526.74 286.28C528.78 285.48 530.3 284.48 531.34 283.28H529.06V277.84C528.5 278.4 527.9 278.94 527.26 279.44L526 277.8C527.98 276.32 529.32 274.5 530.02 272.36L532.08 272.74C531.96 273.14 531.82 273.52 531.66 273.88H543V275.66H530.76ZM535.88 287.74C537.12 287.24 538.18 286.64 539.04 285.92H532.18C533.28 286.64 534.52 287.26 535.88 287.74ZM539.54 281.68V280.68H531.1V281.68H539.54ZM531.1 279.16H539.54V278.18H531.1V279.16Z" fill="#2475FC"/>
<g filter="url(#filter7_d_2293_52478)">
<mask id="path-24-outside-1_2293_52478" maskUnits="userSpaceOnUse" x="551" y="291" width="28" height="34" fill="black">
<rect fill="white" x="551" y="291" width="28" height="34"/>
<path fill-rule="evenodd" clip-rule="evenodd" d="M559.645 310.324L558.109 307.977C557.06 306.375 554.826 305.79 553.117 306.669L553.515 306.464C553.091 306.682 552.888 307.225 553.063 307.677L555.189 313.178C555.526 314.05 556.387 315.283 557.1 315.903C557.1 315.903 561.377 319.443 561.377 320.77V322.451H568.307L570.039 318.986L571.771 322.451H573.504V320.77C573.504 319.443 576.118 315.262 576.118 315.262C576.599 314.45 577 313.018 577 312.068V305.078C576.969 303.53 575.653 302.276 574.03 302.276C573.218 302.276 572.56 302.903 572.56 303.677V304.237C572.56 302.69 571.245 301.436 569.622 301.436C568.81 301.436 568.152 302.063 568.152 302.837V303.397C568.152 301.849 566.836 300.595 565.213 300.595C564.401 300.595 563.743 301.222 563.743 301.996V302.556C563.743 302.307 563.717 302.11 563.666 301.953L563.217 294.735C563.157 293.758 562.334 293 561.377 293C560.414 293 559.645 293.775 559.645 294.732V301.662V310.324ZM571.803 308.592H573.535V315.521H571.803V308.592ZM568.338 308.592H570.071V315.521H568.338V308.592ZM564.873 308.592H566.606V315.521H564.873V308.592Z"/>
</mask>
<path fill-rule="evenodd" clip-rule="evenodd" d="M559.645 310.324L558.109 307.977C557.06 306.375 554.826 305.79 553.117 306.669L553.515 306.464C553.091 306.682 552.888 307.225 553.063 307.677L555.189 313.178C555.526 314.05 556.387 315.283 557.1 315.903C557.1 315.903 561.377 319.443 561.377 320.77V322.451H568.307L570.039 318.986L571.771 322.451H573.504V320.77C573.504 319.443 576.118 315.262 576.118 315.262C576.599 314.45 577 313.018 577 312.068V305.078C576.969 303.53 575.653 302.276 574.03 302.276C573.218 302.276 572.56 302.903 572.56 303.677V304.237C572.56 302.69 571.245 301.436 569.622 301.436C568.81 301.436 568.152 302.063 568.152 302.837V303.397C568.152 301.849 566.836 300.595 565.213 300.595C564.401 300.595 563.743 301.222 563.743 301.996V302.556C563.743 302.307 563.717 302.11 563.666 301.953L563.217 294.735C563.157 293.758 562.334 293 561.377 293C560.414 293 559.645 293.775 559.645 294.732V301.662V310.324ZM571.803 308.592H573.535V315.521H571.803V308.592ZM568.338 308.592H570.071V315.521H568.338V308.592ZM564.873 308.592H566.606V315.521H564.873V308.592Z" fill="white"/>
<path d="M559.645 310.324L558.195 311.273L561.377 316.134V310.324H559.645ZM558.109 307.977L559.558 307.028L558.109 307.977ZM553.063 307.677L551.447 308.302V308.302L553.063 307.677ZM555.189 313.178L556.805 312.553L555.189 313.178ZM557.1 315.903L555.964 317.211L555.979 317.224L555.995 317.237L557.1 315.903ZM561.377 322.451H559.645V324.183H561.377V322.451ZM568.307 322.451V324.183H569.377L569.856 323.225L568.307 322.451ZM570.039 318.986L571.589 318.211L570.039 315.112L568.49 318.211L570.039 318.986ZM571.771 322.451L570.222 323.225L570.701 324.183H571.771V322.451ZM573.504 322.451V324.183H575.236V322.451H573.504ZM576.118 315.262L577.587 316.181L577.598 316.163L577.608 316.145L576.118 315.262ZM577 305.078H578.732V305.06L578.732 305.043L577 305.078ZM563.666 301.953L561.936 302.06L561.95 302.282L562.019 302.493L563.666 301.953ZM563.217 294.735L561.488 294.842V294.842L563.217 294.735ZM559.645 294.732H557.912H559.645ZM573.535 308.592H575.268V306.859H573.535V308.592ZM573.535 315.521V317.254H575.268V315.521H573.535ZM571.803 315.521H570.071V317.254H571.803V315.521ZM570.071 308.592H571.803V306.859H570.071V308.592ZM570.071 315.521V317.254H571.803V315.521H570.071ZM568.338 315.521H566.606V317.254H568.338V315.521ZM566.606 308.592H568.338V306.859H566.606L566.606 308.592ZM566.606 315.521V317.254H568.338V315.521H566.606ZM564.873 315.521H563.141V317.254H564.873V315.521ZM561.094 309.375L559.558 307.028L556.659 308.926L558.195 311.273L561.094 309.375ZM559.558 307.028C558.021 304.679 554.817 303.847 552.325 305.128L553.909 308.209C554.835 307.733 556.099 308.07 556.659 308.926L559.558 307.028ZM553.909 308.209L554.307 308.005L552.723 304.923L552.325 305.128L553.909 308.209ZM552.723 304.923C551.495 305.555 550.96 307.041 551.447 308.302L554.678 307.053C554.757 307.257 554.74 307.448 554.687 307.589C554.635 307.73 554.518 307.896 554.307 308.005L552.723 304.923ZM551.447 308.302L553.573 313.802L556.805 312.553L554.678 307.053L551.447 308.302ZM553.573 313.802C554.011 314.935 555.035 316.404 555.964 317.211L558.236 314.595C557.738 314.163 557.041 313.165 556.805 312.553L553.573 313.802ZM557.1 315.903C555.995 317.237 555.995 317.237 555.995 317.237C555.995 317.237 555.995 317.237 555.995 317.237C555.995 317.237 555.995 317.237 555.995 317.237C555.995 317.237 555.996 317.238 555.996 317.238C555.998 317.24 556 317.241 556.004 317.244C556.01 317.25 556.021 317.259 556.035 317.271C556.064 317.295 556.107 317.331 556.162 317.378C556.272 317.472 556.432 317.609 556.624 317.778C557.01 318.117 557.52 318.579 558.024 319.074C558.536 319.578 559.007 320.082 559.338 320.51C559.505 320.725 559.606 320.883 559.658 320.982C559.728 321.117 559.645 321.02 559.645 320.77H563.109C563.109 320.189 562.892 319.691 562.729 319.378C562.547 319.03 562.314 318.694 562.079 318.39C561.608 317.781 561.01 317.151 560.453 316.603C559.888 316.048 559.328 315.542 558.912 315.176C558.703 314.992 558.529 314.842 558.406 314.737C558.344 314.685 558.295 314.644 558.261 314.615C558.244 314.601 558.23 314.59 558.221 314.582C558.216 314.578 558.212 314.575 558.21 314.572C558.208 314.571 558.207 314.57 558.206 314.57C558.206 314.569 558.205 314.569 558.205 314.569C558.205 314.569 558.205 314.569 558.205 314.569C558.205 314.568 558.205 314.568 557.1 315.903ZM559.645 320.77V322.451H563.109V320.77H559.645ZM561.377 324.183H568.307V320.718H561.377V324.183ZM569.856 323.225L571.589 319.761L568.49 318.211L566.757 321.676L569.856 323.225ZM568.49 319.761L570.222 323.225L573.321 321.676L571.589 318.211L568.49 319.761ZM571.771 324.183H573.504V320.718H571.771V324.183ZM575.236 322.451V320.77H571.771V322.451H575.236ZM575.236 320.77C575.236 320.832 575.255 320.621 575.508 320.025C575.722 319.518 576.02 318.925 576.335 318.341C576.648 317.763 576.962 317.221 577.199 316.821C577.317 316.622 577.415 316.46 577.484 316.348C577.518 316.293 577.544 316.25 577.562 316.221C577.57 316.207 577.577 316.196 577.581 316.19C577.583 316.186 577.585 316.184 577.586 316.182C577.586 316.182 577.587 316.181 577.587 316.181C577.587 316.181 577.587 316.181 577.587 316.181C577.587 316.181 577.587 316.181 577.587 316.181C577.587 316.181 577.587 316.181 576.118 315.262C574.649 314.344 574.649 314.344 574.649 314.344C574.649 314.344 574.649 314.345 574.648 314.345C574.648 314.345 574.648 314.345 574.648 314.346C574.647 314.346 574.647 314.347 574.646 314.349C574.644 314.351 574.642 314.355 574.639 314.359C574.634 314.369 574.626 314.382 574.615 314.398C574.595 314.432 574.565 314.48 574.527 314.541C574.453 314.663 574.347 314.838 574.22 315.052C573.967 315.478 573.628 316.063 573.286 316.696C572.948 317.323 572.592 318.024 572.317 318.674C572.079 319.236 571.771 320.045 571.771 320.77H575.236ZM577.608 316.145C577.951 315.566 578.223 314.851 578.409 314.18C578.595 313.51 578.732 312.751 578.732 312.068H575.268C575.268 312.335 575.205 312.767 575.07 313.254C574.935 313.739 574.766 314.146 574.627 314.38L577.608 316.145ZM578.732 312.068V305.078H575.268V312.068H578.732ZM578.732 305.043C578.68 302.497 576.54 300.544 574.03 300.544V304.009C574.767 304.009 575.257 304.564 575.268 305.113L578.732 305.043ZM574.03 300.544C572.34 300.544 570.828 301.87 570.828 303.677H574.293C574.293 303.796 574.239 303.889 574.186 303.94C574.134 303.99 574.075 304.009 574.03 304.009V300.544ZM570.828 303.677V304.237H574.293V303.677H570.828ZM574.293 304.237C574.293 301.656 572.123 299.703 569.622 299.703V303.168C570.367 303.168 570.828 303.723 570.828 304.237H574.293ZM569.622 299.703C567.932 299.703 566.419 301.029 566.419 302.837H569.884C569.884 302.955 569.831 303.049 569.778 303.1C569.726 303.149 569.667 303.168 569.622 303.168V299.703ZM566.419 302.837V303.397H569.884V302.837H566.419ZM569.884 303.397C569.884 300.815 567.714 298.863 565.213 298.863V302.327C565.958 302.327 566.419 302.883 566.419 303.397H569.884ZM565.213 298.863C563.523 298.863 562.011 300.188 562.011 301.996H565.476C565.476 302.115 565.423 302.208 565.369 302.259C565.317 302.309 565.258 302.327 565.213 302.327V298.863ZM562.011 301.996V302.556H565.476V301.996H562.011ZM565.476 302.556C565.476 302.197 565.439 301.802 565.312 301.413L562.019 302.493C562.006 302.451 562.004 302.432 562.006 302.444C562.008 302.457 562.011 302.492 562.011 302.556H565.476ZM565.395 301.846L564.946 294.627L561.488 294.842L561.936 302.06L565.395 301.846ZM564.946 294.627C564.829 292.732 563.243 291.268 561.377 291.268V294.732C561.392 294.732 561.42 294.738 561.449 294.766C561.477 294.792 561.487 294.819 561.488 294.842L564.946 294.627ZM561.377 291.268C559.453 291.268 557.912 292.823 557.912 294.732H561.377V294.732V291.268ZM557.912 294.732V301.662H561.377V294.732H557.912ZM557.912 301.662V310.324H561.377V301.662H557.912ZM571.803 310.324H573.535V306.859L571.803 306.859V310.324ZM571.803 308.592V315.521H575.268V308.592H571.803ZM573.535 313.789H571.803V317.254H573.535V313.789ZM573.535 315.521V308.592H570.071V315.521H573.535ZM568.338 310.324H570.071V306.859L568.338 306.859V310.324ZM568.338 308.592V315.521H571.803V308.592H568.338ZM570.071 313.789H568.338V317.254H570.071V313.789ZM570.071 315.521V308.592H566.606V315.521H570.071ZM564.873 310.324H566.606L566.606 306.859L564.873 306.859V310.324ZM564.873 308.592V315.521H568.338V308.592H564.873ZM566.606 313.789H564.873V317.254H566.606V313.789ZM566.606 315.521V308.592H563.141V315.521H566.606Z" fill="black" fill-opacity="0.8" mask="url(#path-24-outside-1_2293_52478)"/>
</g>
<path d="M522 179C522 176.791 520.209 175 518 175H410C398.954 175 390 183.954 390 195V203C390 214.046 398.954 223 410 223H502C513.046 223 522 214.046 522 203V179Z" fill="#E6EFFF"/>
<g clip-path="url(#clip0_2293_52478)">
<rect x="529" y="175" width="48" height="48" rx="12" fill="#E6EFFF"/>
<g filter="url(#filter8_i_2293_52478)">
<path fill-rule="evenodd" clip-rule="evenodd" d="M541.815 196.183C541.815 196.183 539.252 199.402 540.241 201.689C541.23 203.977 541.522 206.626 541.118 207.528C540.713 208.43 538.841 210.356 539.867 212.142C540.893 213.928 540.303 219.513 539.564 219.555C538.825 219.598 537.431 224.133 539.364 224.529H554.126L553.507 194.6L541.815 196.183Z" fill="#334666"/>
</g>
<g filter="url(#filter9_i_2293_52478)">
<path fill-rule="evenodd" clip-rule="evenodd" d="M564.444 196.194C564.444 196.194 565.804 197.019 565.908 201.982C565.96 204.463 564.411 205.42 564.874 207.596C565.051 208.425 567.151 210.411 566.125 212.19C565.099 213.969 565.689 219.529 566.428 219.572C567.167 219.615 568.561 224.13 566.628 224.524H551.866L552.486 194.722L564.444 196.194Z" fill="#334666"/>
</g>
<path fill-rule="evenodd" clip-rule="evenodd" d="M541.829 196.671C541.829 196.671 541.304 203.329 543.259 206.253C543.716 206.935 544.605 207.16 545.327 207.34L544.739 197.386C544.739 197.386 541.805 194.763 541.829 196.671Z" fill="#3D3F47"/>
<path fill-rule="evenodd" clip-rule="evenodd" d="M564.038 196.896C564.038 196.896 564.563 203.554 562.607 206.478C562.151 207.16 561.261 207.385 560.539 207.564L561.128 197.611C561.128 197.611 564.062 194.988 564.038 196.896Z" fill="#32333F"/>
<path fill-rule="evenodd" clip-rule="evenodd" d="M560.539 199.87C560.539 199.87 563.762 198.145 564.579 199.701C565.397 201.257 563.408 206.473 560.539 205.381V199.87Z" fill="url(#paint0_linear_2293_52478)"/>
<path fill-rule="evenodd" clip-rule="evenodd" d="M562.61 200.009C562.61 200.009 564.312 199.54 564.205 200.843C564.098 202.147 563.335 204.801 561.009 204.893L562.61 200.009Z" fill="url(#paint1_linear_2293_52478)"/>
<path fill-rule="evenodd" clip-rule="evenodd" d="M562.61 200.009C562.61 200.009 564.312 199.54 564.205 200.843C564.098 202.147 563.335 204.801 561.009 204.893L562.61 200.009Z" fill="url(#paint2_linear_2293_52478)"/>
<path fill-rule="evenodd" clip-rule="evenodd" d="M545.372 205.29C542.504 206.382 540.515 201.166 541.332 199.61C542.15 198.054 545.372 199.779 545.372 199.779V205.29Z" fill="url(#paint3_linear_2293_52478)"/>
<path fill-rule="evenodd" clip-rule="evenodd" d="M543.302 199.917C543.302 199.917 541.6 199.448 541.707 200.752C541.813 202.055 542.577 204.709 544.902 204.802L543.302 199.917Z" fill="url(#paint4_linear_2293_52478)"/>
<path fill-rule="evenodd" clip-rule="evenodd" d="M556.616 210.597L553.04 210.648L549.463 210.597C549.463 210.597 549.238 212.677 548.839 214.224C548.635 215.018 549.233 215.792 550.052 215.792H552.94H553.139H555.904C556.782 215.792 557.424 214.967 557.212 214.116C556.83 212.582 556.616 210.597 556.616 210.597Z" fill="url(#paint5_linear_2293_52478)"/>
<path fill-rule="evenodd" clip-rule="evenodd" d="M549.269 212.365C547.635 213.246 544.994 215.075 544.2 215.285C541.524 215.994 538.883 218.019 537.061 225.068H568.939C568.939 225.068 566.613 217.502 562.444 215.433C561.247 214.887 558.461 213.453 557.07 212.488C555.965 211.882 555.108 215.066 552.776 215.211C550.775 215.336 549.991 212.616 549.269 212.365Z" fill="#659DFC"/>
<path fill-rule="evenodd" clip-rule="evenodd" d="M556.616 210.603L553.04 210.654L549.463 210.603C549.463 210.603 549.556 212.77 549.157 214.317C548.952 215.111 549.706 215.798 550.526 215.798H552.94H553.139H555.904C556.782 215.798 557.316 215.005 557.104 214.153C556.722 212.619 556.616 210.603 556.616 210.603Z" fill="#FFC7B6"/>
<path fill-rule="evenodd" clip-rule="evenodd" d="M549.506 213.2L552.731 221.415H553.698L556.665 213.284L549.506 213.2Z" fill="white"/>
<path fill-rule="evenodd" clip-rule="evenodd" d="M552.248 214.436L550.994 220.255L552.999 221.321L555.352 219.996L554.052 214.461L552.248 214.436Z" fill="#E5EFFF"/>
<path fill-rule="evenodd" clip-rule="evenodd" d="M552.24 214.484L552.212 214.611C552.208 214.632 552.223 214.651 552.244 214.651L554.042 214.68C554.074 214.681 554.097 214.651 554.09 214.621L554.063 214.51L552.24 214.484Z" fill="#C8D4EE"/>
<path fill-rule="evenodd" clip-rule="evenodd" d="M549.701 213.439C549.701 213.439 551.348 214.647 551.67 214.659C551.992 214.672 552.1 214.149 552.1 214.149L551.94 213.75L549.701 213.439Z" fill="#C8D4EE"/>
<path fill-rule="evenodd" clip-rule="evenodd" d="M556.634 213.439C556.634 213.439 554.987 214.647 554.665 214.659C554.343 214.672 554.235 214.149 554.235 214.149L554.395 213.75L556.634 213.439Z" fill="#C8D4EE"/>
<path fill-rule="evenodd" clip-rule="evenodd" d="M552.243 212.566C552.243 212.566 553.751 212.659 554.07 212.558L554.337 213.64L554.072 214.491C554.06 214.53 554.024 214.556 553.983 214.555L552.309 214.531C552.272 214.531 552.239 214.508 552.225 214.473L551.922 213.693L552.243 212.566Z" fill="#E5EFFF"/>
<path fill-rule="evenodd" clip-rule="evenodd" d="M549.328 211.598C549.328 211.598 548.831 212.599 548.933 212.891C549.036 213.184 551.485 214.409 551.755 214.342C551.968 214.288 552.127 213.373 552.258 212.59C552.267 212.539 552.232 212.492 552.18 212.485C550.667 212.274 549.328 211.598 549.328 211.598Z" fill="white"/>
<path fill-rule="evenodd" clip-rule="evenodd" d="M556.839 211.596C556.907 211.577 557.473 212.661 557.391 212.892C557.289 213.185 554.839 214.41 554.57 214.342C554.356 214.289 554.121 213.883 554.063 212.618C554.059 212.537 554.122 212.468 554.204 212.463C555.469 212.381 556.839 211.596 556.839 211.596Z" fill="#EAEAEA"/>
<path fill-rule="evenodd" clip-rule="evenodd" d="M556.84 211.564C558.217 212.475 558.965 212.93 558.965 212.93C559.293 213.125 559.262 213.61 558.912 213.761L557.195 214.506L558.45 216.097C558.587 216.271 558.584 216.517 558.442 216.686C558.442 216.686 554.789 221.269 552.344 222.397C553 221.516 557.332 213.2 556.84 211.564Z" fill="white"/>
<path fill-rule="evenodd" clip-rule="evenodd" d="M549.328 211.564C549.081 211.797 548.194 212.529 547.37 213.108C547.022 213.352 546.845 213.74 547.253 213.856L548.921 214.333L547.685 215.901C547.537 216.088 547.541 216.353 547.693 216.536L552.511 222.101L553 221.291C553 221.291 549.665 215.06 549.328 211.564Z" fill="white"/>
<path fill-rule="evenodd" clip-rule="evenodd" d="M562.737 202.117C562.737 210 556.85 212.014 552.964 212.014C549.169 212.014 543.192 210 543.192 202.117C543.192 194.234 543.603 187.843 552.964 187.843C561.31 187.843 562.737 194.233 562.737 202.117Z" fill="url(#paint6_linear_2293_52478)"/>
<g opacity="0.7">
<mask id="mask0_2293_52478" style="mask-type:alpha" maskUnits="userSpaceOnUse" x="543" y="187" width="20" height="26">
<path fill-rule="evenodd" clip-rule="evenodd" d="M562.737 202.116C562.737 209.999 556.85 212.014 552.964 212.014C549.169 212.014 543.192 209.999 543.192 202.116C543.192 194.233 543.603 187.842 552.964 187.842C561.31 187.842 562.737 194.232 562.737 202.116Z" fill="url(#paint7_linear_2293_52478)"/>
</mask>
<g mask="url(#mask0_2293_52478)">
<g filter="url(#filter10_f_2293_52478)">
<circle cx="569.541" cy="205.079" r="12.2608" fill="white"/>
</g>
<g filter="url(#filter11_f_2293_52478)">
<circle cx="535.835" cy="205.079" r="12.2608" fill="white"/>
</g>
</g>
</g>
<g filter="url(#filter12_ii_2293_52478)">
<path fill-rule="evenodd" clip-rule="evenodd" d="M558.739 186.137C558.739 186.137 562.161 186.921 563.471 189.935C564.781 192.948 565.544 198.581 565.544 198.581C565.544 198.581 563.291 198.939 562.738 199.098C562.698 199.092 562.772 198.404 562.751 198.4C560.325 197.998 554.631 197.402 553.199 194.601C553.199 194.601 552.608 195.981 550.945 196.699C547.556 198.164 539.808 201.399 539.805 198.96C539.799 193.87 542.389 183.888 549.824 184.968C552.855 185.408 555.213 183.169 558.739 186.137Z" fill="#364A6A"/>
</g>
<path fill-rule="evenodd" clip-rule="evenodd" d="M539.846 198.783C539.846 198.783 539.348 204.519 540.259 206.408C541.169 208.296 541.972 209.28 541.45 210.597C540.097 214.013 543.638 217.182 544.278 217.992C544.278 217.992 541.147 212.069 543.683 209.685C544.981 208.465 541.854 204.61 541.765 203.488C541.45 199.504 542.195 199.88 544.065 199.173C544.025 198.683 539.846 198.783 539.846 198.783Z" fill="#32333F"/>
<path d="M565.667 198.774C565.667 190.706 559.958 184.165 552.916 184.165C545.873 184.165 540.165 190.706 540.165 198.774" stroke="#FCC024" stroke-width="1.09091"/>
<path d="M538.645 200.741C538.645 199.235 539.866 198.014 541.372 198.014H542.14C542.541 198.014 542.867 198.339 542.867 198.741V205.731C542.867 206.133 542.541 206.458 542.14 206.458H541.372C539.866 206.458 538.645 205.237 538.645 203.731V200.741Z" fill="url(#paint8_linear_2293_52478)"/>
<g opacity="0.3">
<mask id="mask1_2293_52478" style="mask-type:alpha" maskUnits="userSpaceOnUse" x="537" y="212" width="32" height="14">
<path fill-rule="evenodd" clip-rule="evenodd" d="M549.269 212.365C547.635 213.246 544.994 215.075 544.2 215.285C541.524 215.994 538.883 218.019 537.061 225.068H568.939C568.939 225.068 566.613 217.502 562.444 215.433C561.246 214.887 558.461 213.453 557.07 212.488C555.965 211.882 555.108 215.066 552.776 215.211C550.774 215.336 549.991 212.616 549.269 212.365Z" fill="#6091FF"/>
</mask>
<g mask="url(#mask1_2293_52478)">
<g filter="url(#filter13_f_2293_52478)">
<ellipse cx="567.325" cy="210.357" rx="12.2608" ry="18.1557" transform="rotate(-47.7102 567.325 210.357)" fill="white"/>
</g>
<g filter="url(#filter14_f_2293_52478)">
<ellipse cx="12.2608" cy="18.1557" rx="12.2608" ry="18.1557" transform="matrix(-0.67288 -0.739751 -0.739751 0.67288 558.353 207.21)" fill="white"/>
</g>
</g>
</g>
<path d="M565.583 198.942C565.583 207.011 561.647 213.045 554.605 213.045" stroke="#3C3425" stroke-width="1.2"/>
<rect x="551.818" y="212.031" width="4.22225" height="2.19557" rx="1.09779" fill="url(#paint9_linear_2293_52478)"/>
<path d="M567.525 200.741C567.525 199.235 566.304 198.014 564.798 198.014H564.03C563.628 198.014 563.303 198.339 563.303 198.741V205.731C563.303 206.133 563.628 206.458 564.03 206.458H564.798C566.304 206.458 567.525 205.237 567.525 203.731V200.741Z" fill="#FCC024"/>
<path d="M567.525 200.741C567.525 199.235 566.304 198.014 564.798 198.014H564.03C563.628 198.014 563.303 198.339 563.303 198.741V205.731C563.303 206.133 563.628 206.458 564.03 206.458H564.798C566.304 206.458 567.525 205.237 567.525 203.731V200.741Z" fill="url(#paint10_linear_2293_52478)"/>
</g>
<g clip-path="url(#clip1_2293_52478)">
<rect x="366" y="102" width="48" height="48" rx="12" fill="#E6EFFF"/>
<path fill-rule="evenodd" clip-rule="evenodd" d="M397.871 127.244C397.871 127.244 401.34 125.386 402.22 127.061C403.1 128.736 400.959 134.352 397.871 133.176V127.244Z" fill="url(#paint11_linear_2293_52478)"/>
<path fill-rule="evenodd" clip-rule="evenodd" d="M382.21 133.176C379.123 134.352 376.981 128.736 377.861 127.061C378.741 125.386 382.21 127.244 382.21 127.244V133.176Z" fill="url(#paint12_linear_2293_52478)"/>
<path fill-rule="evenodd" clip-rule="evenodd" d="M393.892 138.893L390.042 138.948L386.192 138.893C386.192 138.893 386.292 141.226 385.863 142.891C385.642 143.746 386.453 144.485 387.336 144.485H389.935H390.149H393.126C394.071 144.485 394.646 143.632 394.418 142.715C394.006 141.063 393.892 138.893 393.892 138.893Z" fill="url(#paint13_linear_2293_52478)"/>
<g filter="url(#filter15_i_2293_52478)">
<path fill-rule="evenodd" clip-rule="evenodd" d="M394.133 139.928C395.615 140.908 396.421 141.398 396.421 141.398C396.549 141.474 396.626 141.59 396.654 141.715C397.977 142.448 399.385 143.155 400.166 143.512C404.654 145.739 407.159 153.885 407.159 153.885H372.84C374.802 146.296 377.645 144.116 380.526 143.352C381.033 143.218 382.242 142.469 383.508 141.685C384.057 141.345 384.616 140.998 385.134 140.692C385.559 140.354 385.903 140.063 386.047 139.928C386.058 140.036 386.071 140.147 386.086 140.26C386.318 140.406 386.561 140.761 386.846 141.179C387.484 142.114 388.335 143.361 389.758 143.273C391.109 143.189 392 142.158 392.72 141.325C393.261 140.7 393.705 140.186 394.175 140.267C394.175 140.135 394.161 140.021 394.133 139.928Z" fill="#659EFC"/>
</g>
<path fill-rule="evenodd" clip-rule="evenodd" d="M386.238 141.688L389.71 150.531H390.751L393.945 141.777L386.238 141.688Z" fill="white"/>
<path fill-rule="evenodd" clip-rule="evenodd" d="M386.197 140.039C385.858 139.996 386.203 139.719 386.203 139.719L386.197 140.039Z" fill="url(#paint14_linear_2293_52478)"/>
<path fill-rule="evenodd" clip-rule="evenodd" d="M393.946 139.66C393.946 139.66 394.36 140.052 393.983 140.032L393.946 139.66Z" fill="url(#paint15_linear_2293_52478)"/>
<path fill-rule="evenodd" clip-rule="evenodd" d="M399.596 129.367C399.596 130.351 399.388 131.556 399.169 132.558C398.898 133.792 398.331 134.941 397.516 135.906L396.815 136.736C395.804 137.933 394.454 138.796 392.944 139.212L390.854 139.787C390.294 139.942 389.702 139.941 389.142 139.786L386.991 139.189C385.54 138.787 384.234 137.981 383.224 136.865L382.544 136.113C381.859 135.357 381.363 134.531 381.091 133.548C380.767 132.375 380.4 130.677 380.4 129.367C380.4 120.88 380.804 114 389.998 114C398.194 114 399.596 120.88 399.596 129.367Z" fill="url(#paint16_linear_2293_52478)"/>
<path fill-rule="evenodd" clip-rule="evenodd" d="M389.19 143.018L387.841 149.282L389.999 150.43L392.532 149.003L391.133 143.045L389.19 143.018Z" fill="#E5EFFF"/>
<path fill-rule="evenodd" clip-rule="evenodd" d="M389.181 143.07L389.151 143.207C389.146 143.229 389.163 143.25 389.185 143.25L391.121 143.281C391.155 143.282 391.18 143.25 391.172 143.217L391.144 143.098L389.181 143.07Z" fill="#C8D4EE"/>
<path fill-rule="evenodd" clip-rule="evenodd" d="M386.448 141.945C386.448 141.945 388.221 143.245 388.568 143.259C388.915 143.272 389.031 142.709 389.031 142.709L388.859 142.28L386.448 141.945Z" fill="#C8D4EE"/>
<path fill-rule="evenodd" clip-rule="evenodd" d="M393.912 141.945C393.912 141.945 392.139 143.245 391.793 143.259C391.446 143.272 391.329 142.709 391.329 142.709L391.501 142.28L393.912 141.945Z" fill="#C8D4EE"/>
<path fill-rule="evenodd" clip-rule="evenodd" d="M389.186 141.001C389.186 141.001 390.809 141.101 391.152 140.992L391.439 142.157L391.155 143.073C391.142 143.115 391.103 143.143 391.059 143.143L389.257 143.117C389.216 143.117 389.181 143.091 389.166 143.054L388.839 142.214L389.186 141.001Z" fill="#E5EFFF"/>
<path fill-rule="evenodd" clip-rule="evenodd" d="M386.047 139.961C386.047 139.961 385.512 141.039 385.622 141.354C385.732 141.669 388.369 142.987 388.659 142.915C388.889 142.857 389.06 141.872 389.202 141.029C389.211 140.975 389.173 140.924 389.118 140.916C387.488 140.689 386.047 139.961 386.047 139.961Z" fill="white"/>
<path fill-rule="evenodd" clip-rule="evenodd" d="M394.134 139.961C394.207 139.941 394.815 141.108 394.728 141.357C394.617 141.672 391.981 142.99 391.691 142.918C391.46 142.86 391.207 142.424 391.145 141.062C391.141 140.974 391.209 140.9 391.296 140.894C392.659 140.806 394.134 139.961 394.134 139.961Z" fill="white"/>
<g opacity="0.7">
<mask id="mask2_2293_52478" style="mask-type:alpha" maskUnits="userSpaceOnUse" x="380" y="114" width="20" height="26">
<path fill-rule="evenodd" clip-rule="evenodd" d="M399.596 129.367C399.596 130.351 399.388 131.556 399.169 132.558C398.898 133.792 398.331 134.941 397.516 135.906L396.815 136.736C395.804 137.933 394.454 138.796 392.944 139.212L390.854 139.787C390.294 139.942 389.702 139.941 389.142 139.786L386.991 139.189C385.54 138.787 384.234 137.981 383.224 136.865L382.544 136.113C381.859 135.357 381.363 134.531 381.091 133.548C380.767 132.375 380.4 130.677 380.4 129.367C380.4 120.88 380.804 114 389.998 114C398.194 114 399.596 120.88 399.596 129.367Z" fill="url(#paint17_linear_2293_52478)"/>
</mask>
<g mask="url(#mask2_2293_52478)">
<g filter="url(#filter16_f_2293_52478)">
<circle cx="406.581" cy="136.22" r="12" fill="white"/>
</g>
<g filter="url(#filter17_f_2293_52478)">
<circle cx="373.593" cy="136.22" r="12" fill="white"/>
</g>
</g>
</g>
<g filter="url(#filter18_ii_2293_52478)">
<path fill-rule="evenodd" clip-rule="evenodd" d="M395.731 112.934C395.205 112.838 394.858 112.828 394.858 112.828C391.792 109.7 389.416 110.256 386.648 110.903C386.39 110.964 386.128 111.025 385.862 111.084C380.834 112.208 377.25 115.368 377.258 120.848C377.262 123.476 378.178 125.2 379.73 125.124C379.915 125.115 380.095 125.108 380.27 125.1C382.518 125.003 384 124.938 387.27 123.476C388.998 122.704 389.614 118.216 389.614 118.216C391.102 121.228 397.022 124.872 399.542 125.304C399.554 125.306 399.568 125.589 399.581 125.86C399.593 126.106 399.604 126.342 399.614 126.344C399.637 126.348 399.633 126.347 399.631 126.346C399.628 126.345 399.627 126.344 399.646 126.348C400.258 126.444 400.99 126.016 400.99 126.016C400.99 126.016 401.65 119.436 400.29 116.192C399.82 115.072 399.027 114.324 398.19 113.825C398.342 113.539 398.8 112.926 399.917 112.982C399.917 112.982 398.804 111.82 397.182 112.837C397.182 112.837 396.615 110.925 394.079 110.732C394.079 110.732 395.136 111.616 395.731 112.934Z" fill="#364A6A"/>
</g>
</g>
<path d="M422 106C422 103.791 423.791 102 426 102H534C545.046 102 554 110.954 554 122V130C554 141.046 545.046 150 534 150H442C430.954 150 422 141.046 422 130V106Z" fill="#EDEFF2"/>
<g filter="url(#filter19_d_2293_52478)">
<rect x="462" y="107" width="46" height="39" rx="8" fill="#FF9900"/>
<rect x="463" y="108" width="44" height="37" rx="7" stroke="#FFB342" stroke-width="2"/>
</g>
<defs>
<filter id="filter0_d_2293_52478" x="8" y="136" width="160" height="88" filterUnits="userSpaceOnUse" color-interpolation-filters="sRGB">
<feFlood flood-opacity="0" result="BackgroundImageFix"/>
<feColorMatrix in="SourceAlpha" type="matrix" values="0 0 0 0 0 0 0 0 0 0 0 0 0 0 0 0 0 0 127 0" result="hardAlpha"/>
<feOffset dy="4"/>
<feGaussianBlur stdDeviation="12"/>
<feComposite in2="hardAlpha" operator="out"/>
<feColorMatrix type="matrix" values="0 0 0 0 0.143233 0 0 0 0 0.304677 0 0 0 0 0.562987 0 0 0 0.12 0"/>
<feBlend mode="normal" in2="BackgroundImageFix" result="effect1_dropShadow_2293_52478"/>
<feBlend mode="normal" in="SourceGraphic" in2="effect1_dropShadow_2293_52478" result="shape"/>
</filter>
<filter id="filter1_d_2293_52478" x="147" y="244" width="160" height="88" filterUnits="userSpaceOnUse" color-interpolation-filters="sRGB">
<feFlood flood-opacity="0" result="BackgroundImageFix"/>
<feColorMatrix in="SourceAlpha" type="matrix" values="0 0 0 0 0 0 0 0 0 0 0 0 0 0 0 0 0 0 127 0" result="hardAlpha"/>
<feOffset dy="4"/>
<feGaussianBlur stdDeviation="12"/>
<feComposite in2="hardAlpha" operator="out"/>
<feColorMatrix type="matrix" values="0 0 0 0 0.143233 0 0 0 0 0.304677 0 0 0 0 0.562987 0 0 0 0.12 0"/>
<feBlend mode="normal" in2="BackgroundImageFix" result="effect1_dropShadow_2293_52478"/>
<feBlend mode="normal" in="SourceGraphic" in2="effect1_dropShadow_2293_52478" result="shape"/>
</filter>
<filter id="filter2_d_2293_52478" x="8" y="204" width="160" height="88" filterUnits="userSpaceOnUse" color-interpolation-filters="sRGB">
<feFlood flood-opacity="0" result="BackgroundImageFix"/>
<feColorMatrix in="SourceAlpha" type="matrix" values="0 0 0 0 0 0 0 0 0 0 0 0 0 0 0 0 0 0 127 0" result="hardAlpha"/>
<feOffset dy="4"/>
<feGaussianBlur stdDeviation="12"/>
<feComposite in2="hardAlpha" operator="out"/>
<feColorMatrix type="matrix" values="0 0 0 0 0.143233 0 0 0 0 0.304677 0 0 0 0 0.562987 0 0 0 0.12 0"/>
<feBlend mode="normal" in2="BackgroundImageFix" result="effect1_dropShadow_2293_52478"/>
<feBlend mode="normal" in="SourceGraphic" in2="effect1_dropShadow_2293_52478" result="shape"/>
</filter>
<filter id="filter3_d_2293_52478" x="147" y="298" width="160" height="88" filterUnits="userSpaceOnUse" color-interpolation-filters="sRGB">
<feFlood flood-opacity="0" result="BackgroundImageFix"/>
<feColorMatrix in="SourceAlpha" type="matrix" values="0 0 0 0 0 0 0 0 0 0 0 0 0 0 0 0 0 0 127 0" result="hardAlpha"/>
<feOffset dy="4"/>
<feGaussianBlur stdDeviation="12"/>
<feComposite in2="hardAlpha" operator="out"/>
<feColorMatrix type="matrix" values="0 0 0 0 0.143233 0 0 0 0 0.304677 0 0 0 0 0.562987 0 0 0 0.12 0"/>
<feBlend mode="normal" in2="BackgroundImageFix" result="effect1_dropShadow_2293_52478"/>
<feBlend mode="normal" in="SourceGraphic" in2="effect1_dropShadow_2293_52478" result="shape"/>
</filter>
<filter id="filter4_d_2293_52478" x="147" y="42" width="160" height="88" filterUnits="userSpaceOnUse" color-interpolation-filters="sRGB">
<feFlood flood-opacity="0" result="BackgroundImageFix"/>
<feColorMatrix in="SourceAlpha" type="matrix" values="0 0 0 0 0 0 0 0 0 0 0 0 0 0 0 0 0 0 127 0" result="hardAlpha"/>
<feOffset dy="4"/>
<feGaussianBlur stdDeviation="12"/>
<feComposite in2="hardAlpha" operator="out"/>
<feColorMatrix type="matrix" values="0 0 0 0 0.143233 0 0 0 0 0.304677 0 0 0 0 0.562987 0 0 0 0.12 0"/>
<feBlend mode="normal" in2="BackgroundImageFix" result="effect1_dropShadow_2293_52478"/>
<feBlend mode="normal" in="SourceGraphic" in2="effect1_dropShadow_2293_52478" result="shape"/>
</filter>
<filter id="filter5_d_2293_52478" x="147" y="96" width="160" height="88" filterUnits="userSpaceOnUse" color-interpolation-filters="sRGB">
<feFlood flood-opacity="0" result="BackgroundImageFix"/>
<feColorMatrix in="SourceAlpha" type="matrix" values="0 0 0 0 0 0 0 0 0 0 0 0 0 0 0 0 0 0 127 0" result="hardAlpha"/>
<feOffset dy="4"/>
<feGaussianBlur stdDeviation="12"/>
<feComposite in2="hardAlpha" operator="out"/>
<feColorMatrix type="matrix" values="0 0 0 0 0.143233 0 0 0 0 0.304677 0 0 0 0 0.562987 0 0 0 0.12 0"/>
<feBlend mode="normal" in2="BackgroundImageFix" result="effect1_dropShadow_2293_52478"/>
<feBlend mode="normal" in="SourceGraphic" in2="effect1_dropShadow_2293_52478" result="shape"/>
</filter>
<filter id="filter6_d_2293_52478" x="295" y="58" width="330" height="312" filterUnits="userSpaceOnUse" color-interpolation-filters="sRGB">
<feFlood flood-opacity="0" result="BackgroundImageFix"/>
<feColorMatrix in="SourceAlpha" type="matrix" values="0 0 0 0 0 0 0 0 0 0 0 0 0 0 0 0 0 0 127 0" result="hardAlpha"/>
<feOffset dy="4"/>
<feGaussianBlur stdDeviation="12"/>
<feComposite in2="hardAlpha" operator="out"/>
<feColorMatrix type="matrix" values="0 0 0 0 0.143233 0 0 0 0 0.304677 0 0 0 0 0.562987 0 0 0 0.12 0"/>
<feBlend mode="normal" in2="BackgroundImageFix" result="effect1_dropShadow_2293_52478"/>
<feBlend mode="normal" in="SourceGraphic" in2="effect1_dropShadow_2293_52478" result="shape"/>
</filter>
<filter id="filter7_d_2293_52478" x="546.071" y="287.803" width="37.8589" height="43.3104" filterUnits="userSpaceOnUse" color-interpolation-filters="sRGB">
<feFlood flood-opacity="0" result="BackgroundImageFix"/>
<feColorMatrix in="SourceAlpha" type="matrix" values="0 0 0 0 0 0 0 0 0 0 0 0 0 0 0 0 0 0 127 0" result="hardAlpha"/>
<feOffset dy="1.7324"/>
<feGaussianBlur stdDeviation="2.5986"/>
<feColorMatrix type="matrix" values="0 0 0 0 0 0 0 0 0 0 0 0 0 0 0 0 0 0 0.2 0"/>
<feBlend mode="normal" in2="BackgroundImageFix" result="effect1_dropShadow_2293_52478"/>
<feBlend mode="normal" in="SourceGraphic" in2="effect1_dropShadow_2293_52478" result="shape"/>
</filter>
<filter id="filter8_i_2293_52478" x="533.583" y="194.6" width="20.5429" height="34.7287" filterUnits="userSpaceOnUse" color-interpolation-filters="sRGB">
<feFlood flood-opacity="0" result="BackgroundImageFix"/>
<feBlend mode="normal" in="SourceGraphic" in2="BackgroundImageFix" result="shape"/>
<feColorMatrix in="SourceAlpha" type="matrix" values="0 0 0 0 0 0 0 0 0 0 0 0 0 0 0 0 0 0 127 0" result="hardAlpha"/>
<feOffset dx="-4.8" dy="12"/>
<feGaussianBlur stdDeviation="2.4"/>
<feComposite in2="hardAlpha" operator="arithmetic" k2="-1" k3="1"/>
<feColorMatrix type="matrix" values="0 0 0 0 1 0 0 0 0 1 0 0 0 0 1 0 0 0 0.3 0"/>
<feBlend mode="lighten" in2="shape" result="effect1_innerShadow_2293_52478"/>
</filter>
<filter id="filter9_i_2293_52478" x="551.866" y="189.922" width="20.5429" height="34.6027" filterUnits="userSpaceOnUse" color-interpolation-filters="sRGB">
<feFlood flood-opacity="0" result="BackgroundImageFix"/>
<feBlend mode="normal" in="SourceGraphic" in2="BackgroundImageFix" result="shape"/>
<feColorMatrix in="SourceAlpha" type="matrix" values="0 0 0 0 0 0 0 0 0 0 0 0 0 0 0 0 0 0 127 0" result="hardAlpha"/>
<feOffset dx="4.8" dy="-12"/>
<feGaussianBlur stdDeviation="2.4"/>
<feComposite in2="hardAlpha" operator="arithmetic" k2="-1" k3="1"/>
<feColorMatrix type="matrix" values="0 0 0 0 1 0 0 0 0 1 0 0 0 0 1 0 0 0 0.3 0"/>
<feBlend mode="lighten" in2="shape" result="effect1_innerShadow_2293_52478"/>
</filter>
<filter id="filter10_f_2293_52478" x="551.28" y="186.818" width="36.5217" height="36.5215" filterUnits="userSpaceOnUse" color-interpolation-filters="sRGB">
<feFlood flood-opacity="0" result="BackgroundImageFix"/>
<feBlend mode="normal" in="SourceGraphic" in2="BackgroundImageFix" result="shape"/>
<feGaussianBlur stdDeviation="3" result="effect1_foregroundBlur_2293_52478"/>
</filter>
<filter id="filter11_f_2293_52478" x="517.574" y="186.818" width="36.5217" height="36.5215" filterUnits="userSpaceOnUse" color-interpolation-filters="sRGB">
<feFlood flood-opacity="0" result="BackgroundImageFix"/>
<feBlend mode="normal" in="SourceGraphic" in2="BackgroundImageFix" result="shape"/>
<feGaussianBlur stdDeviation="3" result="effect1_foregroundBlur_2293_52478"/>
</filter>
<filter id="filter12_ii_2293_52478" x="539.805" y="178.568" width="25.7393" height="24.2744" filterUnits="userSpaceOnUse" color-interpolation-filters="sRGB">
<feFlood flood-opacity="0" result="BackgroundImageFix"/>
<feBlend mode="normal" in="SourceGraphic" in2="BackgroundImageFix" result="shape"/>
<feColorMatrix in="SourceAlpha" type="matrix" values="0 0 0 0 0 0 0 0 0 0 0 0 0 0 0 0 0 0 127 0" result="hardAlpha"/>
<feOffset dy="3"/>
<feGaussianBlur stdDeviation="1.5"/>
<feComposite in2="hardAlpha" operator="arithmetic" k2="-1" k3="1"/>
<feColorMatrix type="matrix" values="0 0 0 0 0.9 0 0 0 0 0.928333 0 0 0 0 1 0 0 0 0.6 0"/>
<feBlend mode="lighten" in2="shape" result="effect1_innerShadow_2293_52478"/>
<feColorMatrix in="SourceAlpha" type="matrix" values="0 0 0 0 0 0 0 0 0 0 0 0 0 0 0 0 0 0 127 0" result="hardAlpha"/>
<feOffset dy="-6"/>
<feGaussianBlur stdDeviation="6"/>
<feComposite in2="hardAlpha" operator="arithmetic" k2="-1" k3="1"/>
<feColorMatrix type="matrix" values="0 0 0 0 0.097309 0 0 0 0 0.181891 0 0 0 0 0.395833 0 0 0 0.16 0"/>
<feBlend mode="multiply" in2="effect1_innerShadow_2293_52478" result="effect2_innerShadow_2293_52478"/>
</filter>
<filter id="filter13_f_2293_52478" x="545.56" y="189.141" width="43.5289" height="42.4326" filterUnits="userSpaceOnUse" color-interpolation-filters="sRGB">
<feFlood flood-opacity="0" result="BackgroundImageFix"/>
<feBlend mode="normal" in="SourceGraphic" in2="BackgroundImageFix" result="shape"/>
<feGaussianBlur stdDeviation="3" result="effect1_foregroundBlur_2293_52478"/>
</filter>
<filter id="filter14_f_2293_52478" x="514.908" y="189.141" width="43.5289" height="42.4326" filterUnits="userSpaceOnUse" color-interpolation-filters="sRGB">
<feFlood flood-opacity="0" result="BackgroundImageFix"/>
<feBlend mode="normal" in="SourceGraphic" in2="BackgroundImageFix" result="shape"/>
<feGaussianBlur stdDeviation="3" result="effect1_foregroundBlur_2293_52478"/>
</filter>
<filter id="filter15_i_2293_52478" x="372.84" y="139.928" width="34.3188" height="15.457" filterUnits="userSpaceOnUse" color-interpolation-filters="sRGB">
<feFlood flood-opacity="0" result="BackgroundImageFix"/>
<feBlend mode="normal" in="SourceGraphic" in2="BackgroundImageFix" result="shape"/>
<feColorMatrix in="SourceAlpha" type="matrix" values="0 0 0 0 0 0 0 0 0 0 0 0 0 0 0 0 0 0 127 0" result="hardAlpha"/>
<feOffset dy="1.5"/>
<feGaussianBlur stdDeviation="1.5"/>
<feComposite in2="hardAlpha" operator="arithmetic" k2="-1" k3="1"/>
<feColorMatrix type="matrix" values="0 0 0 0 0.8625 0 0 0 0 0.912759 0 0 0 0 1 0 0 0 0.7 0"/>
<feBlend mode="lighten" in2="shape" result="effect1_innerShadow_2293_52478"/>
</filter>
<filter id="filter16_f_2293_52478" x="388.581" y="118.22" width="36" height="36" filterUnits="userSpaceOnUse" color-interpolation-filters="sRGB">
<feFlood flood-opacity="0" result="BackgroundImageFix"/>
<feBlend mode="normal" in="SourceGraphic" in2="BackgroundImageFix" result="shape"/>
<feGaussianBlur stdDeviation="3" result="effect1_foregroundBlur_2293_52478"/>
</filter>
<filter id="filter17_f_2293_52478" x="355.593" y="118.22" width="36" height="36" filterUnits="userSpaceOnUse" color-interpolation-filters="sRGB">
<feFlood flood-opacity="0" result="BackgroundImageFix"/>
<feBlend mode="normal" in="SourceGraphic" in2="BackgroundImageFix" result="shape"/>
<feGaussianBlur stdDeviation="3" result="effect1_foregroundBlur_2293_52478"/>
</filter>
<filter id="filter18_ii_2293_52478" x="377.258" y="104.4" width="23.8922" height="24.9619" filterUnits="userSpaceOnUse" color-interpolation-filters="sRGB">
<feFlood flood-opacity="0" result="BackgroundImageFix"/>
<feBlend mode="normal" in="SourceGraphic" in2="BackgroundImageFix" result="shape"/>
<feColorMatrix in="SourceAlpha" type="matrix" values="0 0 0 0 0 0 0 0 0 0 0 0 0 0 0 0 0 0 127 0" result="hardAlpha"/>
<feOffset dy="3"/>
<feGaussianBlur stdDeviation="1.5"/>
<feComposite in2="hardAlpha" operator="arithmetic" k2="-1" k3="1"/>
<feColorMatrix type="matrix" values="0 0 0 0 0.9 0 0 0 0 0.928333 0 0 0 0 1 0 0 0 0.6 0"/>
<feBlend mode="lighten" in2="shape" result="effect1_innerShadow_2293_52478"/>
<feColorMatrix in="SourceAlpha" type="matrix" values="0 0 0 0 0 0 0 0 0 0 0 0 0 0 0 0 0 0 127 0" result="hardAlpha"/>
<feOffset dy="-6"/>
<feGaussianBlur stdDeviation="6"/>
<feComposite in2="hardAlpha" operator="arithmetic" k2="-1" k3="1"/>
<feColorMatrix type="matrix" values="0 0 0 0 0.097309 0 0 0 0 0.181891 0 0 0 0 0.395833 0 0 0 0.16 0"/>
<feBlend mode="multiply" in2="effect1_innerShadow_2293_52478" result="effect2_innerShadow_2293_52478"/>
</filter>
<filter id="filter19_d_2293_52478" x="458" y="107" width="54" height="47" filterUnits="userSpaceOnUse" color-interpolation-filters="sRGB">
<feFlood flood-opacity="0" result="BackgroundImageFix"/>
<feColorMatrix in="SourceAlpha" type="matrix" values="0 0 0 0 0 0 0 0 0 0 0 0 0 0 0 0 0 0 127 0" result="hardAlpha"/>
<feOffset dy="4"/>
<feGaussianBlur stdDeviation="2"/>
<feComposite in2="hardAlpha" operator="out"/>
<feColorMatrix type="matrix" values="0 0 0 0 0.288994 0 0 0 0 0.191645 0 0 0 0 0.0456205 0 0 0 0.08 0"/>
<feBlend mode="normal" in2="BackgroundImageFix" result="effect1_dropShadow_2293_52478"/>
<feBlend mode="normal" in="SourceGraphic" in2="effect1_dropShadow_2293_52478" result="shape"/>
</filter>
<linearGradient id="paint0_linear_2293_52478" x1="560.869" y1="204.965" x2="563.148" y2="199.617" gradientUnits="userSpaceOnUse">
<stop offset="4.98403e-07" stop-color="#FFDBD4"/>
<stop offset="1" stop-color="#FFD1BF"/>
</linearGradient>
<linearGradient id="paint1_linear_2293_52478" x1="562.664" y1="200.008" x2="562.569" y2="204.909" gradientUnits="userSpaceOnUse">
<stop offset="2.58786e-07" stop-color="#FAC1B6"/>
<stop offset="1" stop-color="#FFDED1"/>
</linearGradient>
<linearGradient id="paint2_linear_2293_52478" x1="562.664" y1="200.008" x2="562.569" y2="204.909" gradientUnits="userSpaceOnUse">
<stop offset="2.58786e-07" stop-color="#FAC1B6"/>
<stop offset="1" stop-color="#FFDED1"/>
</linearGradient>
<linearGradient id="paint3_linear_2293_52478" x1="481.27" y1="204.875" x2="478.99" y2="199.526" gradientUnits="userSpaceOnUse">
<stop offset="4.98403e-07" stop-color="#FFDBD4"/>
<stop offset="1" stop-color="#FFD1BF"/>
</linearGradient>
<linearGradient id="paint4_linear_2293_52478" x1="479.475" y1="199.916" x2="479.569" y2="204.817" gradientUnits="userSpaceOnUse">
<stop offset="2.58786e-07" stop-color="#FAC1B6"/>
<stop offset="1" stop-color="#FFDED1"/>
</linearGradient>
<linearGradient id="paint5_linear_2293_52478" x1="553.01" y1="215.598" x2="553.082" y2="210.638" gradientUnits="userSpaceOnUse">
<stop offset="9.92013e-07" stop-color="#FFDBD4"/>
<stop offset="1" stop-color="#FFBFAA"/>
</linearGradient>
<linearGradient id="paint6_linear_2293_52478" x1="552.928" y1="192.029" x2="552.775" y2="211.94" gradientUnits="userSpaceOnUse">
<stop offset="4.98403e-07" stop-color="#D19083"/>
<stop offset="0.35817" stop-color="#FAC6BA"/>
<stop offset="1" stop-color="#FFD4C4"/>
</linearGradient>
<linearGradient id="paint7_linear_2293_52478" x1="552.928" y1="192.028" x2="552.775" y2="211.939" gradientUnits="userSpaceOnUse">
<stop offset="4.98403e-07" stop-color="#D19083"/>
<stop offset="0.35817" stop-color="#FAC6BA"/>
<stop offset="1" stop-color="#FFD4C4"/>
</linearGradient>
<linearGradient id="paint8_linear_2293_52478" x1="540.756" y1="198.014" x2="540.756" y2="206.458" gradientUnits="userSpaceOnUse">
<stop stop-color="#FFCA63"/>
<stop offset="0.502649" stop-color="#FFB931"/>
<stop offset="1" stop-color="#EFAD2C"/>
</linearGradient>
<linearGradient id="paint9_linear_2293_52478" x1="553.929" y1="212.031" x2="553.929" y2="214.227" gradientUnits="userSpaceOnUse">
<stop stop-color="#305188"/>
<stop offset="1" stop-color="#123164"/>
</linearGradient>
<linearGradient id="paint10_linear_2293_52478" x1="565.414" y1="198.014" x2="565.414" y2="206.458" gradientUnits="userSpaceOnUse">
<stop stop-color="#FFCA63"/>
<stop offset="0.502649" stop-color="#FFB931"/>
<stop offset="1" stop-color="#EFAD2C"/>
</linearGradient>
<linearGradient id="paint11_linear_2293_52478" x1="398.225" y1="132.729" x2="400.679" y2="126.971" gradientUnits="userSpaceOnUse">
<stop offset="4.98403e-07" stop-color="#FFDBD4"/>
<stop offset="1" stop-color="#FFD1BF"/>
</linearGradient>
<linearGradient id="paint12_linear_2293_52478" x1="313.201" y1="132.729" x2="310.747" y2="126.971" gradientUnits="userSpaceOnUse">
<stop offset="4.98403e-07" stop-color="#FFDBD4"/>
<stop offset="1" stop-color="#FFD1BF"/>
</linearGradient>
<linearGradient id="paint13_linear_2293_52478" x1="390.13" y1="144.271" x2="390.208" y2="138.939" gradientUnits="userSpaceOnUse">
<stop offset="9.92013e-07" stop-color="#FFDBD4"/>
<stop offset="1" stop-color="#FFBFAA"/>
</linearGradient>
<linearGradient id="paint14_linear_2293_52478" x1="386.048" y1="139.879" x2="386.203" y2="139.879" gradientUnits="userSpaceOnUse">
<stop offset="9.92013e-07" stop-color="#FFDBD4"/>
<stop offset="1" stop-color="#FFDCD1"/>
</linearGradient>
<linearGradient id="paint15_linear_2293_52478" x1="102.739" y1="139.846" x2="102.543" y2="139.846" gradientUnits="userSpaceOnUse">
<stop offset="9.92013e-07" stop-color="#FFDBD4"/>
<stop offset="1" stop-color="#FFDCD1"/>
</linearGradient>
<linearGradient id="paint16_linear_2293_52478" x1="389.963" y1="118.486" x2="389.783" y2="139.822" gradientUnits="userSpaceOnUse">
<stop offset="4.98403e-07" stop-color="#D19083"/>
<stop offset="0.297551" stop-color="#FAC6BA"/>
<stop offset="1" stop-color="#FFD4C4"/>
</linearGradient>
<linearGradient id="paint17_linear_2293_52478" x1="389.963" y1="122.065" x2="389.783" y2="139.822" gradientUnits="userSpaceOnUse">
<stop offset="4.98403e-07" stop-color="#FFDBD4"/>
<stop offset="1" stop-color="#FFC5AE"/>
</linearGradient>
<clipPath id="clip0_2293_52478">
<rect x="529" y="175" width="48" height="48" rx="12" fill="white"/>
</clipPath>
<clipPath id="clip1_2293_52478">
<rect x="366" y="102" width="48" height="48" rx="12" fill="white"/>
</clipPath>
</defs>
</svg>
