<svg fill="none" xmlns="http://www.w3.org/2000/svg" viewBox="0 0 640 420" class="design-iconfont">
  <rect x="487" y="42" width="32" height="4" rx="2" fill="#F1F3F5"/>
  <path fill="#F1F3F5" d="M526 42A2 2 0 1 0 526 46A2 2 0 1 0 526 42Z"/>
  <path d="M211 44H590C596.627 44 602 49.3726 602 56V85H211V44Z" fill="#F2F4F7"/>
  <g filter="url(#az3oqn3af__filter0_d_2674_26387)">
    <path fill-rule="evenodd" clip-rule="evenodd" d="M38 56C38 49.3726 43.3726 44 50 44H214C220.075 44 225 48.9249 225 55V70C225 76.6274 230.373 82 237 82H602V369C602 375.627 596.627 381 590 381H50C43.3726 381 38 375.627 38 369V82V56Z" fill="#fff"/>
  </g>
  <rect x="498.5" y="304.5" width="81" height="51" rx="11.5" fill="#E6EFFF"/>
  <rect x="498.5" y="304.5" width="81" height="51" rx="11.5" stroke="#2475FC"/>
  <path d="M526.7 321.32H537.7V323.28H533.2V330.22H538.32V332.2H533.2V339.1H531.16V332.2H526.12V330.22H531.16V323.28H526.7V321.32ZM535.52 323.96L537.34 324.44C536.94 326.36 536.42 328.02 535.8 329.46L534.06 328.84C534.62 327.56 535.1 325.92 535.52 323.96ZM528.66 324.02C529.18 325.48 529.66 327.16 530.08 329.06L528.3 329.5C527.94 327.8 527.46 326.18 526.88 324.62L528.66 324.02ZM522.56 320.7C523.82 321.68 524.9 322.66 525.8 323.62L524.36 325.08C523.6 324.16 522.5 323.18 521.08 322.14L522.56 320.7ZM519.72 326.48H524.48V334.7C524.98 334.24 525.52 333.72 526.08 333.16L526.66 335.36C525.42 336.54 524.12 337.6 522.72 338.54L521.94 336.66C522.28 336.36 522.46 336 522.46 335.58V328.48H519.72V326.48ZM550.92 320.54H552.78C553.88 322.94 555.8 325.04 558.52 326.84L557.36 328.6C554.88 326.94 553.06 324.9 551.86 322.5C550.42 325.18 548.62 327.26 546.46 328.74L545.3 326.96C547.74 325.32 549.6 323.18 550.92 320.54ZM554.78 338.74H550.38C548.8 338.74 548.02 337.9 548.02 336.22V327.72H550.1V330.88C551.9 330.2 553.62 329.26 555.26 328.08L556.46 329.76C554.2 331.16 552.08 332.22 550.1 332.94V335.78C550.1 336.46 550.4 336.8 551.02 336.8H554.4C554.88 336.8 555.22 336.64 555.44 336.36C555.72 336.06 555.92 335.14 556 333.58L557.98 334.24C557.78 336.44 557.44 337.74 556.92 338.14C556.44 338.54 555.74 338.74 554.78 338.74ZM542.46 320.7C543.74 321.68 544.82 322.66 545.7 323.62L544.26 325.08C543.5 324.16 542.4 323.18 540.98 322.14L542.46 320.7ZM539.74 326.48H544.4V334.82C544.98 334.3 545.6 333.74 546.26 333.1L546.8 335.18C545.48 336.42 544.1 337.54 542.62 338.54L541.84 336.68C542.18 336.38 542.36 336.02 542.36 335.58V328.48H539.74V326.48Z" fill="#2475FC"/>
  <rect x="228.5" y="303.5" width="252" height="53" rx="7.5" stroke="#D8DDE6"/>
  <path fill-rule="evenodd" clip-rule="evenodd" d="M453.333 211.35C452.974 211.35 452.683 211.641 452.683 212V222C452.683 222.359 452.974 222.65 453.333 222.65H458.064L459.54 224.126C459.794 224.38 460.206 224.38 460.46 224.126L461.936 222.65H466.667C467.026 222.65 467.317 222.359 467.317 222V212C467.317 211.641 467.026 211.35 466.667 211.35H453.333ZM453.983 221.35V212.65H466.017V221.35H461.667C461.494 221.35 461.329 221.418 461.207 221.54L460 222.747L458.793 221.54C458.671 221.418 458.506 221.35 458.333 221.35H453.983ZM459.667 216.35C459.308 216.35 459.017 216.641 459.017 217C459.017 217.359 459.308 217.65 459.667 217.65H460.334C460.693 217.65 460.984 217.359 460.984 217C460.984 216.641 460.693 216.35 460.334 216.35H459.667ZM462.35 217C462.35 216.641 462.641 216.35 463 216.35H463.667C464.026 216.35 464.317 216.641 464.317 217C464.317 217.359 464.026 217.65 463.667 217.65H463C462.641 217.65 462.35 217.359 462.35 217ZM456.334 216.35C455.975 216.35 455.684 216.641 455.684 217C455.684 217.359 455.975 217.65 456.334 217.65H457C457.359 217.65 457.65 217.359 457.65 217C457.65 216.641 457.359 216.35 457 216.35H456.334Z" fill="#2475FC"/>
  <path d="M477.446 212.206H485.034V213.158H481.716V218.436H485.454V219.402H481.716V224.4H480.736V219.402H477.054V218.436H480.736V213.158H477.446V212.206ZM483.76 213.858L484.642 214.096C484.348 215.454 483.97 216.644 483.522 217.666L482.668 217.372C483.088 216.448 483.452 215.272 483.76 213.858ZM478.524 213.942C478.944 214.964 479.308 216.14 479.644 217.47L478.776 217.694C478.496 216.49 478.118 215.328 477.656 214.222L478.524 213.942ZM474.268 211.702C475.22 212.416 476.018 213.13 476.662 213.858L475.976 214.558C475.388 213.872 474.576 213.144 473.568 212.388L474.268 211.702ZM472.588 215.846H475.612V222.048C476.06 221.656 476.536 221.208 477.054 220.69L477.334 221.754C476.508 222.566 475.64 223.28 474.716 223.91L474.324 223.014C474.534 222.818 474.646 222.622 474.646 222.398V216.812H472.588V215.846ZM494.54 211.562H495.45C496.248 213.312 497.62 214.852 499.58 216.168L499.034 217.022C497.214 215.804 495.87 214.306 495.002 212.514C493.952 214.516 492.636 216.056 491.04 217.148L490.494 216.294C492.244 215.076 493.588 213.494 494.54 211.562ZM496.99 224.162H493.952C493 224.162 492.538 223.644 492.538 222.622V216.56H493.546V219.052C494.918 218.534 496.248 217.806 497.536 216.854L498.11 217.666C496.514 218.716 495.002 219.514 493.546 220.046V222.412C493.546 222.944 493.784 223.21 494.26 223.21H496.808C497.256 223.21 497.564 223.098 497.732 222.902C497.984 222.65 498.152 221.922 498.236 220.718L499.174 221.026C499.062 222.51 498.824 223.42 498.46 223.742C498.152 224.022 497.662 224.162 496.99 224.162ZM488.198 211.702C489.15 212.416 489.948 213.13 490.592 213.858L489.906 214.558C489.318 213.872 488.506 213.144 487.498 212.388L488.198 211.702ZM486.602 215.846H489.556V222.062C490.06 221.642 490.592 221.152 491.166 220.592L491.418 221.6C490.55 222.468 489.612 223.238 488.632 223.924L488.24 223.028C488.464 222.846 488.576 222.636 488.576 222.412V216.812H486.602V215.846Z" fill="#2475FC"/>
  <g clip-path="url(#az3oqn3af__clip0_2674_26387)" fill-rule="evenodd" clip-rule="evenodd" fill="#2475FC">
    <path d="M524.683 218C524.683 213.959 527.959 210.684 532 210.684C536.041 210.684 539.317 213.959 539.317 218C539.317 222.041 536.041 225.317 532 225.317C527.959 225.317 524.683 222.041 524.683 218ZM532 211.984C528.677 211.984 525.983 214.677 525.983 218C525.983 221.323 528.677 224.017 532 224.017C535.323 224.017 538.017 221.323 538.017 218C538.017 214.677 535.323 211.984 532 211.984Z"/>
    <path d="M531.751 214.566C531.675 214.598 531.603 214.645 531.54 214.707L528.54 217.707C528.287 217.961 528.287 218.372 528.54 218.626C528.794 218.88 529.206 218.88 529.46 218.626L531.35 216.736V221.167C531.35 221.526 531.641 221.817 532 221.817C532.359 221.817 532.65 221.526 532.65 221.167V216.736L534.54 218.626C534.794 218.88 535.206 218.88 535.46 218.626C535.713 218.372 535.713 217.961 535.46 217.707L532.46 214.707C532.397 214.645 532.325 214.598 532.249 214.566C532.172 214.534 532.088 214.517 532 214.517C531.912 214.517 531.828 214.534 531.751 214.566Z"/>
  </g>
  <path d="M544.994 215.524H550.44L550.524 214.712H545.932V212.094H556.068V214.712H551.532L551.448 215.524H557.02V216.294H551.336C551.28 216.574 551.238 216.84 551.182 217.092H555.242V223.266H557.272V224.078H544.742V223.266H546.772V217.092H550.174C550.23 216.826 550.272 216.56 550.328 216.294H544.994V215.524ZM547.752 223.266H554.248V222.342H547.752V223.266ZM547.752 221.712H554.248V220.83H547.752V221.712ZM547.752 220.186H554.248V219.304H547.752V220.186ZM547.752 218.674H554.248V217.792H547.752V218.674ZM555.116 213.998V212.836H553.03V213.998H555.116ZM552.106 213.998V212.836H549.894V213.998H552.106ZM548.984 213.998V212.836H546.898V213.998H548.984ZM564.132 212.164H571.216V213.144H568.122C568.08 213.648 568.024 214.138 567.94 214.614H570.754V221.25H569.76V215.552H565.518V221.278H564.538V214.614H566.918C567.002 214.138 567.058 213.648 567.1 213.144H564.132V212.164ZM568.78 221.334C569.788 222.118 570.642 222.888 571.328 223.672L570.6 224.414C569.984 223.658 569.158 222.846 568.094 221.978L568.78 221.334ZM567.086 216.378H568.08V218.87C568.038 220.354 567.674 221.544 566.974 222.412C566.288 223.224 565.168 223.868 563.614 224.344L563.068 223.49C564.566 223.056 565.602 222.482 566.19 221.768C566.75 221.026 567.044 220.06 567.086 218.87V216.378ZM560.758 224.218H559.176L558.952 223.266C559.456 223.294 559.946 223.322 560.408 223.322C560.744 223.322 560.926 223.112 560.926 222.72V213.144H558.77V212.164H563.642V213.144H561.962V222.972C561.962 223.798 561.556 224.218 560.758 224.218Z" fill="#2475FC"/>
  <path fill-rule="evenodd" clip-rule="evenodd" d="M453.333 260.35C452.974 260.35 452.683 260.641 452.683 261V271C452.683 271.359 452.974 271.65 453.333 271.65H458.064L459.54 273.126C459.794 273.38 460.206 273.38 460.46 273.126L461.936 271.65H466.667C467.026 271.65 467.317 271.359 467.317 271V261C467.317 260.641 467.026 260.35 466.667 260.35H453.333ZM453.983 270.35V261.65H466.017V270.35H461.667C461.494 270.35 461.329 270.418 461.207 270.54L460 271.747L458.793 270.54C458.671 270.418 458.506 270.35 458.333 270.35H453.983ZM459.667 265.35C459.308 265.35 459.017 265.641 459.017 266C459.017 266.359 459.308 266.65 459.667 266.65H460.334C460.693 266.65 460.984 266.359 460.984 266C460.984 265.641 460.693 265.35 460.334 265.35H459.667ZM462.35 266C462.35 265.641 462.641 265.35 463 265.35H463.667C464.026 265.35 464.317 265.641 464.317 266C464.317 266.359 464.026 266.65 463.667 266.65H463C462.641 266.65 462.35 266.359 462.35 266ZM456.334 265.35C455.975 265.35 455.684 265.641 455.684 266C455.684 266.359 455.975 266.65 456.334 266.65H457C457.359 266.65 457.65 266.359 457.65 266C457.65 265.641 457.359 265.35 457 265.35H456.334Z" fill="#2475FC"/>
  <path d="M477.446 261.206H485.034V262.158H481.716V267.436H485.454V268.402H481.716V273.4H480.736V268.402H477.054V267.436H480.736V262.158H477.446V261.206ZM483.76 262.858L484.642 263.096C484.348 264.454 483.97 265.644 483.522 266.666L482.668 266.372C483.088 265.448 483.452 264.272 483.76 262.858ZM478.524 262.942C478.944 263.964 479.308 265.14 479.644 266.47L478.776 266.694C478.496 265.49 478.118 264.328 477.656 263.222L478.524 262.942ZM474.268 260.702C475.22 261.416 476.018 262.13 476.662 262.858L475.976 263.558C475.388 262.872 474.576 262.144 473.568 261.388L474.268 260.702ZM472.588 264.846H475.612V271.048C476.06 270.656 476.536 270.208 477.054 269.69L477.334 270.754C476.508 271.566 475.64 272.28 474.716 272.91L474.324 272.014C474.534 271.818 474.646 271.622 474.646 271.398V265.812H472.588V264.846ZM494.54 260.562H495.45C496.248 262.312 497.62 263.852 499.58 265.168L499.034 266.022C497.214 264.804 495.87 263.306 495.002 261.514C493.952 263.516 492.636 265.056 491.04 266.148L490.494 265.294C492.244 264.076 493.588 262.494 494.54 260.562ZM496.99 273.162H493.952C493 273.162 492.538 272.644 492.538 271.622V265.56H493.546V268.052C494.918 267.534 496.248 266.806 497.536 265.854L498.11 266.666C496.514 267.716 495.002 268.514 493.546 269.046V271.412C493.546 271.944 493.784 272.21 494.26 272.21H496.808C497.256 272.21 497.564 272.098 497.732 271.902C497.984 271.65 498.152 270.922 498.236 269.718L499.174 270.026C499.062 271.51 498.824 272.42 498.46 272.742C498.152 273.022 497.662 273.162 496.99 273.162ZM488.198 260.702C489.15 261.416 489.948 262.13 490.592 262.858L489.906 263.558C489.318 262.872 488.506 262.144 487.498 261.388L488.198 260.702ZM486.602 264.846H489.556V271.062C490.06 270.642 490.592 270.152 491.166 269.592L491.418 270.6C490.55 271.468 489.612 272.238 488.632 272.924L488.24 272.028C488.464 271.846 488.576 271.636 488.576 271.412V265.812H486.602V264.846Z" fill="#2475FC"/>
  <g clip-path="url(#az3oqn3af__clip1_2674_26387)" fill-rule="evenodd" clip-rule="evenodd" fill="#2475FC">
    <path d="M524.683 267C524.683 262.959 527.959 259.684 532 259.684C536.041 259.684 539.317 262.959 539.317 267C539.317 271.041 536.041 274.317 532 274.317C527.959 274.317 524.683 271.041 524.683 267ZM532 260.984C528.677 260.984 525.983 263.677 525.983 267C525.983 270.323 528.677 273.017 532 273.017C535.323 273.017 538.017 270.323 538.017 267C538.017 263.677 535.323 260.984 532 260.984Z"/>
    <path d="M531.751 263.566C531.675 263.598 531.603 263.645 531.54 263.707L528.54 266.707C528.287 266.961 528.287 267.372 528.54 267.626C528.794 267.88 529.206 267.88 529.46 267.626L531.35 265.736V270.167C531.35 270.526 531.641 270.817 532 270.817C532.359 270.817 532.65 270.526 532.65 270.167V265.736L534.54 267.626C534.794 267.88 535.206 267.88 535.46 267.626C535.713 267.372 535.713 266.961 535.46 266.707L532.46 263.707C532.397 263.645 532.325 263.598 532.249 263.566C532.172 263.534 532.088 263.517 532 263.517C531.912 263.517 531.828 263.534 531.751 263.566Z"/>
  </g>
  <path d="M544.994 264.524H550.44L550.524 263.712H545.932V261.094H556.068V263.712H551.532L551.448 264.524H557.02V265.294H551.336C551.28 265.574 551.238 265.84 551.182 266.092H555.242V272.266H557.272V273.078H544.742V272.266H546.772V266.092H550.174C550.23 265.826 550.272 265.56 550.328 265.294H544.994V264.524ZM547.752 272.266H554.248V271.342H547.752V272.266ZM547.752 270.712H554.248V269.83H547.752V270.712ZM547.752 269.186H554.248V268.304H547.752V269.186ZM547.752 267.674H554.248V266.792H547.752V267.674ZM555.116 262.998V261.836H553.03V262.998H555.116ZM552.106 262.998V261.836H549.894V262.998H552.106ZM548.984 262.998V261.836H546.898V262.998H548.984ZM564.132 261.164H571.216V262.144H568.122C568.08 262.648 568.024 263.138 567.94 263.614H570.754V270.25H569.76V264.552H565.518V270.278H564.538V263.614H566.918C567.002 263.138 567.058 262.648 567.1 262.144H564.132V261.164ZM568.78 270.334C569.788 271.118 570.642 271.888 571.328 272.672L570.6 273.414C569.984 272.658 569.158 271.846 568.094 270.978L568.78 270.334ZM567.086 265.378H568.08V267.87C568.038 269.354 567.674 270.544 566.974 271.412C566.288 272.224 565.168 272.868 563.614 273.344L563.068 272.49C564.566 272.056 565.602 271.482 566.19 270.768C566.75 270.026 567.044 269.06 567.086 267.87V265.378ZM560.758 273.218H559.176L558.952 272.266C559.456 272.294 559.946 272.322 560.408 272.322C560.744 272.322 560.926 272.112 560.926 271.72V262.144H558.77V261.164H563.642V262.144H561.962V271.972C561.962 272.798 561.556 273.218 560.758 273.218Z" fill="#2475FC"/>
  <g clip-path="url(#az3oqn3af__clip2_2674_26387)">
    <rect x="192" y="198" width="32" height="32" rx="6.12346" fill="#E6EFFF"/>
    <path fill-rule="evenodd" clip-rule="evenodd" d="M213.247 214.829C213.247 214.829 215.56 213.591 216.147 214.708C216.733 215.824 215.306 219.568 213.247 218.784V214.829Z" fill="url(#az3oqn3af__paint0_linear_2674_26387)"/>
    <path fill-rule="evenodd" clip-rule="evenodd" d="M202.807 218.784C200.748 219.568 199.321 215.825 199.907 214.708C200.494 213.591 202.807 214.829 202.807 214.829V218.784Z" fill="url(#az3oqn3af__paint1_linear_2674_26387)"/>
    <path fill-rule="evenodd" clip-rule="evenodd" d="M210.594 222.595L208.028 222.632L205.461 222.595C205.461 222.595 205.528 224.15 205.241 225.261C205.094 225.83 205.635 226.323 206.224 226.323H207.957H208.099H210.084C210.714 226.323 211.097 225.754 210.945 225.143C210.67 224.042 210.594 222.595 210.594 222.595Z" fill="url(#az3oqn3af__paint2_linear_2674_26387)"/>
    <g filter="url(#az3oqn3af__filter1_i_2674_26387)">
      <path fill-rule="evenodd" clip-rule="evenodd" d="M210.755 223.286C211.743 223.939 212.281 224.266 212.281 224.266C212.366 224.317 212.417 224.394 212.436 224.478C213.318 224.966 214.257 225.438 214.777 225.675C217.769 227.16 219.439 232.591 219.439 232.591H196.56C197.868 227.531 199.763 226.078 201.684 225.569C202.022 225.479 202.828 224.98 203.672 224.457C204.038 224.231 204.41 224 204.756 223.796C205.039 223.57 205.269 223.376 205.365 223.286C205.372 223.358 205.38 223.432 205.391 223.508C205.545 223.605 205.707 223.842 205.897 224.12C206.323 224.744 206.89 225.575 207.839 225.516C208.739 225.46 209.333 224.773 209.813 224.218C210.174 223.801 210.47 223.458 210.783 223.512C210.783 223.424 210.774 223.349 210.755 223.286Z" fill="#659EFC"/>
    </g>
    <path fill-rule="evenodd" clip-rule="evenodd" d="M205.491 224.459L207.807 230.354H208.5L210.63 224.519L205.491 224.459Z" fill="#fff"/>
    <path fill-rule="evenodd" clip-rule="evenodd" d="M205.464 223.36C205.239 223.332 205.468 223.146 205.468 223.146L205.464 223.36Z" fill="url(#az3oqn3af__paint3_linear_2674_26387)"/>
    <path fill-rule="evenodd" clip-rule="evenodd" d="M210.63 223.107C210.63 223.107 210.907 223.368 210.655 223.355L210.63 223.107Z" fill="url(#az3oqn3af__paint4_linear_2674_26387)"/>
    <path fill-rule="evenodd" clip-rule="evenodd" d="M214.397 216.245C214.397 216.901 214.259 217.704 214.113 218.372C213.932 219.194 213.554 219.961 213.011 220.604L212.543 221.157C211.869 221.955 210.97 222.531 209.962 222.808L208.57 223.191C208.196 223.294 207.801 223.294 207.428 223.19L205.994 222.793C205.027 222.525 204.156 221.987 203.482 221.243L203.029 220.742C202.573 220.238 202.242 219.687 202.061 219.032C201.845 218.25 201.6 217.118 201.6 216.245C201.6 210.587 201.869 206 207.999 206C213.463 206 214.397 210.587 214.397 216.245Z" fill="url(#az3oqn3af__paint5_linear_2674_26387)"/>
    <path fill-rule="evenodd" clip-rule="evenodd" d="M207.46 225.345L206.561 229.521L207.999 230.286L209.688 229.335L208.755 225.363L207.46 225.345Z" fill="#E5EFFF"/>
    <path fill-rule="evenodd" clip-rule="evenodd" d="M207.454 225.381L207.434 225.472C207.431 225.487 207.442 225.5 207.457 225.501L208.747 225.521C208.77 225.522 208.787 225.501 208.782 225.479L208.762 225.4L207.454 225.381Z" fill="#C8D4EE"/>
    <path fill-rule="evenodd" clip-rule="evenodd" d="M205.632 224.631C205.632 224.631 206.814 225.498 207.045 225.506C207.276 225.515 207.354 225.14 207.354 225.14L207.239 224.854L205.632 224.631Z" fill="#C8D4EE"/>
    <path fill-rule="evenodd" clip-rule="evenodd" d="M210.608 224.631C210.608 224.631 209.426 225.498 209.195 225.506C208.964 225.515 208.886 225.14 208.886 225.14L209.001 224.854L210.608 224.631Z" fill="#C8D4EE"/>
    <path fill-rule="evenodd" clip-rule="evenodd" d="M207.457 224.001C207.457 224.001 208.539 224.068 208.768 223.995L208.959 224.772L208.77 225.383C208.761 225.411 208.735 225.429 208.706 225.429L207.504 225.412C207.477 225.411 207.454 225.395 207.444 225.37L207.226 224.81L207.457 224.001Z" fill="#E5EFFF"/>
    <path fill-rule="evenodd" clip-rule="evenodd" d="M205.364 223.308C205.364 223.308 205.008 224.027 205.081 224.236C205.155 224.446 206.913 225.325 207.106 225.277C207.259 225.239 207.373 224.582 207.468 224.02C207.474 223.983 207.448 223.949 207.412 223.944C206.325 223.793 205.364 223.308 205.364 223.308Z" fill="#fff"/>
    <path fill-rule="evenodd" clip-rule="evenodd" d="M210.756 223.308C210.804 223.294 211.21 224.072 211.152 224.238C211.078 224.448 209.32 225.327 209.127 225.279C208.973 225.241 208.804 224.949 208.763 224.042C208.76 223.983 208.805 223.934 208.864 223.93C209.772 223.871 210.756 223.308 210.756 223.308Z" fill="#fff"/>
    <g opacity=".7">
      <mask id="az3oqn3af__o7rf1hjbxa" style="mask-type:alpha" maskUnits="userSpaceOnUse" x="201" y="206" width="14" height="18">
        <path fill-rule="evenodd" clip-rule="evenodd" d="M214.397 216.245C214.397 216.901 214.259 217.704 214.113 218.372C213.932 219.194 213.554 219.961 213.011 220.604L212.543 221.157C211.869 221.955 210.97 222.531 209.962 222.808L208.57 223.191C208.196 223.294 207.801 223.294 207.428 223.19L205.994 222.793C205.027 222.525 204.156 221.987 203.482 221.243L203.029 220.742C202.573 220.238 202.242 219.687 202.061 219.032C201.845 218.25 201.6 217.118 201.6 216.245C201.6 210.587 201.869 206 207.999 206C213.463 206 214.397 210.587 214.397 216.245Z" fill="url(#az3oqn3af__paint6_linear_2674_26387)"/>
      </mask>
      <g mask="url(#az3oqn3af__o7rf1hjbxa)">
        <g filter="url(#az3oqn3af__filter2_f_2674_26387)">
          <path fill="#fff" d="M212.708 209.33754000000002A6.12346 6.12346 0 1 0 212.708 221.58446A6.12346 6.12346 0 1 0 212.708 209.33754000000002Z"/>
        </g>
        <g filter="url(#az3oqn3af__filter3_f_2674_26387)">
          <path fill="#fff" d="M195.874 209.33754000000002A6.12346 6.12346 0 1 0 195.874 221.58446A6.12346 6.12346 0 1 0 195.874 209.33754000000002Z"/>
        </g>
      </g>
    </g>
    <g filter="url(#az3oqn3af__filter4_ii_2674_26387)">
      <path fill-rule="evenodd" clip-rule="evenodd" d="M211.821 205.289C211.47 205.226 211.238 205.219 211.238 205.219C209.195 203.134 207.61 203.504 205.766 203.936C205.593 203.976 205.419 204.017 205.241 204.056C201.889 204.806 199.5 206.912 199.505 210.566C199.508 212.318 200.118 213.467 201.153 213.416C201.277 213.411 201.396 213.405 201.513 213.4C203.012 213.335 204 213.292 206.18 212.318C207.332 211.803 207.742 208.811 207.742 208.811C208.734 210.819 212.681 213.248 214.361 213.536C214.369 213.538 214.378 213.727 214.387 213.907C214.395 214.071 214.403 214.228 214.409 214.23C214.424 214.232 214.422 214.232 214.42 214.231C214.419 214.23 214.418 214.23 214.43 214.232C214.838 214.296 215.326 214.011 215.326 214.011C215.326 214.011 215.766 209.624 214.86 207.462C214.547 206.715 214.018 206.216 213.46 205.884C213.561 205.693 213.867 205.284 214.611 205.322C214.611 205.322 213.869 204.547 212.788 205.225C212.788 205.225 212.41 203.95 210.72 203.821C210.72 203.821 211.424 204.411 211.821 205.289Z" fill="#364A6A"/>
    </g>
  </g>
  <g clip-path="url(#az3oqn3af__clip3_2674_26387)">
    <rect x="192" y="247" width="32" height="32" rx="6.12346" fill="#E6EFFF"/>
    <path fill-rule="evenodd" clip-rule="evenodd" d="M213.247 263.829C213.247 263.829 215.56 262.591 216.147 263.708C216.733 264.824 215.306 268.568 213.247 267.784V263.829Z" fill="url(#az3oqn3af__paint7_linear_2674_26387)"/>
    <path fill-rule="evenodd" clip-rule="evenodd" d="M202.807 267.784C200.748 268.568 199.321 264.825 199.907 263.708C200.494 262.591 202.807 263.829 202.807 263.829V267.784Z" fill="url(#az3oqn3af__paint8_linear_2674_26387)"/>
    <path fill-rule="evenodd" clip-rule="evenodd" d="M210.594 271.595L208.028 271.632L205.461 271.595C205.461 271.595 205.528 273.15 205.241 274.261C205.094 274.83 205.635 275.323 206.224 275.323H207.957H208.099H210.084C210.714 275.323 211.097 274.754 210.945 274.143C210.67 273.042 210.594 271.595 210.594 271.595Z" fill="url(#az3oqn3af__paint9_linear_2674_26387)"/>
    <g filter="url(#az3oqn3af__filter5_i_2674_26387)">
      <path fill-rule="evenodd" clip-rule="evenodd" d="M210.755 272.286C211.743 272.939 212.281 273.266 212.281 273.266C212.366 273.317 212.417 273.394 212.436 273.478C213.318 273.966 214.257 274.438 214.777 274.675C217.769 276.16 219.439 281.591 219.439 281.591H196.56C197.868 276.531 199.763 275.078 201.684 274.569C202.022 274.479 202.828 273.98 203.672 273.457C204.038 273.231 204.41 273 204.756 272.796C205.039 272.57 205.269 272.376 205.365 272.286C205.372 272.358 205.38 272.432 205.391 272.508C205.545 272.605 205.707 272.842 205.897 273.12C206.323 273.744 206.89 274.575 207.839 274.516C208.739 274.46 209.333 273.773 209.813 273.218C210.174 272.801 210.47 272.458 210.783 272.512C210.783 272.424 210.774 272.349 210.755 272.286Z" fill="#659EFC"/>
    </g>
    <path fill-rule="evenodd" clip-rule="evenodd" d="M205.491 273.459L207.807 279.354H208.5L210.63 273.519L205.491 273.459Z" fill="#fff"/>
    <path fill-rule="evenodd" clip-rule="evenodd" d="M205.464 272.36C205.239 272.332 205.468 272.146 205.468 272.146L205.464 272.36Z" fill="url(#az3oqn3af__paint10_linear_2674_26387)"/>
    <path fill-rule="evenodd" clip-rule="evenodd" d="M210.63 272.107C210.63 272.107 210.907 272.368 210.655 272.355L210.63 272.107Z" fill="url(#az3oqn3af__paint11_linear_2674_26387)"/>
    <path fill-rule="evenodd" clip-rule="evenodd" d="M214.397 265.245C214.397 265.901 214.259 266.704 214.113 267.372C213.932 268.194 213.554 268.961 213.011 269.604L212.543 270.157C211.869 270.955 210.97 271.531 209.962 271.808L208.57 272.191C208.196 272.294 207.801 272.294 207.428 272.19L205.994 271.793C205.027 271.525 204.156 270.987 203.482 270.243L203.029 269.742C202.573 269.238 202.242 268.687 202.061 268.032C201.845 267.25 201.6 266.118 201.6 265.245C201.6 259.587 201.869 255 207.999 255C213.463 255 214.397 259.587 214.397 265.245Z" fill="url(#az3oqn3af__paint12_linear_2674_26387)"/>
    <path fill-rule="evenodd" clip-rule="evenodd" d="M207.46 274.345L206.561 278.521L207.999 279.286L209.688 278.335L208.755 274.363L207.46 274.345Z" fill="#E5EFFF"/>
    <path fill-rule="evenodd" clip-rule="evenodd" d="M207.454 274.381L207.434 274.472C207.431 274.487 207.442 274.5 207.457 274.501L208.747 274.521C208.77 274.522 208.787 274.501 208.782 274.479L208.762 274.4L207.454 274.381Z" fill="#C8D4EE"/>
    <path fill-rule="evenodd" clip-rule="evenodd" d="M205.632 273.631C205.632 273.631 206.814 274.498 207.045 274.506C207.276 274.515 207.354 274.14 207.354 274.14L207.239 273.854L205.632 273.631Z" fill="#C8D4EE"/>
    <path fill-rule="evenodd" clip-rule="evenodd" d="M210.608 273.631C210.608 273.631 209.426 274.498 209.195 274.506C208.964 274.515 208.886 274.14 208.886 274.14L209.001 273.854L210.608 273.631Z" fill="#C8D4EE"/>
    <path fill-rule="evenodd" clip-rule="evenodd" d="M207.457 273.001C207.457 273.001 208.539 273.068 208.768 272.995L208.959 273.772L208.77 274.383C208.761 274.411 208.735 274.429 208.706 274.429L207.504 274.412C207.477 274.411 207.454 274.395 207.444 274.37L207.226 273.81L207.457 273.001Z" fill="#E5EFFF"/>
    <path fill-rule="evenodd" clip-rule="evenodd" d="M205.364 272.308C205.364 272.308 205.008 273.027 205.081 273.236C205.155 273.446 206.913 274.325 207.106 274.277C207.259 274.239 207.373 273.582 207.468 273.02C207.474 272.983 207.448 272.949 207.412 272.944C206.325 272.793 205.364 272.308 205.364 272.308Z" fill="#fff"/>
    <path fill-rule="evenodd" clip-rule="evenodd" d="M210.756 272.308C210.804 272.294 211.21 273.072 211.152 273.238C211.078 273.448 209.32 274.327 209.127 274.279C208.973 274.241 208.804 273.949 208.763 273.042C208.76 272.983 208.805 272.934 208.864 272.93C209.772 272.871 210.756 272.308 210.756 272.308Z" fill="#fff"/>
    <g opacity=".7">
      <mask id="az3oqn3af__6kpjyrh4gb" style="mask-type:alpha" maskUnits="userSpaceOnUse" x="201" y="255" width="14" height="18">
        <path fill-rule="evenodd" clip-rule="evenodd" d="M214.397 265.245C214.397 265.901 214.259 266.704 214.113 267.372C213.932 268.194 213.554 268.961 213.011 269.604L212.543 270.157C211.869 270.955 210.97 271.531 209.962 271.808L208.57 272.191C208.196 272.294 207.801 272.294 207.428 272.19L205.994 271.793C205.027 271.525 204.156 270.987 203.482 270.243L203.029 269.742C202.573 269.238 202.242 268.687 202.061 268.032C201.845 267.25 201.6 266.118 201.6 265.245C201.6 259.587 201.869 255 207.999 255C213.463 255 214.397 259.587 214.397 265.245Z" fill="url(#az3oqn3af__paint13_linear_2674_26387)"/>
      </mask>
      <g mask="url(#az3oqn3af__6kpjyrh4gb)">
        <g filter="url(#az3oqn3af__filter6_f_2674_26387)">
          <path fill="#fff" d="M212.708 258.33754A6.12346 6.12346 0 1 0 212.708 270.58446000000004A6.12346 6.12346 0 1 0 212.708 258.33754Z"/>
        </g>
        <g filter="url(#az3oqn3af__filter7_f_2674_26387)">
          <path fill="#fff" d="M195.874 258.33754A6.12346 6.12346 0 1 0 195.874 270.58446000000004A6.12346 6.12346 0 1 0 195.874 258.33754Z"/>
        </g>
      </g>
    </g>
    <g filter="url(#az3oqn3af__filter8_ii_2674_26387)">
      <path fill-rule="evenodd" clip-rule="evenodd" d="M211.821 254.289C211.47 254.226 211.238 254.219 211.238 254.219C209.195 252.134 207.61 252.504 205.766 252.936C205.593 252.976 205.419 253.017 205.241 253.056C201.889 253.806 199.5 255.912 199.505 259.566C199.508 261.318 200.118 262.467 201.153 262.416C201.277 262.411 201.396 262.405 201.513 262.4C203.012 262.335 204 262.292 206.18 261.318C207.332 260.803 207.742 257.811 207.742 257.811C208.734 259.819 212.681 262.248 214.361 262.536C214.369 262.538 214.378 262.727 214.387 262.907C214.395 263.071 214.403 263.228 214.409 263.23C214.424 263.232 214.422 263.232 214.42 263.231C214.419 263.23 214.418 263.23 214.43 263.232C214.838 263.296 215.326 263.011 215.326 263.011C215.326 263.011 215.766 258.624 214.86 256.462C214.547 255.715 214.018 255.216 213.46 254.884C213.561 254.693 213.867 254.284 214.611 254.322C214.611 254.322 213.869 253.547 212.788 254.225C212.788 254.225 212.41 252.95 210.72 252.821C210.72 252.821 211.424 253.411 211.821 254.289Z" fill="#364A6A"/>
    </g>
  </g>
  <g clip-path="url(#az3oqn3af__clip4_2674_26387)" stroke="#999" stroke-width="1.33333" stroke-linejoin="round">
    <path d="M270 171.666C273.682 171.666 276.667 168.682 276.667 165C276.667 161.318 273.682 158.333 270 158.333C266.318 158.333 263.333 161.318 263.333 165C263.333 168.682 266.318 171.666 270 171.666Z"/>
    <path d="M270.003 161L270.002 165.003L272.829 167.829" stroke-linecap="round"/>
  </g>
  <rect x="192" y="101" width="61" height="81" rx="8" fill="#F0F0F0"/>
  <path d="M219.213 137.602V136.351C218.771 136.289 218.325 136.257 217.879 136.254C212.433 136.254 208 140.611 208 145.961C208 149.242 209.669 152.146 212.219 153.905C210.518 152.126 209.567 149.76 209.564 147.298C209.564 142.024 213.871 137.724 219.213 137.602Z" fill="#20F4F2"/>
  <path d="M219.445 151.731C221.876 151.731 223.858 149.831 223.951 147.465L223.959 126.337H227.888C227.804 125.896 227.762 125.449 227.761 125H222.393L222.383 146.127C222.293 148.494 220.312 150.393 217.881 150.393C217.151 150.393 216.433 150.22 215.786 149.885C216.208 150.458 216.759 150.925 217.395 151.246C218.03 151.567 218.733 151.733 219.445 151.732M235.23 133.508V132.334C233.788 132.336 232.376 131.924 231.162 131.146C232.229 132.349 233.656 133.177 235.23 133.508Z" fill="#20F4F2"/>
  <path d="M231.162 131.146C229.981 129.822 229.327 128.111 229.327 126.337H227.888C228.077 127.319 228.466 128.253 229.029 129.08C229.592 129.907 230.319 130.61 231.163 131.146M217.882 141.529C215.393 141.529 213.368 143.518 213.368 145.962C213.372 146.775 213.6 147.571 214.027 148.263C214.453 148.955 215.062 149.516 215.787 149.884C215.232 149.136 214.933 148.229 214.932 147.297C214.932 144.855 216.955 142.864 219.446 142.864C219.898 142.866 220.347 142.936 220.779 143.07V137.689C220.337 137.628 219.892 137.597 219.446 137.595C219.367 137.595 219.291 137.598 219.213 137.602V141.733C218.782 141.599 218.332 141.53 217.881 141.529" fill="#FD1A52"/>
  <path d="M235.228 133.506V137.607C232.555 137.61 229.946 136.785 227.761 135.245V145.959C227.761 151.309 223.328 155.661 217.879 155.661C215.857 155.664 213.882 155.05 212.217 153.902C213.148 154.883 214.269 155.664 215.512 156.196C216.754 156.729 218.093 157.002 219.445 157C224.892 157 229.325 152.646 229.325 147.296V136.584C231.511 138.122 234.12 138.946 236.792 138.94V133.671C236.267 133.671 235.743 133.616 235.228 133.507" fill="#FD1A52"/>
  <path d="M227.761 145.961V135.247C229.946 136.786 232.555 137.61 235.228 137.605V133.509C233.655 133.179 232.229 132.352 231.162 131.149C230.317 130.613 229.591 129.91 229.028 129.082C228.465 128.255 228.077 127.322 227.887 126.339H223.959L223.949 147.465C223.856 149.83 221.874 151.731 219.443 151.731C218.731 151.732 218.029 151.565 217.393 151.244C216.757 150.923 216.206 150.457 215.785 149.883C215.06 149.514 214.451 148.953 214.025 148.261C213.598 147.569 213.37 146.773 213.366 145.961C213.366 143.518 215.389 141.528 217.88 141.528C218.331 141.531 218.78 141.599 219.211 141.733V137.6C213.871 137.724 209.562 142.025 209.562 147.298C209.564 149.76 210.515 152.127 212.217 153.906C213.882 155.054 215.858 155.668 217.88 155.664C223.326 155.664 227.759 151.313 227.759 145.962" fill="#231916"/>
  <path d="M73.48 120.264V121.416C72.776 121.752 72.072 122.056 71.352 122.344V126.936C71.352 127.912 70.872 128.408 69.912 128.408H68.36L68.104 127.288C68.584 127.336 69.064 127.368 69.512 127.368C69.96 127.368 70.184 127.128 70.184 126.648V122.792C69.416 123.064 68.648 123.304 67.848 123.528L67.56 122.44C68.456 122.232 69.32 121.976 70.184 121.672V117.976H67.8V116.872H70.184V113.992H71.352V116.872H73.448V117.976H71.352V121.24C72.072 120.952 72.776 120.616 73.48 120.264ZM82.152 122.744L82.328 123.88L80.44 124.168V128.552H79.272V124.344L73.432 125.224L73.256 124.104L79.272 123.192V113.992H80.44V123.016L82.152 122.744ZM75.176 114.904C76.456 115.784 77.544 116.664 78.408 117.544L77.608 118.328C76.824 117.496 75.752 116.616 74.392 115.656L75.176 114.904ZM74.696 118.552C75.944 119.464 77.016 120.376 77.88 121.288L77.064 122.12C76.296 121.224 75.24 120.296 73.896 119.32L74.696 118.552ZM95.992 121.464V128.6H94.824V127.864H87.24V128.6H86.072V121.464H95.992ZM87.24 126.84H94.824V125.176H87.24V126.84ZM87.24 124.184H94.824V122.488H87.24V124.184ZM84.696 115.496H90.504C90.264 114.952 90.008 114.44 89.736 113.992L90.952 113.8C91.208 114.296 91.448 114.856 91.672 115.496H97.32V116.552H94.776C94.536 117.448 94.216 118.296 93.8 119.112H98.056V120.184H83.944V119.112H88.072C87.816 118.184 87.512 117.336 87.192 116.552H84.696V115.496ZM88.408 116.552C88.696 117.32 88.968 118.184 89.224 119.112H92.68C93.112 118.296 93.432 117.448 93.624 116.552H88.408ZM111.816 120.424C112.68 122.728 113.448 125.352 114.136 128.312L112.984 128.6C112.856 128.024 112.728 127.464 112.6 126.936C110.504 127.352 108.232 127.736 105.768 128.088L105.544 126.968C105.88 126.872 106.072 126.744 106.136 126.568L109.592 114.312L110.744 114.472L107.24 126.728C109.224 126.44 110.92 126.152 112.328 125.864C111.88 124.104 111.368 122.408 110.792 120.776L111.816 120.424ZM100.056 118.248H102.904V115.896C102.104 116.024 101.256 116.12 100.392 116.2L100.152 115.096C102.44 114.904 104.472 114.552 106.232 114.04L106.632 115.112C105.832 115.336 104.968 115.528 104.072 115.704V118.248H106.664V119.352H104.072V119.992C104.872 120.76 105.672 121.624 106.472 122.584L105.832 123.56C105.16 122.504 104.568 121.672 104.072 121.032V128.552H102.904V121.256C102.248 122.776 101.368 124.152 100.28 125.4L99.768 124.104C101.192 122.712 102.216 121.128 102.824 119.352H100.056V118.248ZM117.464 119.64C116.984 120.344 116.456 121.032 115.88 121.672L115.512 120.44C117.08 118.504 118.216 116.28 118.936 113.784L120.008 114.28C119.624 115.512 119.16 116.664 118.6 117.752V128.632H117.464V119.64ZM119.944 116.04H124.872C124.632 115.4 124.36 114.792 124.04 114.184L125.144 113.88C125.48 114.584 125.736 115.224 125.928 115.816L125.32 116.04H130.36V117.128H119.944V116.04ZM121.416 118.424H128.984V119.464H121.416V118.424ZM121.416 120.68H128.984V121.736H121.416V120.68ZM129.272 123.048V128.6H128.152V127.736H122.232V128.6H121.112V123.048H129.272ZM122.232 126.648H128.152V124.12H122.232V126.648Z" fill="#595959"/>
  <path d="M47 153C47 148.582 50.5817 145 55 145H143C147.418 145 151 148.582 151 153V177C151 181.418 147.418 185 143 185H55C50.5817 185 47 181.418 47 177V153Z" fill="#E6EFFF"/>
  <path d="M73.224 158.664H81.896V159.752H78.104V165.784H82.376V166.888H78.104V172.6H76.984V166.888H72.776V165.784H76.984V159.752H73.224V158.664ZM80.44 160.552L81.448 160.824C81.112 162.376 80.68 163.736 80.168 164.904L79.192 164.568C79.672 163.512 80.088 162.168 80.44 160.552ZM74.456 160.648C74.936 161.816 75.352 163.16 75.736 164.68L74.744 164.936C74.424 163.56 73.992 162.232 73.464 160.968L74.456 160.648ZM69.592 158.088C70.68 158.904 71.592 159.72 72.328 160.552L71.544 161.352C70.872 160.568 69.944 159.736 68.792 158.872L69.592 158.088ZM67.672 162.824H71.128V169.912C71.64 169.464 72.184 168.952 72.776 168.36L73.096 169.576C72.152 170.504 71.16 171.32 70.104 172.04L69.656 171.016C69.896 170.792 70.024 170.568 70.024 170.312V163.928H67.672V162.824ZM92.76 157.928H93.8C94.712 159.928 96.28 161.688 98.52 163.192L97.896 164.168C95.816 162.776 94.28 161.064 93.288 159.016C92.088 161.304 90.584 163.064 88.76 164.312L88.136 163.336C90.136 161.944 91.672 160.136 92.76 157.928ZM95.56 172.328H92.088C91 172.328 90.472 171.736 90.472 170.568V163.64H91.624V166.488C93.192 165.896 94.712 165.064 96.184 163.976L96.84 164.904C95.016 166.104 93.288 167.016 91.624 167.624V170.328C91.624 170.936 91.896 171.24 92.44 171.24H95.352C95.864 171.24 96.216 171.112 96.408 170.888C96.696 170.6 96.888 169.768 96.984 168.392L98.056 168.744C97.928 170.44 97.656 171.48 97.24 171.848C96.888 172.168 96.328 172.328 95.56 172.328ZM85.512 158.088C86.6 158.904 87.512 159.72 88.248 160.552L87.464 161.352C86.792 160.568 85.864 159.736 84.712 158.872L85.512 158.088ZM83.688 162.824H87.064V169.928C87.64 169.448 88.248 168.888 88.904 168.248L89.192 169.4C88.2 170.392 87.128 171.272 86.008 172.056L85.56 171.032C85.816 170.824 85.944 170.584 85.944 170.328V163.928H83.688V162.824ZM111.576 164.248V167.384H103.592V168.488H112.312V172.6H111.176V171.928H103.592V172.584H102.44V164.248H111.576ZM103.592 170.904H111.176V169.416H103.592V170.904ZM103.592 166.456H110.456V165.176H103.592V166.456ZM113.784 162.312V165.208H112.664V163.304H101.336V165.208H100.216V162.312H106.552C106.392 161.928 106.232 161.592 106.056 161.272L107.176 161.08L107.08 161.016C107.848 160.056 108.392 159.016 108.744 157.864L109.848 158.104C109.736 158.44 109.624 158.76 109.496 159.08H114.12V160.088H111.272C111.608 160.536 111.88 160.952 112.072 161.336L111.048 161.72C110.76 161.144 110.424 160.6 110.04 160.088H109.032C108.744 160.632 108.408 161.144 108.056 161.624L107.192 161.096C107.368 161.464 107.544 161.864 107.704 162.312H113.784ZM102.136 160.088C101.752 160.712 101.336 161.288 100.856 161.816L99.848 161.176C100.808 160.184 101.512 159.064 101.96 157.848L103.064 158.088C102.936 158.44 102.792 158.76 102.664 159.08H106.952V160.088H104.264C104.616 160.568 104.92 161.032 105.144 161.464L104.088 161.864C103.8 161.256 103.448 160.664 103.048 160.088H102.136ZM121.656 158.568H129.48V165.96H126.152V167.848H129.752V168.936H126.152V171.016H130.344V172.12H120.712V171.016H125V168.936H121.384V167.848H125V165.96H121.656V158.568ZM128.376 164.936V162.776H126.152V164.936H128.376ZM125 164.936V162.776H122.76V164.936H125ZM122.76 161.768H125V159.592H122.76V161.768ZM126.152 159.592V161.768H128.376V159.592H126.152ZM116.008 163.864H117.752V160.072H115.784V158.984H120.888V160.072H118.936V163.864H120.696V164.968H118.936V168.6C119.544 168.392 120.12 168.168 120.696 167.912V169.032C119.224 169.64 117.64 170.152 115.944 170.568L115.656 169.464C116.36 169.336 117.064 169.176 117.752 168.984V164.968H116.008V163.864Z" fill="#2475FC"/>
  <path d="M73.912 209.224H70.632C70.488 209.784 70.328 210.296 70.152 210.776H74.344V216.472H73.32V215.544H70.792V216.504H69.768V211.72C69.336 212.648 68.824 213.464 68.216 214.136L67.608 213.176C68.488 212.184 69.144 210.872 69.576 209.224H68.328V208.232H69.816C69.928 207.656 70.024 207.048 70.088 206.424H67.944V205.4H70.184C70.216 204.792 70.248 204.184 70.264 203.544H68.424V202.552H73.912V205.4H74.808V206.424H73.912V209.224ZM71.304 203.544C71.288 204.184 71.256 204.808 71.224 205.4H72.856V203.544H71.304ZM71.128 206.424C71.048 207.064 70.952 207.656 70.856 208.232H72.856V206.424H71.128ZM70.792 214.52H73.32V211.832H70.792V214.52ZM78.12 206.088H75.256V204.984H77.144C76.696 204.024 76.248 203.176 75.784 202.424L76.76 201.96C77.24 202.728 77.704 203.592 78.136 204.52L77.176 204.984H78.984C79.448 203.992 79.848 202.952 80.184 201.848L81.272 202.232C80.936 203.256 80.552 204.168 80.136 204.984H81.912V206.088H79.256V208.408H81.576V209.48H79.256V211.8H82.264V212.904H79.256V216.584H78.12V212.904H75.144V211.8H78.12V209.48H75.64V208.408H78.12V206.088ZM92.312 204.776H93.304V210.008C93.272 211.8 92.984 213.224 92.44 214.312C91.912 215.304 91.048 216.072 89.832 216.632L89.288 215.752C90.408 215.208 91.192 214.504 91.656 213.624C91.912 213.048 92.088 212.376 92.2 211.608C91.496 211.992 90.728 212.392 89.896 212.792L89.592 211.8C89.832 211.656 89.96 211.384 89.96 211V203.448C91.304 203.016 92.344 202.52 93.096 201.976L93.704 202.856C93.032 203.336 92.12 203.784 90.968 204.184V211.176C91.416 210.952 91.864 210.712 92.296 210.472C92.296 210.312 92.312 210.152 92.312 210.008V204.776ZM96.696 213.928H95.864L95.576 212.904L96.344 212.952C96.648 212.952 96.808 212.744 96.808 212.36V204.008H95.336V216.552H94.328V203H97.8V212.568C97.8 213.464 97.432 213.928 96.696 213.928ZM83.784 202.6H89.384V203.656H88.616V212.328C88.84 212.248 89.048 212.168 89.256 212.088V213.208L88.616 213.432V216.536H87.576V213.768C86.392 214.12 85.16 214.44 83.88 214.728L83.608 213.672L84.584 213.48V203.656H83.784V202.6ZM85.656 213.224C86.296 213.064 86.936 212.872 87.576 212.68V210.392H85.656V213.224ZM85.656 209.336H87.576V207.064H85.656V209.336ZM85.656 206.024H87.576V203.656H85.656V206.024ZM108.536 201.976H109.72V206.344H113.176V214.92C113.176 215.976 112.664 216.504 111.672 216.504H109.8L109.496 215.384L111.288 215.416C111.784 215.416 112.04 215.16 112.04 214.664V213.096H106.264V216.52H105.112V206.344H108.536V201.976ZM106.264 210.28V212.104H112.04V210.28H106.264ZM112.04 209.288V207.448H106.264V209.288H112.04ZM105.352 202.392C105.96 203.224 106.536 204.136 107.096 205.128L106.168 205.576C105.624 204.568 105.032 203.656 104.392 202.856L105.352 202.392ZM112.92 202.312L113.864 202.76C113.384 203.784 112.76 204.76 111.992 205.704L111.08 205.24C111.848 204.248 112.472 203.272 112.92 202.312ZM102.728 210.232L103.736 210.632C102.936 212.68 102.072 214.616 101.112 216.424L100.056 215.96C101.08 214.088 101.96 212.184 102.728 210.232ZM101.16 202.168C102.264 202.968 103.192 203.768 103.944 204.568L103.128 205.384C102.456 204.616 101.528 203.816 100.344 202.952L101.16 202.168ZM100.696 205.928C101.752 206.728 102.616 207.528 103.32 208.328L102.504 209.144C101.864 208.392 101 207.576 99.88 206.712L100.696 205.928ZM118.056 203.112H121.576C121.8 202.696 121.96 202.28 122.072 201.832L123.272 201.992C123.144 202.392 122.984 202.76 122.792 203.112H128.072V210.936H118.056V203.112ZM126.952 209.944V208.6H119.176V209.944H126.952ZM119.176 207.672H126.952V206.36H119.176V207.672ZM119.176 205.432H126.952V204.12H119.176V205.432ZM117.256 212.024L118.344 212.248C117.96 213.72 117.432 214.984 116.744 216.072L115.768 215.448C116.456 214.424 116.952 213.272 117.256 212.024ZM124.968 216.36H120.856C119.928 216.36 119.48 215.896 119.48 215V211.944H120.648V214.76C120.648 215.128 120.824 215.32 121.192 215.32H124.744C125.112 215.32 125.368 215.224 125.496 215.064C125.688 214.84 125.832 214.216 125.896 213.176L127 213.528C126.872 214.872 126.648 215.688 126.328 215.992C126.04 216.232 125.576 216.36 124.968 216.36ZM122.824 211.368C123.688 212.2 124.344 212.936 124.808 213.56L123.928 214.168C123.448 213.48 122.808 212.728 121.976 211.896L122.824 211.368ZM127.992 211.736C129.016 213.016 129.8 214.152 130.344 215.112L129.432 215.752C128.856 214.712 128.072 213.56 127.096 212.296L127.992 211.736Z" fill="#595959"/>
  <rect x="74" y="55" width="100" height="17" rx="6" fill="#659EFC"/>
  <path d="M58.6667 60.9187L53.1929 58.0378C52.0831 57.4537 50.75 58.2585 50.75 59.5127V65.5021" stroke="#659EFC" stroke-width="1.66667" stroke-linecap="round" stroke-linejoin="round"/>
  <path d="M50.75 65.5016L54.5 62.585V58.835" stroke="#659EFC" stroke-width="1.66667" stroke-linecap="round" stroke-linejoin="round"/>
  <path d="M51.5833 58.0016L55.3333 55.085L61.9999 58.4183L58.6666 60.9183" stroke="#659EFC" stroke-width="1.66667" stroke-linecap="round" stroke-linejoin="round"/>
  <path d="M55.3333 65.0853L60.807 67.9662C61.9168 68.5503 63.2499 67.7455 63.2499 66.4913V60.502" stroke="#659EFC" stroke-width="1.66667" stroke-linecap="round" stroke-linejoin="round"/>
  <path d="M63.25 60.502L59.5 63.4186V67.1686" stroke="#659EFC" stroke-width="1.66667" stroke-linecap="round" stroke-linejoin="round"/>
  <path d="M62.4167 68.0016L58.6667 70.9183L52 67.585L55.3333 65.085" stroke="#659EFC" stroke-width="1.66667" stroke-linecap="round" stroke-linejoin="round"/>
  <path d="M247.333 60.834L242.954 58.5293C242.066 58.062 241 58.7058 241 59.7092V64.5007" stroke="#A1A7B3" stroke-width="1.33333" stroke-linecap="round" stroke-linejoin="round"/>
  <path d="M241 64.5003L244 62.167V59.167" stroke="#A1A7B3" stroke-width="1.33333" stroke-linecap="round" stroke-linejoin="round"/>
  <path d="M241.667 58.5003L244.667 56.167L250 58.8337L247.333 60.8337" stroke="#A1A7B3" stroke-width="1.33333" stroke-linecap="round" stroke-linejoin="round"/>
  <path d="M244.667 64.1676L249.046 66.4724C249.933 66.9397 251 66.2958 251 65.2925V60.501" stroke="#A1A7B3" stroke-width="1.33333" stroke-linecap="round" stroke-linejoin="round"/>
  <path d="M251 60.501L248 62.8343V65.8343" stroke="#A1A7B3" stroke-width="1.33333" stroke-linecap="round" stroke-linejoin="round"/>
  <path d="M250.333 66.5003L247.333 68.8337L242 66.167L244.667 64.167" stroke="#A1A7B3" stroke-width="1.33333" stroke-linecap="round" stroke-linejoin="round"/>
  <rect x="262" y="54" width="36" height="17" rx="6" fill="#D8DDE6"/>
  <rect x="310" y="54.5" width="1" height="16" rx=".5" fill="#D9D9D9"/>
  <path d="M332.333 60.834L327.954 58.5293C327.066 58.062 326 58.7058 326 59.7092V64.5007" stroke="#A1A7B3" stroke-width="1.33333" stroke-linecap="round" stroke-linejoin="round"/>
  <path d="M326 64.5003L329 62.167V59.167" stroke="#A1A7B3" stroke-width="1.33333" stroke-linecap="round" stroke-linejoin="round"/>
  <path d="M326.667 58.5003L329.667 56.167L335 58.8337L332.333 60.8337" stroke="#A1A7B3" stroke-width="1.33333" stroke-linecap="round" stroke-linejoin="round"/>
  <path d="M329.667 64.1676L334.046 66.4724C334.933 66.9397 336 66.2958 336 65.2925V60.501" stroke="#A1A7B3" stroke-width="1.33333" stroke-linecap="round" stroke-linejoin="round"/>
  <path d="M336 60.501L333 62.8343V65.8343" stroke="#A1A7B3" stroke-width="1.33333" stroke-linecap="round" stroke-linejoin="round"/>
  <path d="M335.333 66.5003L332.333 68.8337L327 66.167L329.667 64.167" stroke="#A1A7B3" stroke-width="1.33333" stroke-linecap="round" stroke-linejoin="round"/>
  <rect x="347" y="54" width="36" height="17" rx="6" fill="#D8DDE6"/>
  <rect x="395" y="54.5" width="1" height="16" rx=".5" fill="#D9D9D9"/>
  <path d="M417.333 60.834L412.954 58.5293C412.066 58.062 411 58.7058 411 59.7092V64.5007" stroke="#A1A7B3" stroke-width="1.33333" stroke-linecap="round" stroke-linejoin="round"/>
  <path d="M411 64.5003L414 62.167V59.167" stroke="#A1A7B3" stroke-width="1.33333" stroke-linecap="round" stroke-linejoin="round"/>
  <path d="M411.667 58.5003L414.667 56.167L420 58.8337L417.333 60.8337" stroke="#A1A7B3" stroke-width="1.33333" stroke-linecap="round" stroke-linejoin="round"/>
  <path d="M414.667 64.1676L419.046 66.4724C419.933 66.9397 421 66.2958 421 65.2925V60.501" stroke="#A1A7B3" stroke-width="1.33333" stroke-linecap="round" stroke-linejoin="round"/>
  <path d="M421 60.501L418 62.8343V65.8343" stroke="#A1A7B3" stroke-width="1.33333" stroke-linecap="round" stroke-linejoin="round"/>
  <path d="M420.333 66.5003L417.333 68.8337L412 66.167L414.667 64.167" stroke="#A1A7B3" stroke-width="1.33333" stroke-linecap="round" stroke-linejoin="round"/>
  <rect x="432" y="54" width="36" height="17" rx="6" fill="#D8DDE6"/>
  <rect x="480" y="54.5" width="1" height="16" rx=".5" fill="#D9D9D9"/>
  <path d="M502.333 60.834L497.954 58.5293C497.066 58.062 496 58.7058 496 59.7092V64.5007" stroke="#A1A7B3" stroke-width="1.33333" stroke-linecap="round" stroke-linejoin="round"/>
  <path d="M496 64.5003L499 62.167V59.167" stroke="#A1A7B3" stroke-width="1.33333" stroke-linecap="round" stroke-linejoin="round"/>
  <path d="M496.667 58.5003L499.667 56.167L505 58.8337L502.333 60.8337" stroke="#A1A7B3" stroke-width="1.33333" stroke-linecap="round" stroke-linejoin="round"/>
  <path d="M499.667 64.1676L504.046 66.4724C504.933 66.9397 506 66.2958 506 65.2925V60.501" stroke="#A1A7B3" stroke-width="1.33333" stroke-linecap="round" stroke-linejoin="round"/>
  <path d="M506 60.501L503 62.8343V65.8343" stroke="#A1A7B3" stroke-width="1.33333" stroke-linecap="round" stroke-linejoin="round"/>
  <path d="M505.333 66.5003L502.333 68.8337L497 66.167L499.667 64.167" stroke="#A1A7B3" stroke-width="1.33333" stroke-linecap="round" stroke-linejoin="round"/>
  <rect x="517" y="54" width="36" height="17" rx="6" fill="#D8DDE6"/>
  <rect opacity=".5" x="166" y="101" width="2" height="257" rx="1" fill="#E4E6EB"/>
  <rect x="262" y="101" width="318" height="20" rx="8" fill="#E4E6EB"/>
  <rect x="262" y="129" width="318" height="20" rx="8" fill="#E4E6EB"/>
  <rect x="284" y="157" width="78" height="15" rx="7.5" fill="#F2F4F7"/>
  <rect x="228" y="214" width="184" height="15" rx="7.5" fill="#F2F4F7"/>
  <rect x="228" y="263" width="184" height="15" rx="7.5" fill="#F2F4F7"/>
  <rect x="228" y="197" width="45" height="11" rx="5.5" fill="#E4E6EB"/>
  <rect x="228" y="246" width="45" height="11" rx="5.5" fill="#E4E6EB"/>
  <defs>
    <linearGradient id="az3oqn3af__paint0_linear_2674_26387" x1="213.484" y1="218.486" x2="215.119" y2="214.648" gradientUnits="userSpaceOnUse">
      <stop offset="5e-7" stop-color="#FFDBD4"/>
      <stop offset="1" stop-color="#FFD1BF"/>
    </linearGradient>
    <linearGradient id="az3oqn3af__paint1_linear_2674_26387" x1="156.801" y1="218.486" x2="155.165" y2="214.648" gradientUnits="userSpaceOnUse">
      <stop offset="5e-7" stop-color="#FFDBD4"/>
      <stop offset="1" stop-color="#FFD1BF"/>
    </linearGradient>
    <linearGradient id="az3oqn3af__paint2_linear_2674_26387" x1="208.086" y1="226.18" x2="208.138" y2="222.625" gradientUnits="userSpaceOnUse">
      <stop offset="9.9e-7" stop-color="#FFDBD4"/>
      <stop offset="1" stop-color="#FFBFAA"/>
    </linearGradient>
    <linearGradient id="az3oqn3af__paint3_linear_2674_26387" x1="205.365" y1="223.253" x2="205.468" y2="223.253" gradientUnits="userSpaceOnUse">
      <stop offset="9.9e-7" stop-color="#FFDBD4"/>
      <stop offset="1" stop-color="#FFDCD1"/>
    </linearGradient>
    <linearGradient id="az3oqn3af__paint4_linear_2674_26387" x1="16.4923" y1="223.232" x2="16.3616" y2="223.232" gradientUnits="userSpaceOnUse">
      <stop offset="9.9e-7" stop-color="#FFDBD4"/>
      <stop offset="1" stop-color="#FFDCD1"/>
    </linearGradient>
    <linearGradient id="az3oqn3af__paint5_linear_2674_26387" x1="207.975" y1="208.991" x2="207.855" y2="223.215" gradientUnits="userSpaceOnUse">
      <stop offset="5e-7" stop-color="#D19083"/>
      <stop offset=".297551" stop-color="#FAC6BA"/>
      <stop offset="1" stop-color="#FFD4C4"/>
    </linearGradient>
    <linearGradient id="az3oqn3af__paint6_linear_2674_26387" x1="207.975" y1="211.377" x2="207.855" y2="223.215" gradientUnits="userSpaceOnUse">
      <stop offset="5e-7" stop-color="#FFDBD4"/>
      <stop offset="1" stop-color="#FFC5AE"/>
    </linearGradient>
    <linearGradient id="az3oqn3af__paint7_linear_2674_26387" x1="213.484" y1="267.486" x2="215.119" y2="263.648" gradientUnits="userSpaceOnUse">
      <stop offset="5e-7" stop-color="#FFDBD4"/>
      <stop offset="1" stop-color="#FFD1BF"/>
    </linearGradient>
    <linearGradient id="az3oqn3af__paint8_linear_2674_26387" x1="156.801" y1="267.486" x2="155.165" y2="263.648" gradientUnits="userSpaceOnUse">
      <stop offset="5e-7" stop-color="#FFDBD4"/>
      <stop offset="1" stop-color="#FFD1BF"/>
    </linearGradient>
    <linearGradient id="az3oqn3af__paint9_linear_2674_26387" x1="208.086" y1="275.18" x2="208.138" y2="271.625" gradientUnits="userSpaceOnUse">
      <stop offset="9.9e-7" stop-color="#FFDBD4"/>
      <stop offset="1" stop-color="#FFBFAA"/>
    </linearGradient>
    <linearGradient id="az3oqn3af__paint10_linear_2674_26387" x1="205.365" y1="272.253" x2="205.468" y2="272.253" gradientUnits="userSpaceOnUse">
      <stop offset="9.9e-7" stop-color="#FFDBD4"/>
      <stop offset="1" stop-color="#FFDCD1"/>
    </linearGradient>
    <linearGradient id="az3oqn3af__paint11_linear_2674_26387" x1="16.4923" y1="272.232" x2="16.3616" y2="272.232" gradientUnits="userSpaceOnUse">
      <stop offset="9.9e-7" stop-color="#FFDBD4"/>
      <stop offset="1" stop-color="#FFDCD1"/>
    </linearGradient>
    <linearGradient id="az3oqn3af__paint12_linear_2674_26387" x1="207.975" y1="257.991" x2="207.855" y2="272.215" gradientUnits="userSpaceOnUse">
      <stop offset="5e-7" stop-color="#D19083"/>
      <stop offset=".297551" stop-color="#FAC6BA"/>
      <stop offset="1" stop-color="#FFD4C4"/>
    </linearGradient>
    <linearGradient id="az3oqn3af__paint13_linear_2674_26387" x1="207.975" y1="260.377" x2="207.855" y2="272.215" gradientUnits="userSpaceOnUse">
      <stop offset="5e-7" stop-color="#FFDBD4"/>
      <stop offset="1" stop-color="#FFC5AE"/>
    </linearGradient>
    <filter id="az3oqn3af__filter0_d_2674_26387" x="14" y="24" width="612" height="385" filterUnits="userSpaceOnUse" color-interpolation-filters="sRGB">
      <feFlood flood-opacity="0" result="BackgroundImageFix"/>
      <feColorMatrix in="SourceAlpha" values="0 0 0 0 0 0 0 0 0 0 0 0 0 0 0 0 0 0 127 0" result="hardAlpha"/>
      <feOffset dy="4"/>
      <feGaussianBlur stdDeviation="12"/>
      <feComposite in2="hardAlpha" operator="out"/>
      <feColorMatrix values="0 0 0 0 0.143233 0 0 0 0 0.304677 0 0 0 0 0.562987 0 0 0 0.12 0"/>
      <feBlend in2="BackgroundImageFix" result="effect1_dropShadow_2674_26387"/>
      <feBlend in="SourceGraphic" in2="effect1_dropShadow_2674_26387" result="shape"/>
    </filter>
    <filter id="az3oqn3af__filter1_i_2674_26387" x="196.56" y="223.286" width="22.8792" height="10.0701" filterUnits="userSpaceOnUse" color-interpolation-filters="sRGB">
      <feFlood flood-opacity="0" result="BackgroundImageFix"/>
      <feBlend in="SourceGraphic" in2="BackgroundImageFix" result="shape"/>
      <feColorMatrix in="SourceAlpha" values="0 0 0 0 0 0 0 0 0 0 0 0 0 0 0 0 0 0 127 0" result="hardAlpha"/>
      <feOffset dy=".765432"/>
      <feGaussianBlur stdDeviation=".765432"/>
      <feComposite in2="hardAlpha" operator="arithmetic" k2="-1" k3="1"/>
      <feColorMatrix values="0 0 0 0 0.8625 0 0 0 0 0.912759 0 0 0 0 1 0 0 0 0.7 0"/>
      <feBlend mode="lighten" in2="shape" result="effect1_innerShadow_2674_26387"/>
    </filter>
    <filter id="az3oqn3af__filter2_f_2674_26387" x="203.523" y="206.276" width="18.3704" height="18.3705" filterUnits="userSpaceOnUse" color-interpolation-filters="sRGB">
      <feFlood flood-opacity="0" result="BackgroundImageFix"/>
      <feBlend in="SourceGraphic" in2="BackgroundImageFix" result="shape"/>
      <feGaussianBlur stdDeviation="1.53086" result="effect1_foregroundBlur_2674_26387"/>
    </filter>
    <filter id="az3oqn3af__filter3_f_2674_26387" x="186.689" y="206.276" width="18.3704" height="18.3705" filterUnits="userSpaceOnUse" color-interpolation-filters="sRGB">
      <feFlood flood-opacity="0" result="BackgroundImageFix"/>
      <feBlend in="SourceGraphic" in2="BackgroundImageFix" result="shape"/>
      <feGaussianBlur stdDeviation="1.53086" result="effect1_foregroundBlur_2674_26387"/>
    </filter>
    <filter id="az3oqn3af__filter4_ii_2674_26387" x="199.505" y="200.539" width="15.9281" height="15.2342" filterUnits="userSpaceOnUse" color-interpolation-filters="sRGB">
      <feFlood flood-opacity="0" result="BackgroundImageFix"/>
      <feBlend in="SourceGraphic" in2="BackgroundImageFix" result="shape"/>
      <feColorMatrix in="SourceAlpha" values="0 0 0 0 0 0 0 0 0 0 0 0 0 0 0 0 0 0 127 0" result="hardAlpha"/>
      <feOffset dy="1.53086"/>
      <feGaussianBlur stdDeviation=".765432"/>
      <feComposite in2="hardAlpha" operator="arithmetic" k2="-1" k3="1"/>
      <feColorMatrix values="0 0 0 0 0.9 0 0 0 0 0.928333 0 0 0 0 1 0 0 0 0.6 0"/>
      <feBlend mode="lighten" in2="shape" result="effect1_innerShadow_2674_26387"/>
      <feColorMatrix in="SourceAlpha" values="0 0 0 0 0 0 0 0 0 0 0 0 0 0 0 0 0 0 127 0" result="hardAlpha"/>
      <feOffset dy="-3.06173"/>
      <feGaussianBlur stdDeviation="3.06173"/>
      <feComposite in2="hardAlpha" operator="arithmetic" k2="-1" k3="1"/>
      <feColorMatrix values="0 0 0 0 0.097309 0 0 0 0 0.181891 0 0 0 0 0.395833 0 0 0 0.16 0"/>
      <feBlend mode="multiply" in2="effect1_innerShadow_2674_26387" result="effect2_innerShadow_2674_26387"/>
    </filter>
    <filter id="az3oqn3af__filter5_i_2674_26387" x="196.56" y="272.286" width="22.8792" height="10.0701" filterUnits="userSpaceOnUse" color-interpolation-filters="sRGB">
      <feFlood flood-opacity="0" result="BackgroundImageFix"/>
      <feBlend in="SourceGraphic" in2="BackgroundImageFix" result="shape"/>
      <feColorMatrix in="SourceAlpha" values="0 0 0 0 0 0 0 0 0 0 0 0 0 0 0 0 0 0 127 0" result="hardAlpha"/>
      <feOffset dy=".765432"/>
      <feGaussianBlur stdDeviation=".765432"/>
      <feComposite in2="hardAlpha" operator="arithmetic" k2="-1" k3="1"/>
      <feColorMatrix values="0 0 0 0 0.8625 0 0 0 0 0.912759 0 0 0 0 1 0 0 0 0.7 0"/>
      <feBlend mode="lighten" in2="shape" result="effect1_innerShadow_2674_26387"/>
    </filter>
    <filter id="az3oqn3af__filter6_f_2674_26387" x="203.523" y="255.276" width="18.3704" height="18.3705" filterUnits="userSpaceOnUse" color-interpolation-filters="sRGB">
      <feFlood flood-opacity="0" result="BackgroundImageFix"/>
      <feBlend in="SourceGraphic" in2="BackgroundImageFix" result="shape"/>
      <feGaussianBlur stdDeviation="1.53086" result="effect1_foregroundBlur_2674_26387"/>
    </filter>
    <filter id="az3oqn3af__filter7_f_2674_26387" x="186.689" y="255.276" width="18.3704" height="18.3705" filterUnits="userSpaceOnUse" color-interpolation-filters="sRGB">
      <feFlood flood-opacity="0" result="BackgroundImageFix"/>
      <feBlend in="SourceGraphic" in2="BackgroundImageFix" result="shape"/>
      <feGaussianBlur stdDeviation="1.53086" result="effect1_foregroundBlur_2674_26387"/>
    </filter>
    <filter id="az3oqn3af__filter8_ii_2674_26387" x="199.505" y="249.539" width="15.9281" height="15.2342" filterUnits="userSpaceOnUse" color-interpolation-filters="sRGB">
      <feFlood flood-opacity="0" result="BackgroundImageFix"/>
      <feBlend in="SourceGraphic" in2="BackgroundImageFix" result="shape"/>
      <feColorMatrix in="SourceAlpha" values="0 0 0 0 0 0 0 0 0 0 0 0 0 0 0 0 0 0 127 0" result="hardAlpha"/>
      <feOffset dy="1.53086"/>
      <feGaussianBlur stdDeviation=".765432"/>
      <feComposite in2="hardAlpha" operator="arithmetic" k2="-1" k3="1"/>
      <feColorMatrix values="0 0 0 0 0.9 0 0 0 0 0.928333 0 0 0 0 1 0 0 0 0.6 0"/>
      <feBlend mode="lighten" in2="shape" result="effect1_innerShadow_2674_26387"/>
      <feColorMatrix in="SourceAlpha" values="0 0 0 0 0 0 0 0 0 0 0 0 0 0 0 0 0 0 127 0" result="hardAlpha"/>
      <feOffset dy="-3.06173"/>
      <feGaussianBlur stdDeviation="3.06173"/>
      <feComposite in2="hardAlpha" operator="arithmetic" k2="-1" k3="1"/>
      <feColorMatrix values="0 0 0 0 0.097309 0 0 0 0 0.181891 0 0 0 0 0.395833 0 0 0 0.16 0"/>
      <feBlend mode="multiply" in2="effect1_innerShadow_2674_26387" result="effect2_innerShadow_2674_26387"/>
    </filter>
    <clipPath id="az3oqn3af__clip0_2674_26387">
      <path fill="#fff" transform="translate(524 210)" d="M0 0H16V16H0z"/>
    </clipPath>
    <clipPath id="az3oqn3af__clip1_2674_26387">
      <path fill="#fff" transform="translate(524 259)" d="M0 0H16V16H0z"/>
    </clipPath>
    <clipPath id="az3oqn3af__clip2_2674_26387">
      <rect x="192" y="198" width="32" height="32" rx="6.12346" fill="#fff"/>
    </clipPath>
    <clipPath id="az3oqn3af__clip3_2674_26387">
      <rect x="192" y="247" width="32" height="32" rx="6.12346" fill="#fff"/>
    </clipPath>
    <clipPath id="az3oqn3af__clip4_2674_26387">
      <path fill="#fff" transform="translate(262 157)" d="M0 0H16V16H0z"/>
    </clipPath>
  </defs>
</svg>
