<svg fill="none" xmlns="http://www.w3.org/2000/svg" viewBox="0 0 160 145" class="design-iconfont">
  <g clip-path="url(#mdzcvpjgy__clip0_5660_193545)">
    <g opacity=".6" clip-path="url(#mdzcvpjgy__clip1_5660_193545)">
      <mask id="mdzcvpjgy__ys8sk3s89a" style="mask-type:luminance" maskUnits="userSpaceOnUse" x="12" y="12" width="204" height="147">
        <path d="M12 12H215.904V159H12V12Z" fill="#fff"/>
      </mask>
      <g mask="url(#mdzcvpjgy__ys8sk3s89a)">
        <path d="M114.741 12H16.7416C14.1232 12 12 14.1232 12 16.7416V101.399C12 104.017 14.1232 106.14 16.7416 106.14H114.741C117.359 106.14 119.482 104.017 119.482 101.399V16.7416C119.482 14.1232 117.359 12 114.741 12Z" fill="#FBFBFB"/>
        <path d="M117.111 12H14.3715C13.0609 12 12 13.0609 12 14.3715V20.6248C12 21.934 13.0609 22.9963 14.3715 22.9963H117.111C118.421 22.9963 119.482 21.934 119.482 20.6248V14.3715C119.482 13.0609 118.421 12 117.111 12Z" fill="#69DAC8"/>
        <path d="M18.7557 17.6711V17.0983C18.7557 16.2154 18.0408 15.502 17.1594 15.502C16.278 15.502 15.563 16.2154 15.563 17.0983V17.6711C15.563 18.5525 16.278 19.2674 17.1594 19.2674C18.0408 19.2674 18.7557 18.5525 18.7557 17.6711Z" fill="#fff"/>
        <path d="M24.9802 17.6711V17.0983C24.9802 16.2154 24.2653 15.502 23.3839 15.502C22.5024 15.502 21.7875 16.2154 21.7875 17.0983V17.6711C21.7875 18.5525 22.5024 19.2674 23.3839 19.2674C24.2653 19.2674 24.9802 18.5525 24.9802 17.6711Z" fill="#fff"/>
        <path d="M31.209 17.6696V17.0983C31.209 16.2169 30.4941 15.502 29.6127 15.502C28.7299 15.502 28.015 16.2169 28.015 17.0983V17.6696C28.015 18.5525 28.7299 19.2674 29.6127 19.2674C30.4941 19.2674 31.209 18.5525 31.209 17.6696Z" fill="#fff"/>
        <path fill-rule="evenodd" clip-rule="evenodd" d="M22.0675 48.6418H109.21C103.701 33.7279 96.7648 29.0006 88.3998 34.46C75.8546 42.6498 72.6088 40.9918 63.8864 36.632C55.1626 32.2737 50.8962 32.1172 44.4032 38.0891C40.075 42.0684 32.6303 45.587 22.0675 48.6418Z" fill="#CEECF7"/>
        <path fill-rule="evenodd" clip-rule="evenodd" d="M22.0675 48.6443H109.21C105.279 45.1315 101.915 42.1298 99.119 39.6391C94.9229 35.9053 82.8658 21.8498 70.3191 30.0396C57.7739 38.2294 55.7454 42.961 47.0216 38.6027C38.2992 34.2443 36.0009 35.2119 30.8358 39.6391C27.3934 42.592 24.4706 45.5938 22.0675 48.6443Z" fill="#DDE2FF"/>
        <path fill-rule="evenodd" clip-rule="evenodd" d="M108.627 75.8048H21.4833C26.9929 60.8894 33.9295 56.1622 42.293 61.623C54.8396 69.8128 58.084 68.1533 66.8078 63.795C75.5302 59.4366 79.7981 59.2802 86.2896 65.2506C90.6178 69.2314 98.064 72.7499 108.627 75.8048Z" fill="#CEECF7"/>
        <path fill-rule="evenodd" clip-rule="evenodd" d="M108.627 75.8045H21.4833C25.4152 72.2917 28.7787 69.2899 31.5752 66.8007C35.7698 63.0654 47.8284 49.01 60.3751 57.1998C72.9204 65.3896 74.9488 70.1226 83.6712 65.7628C92.395 61.4045 94.6933 62.372 99.857 66.8007C103.301 69.7522 106.224 72.7539 108.627 75.8045Z" fill="#DDE2FF"/>
        <path fill-rule="evenodd" clip-rule="evenodd" d="M21.4833 85.5H47.5643V90.2416H21.4833V85.5Z" fill="#D8E5ED"/>
        <path fill-rule="evenodd" clip-rule="evenodd" d="M55.4683 85.5H81.5479V90.2416H55.4683V85.5Z" fill="#D8E5ED"/>
        <path d="M206.419 33.3398H59.419C54.1821 33.3398 49.9357 37.5848 49.9357 42.8231V137.662C49.9357 142.899 54.1821 147.146 59.419 147.146H206.419C211.657 147.146 215.904 142.899 215.904 137.662V42.8231C215.904 37.5848 211.657 33.3398 206.419 33.3398Z" fill="#fff"/>
        <path d="M68.9482 104.467V102.745C76.0742 102.745 81.6169 99.6073 85.6493 93.3009C86.2767 92.319 86.9054 91.2768 87.5859 90.0982C88.2994 88.8607 90.6235 84.6776 90.9695 84.0689C93.2649 80.0321 94.979 77.5443 96.9887 75.6135C99.4851 73.2147 102.254 71.9845 105.56 71.9845C107.606 71.9845 109.441 72.4524 111.231 73.3583C112.653 74.0804 113.922 74.9862 115.736 76.4835C116.048 76.7419 117.121 77.6391 117.174 77.6836C119.383 79.5211 120.8 80.5389 122.516 81.393C124.705 82.484 127.036 83.0511 129.754 83.0511C132.465 83.0511 135.069 82.3204 137.727 80.9193C139.867 79.7924 141.878 78.3482 144.554 76.1389C145.103 75.6882 147.174 73.9469 147.664 73.542C148.845 72.5673 149.767 71.851 150.649 71.238C152.882 69.689 154.759 68.9023 156.603 68.9023V70.6236C155.085 70.6236 153.45 71.3083 151.432 72.708C150.591 73.2922 149.698 73.987 148.546 74.9374C148.064 75.335 145.993 77.0763 145.437 77.5343C142.689 79.8024 140.605 81.2983 138.358 82.4826C135.513 83.9813 132.697 84.7723 129.754 84.7723C126.828 84.7723 124.29 84.155 121.913 82.9707C120.074 82.0548 118.578 80.981 116.287 79.0746C116.231 79.0273 115.161 78.1329 114.853 77.8788C113.117 76.4447 111.926 75.5934 110.619 74.9316C109.017 74.1206 107.389 73.7057 105.56 73.7057C102.62 73.7057 100.193 74.7852 97.9591 76.9314C96.0915 78.7244 94.455 81.1016 92.2342 85.0063C91.8954 85.6021 89.5669 89.7939 88.8434 91.0457C88.1515 92.2458 87.5098 93.3095 86.8667 94.3144C82.5471 101.072 76.5494 104.467 68.9482 104.467Z" fill="#FF6E6E"/>
        <path d="M68.9036 92.4208V90.6996C74.0845 90.6996 78.8032 87.8199 83.0897 81.993C83.8391 80.9766 84.6142 80.2832 85.4325 79.9028C87.1867 79.0874 88.9453 79.7219 91.001 81.5652C91.7819 82.2657 92.5945 83.1199 93.6869 84.3602C93.8764 84.5741 95.9206 86.9313 96.5566 87.6419C98.6812 90.0134 100.418 91.6542 102.264 92.9046C104.522 94.4349 106.791 95.233 109.195 95.233C112.399 95.233 114.844 94.0214 116.92 91.6499C118.536 89.8024 119.63 87.8227 121.69 83.4142C121.725 83.3395 121.772 83.2405 121.852 83.0653C123.479 79.587 124.303 77.9907 125.461 76.2867C127.012 74.007 128.717 72.4279 130.781 71.5293C133.485 70.3507 136.244 70.4655 139.207 71.6671C141.449 72.5758 143.45 73.8649 146.753 76.3369C150.349 79.0271 150.677 79.264 152.019 80.0694C153.818 81.1489 155.301 81.6872 156.628 81.6872V83.4084C155.015 83.4084 153.314 82.7897 151.318 81.5939C149.912 80.7498 149.581 80.5101 145.928 77.7768C142.719 75.3765 140.799 74.1377 138.704 73.2893C136.057 72.2169 133.661 72.1164 131.318 73.1371C129.537 73.9137 128.045 75.2947 126.651 77.3418C125.563 78.9424 124.768 80.4842 123.183 83.8764C123.101 84.0501 123.054 84.1506 123.019 84.2253C120.889 88.7831 119.744 90.8575 117.985 92.8672C115.634 95.5546 112.81 96.9542 109.195 96.9542C106.502 96.9542 103.974 96.0642 101.496 94.3846C99.5267 93.051 97.7064 91.3312 95.5029 88.8736C94.8569 88.1515 92.8069 85.7871 92.6246 85.5804C91.5709 84.3846 90.7957 83.5692 90.0708 82.9189C88.3955 81.4173 87.1437 80.9651 85.9995 81.4963C85.4282 81.7619 84.8454 82.2844 84.2439 83.1012C79.6875 89.2927 74.5626 92.4208 68.9036 92.4208Z" fill="#69DAC8"/>
        <path fill-rule="evenodd" clip-rule="evenodd" d="M67.537 49.9355H95.6536C96.2077 49.9355 96.6571 50.3849 96.6571 50.939V58.9723C96.6571 59.5279 96.2077 59.9772 95.6536 59.9772H67.537C66.9814 59.9772 66.5321 59.5279 66.5321 58.9723V50.939C66.5321 50.3849 66.9814 49.9355 67.537 49.9355ZM107.704 49.9355H135.82C136.374 49.9355 136.825 50.3849 136.825 50.939V58.9723C136.825 59.5279 136.374 59.9772 135.82 59.9772H107.704C107.148 59.9772 106.699 59.5279 106.699 58.9723V50.939C106.699 50.3849 107.148 49.9355 107.704 49.9355Z" fill="#8191FF"/>
        <path fill-rule="evenodd" clip-rule="evenodd" d="M72.2729 123.617H160.123C160.674 123.617 161.122 124.025 161.122 124.528V127.265C161.122 127.768 160.674 128.176 160.123 128.176H72.2729C71.7216 128.176 71.2737 127.768 71.2737 127.265V124.528C71.2737 124.025 71.7216 123.617 72.2729 123.617ZM72.2729 109.938H130.174C130.725 109.938 131.172 110.347 131.172 110.849V113.585C131.172 114.089 130.725 114.497 130.174 114.497H72.2729C71.7216 114.497 71.2737 114.089 71.2737 113.585V110.849C71.2737 110.347 71.7216 109.938 72.2729 109.938Z" fill="#D8E5ED"/>
        <path fill-rule="evenodd" clip-rule="evenodd" d="M198.321 68.9023H174.712C174.168 68.9023 173.727 69.31 173.727 69.8139V72.5501C173.727 73.0539 174.168 73.4616 174.712 73.4616H198.321C198.865 73.4616 199.306 73.0539 199.306 72.5501V69.8139C199.306 69.31 198.865 68.9023 198.321 68.9023ZM198.321 96.2596H165.958C165.414 96.2596 164.973 96.6673 164.973 97.1711V99.9073C164.973 100.411 165.414 100.819 165.958 100.819H198.321C198.865 100.819 199.306 100.411 199.306 99.9073V97.1711C199.306 96.6673 198.865 96.2596 198.321 96.2596ZM198.321 123.617H179.089C178.545 123.617 178.104 124.024 178.104 124.528V127.265C178.104 127.768 178.545 128.176 179.089 128.176H198.321C198.865 128.176 199.306 127.768 199.306 127.265V124.528C199.306 124.024 198.865 123.617 198.321 123.617ZM198.321 109.937H150.502C149.958 109.937 149.517 110.347 149.517 110.85V113.585C149.517 114.089 149.958 114.497 150.502 114.497H198.321C198.865 114.497 199.306 114.089 199.306 113.585V110.85C199.306 110.347 198.865 109.937 198.321 109.937ZM198.321 82.5802H185.792C185.248 82.5802 184.807 82.9894 184.807 83.4918V86.228C184.807 86.7318 185.248 87.1395 185.792 87.1395H198.321C198.865 87.1395 199.306 86.7318 199.306 86.228V83.4918C199.306 82.9894 198.865 82.5802 198.321 82.5802Z" fill="#D0D6FF"/>
        <path d="M57.1508 156.835C72.9218 156.835 85.7067 144.052 85.7067 128.281C85.7067 112.51 72.9218 99.7266 57.1508 99.7266C41.3814 99.7266 28.5964 112.51 28.5964 128.281C28.5964 144.052 41.3814 156.835 57.1508 156.835Z" fill="url(#mdzcvpjgy__paint0_linear_5660_193545)"/>
        <path fill-rule="evenodd" clip-rule="evenodd" d="M64.9516 121.854H44.4032C43.5304 121.854 42.8227 121.148 42.8227 120.274C42.8227 119.4 43.5304 118.693 44.4032 118.693H65.0808L62.6188 116.781C61.9298 116.244 61.8049 115.251 62.3404 114.563C62.8758 113.873 63.8706 113.748 64.5583 114.283L70.6622 119.025C71.0527 119.326 71.2781 119.793 71.2738 120.288C71.2709 120.779 71.0369 121.243 70.6421 121.539L64.32 126.28C64.0357 126.494 63.7012 126.596 63.3725 126.596C62.8916 126.596 62.4164 126.378 62.1064 125.964C61.5838 125.265 61.7245 124.275 62.4222 123.751L64.9516 121.854ZM49.1448 132.92H69.6932C70.566 132.92 71.2738 133.626 71.2738 134.5C71.2738 135.374 70.566 136.081 69.6932 136.081H49.0156L51.4776 137.993C52.1681 138.528 52.293 139.523 51.7561 140.211C51.4446 140.613 50.978 140.822 50.5071 140.822C50.1684 140.822 49.8267 140.715 49.5396 140.491L43.4342 135.749C43.0437 135.446 42.8198 134.98 42.8227 134.486C42.8255 133.993 43.0595 133.531 43.4557 133.236L49.7779 128.494C50.4784 127.97 51.4675 128.111 51.9901 128.81C52.514 129.509 52.3734 130.499 51.6742 131.023L49.1448 132.92Z" fill="#fff"/>
      </g>
    </g>
    <path fill="url(#mdzcvpjgy__paint1_linear_5660_193545)" d="M0 0H108V145H0z"/>
  </g>
  <defs>
    <linearGradient id="mdzcvpjgy__paint0_linear_5660_193545" x1="28.5962" y1="128.28" x2="85.7059" y2="128.28" gradientUnits="userSpaceOnUse">
      <stop stop-color="#FFAD9F"/>
      <stop offset="1" stop-color="#F17964"/>
    </linearGradient>
    <linearGradient id="mdzcvpjgy__paint1_linear_5660_193545" x1="108" y1="72.5" x2="0" y2="72.5" gradientUnits="userSpaceOnUse">
      <stop stop-color="#E5EFFF" stop-opacity="0"/>
      <stop offset=".846353" stop-color="#E5EFFF"/>
    </linearGradient>
    <clipPath id="mdzcvpjgy__clip0_5660_193545">
      <path fill="#fff" d="M0 0H160V145H0z"/>
    </clipPath>
    <clipPath id="mdzcvpjgy__clip1_5660_193545">
      <path fill="#fff" transform="translate(12 12)" d="M0 0H203.991V147H0z"/>
    </clipPath>
  </defs>
</svg>
