<svg fill="none" xmlns="http://www.w3.org/2000/svg" viewBox="0 0 160 145" class="design-iconfont">
  <g clip-path="url(#rc09kr5mv__clip0_5680_5761)">
    <g opacity=".6" clip-path="url(#rc09kr5mv__clip1_5680_5761)">
      <path d="M86.6053 12H219.063C219.381 12 219.637 12.257 219.637 12.5742V153.383C219.637 153.699 219.381 153.957 219.063 153.957H86.6053C86.2881 153.957 86.0311 153.699 86.0311 153.383V12.5742C86.0311 12.257 86.2881 12 86.6053 12Z" fill="#EEF3F7"/>
      <path d="M143.701 26.7266H189.675V30.0671H143.701V26.7266Z" fill="#B5D1DE"/>
      <path d="M156.357 33.5508H189.675V36.8899H156.357V33.5508Z" fill="#B5D1DE"/>
      <path d="M150.638 91.8516H136.191V94.9567H150.638V91.8516Z" fill="#D8E5ED"/>
      <path d="M132.534 91.8516H128.396V94.9567H132.534V91.8516Z" fill="#D8E5ED"/>
      <path d="M160.935 91.8516H156.798V94.9567H160.935V91.8516Z" fill="#D8E5ED"/>
      <path d="M150.638 98.7266H136.191V101.832H150.638V98.7266Z" fill="#D8E5ED"/>
      <path d="M132.534 98.7266H128.396V101.832H132.534V98.7266Z" fill="#D8E5ED"/>
      <path d="M160.935 98.7266H156.798V101.832H160.935V98.7266Z" fill="#D8E5ED"/>
      <path d="M150.638 105.574H136.191V108.679H150.638V105.574Z" fill="#D8E5ED"/>
      <path d="M132.534 105.574H128.396V108.679H132.534V105.574Z" fill="#D8E5ED"/>
      <path d="M160.935 105.574H156.798V108.679H160.935V105.574Z" fill="#D8E5ED"/>
      <path fill-rule="evenodd" clip-rule="evenodd" d="M97.1222 47.6338C97.1222 47.5534 97.1854 47.4902 97.2657 47.4902H207.882C207.961 47.4902 208.025 47.5534 208.025 47.6338V82.8348C208.025 82.9138 207.961 82.9784 207.882 82.9784H97.2657C97.1854 82.9784 97.1222 82.9138 97.1222 82.8348V47.6338Z" fill="#D8E5ED"/>
      <path d="M115.144 75.4787C120.746 75.4787 125.288 71.1261 125.288 65.7586C125.288 60.3897 120.746 56.0371 115.144 56.0371C109.543 56.0371 105 60.3897 105 65.7586C105 71.1261 109.543 75.4787 115.144 75.4787Z" fill="#BAA1FA"/>
      <path fill-rule="evenodd" clip-rule="evenodd" d="M115.065 75.4794C115.065 73.4954 115.065 70.2554 115.065 65.7621C110.114 61.3895 107.639 59.2031 107.639 59.2031C106 60.9315 105 63.2341 105 65.7621C105 71.1282 109.507 75.4794 115.065 75.4794Z" fill="#859BE9"/>
      <path fill-rule="evenodd" clip-rule="evenodd" d="M115.068 65.6816C115.068 65.6816 115.068 68.9475 115.068 75.4778C120.714 75.4778 125.291 71.1008 125.291 65.7017C125.291 65.7017 121.883 65.696 115.068 65.6816Z" fill="#ED81FF"/>
      <path fill-rule="evenodd" clip-rule="evenodd" d="M131.392 56.1875H199.517V59.6242H131.392V56.1875Z" fill="#fff"/>
      <path fill-rule="evenodd" clip-rule="evenodd" d="M131.392 56.1875H158.63V59.6242H131.392V56.1875Z" fill="#BAA1FA"/>
      <path fill-rule="evenodd" clip-rule="evenodd" d="M131.422 70.8066H199.548V74.3926H131.422V70.8066Z" fill="#fff"/>
      <path fill-rule="evenodd" clip-rule="evenodd" d="M131.422 70.8066H165.51V74.3926H131.422V70.8066Z" fill="#859BE9"/>
      <path fill-rule="evenodd" clip-rule="evenodd" d="M131.422 63.7227H199.548V67.3101H131.422V63.7227Z" fill="#fff"/>
      <path fill-rule="evenodd" clip-rule="evenodd" d="M131.422 63.7227H173.341V67.3101H131.422V63.7227Z" fill="#ED81FF"/>
      <path d="M47.9016 48.1074H161.251V117.861H47.9016V48.1074Z" fill="#fff"/>
      <path d="M47.9016 48.1074H161.251V65.545H47.9016V48.1074Z" fill="#B69CF8"/>
      <path fill-rule="evenodd" clip-rule="evenodd" d="M49.2238 39.3867H159.926C165.464 39.3867 169.971 43.88 169.971 49.404V128.76C169.971 129.964 168.996 130.939 167.791 130.939H41.3627C40.1569 130.939 39.1821 129.964 39.1821 128.76V49.404C39.1821 43.88 43.6869 39.3867 49.2238 39.3867ZM47.9002 50.2854V115.68C47.9002 116.883 48.8764 117.859 50.0808 117.859H159.072C160.275 117.859 161.251 116.883 161.251 115.68V50.2854C161.251 49.0824 160.275 48.1062 159.072 48.1062H50.0808C48.8764 48.1062 47.9002 49.0824 47.9002 50.2854Z" fill="#fff"/>
      <path d="M172.151 126.58H37.0029C35.797 126.58 34.8223 127.555 34.8223 128.761C34.8223 133.573 38.737 137.487 43.5504 137.487H165.602C170.415 137.487 174.33 133.573 174.33 128.761C174.33 127.555 173.355 126.58 172.151 126.58Z" fill="#E9E0FF"/>
      <path d="M74.0586 59.0062H58.8002C57.5958 59.0062 56.6196 58.0315 56.6196 56.8256C56.6196 55.6212 57.5958 54.6465 58.8002 54.6465H74.0586C75.2631 54.6465 76.2392 55.6212 76.2392 56.8256C76.2392 58.0315 75.2631 59.0062 74.0586 59.0062Z" fill="#D8CEF1"/>
      <path d="M113.295 59.0062H111.116C109.911 59.0062 108.935 58.0315 108.935 56.8256C108.935 55.6212 109.911 54.6465 111.116 54.6465H113.295C114.501 54.6465 115.476 55.6212 115.476 56.8256C115.476 58.0315 114.501 59.0062 113.295 59.0062Z" fill="#fff"/>
      <path d="M124.195 59.0062H122.015C120.81 59.0062 119.835 58.0315 119.835 56.8256C119.835 55.6212 120.81 54.6465 122.015 54.6465H124.195C125.4 54.6465 126.374 55.6212 126.374 56.8256C126.374 58.0315 125.4 59.0062 124.195 59.0062Z" fill="#fff"/>
      <path d="M135.094 59.0062H132.913C131.709 59.0062 130.734 58.0315 130.734 56.8271C130.734 55.6212 131.709 54.6465 132.913 54.6465H135.094C136.298 54.6465 137.273 55.6212 137.273 56.8271C137.273 58.0315 136.298 59.0062 135.094 59.0062Z" fill="#fff"/>
      <path d="M145.993 59.0062H143.813C142.609 59.0062 141.633 58.0315 141.633 56.8256C141.633 55.6212 142.609 54.6465 143.813 54.6465H145.993C147.198 54.6465 148.173 55.6212 148.173 56.8256C148.173 58.0315 147.198 59.0062 145.993 59.0062Z" fill="#fff"/>
      <path d="M95.8574 111.32H58.8002C57.5958 111.32 56.6196 110.344 56.6196 109.14V74.2631C56.6196 73.0602 57.5958 72.084 58.8002 72.084H95.8574C97.0604 72.084 98.0366 73.0602 98.0366 74.2631V109.14C98.0366 110.344 97.0604 111.32 95.8574 111.32Z" fill="#ED81FF"/>
      <path d="M148.173 76.4437H106.756C105.552 76.4437 104.577 75.4676 104.577 74.2631C104.577 73.0587 105.552 72.084 106.756 72.084H148.173C149.378 72.084 150.352 73.0587 150.352 74.2631C150.352 75.4676 149.378 76.4437 148.173 76.4437Z" fill="#859BE9"/>
      <path d="M124.195 93.8812H106.756C105.552 93.8812 104.577 92.9065 104.577 91.7021C104.577 90.4977 105.552 89.5215 106.756 89.5215H124.195C125.4 89.5215 126.374 90.4977 126.374 91.7021C126.374 92.9065 125.4 93.8812 124.195 93.8812Z" fill="#D8E5ED"/>
      <path d="M124.195 102.602H106.756C105.552 102.602 104.577 101.627 104.577 100.423C104.577 99.2169 105.552 98.2422 106.756 98.2422H124.195C125.4 98.2422 126.374 99.2169 126.374 100.423C126.374 101.627 125.4 102.602 124.195 102.602Z" fill="#D8E5ED"/>
      <path d="M124.195 111.321H106.756C105.552 111.321 104.577 110.346 104.577 109.142C104.577 107.936 105.552 106.961 106.756 106.961H124.195C125.4 106.961 126.374 107.936 126.374 109.142C126.374 110.346 125.4 111.321 124.195 111.321Z" fill="#D8E5ED"/>
      <path d="M150.352 93.8812H132.913C131.709 93.8812 130.734 92.9065 130.734 91.7021C130.734 90.4977 131.709 89.5215 132.913 89.5215H150.352C151.557 89.5215 152.533 90.4977 152.533 91.7021C152.533 92.9065 151.557 93.8812 150.352 93.8812Z" fill="#D8E5ED"/>
      <path d="M150.352 102.602H132.913C131.709 102.602 130.734 101.627 130.734 100.423C130.734 99.2169 131.709 98.2422 132.913 98.2422H150.352C151.557 98.2422 152.533 99.2169 152.533 100.423C152.533 101.627 151.557 102.602 150.352 102.602Z" fill="#D8E5ED"/>
      <path d="M150.352 111.321H132.913C131.709 111.321 130.734 110.346 130.734 109.14C130.734 107.936 131.709 106.961 132.913 106.961H150.352C151.557 106.961 152.533 107.936 152.533 109.14C152.533 110.346 151.557 111.321 150.352 111.321Z" fill="#D8E5ED"/>
      <path d="M135.094 85.163H106.756C105.552 85.163 104.577 84.1883 104.577 82.9838C104.577 81.7794 105.552 80.8047 106.756 80.8047H135.094C136.298 80.8047 137.273 81.7794 137.273 82.9838C137.273 84.1883 136.298 85.163 135.094 85.163Z" fill="#B69CF8"/>
      <path d="M95.8575 130.94H113.296C115.704 130.94 117.656 128.987 117.656 126.58H91.4991C91.4991 128.987 93.4501 130.94 95.8575 130.94Z" fill="#859BE9"/>
      <path d="M38.7141 159.001C53.4672 159.001 65.4268 147.041 65.4268 132.287C65.4268 117.534 53.4672 105.574 38.7141 105.574C23.9595 105.574 12 117.534 12 132.287C12 147.041 23.9595 159.001 38.7141 159.001Z" fill="url(#rc09kr5mv__paint0_linear_5680_5761)"/>
      <path fill-rule="evenodd" clip-rule="evenodd" d="M45.0391 132.935H38.9524C38.1126 132.935 37.4307 132.256 37.4307 131.415V125.328C37.4307 124.487 38.1126 123.806 38.9524 123.806C39.7922 123.806 40.4741 124.487 40.4741 125.328V129.893H45.0391C45.8804 129.893 46.5608 130.572 46.5608 131.415C46.5608 132.256 45.8804 132.935 45.0391 132.935ZM38.9524 116.199C30.5631 116.199 23.7371 123.024 23.7371 131.415C23.7371 139.804 30.5631 146.629 38.9524 146.629C47.3418 146.629 54.1678 139.804 54.1678 131.415C54.1678 123.024 47.3418 116.199 38.9524 116.199Z" fill="#FFFFFD"/>
    </g>
    <path fill="url(#rc09kr5mv__paint1_linear_5680_5761)" d="M0 0H108V145H0z"/>
  </g>
  <defs>
    <linearGradient id="rc09kr5mv__paint0_linear_5680_5761" x1="11.9994" y1="132.287" x2="65.4262" y2="132.287" gradientUnits="userSpaceOnUse">
      <stop stop-color="#A185E9"/>
      <stop offset="1" stop-color="#ED81FF"/>
    </linearGradient>
    <linearGradient id="rc09kr5mv__paint1_linear_5680_5761" x1="108" y1="72.5" x2="0" y2="72.5" gradientUnits="userSpaceOnUse">
      <stop stop-color="#E5EFFF" stop-opacity="0"/>
      <stop offset=".846353" stop-color="#E5EFFF"/>
    </linearGradient>
    <clipPath id="rc09kr5mv__clip0_5680_5761">
      <path fill="#fff" d="M0 0H160V145H0z"/>
    </clipPath>
    <clipPath id="rc09kr5mv__clip1_5680_5761">
      <path fill="#fff" transform="translate(12 12)" d="M0 0H207.724V147H0z"/>
    </clipPath>
  </defs>
</svg>
