<svg fill="none" xmlns="http://www.w3.org/2000/svg" viewBox="0 0 160 145" class="design-iconfont">
  <g clip-path="url(#88qddo1cw__clip0_5680_7397)">
    <g opacity=".6" clip-path="url(#88qddo1cw__clip1_5680_7397)">
      <path d="M203.023 12.5H92.7734C90.2368 12.5 88.1797 14.5571 88.1797 17.0938V76.8125C88.1797 79.3491 90.2368 81.4062 92.7734 81.4062H203.023C205.56 81.4062 207.617 79.3491 207.617 76.8125V17.0938C207.617 14.5571 205.56 12.5 203.023 12.5Z" fill="#FBFBFB"/>
      <path fill-rule="evenodd" clip-rule="evenodd" d="M195.787 23.9844H156.819V28.838H195.787V23.9844ZM195.787 34.2126H99.6641V39.0662H195.787V34.2126ZM195.787 44.4395H99.6641V49.2931H195.787V44.4395ZM195.787 54.84H99.6641V59.6936H195.787V54.84ZM195.787 65.0683H99.6641V69.9219H195.787V65.0683Z" fill="#D8E5ED"/>
      <path d="M163.977 37.7656H21.5703C16.4957 37.7656 12.3828 41.8785 12.3828 46.9531V138.828C12.3828 143.903 16.4957 148.016 21.5703 148.016H163.977C169.051 148.016 173.164 143.903 173.164 138.828V46.9531C173.164 41.8785 169.051 37.7656 163.977 37.7656Z" fill="#fff"/>
      <path d="M154.789 56.1406H101.961C100.692 56.1406 99.6641 57.1685 99.6641 58.4375V81.4062C99.6641 82.6753 100.692 83.7031 101.961 83.7031H154.789C156.058 83.7031 157.086 82.6753 157.086 81.4062V58.4375C157.086 57.1685 156.058 56.1406 154.789 56.1406Z" fill="#D8E5ED"/>
      <path d="M122.821 64.6094L129.806 71.8589L136.789 79.1084H122.821H108.852L115.836 71.8589L122.821 64.6094Z" fill="url(#88qddo1cw__paint0_linear_5680_7397)"/>
      <path d="M137.821 69.4746L142.462 74.2909L147.103 79.1086H137.821H128.54L133.18 74.2909L137.821 69.4746Z" fill="url(#88qddo1cw__paint1_linear_5680_7397)"/>
      <path d="M146.75 67.625C148.652 67.625 150.195 66.0818 150.195 64.1797C150.195 62.2776 148.652 60.7344 146.75 60.7344C144.848 60.7344 143.305 62.2776 143.305 64.1797C143.305 66.0818 144.848 67.625 146.75 67.625Z" fill="url(#88qddo1cw__paint2_linear_5680_7397)"/>
      <path d="M46.8359 136.531C56.9838 136.531 65.2109 128.304 65.2109 118.156C65.2109 108.008 56.9838 99.7812 46.8359 99.7812C36.6881 99.7812 28.4609 108.008 28.4609 118.156C28.4609 128.304 36.6881 136.531 46.8359 136.531ZM46.8359 127.83C41.4943 127.83 37.1632 123.499 37.1632 118.156C37.1632 112.813 41.4943 108.482 46.8359 108.482C52.1776 108.482 56.5087 112.813 56.5087 118.156C56.5087 123.499 52.1776 127.83 46.8359 127.83Z" fill="#B5D1DE"/>
      <path fill-rule="evenodd" clip-rule="evenodd" d="M28.4609 58.4375C28.4609 57.1685 29.4888 56.1406 30.7578 56.1406H85.8828C87.1518 56.1406 88.1797 57.1685 88.1797 58.4375V81.4062C88.1797 82.6753 87.1518 83.7031 85.8828 83.7031H30.7578C29.4888 83.7031 28.4609 82.6753 28.4609 81.4062V58.4375Z" fill="#D8E5ED"/>
      <path fill-rule="evenodd" clip-rule="evenodd" d="M43.7179 77.6788C39.4831 77.6788 36.0521 74.2464 36.0521 70.0115C36.0521 65.7781 39.4831 62.3457 43.7179 62.3457C47.9514 62.3457 51.3838 65.7781 51.3838 70.0115C51.3838 74.2464 47.9514 77.6788 43.7179 77.6788ZM58.685 62.3457H75.844V65.6317H58.685V62.3457ZM58.685 74.3928H75.844V77.6788H58.685V74.3928ZM58.685 68.3693H75.844V71.6552H58.685V68.3693Z" fill="#fff"/>
      <path d="M45.8526 66.8957C46.3465 66.3646 47.1762 66.3344 47.7074 66.8268C48.2385 67.3207 48.2701 68.1504 47.7777 68.6816L43.8185 72.9466C43.3663 73.4361 42.6184 73.5064 42.0815 73.1131L39.3338 71.1019C38.7496 70.6727 38.6218 69.8515 39.051 69.2673C39.4788 68.683 40.2999 68.5552 40.8857 68.983L42.6901 70.3052L45.8526 66.8957Z" fill="#D8E5ED"/>
      <path fill-rule="evenodd" clip-rule="evenodd" d="M81.2891 121.367H95.0703V134.234H81.2891V121.367Z" fill="#D8E5ED"/>
      <path fill-rule="evenodd" clip-rule="evenodd" d="M101.961 110.561H115.742V134.234H101.961V110.561Z" fill="#FFE5BE"/>
      <path fill-rule="evenodd" clip-rule="evenodd" d="M122.633 99.752H136.414V134.234H122.633V99.752Z" fill="#D8E5ED"/>
      <path fill-rule="evenodd" clip-rule="evenodd" d="M143.305 92.8906H157.086V134.234H143.305V92.8906Z" fill="#FECD8D"/>
      <path d="M161.78 157.403C177.057 157.403 189.442 145.018 189.442 129.741C189.442 114.463 177.057 102.078 161.78 102.078C146.502 102.078 134.117 114.463 134.117 129.741C134.117 145.018 146.502 157.403 161.78 157.403Z" fill="url(#88qddo1cw__paint3_linear_5680_7397)"/>
      <path d="M171.454 132.191H163.724V128.326H171.454C172.517 128.326 173.387 127.456 173.387 126.392C173.387 125.33 172.517 124.46 171.454 124.46H166.044L171.358 119.146C172.13 118.372 172.13 117.212 171.358 116.44C170.584 115.666 169.426 115.666 168.652 116.44L161.792 123.3L154.93 116.44C154.157 115.666 152.998 115.666 152.225 116.44C151.451 117.212 151.451 118.372 152.225 119.146L157.54 124.46H152.128C151.065 124.46 150.195 125.33 150.195 126.392C150.195 127.456 151.065 128.326 152.128 128.326H159.858V132.191H152.128C151.065 132.191 150.195 133.06 150.195 134.123C150.195 135.187 151.065 136.056 152.128 136.056H159.858V143.787C159.858 144.849 160.728 145.719 161.792 145.719C162.854 145.719 163.724 144.849 163.724 143.787V136.056H171.454C172.517 136.056 173.387 135.187 173.387 134.123C173.387 133.06 172.517 132.191 171.454 132.191Z" fill="#fff"/>
    </g>
    <path fill="url(#88qddo1cw__paint4_linear_5680_7397)" d="M0 0H108V145H0z"/>
  </g>
  <defs>
    <linearGradient id="88qddo1cw__paint0_linear_5680_7397" x1="108.852" y1="71.8583" x2="136.79" y2="71.8583" gradientUnits="userSpaceOnUse">
      <stop stop-color="#88EEBE"/>
      <stop offset="1" stop-color="#70D1D6"/>
    </linearGradient>
    <linearGradient id="88qddo1cw__paint1_linear_5680_7397" x1="128.54" y1="74.2916" x2="147.103" y2="74.2916" gradientUnits="userSpaceOnUse">
      <stop stop-color="#88EEBE"/>
      <stop offset="1" stop-color="#70D1D6"/>
    </linearGradient>
    <linearGradient id="88qddo1cw__paint2_linear_5680_7397" x1="143.304" y1="64.1801" x2="150.196" y2="64.1801" gradientUnits="userSpaceOnUse">
      <stop stop-color="#FDC67A"/>
      <stop offset="1" stop-color="#FEDAB5"/>
    </linearGradient>
    <linearGradient id="88qddo1cw__paint3_linear_5680_7397" x1="134.116" y1="129.74" x2="189.442" y2="129.74" gradientUnits="userSpaceOnUse">
      <stop stop-color="#FDC570"/>
      <stop offset="1" stop-color="#FAB245"/>
    </linearGradient>
    <linearGradient id="88qddo1cw__paint4_linear_5680_7397" x1="108" y1="72.5" x2="0" y2="72.5" gradientUnits="userSpaceOnUse">
      <stop stop-color="#E5EFFF" stop-opacity="0"/>
      <stop offset=".846353" stop-color="#E5EFFF"/>
    </linearGradient>
    <clipPath id="88qddo1cw__clip0_5680_7397">
      <path fill="#fff" d="M0 0H160V145H0z"/>
    </clipPath>
    <clipPath id="88qddo1cw__clip1_5680_7397">
      <path fill="#fff" transform="translate(12.3828 12.5)" d="M0 0H195.234V147H0z"/>
    </clipPath>
  </defs>
</svg>
