<svg fill="none" xmlns="http://www.w3.org/2000/svg" viewBox="0 0 35 35" class="design-iconfont">
  <g clip-path="url(#hjeozxujl__clip0_5628_36427)" fill="#fff" opacity=".2">
    <path d="M21.5465 40.3099C16.5094 40.3099 11.7768 38.3524 8.21389 34.8014C4.65098 31.2505 2.6875 26.5238 2.6875 21.4987C2.6875 16.4736 4.65098 11.747 8.21389 8.19599C11.7768 4.64501 16.5094 2.6875 21.5465 2.6875C24.244 2.6875 26.852 3.24253 29.293 4.34661C30.1941 4.75244 30.6 5.81474 30.1941 6.71592C29.7883 7.61709 28.726 8.02291 27.8248 7.61709C25.8494 6.72785 23.7367 6.27428 21.5465 6.27428C17.4703 6.27428 13.6329 7.85581 10.7503 10.7324C7.86774 13.609 6.28025 17.4285 6.28025 21.4927C6.28025 25.557 7.86774 29.3825 10.7503 32.2531C13.6329 35.1297 17.4703 36.7112 21.5465 36.7112C25.3541 36.7112 29.0005 35.3087 31.8115 32.7544C34.6045 30.224 36.3531 26.9236 36.7351 23.1936C36.8365 22.2089 37.7138 21.4927 38.6986 21.5882C39.6833 21.6897 40.3994 22.567 40.304 23.5517C39.8325 28.165 37.6721 32.277 34.2225 35.4042C30.7492 38.5732 26.2433 40.3099 21.5465 40.3099Z"/>
    <path d="M38.4837 9.30626C37.7854 8.60204 36.6515 8.60204 35.9473 9.30029L21.3554 23.8503L15.0293 17.5421C14.3251 16.8439 13.1912 16.8439 12.4929 17.5481C11.7947 18.2523 11.7947 19.3863 12.4989 20.0845L20.0902 27.6579C20.4423 28.0101 20.8959 28.1831 21.3554 28.1831C21.815 28.1831 22.2745 28.0101 22.6266 27.6579L38.4777 11.8427C39.1819 11.1384 39.1819 10.0045 38.4837 9.30626Z"/>
  </g>
  <defs>
    <clipPath id="hjeozxujl__clip0_5628_36427">
      <path d="M0 0H35V29C35 32.3137 32.3137 35 29 35H0V0Z" fill="#fff"/>
    </clipPath>
  </defs>
</svg>
