<svg width="640" height="420" viewBox="0 0 640 420" fill="none" xmlns="http://www.w3.org/2000/svg">
<path d="M365 29L574 49V370L365 390V29Z" fill="url(#paint0_linear_2297_53572)"/>
<g filter="url(#filter0_d_2297_53572)">
<path d="M68 41C68 34.3726 73.3726 29 80 29H382C388.627 29 394 34.3726 394 41V378C394 384.627 388.627 390 382 390H80C73.3726 390 68 384.627 68 378V41Z" fill="white"/>
</g>
<rect x="203.5" y="318.5" width="152" height="51" rx="11.5" fill="#E6EFFF"/>
<rect x="203.5" y="318.5" width="152" height="51" rx="11.5" stroke="#2475FC"/>
<path d="M244.34 334.38L246.32 335.32C245.88 336.74 245.3 338.1 244.58 339.4V353.12H242.46V342.64C241.92 343.32 241.34 344 240.74 344.64L240.06 342.4C241.98 340.14 243.42 337.46 244.34 334.38ZM247.04 335.38H256.8V342.14H252.94V343.72H258.46V345.76H254.76C255.74 347.48 257.1 348.98 258.86 350.28L257.5 352.1C255.72 350.4 254.24 348.28 253.08 345.76H252.94V353.1H250.86V345.76H250.7C249.5 348.48 247.98 350.6 246.18 352.12L245 350.24C246.64 349.08 247.98 347.6 249.04 345.76H245.54V343.72H250.86V342.14H247.04V335.38ZM254.76 340.14V337.38H249.08V340.14H254.76ZM261.06 336.3H266.26C266.48 335.68 266.68 335.06 266.86 334.42L268.98 334.68C268.82 335.24 268.66 335.78 268.48 336.3H278.38V338.34H267.7C266.94 340.02 266.04 341.6 264.96 343.04V353.1H262.9V345.46C262.44 345.94 261.98 346.38 261.5 346.82L260.2 345.14C262.44 343.18 264.16 340.9 265.4 338.34H261.06V336.3ZM266.2 345.76H271.78V344.22C272.82 343.64 273.8 342.96 274.76 342.2H267.72V340.28H277.36V342.2C276.34 343.2 275.18 344.16 273.86 345.06V345.76H278.64V347.78H273.86V350.82C273.86 352.28 273.14 353.02 271.7 353.02H269.24L268.7 351.06C269.38 351.1 270.1 351.12 270.88 351.12C271.48 351.12 271.78 350.8 271.78 350.18V347.78H266.2V345.76ZM282.94 334.84C284.22 335.8 285.3 336.76 286.18 337.72L284.76 339.16C283.98 338.24 282.9 337.24 281.52 336.2L282.94 334.84ZM280.28 340.52H284.9V348.82C285.48 348.3 286.1 347.74 286.76 347.12L287.34 349.32C286.02 350.52 284.62 351.58 283.14 352.54L282.34 350.66C282.68 350.36 282.86 349.98 282.86 349.54V342.52H280.28V340.52ZM287.44 342.92H297.2V344.82C296.64 346.54 295.72 348.04 294.44 349.3C295.68 350.1 297.18 350.8 298.96 351.42L297.84 353.22C295.88 352.42 294.22 351.54 292.9 350.56C291.34 351.66 289.44 352.54 287.16 353.2L286 351.44C288.06 350.84 289.8 350.08 291.24 349.16C289.96 347.88 289.06 346.48 288.58 344.92H287.44V342.92ZM290.54 344.92C290.98 346.06 291.7 347.1 292.74 348.02C293.76 347.1 294.54 346.08 295.1 344.92H290.54ZM288.8 335.18H296V339.32C296 339.76 296.24 340 296.74 340H298.46V341.9H296.18C294.68 341.9 293.94 341.2 293.94 339.8V337.14H290.86V337.68C290.86 339.76 289.78 341.38 287.66 342.5L286.26 340.9C287.94 340.2 288.8 339.2 288.8 337.9V335.18ZM300.84 340.12H308.4C308.44 339.84 308.46 339.56 308.48 339.28H302.08V335.2H316.92V339.28H310.62L310.5 340.12H318.16V341.66H310.24L310.06 342.48H315.72V351.16H318.52V352.76H300.48V351.16H303.28V342.48H308L308.16 341.66H300.84V340.12ZM305.34 351.16H313.68V350.22H305.34V351.16ZM305.34 349H313.68V348.1H305.34V349ZM305.34 346.86H313.68V345.96H305.34V346.86ZM305.34 344.74H313.68V343.86H305.34V344.74ZM314.96 337.86V336.7H312.62V337.86H314.96ZM310.76 337.86V336.7H308.24V337.86H310.76ZM306.38 337.86V336.7H304.04V337.86H306.38Z" fill="#2475FC"/>
<g filter="url(#filter1_d_2297_53572)">
<mask id="path-5-outside-1_2297_53572" maskUnits="userSpaceOnUse" x="322" y="339" width="28" height="34" fill="black">
<rect fill="white" x="322" y="339" width="28" height="34"/>
<path fill-rule="evenodd" clip-rule="evenodd" d="M330.645 358.324L329.109 355.977C328.06 354.375 325.826 353.79 324.117 354.669L324.515 354.464C324.091 354.682 323.888 355.225 324.063 355.677L326.189 361.178C326.526 362.05 327.387 363.283 328.1 363.903C328.1 363.903 332.377 367.443 332.377 368.77V370.451H339.307L341.039 366.986L342.771 370.451H344.504V368.77C344.504 367.443 347.118 363.262 347.118 363.262C347.599 362.45 348 361.018 348 360.068V353.078C347.969 351.53 346.653 350.276 345.03 350.276C344.218 350.276 343.56 350.903 343.56 351.677V352.237C343.56 350.69 342.245 349.436 340.622 349.436C339.81 349.436 339.152 350.063 339.152 350.837V351.397C339.152 349.849 337.836 348.595 336.213 348.595C335.401 348.595 334.743 349.222 334.743 349.996V350.556C334.743 350.307 334.717 350.11 334.666 349.953L334.217 342.735C334.157 341.758 333.334 341 332.377 341C331.414 341 330.645 341.775 330.645 342.732V349.662V358.324ZM342.803 356.592H344.535V363.521H342.803V356.592ZM339.338 356.592H341.071V363.521H339.338V356.592ZM335.873 356.592H337.606V363.521H335.873V356.592Z"/>
</mask>
<path fill-rule="evenodd" clip-rule="evenodd" d="M330.645 358.324L329.109 355.977C328.06 354.375 325.826 353.79 324.117 354.669L324.515 354.464C324.091 354.682 323.888 355.225 324.063 355.677L326.189 361.178C326.526 362.05 327.387 363.283 328.1 363.903C328.1 363.903 332.377 367.443 332.377 368.77V370.451H339.307L341.039 366.986L342.771 370.451H344.504V368.77C344.504 367.443 347.118 363.262 347.118 363.262C347.599 362.45 348 361.018 348 360.068V353.078C347.969 351.53 346.653 350.276 345.03 350.276C344.218 350.276 343.56 350.903 343.56 351.677V352.237C343.56 350.69 342.245 349.436 340.622 349.436C339.81 349.436 339.152 350.063 339.152 350.837V351.397C339.152 349.849 337.836 348.595 336.213 348.595C335.401 348.595 334.743 349.222 334.743 349.996V350.556C334.743 350.307 334.717 350.11 334.666 349.953L334.217 342.735C334.157 341.758 333.334 341 332.377 341C331.414 341 330.645 341.775 330.645 342.732V349.662V358.324ZM342.803 356.592H344.535V363.521H342.803V356.592ZM339.338 356.592H341.071V363.521H339.338V356.592ZM335.873 356.592H337.606V363.521H335.873V356.592Z" fill="white"/>
<path d="M330.645 358.324L329.195 359.273L332.377 364.134V358.324H330.645ZM329.109 355.977L330.558 355.028L329.109 355.977ZM324.063 355.677L322.447 356.302V356.302L324.063 355.677ZM326.189 361.178L327.805 360.553L326.189 361.178ZM328.1 363.903L326.964 365.211L326.979 365.224L326.995 365.237L328.1 363.903ZM332.377 370.451H330.645V372.183H332.377V370.451ZM339.307 370.451V372.183H340.377L340.856 371.225L339.307 370.451ZM341.039 366.986L342.589 366.211L341.039 363.112L339.49 366.211L341.039 366.986ZM342.771 370.451L341.222 371.225L341.701 372.183H342.771V370.451ZM344.504 370.451V372.183H346.236V370.451H344.504ZM347.118 363.262L348.587 364.181L348.598 364.163L348.608 364.145L347.118 363.262ZM348 353.078H349.732V353.06L349.732 353.043L348 353.078ZM334.666 349.953L332.936 350.06L332.95 350.282L333.019 350.493L334.666 349.953ZM334.217 342.735L332.488 342.842V342.842L334.217 342.735ZM330.645 342.732H328.912H330.645ZM344.535 356.592H346.268V354.859H344.535V356.592ZM344.535 363.521V365.254H346.268V363.521H344.535ZM342.803 363.521H341.071V365.254H342.803V363.521ZM341.071 356.592H342.803V354.859H341.071V356.592ZM341.071 363.521V365.254H342.803V363.521H341.071ZM339.338 363.521H337.606V365.254H339.338V363.521ZM337.606 356.592H339.338V354.859H337.606L337.606 356.592ZM337.606 363.521V365.254H339.338V363.521H337.606ZM335.873 363.521H334.141V365.254H335.873V363.521ZM332.094 357.375L330.558 355.028L327.659 356.926L329.195 359.273L332.094 357.375ZM330.558 355.028C329.021 352.679 325.817 351.847 323.325 353.128L324.909 356.209C325.835 355.733 327.099 356.07 327.659 356.926L330.558 355.028ZM324.909 356.209L325.307 356.005L323.723 352.923L323.325 353.128L324.909 356.209ZM323.723 352.923C322.495 353.555 321.96 355.041 322.447 356.302L325.678 355.053C325.757 355.257 325.74 355.448 325.687 355.589C325.635 355.73 325.518 355.896 325.307 356.005L323.723 352.923ZM322.447 356.302L324.573 361.802L327.805 360.553L325.678 355.053L322.447 356.302ZM324.573 361.802C325.011 362.935 326.035 364.404 326.964 365.211L329.236 362.595C328.738 362.163 328.041 361.165 327.805 360.553L324.573 361.802ZM328.1 363.903C326.995 365.237 326.995 365.237 326.995 365.237C326.995 365.237 326.995 365.237 326.995 365.237C326.995 365.237 326.995 365.237 326.995 365.237C326.995 365.237 326.996 365.238 326.996 365.238C326.998 365.24 327 365.241 327.004 365.244C327.01 365.25 327.021 365.259 327.035 365.271C327.064 365.295 327.107 365.331 327.162 365.378C327.272 365.472 327.432 365.609 327.624 365.778C328.01 366.117 328.52 366.579 329.024 367.074C329.536 367.578 330.007 368.082 330.338 368.51C330.505 368.725 330.606 368.883 330.658 368.982C330.728 369.117 330.645 369.02 330.645 368.77H334.109C334.109 368.189 333.892 367.691 333.729 367.378C333.547 367.03 333.314 366.694 333.079 366.39C332.608 365.781 332.01 365.151 331.453 364.603C330.888 364.048 330.328 363.542 329.912 363.176C329.703 362.992 329.529 362.842 329.406 362.737C329.344 362.685 329.295 362.644 329.261 362.615C329.244 362.601 329.23 362.59 329.221 362.582C329.216 362.578 329.212 362.575 329.21 362.572C329.208 362.571 329.207 362.57 329.206 362.57C329.206 362.569 329.205 362.569 329.205 362.569C329.205 362.569 329.205 362.569 329.205 362.569C329.205 362.568 329.205 362.568 328.1 363.903ZM330.645 368.77V370.451H334.109V368.77H330.645ZM332.377 372.183H339.307V368.718H332.377V372.183ZM340.856 371.225L342.589 367.761L339.49 366.211L337.757 369.676L340.856 371.225ZM339.49 367.761L341.222 371.225L344.321 369.676L342.589 366.211L339.49 367.761ZM342.771 372.183H344.504V368.718H342.771V372.183ZM346.236 370.451V368.77H342.771V370.451H346.236ZM346.236 368.77C346.236 368.832 346.255 368.621 346.508 368.025C346.722 367.518 347.02 366.925 347.335 366.341C347.648 365.763 347.962 365.221 348.199 364.821C348.317 364.622 348.415 364.46 348.484 364.348C348.518 364.293 348.544 364.25 348.562 364.221C348.57 364.207 348.577 364.196 348.581 364.19C348.583 364.186 348.585 364.184 348.586 364.182C348.586 364.182 348.587 364.181 348.587 364.181C348.587 364.181 348.587 364.181 348.587 364.181C348.587 364.181 348.587 364.181 348.587 364.181C348.587 364.181 348.587 364.181 347.118 363.262C345.649 362.344 345.649 362.344 345.649 362.344C345.649 362.344 345.649 362.345 345.648 362.345C345.648 362.345 345.648 362.345 345.648 362.346C345.647 362.346 345.647 362.347 345.646 362.349C345.644 362.351 345.642 362.355 345.639 362.359C345.634 362.369 345.626 362.382 345.615 362.398C345.595 362.432 345.565 362.48 345.527 362.541C345.453 362.663 345.347 362.838 345.22 363.052C344.967 363.478 344.628 364.063 344.286 364.696C343.948 365.323 343.592 366.024 343.317 366.674C343.079 367.236 342.771 368.045 342.771 368.77H346.236ZM348.608 364.145C348.951 363.566 349.223 362.851 349.409 362.18C349.595 361.51 349.732 360.751 349.732 360.068H346.268C346.268 360.335 346.205 360.767 346.07 361.254C345.935 361.739 345.766 362.146 345.627 362.38L348.608 364.145ZM349.732 360.068V353.078H346.268V360.068H349.732ZM349.732 353.043C349.68 350.497 347.54 348.544 345.03 348.544V352.009C345.767 352.009 346.257 352.564 346.268 353.113L349.732 353.043ZM345.03 348.544C343.34 348.544 341.828 349.87 341.828 351.677H345.293C345.293 351.796 345.239 351.889 345.186 351.94C345.134 351.99 345.075 352.009 345.03 352.009V348.544ZM341.828 351.677V352.237H345.293V351.677H341.828ZM345.293 352.237C345.293 349.656 343.123 347.703 340.622 347.703V351.168C341.367 351.168 341.828 351.723 341.828 352.237H345.293ZM340.622 347.703C338.932 347.703 337.419 349.029 337.419 350.837H340.884C340.884 350.955 340.831 351.049 340.778 351.1C340.726 351.149 340.667 351.168 340.622 351.168V347.703ZM337.419 350.837V351.397H340.884V350.837H337.419ZM340.884 351.397C340.884 348.815 338.714 346.863 336.213 346.863V350.327C336.958 350.327 337.419 350.883 337.419 351.397H340.884ZM336.213 346.863C334.523 346.863 333.011 348.188 333.011 349.996H336.476C336.476 350.115 336.423 350.208 336.369 350.259C336.317 350.309 336.258 350.327 336.213 350.327V346.863ZM333.011 349.996V350.556H336.476V349.996H333.011ZM336.476 350.556C336.476 350.197 336.439 349.802 336.312 349.413L333.019 350.493C333.006 350.451 333.004 350.432 333.006 350.444C333.008 350.457 333.011 350.492 333.011 350.556H336.476ZM336.395 349.846L335.946 342.627L332.488 342.842L332.936 350.06L336.395 349.846ZM335.946 342.627C335.829 340.732 334.243 339.268 332.377 339.268V342.732C332.392 342.732 332.42 342.738 332.449 342.766C332.477 342.792 332.487 342.819 332.488 342.842L335.946 342.627ZM332.377 339.268C330.453 339.268 328.912 340.823 328.912 342.732H332.377V342.732V339.268ZM328.912 342.732V349.662H332.377V342.732H328.912ZM328.912 349.662V358.324H332.377V349.662H328.912ZM342.803 358.324H344.535V354.859L342.803 354.859V358.324ZM342.803 356.592V363.521H346.268V356.592H342.803ZM344.535 361.789H342.803V365.254H344.535V361.789ZM344.535 363.521V356.592H341.071V363.521H344.535ZM339.338 358.324H341.071V354.859L339.338 354.859V358.324ZM339.338 356.592V363.521H342.803V356.592H339.338ZM341.071 361.789H339.338V365.254H341.071V361.789ZM341.071 363.521V356.592H337.606V363.521H341.071ZM335.873 358.324H337.606L337.606 354.859L335.873 354.859V358.324ZM335.873 356.592V363.521H339.338V356.592H335.873ZM337.606 361.789H335.873V365.254H337.606V361.789ZM337.606 363.521V356.592H334.141V363.521H337.606Z" fill="black" fill-opacity="0.8" mask="url(#path-5-outside-1_2297_53572)"/>
</g>
<rect x="109" y="184" width="75" height="30" rx="8" fill="#D8DDE6"/>
<rect x="109" y="230" width="75" height="30" rx="8" fill="#D8DDE6"/>
<rect x="203.5" y="184.5" width="152" height="29" rx="7.5" stroke="#D8DDE6"/>
<rect x="203.5" y="230.5" width="152" height="71" rx="7.5" stroke="#D8DDE6"/>
<rect x="109" y="142" width="75" height="30" rx="8" fill="#D8DDE6"/>
<rect x="203.5" y="142.5" width="152" height="29" rx="7.5" stroke="#D8DDE6"/>
<path d="M340 155L336 159L332 155" stroke="#7A8699" stroke-width="1.3" stroke-linecap="round" stroke-linejoin="round"/>
<g clip-path="url(#clip0_2297_53572)">
<path d="M224 161.834C227.222 161.834 229.833 159.222 229.833 156C229.833 152.779 227.222 150.167 224 150.167C220.778 150.167 218.167 152.779 218.167 156C218.167 159.222 220.778 161.834 224 161.834Z" stroke="#999999" stroke-width="1.16667" stroke-linejoin="round"/>
<path d="M224.003 152.501L224.002 156.004L226.475 158.477" stroke="#999999" stroke-width="1.16667" stroke-linecap="round" stroke-linejoin="round"/>
</g>
<g clip-path="url(#clip1_2297_53572)">
<path d="M116 75.6663C117.841 75.6663 119.507 74.9201 120.714 73.7137C121.92 72.5073 122.666 70.8406 122.666 68.9997C122.666 67.1587 121.92 65.4921 120.714 64.2856C119.507 63.0792 117.841 62.333 116 62.333C114.159 62.333 112.492 63.0792 111.286 64.2856C110.079 65.4921 109.333 67.1587 109.333 68.9997C109.333 70.8406 110.079 72.5073 111.286 73.7137C112.492 74.9201 114.159 75.6663 116 75.6663Z" fill="#FF9900" stroke="#FF9900" stroke-width="1.33333" stroke-linejoin="round"/>
<path d="M113.333 69L115.333 71L119.333 67" stroke="white" stroke-width="1.33333" stroke-linecap="round" stroke-linejoin="round"/>
</g>
<path d="M140.704 71.64V76.648H139.584V75.96H132.704V76.648H131.584V71.64H140.704ZM132.704 74.92H139.584V72.68H132.704V74.92ZM133.984 64.504L135.104 64.744C134.864 65.112 134.624 65.464 134.368 65.8H140.272V66.728C139.616 67.64 138.672 68.44 137.44 69.144C139.184 69.832 141.136 70.248 143.296 70.408L143.04 71.448C140.48 71.256 138.224 70.696 136.24 69.736C134.352 70.6 131.968 71.272 129.088 71.768L128.656 70.744C131.232 70.328 133.376 69.8 135.072 69.128C134.256 68.648 133.504 68.104 132.816 67.496C132.192 68.056 131.52 68.552 130.816 69L130.08 68.104C131.664 67.192 132.96 65.992 133.984 64.504ZM136.256 68.616C137.36 68.072 138.24 67.448 138.896 66.776H133.536L133.488 66.824C134.336 67.528 135.264 68.12 136.256 68.616ZM142.496 63.128V66.152H141.328V64.168H130.672V66.152H129.504V63.128H135.36C135.168 62.712 134.976 62.344 134.768 62.008L136.032 61.816C136.224 62.2 136.4 62.648 136.592 63.128H142.496ZM156.784 65.032H147.648V68.152H156.784V65.032ZM147.648 69.272C147.568 72.136 146.816 74.6 145.376 76.664L144.528 75.896C145.824 74.104 146.48 71.768 146.512 68.904V63.896H151.728C151.44 63.224 151.136 62.6 150.8 62.024L152.032 61.832C152.32 62.44 152.608 63.128 152.896 63.896H157.952V69.272H147.648ZM163.056 61.976H164.192V65H166.048V66.104H164.192V67.336C164.976 68.136 165.76 69.032 166.544 70.008L165.888 70.984C165.232 69.976 164.672 69.176 164.192 68.568V76.584H163.056V68.616C162.544 70.12 161.888 71.496 161.088 72.744L160.592 71.496C161.744 69.928 162.56 68.12 163.056 66.104H161.104V65H163.056V61.976ZM167.776 69.208L168.832 69.448C168.32 71.688 167.568 73.608 166.608 75.24L165.616 74.6C166.608 72.984 167.328 71.192 167.776 69.208ZM173.568 69.128C174.24 70.936 174.816 72.872 175.296 74.92L174.256 75.384C173.728 73.16 173.152 71.192 172.528 69.464L173.568 69.128ZM169.984 76.424H168.352L168.128 75.352C168.64 75.384 169.12 75.416 169.584 75.416C170.016 75.416 170.24 75.176 170.24 74.712V67.88H166.336V66.776H175.312V67.88H171.392V75C171.392 75.944 170.912 76.424 169.984 76.424ZM167.184 62.888H174.48V63.976H167.184V62.888ZM187.744 71.096L188.864 71.4C188.448 72.728 187.936 73.928 187.328 74.984H190.768V76.056H177.264V74.984H186.096C186.72 73.896 187.264 72.6 187.744 71.096ZM180.096 71.288C180.56 72.152 180.976 73.16 181.344 74.28L180.304 74.552C179.984 73.528 179.568 72.552 179.056 71.624L180.096 71.288ZM183.792 70.968C184.16 71.896 184.496 72.952 184.784 74.152L183.76 74.424C183.488 73.336 183.152 72.296 182.736 71.304L183.792 70.968ZM179.856 69.432H188.16V70.456H179.856V69.432ZM179.216 64.328C178.8 65.128 178.336 65.864 177.808 66.536L176.816 65.912C177.808 64.696 178.528 63.352 178.976 61.88L180.096 62.12C179.968 62.536 179.824 62.92 179.68 63.304H183.888V64.328H181.584C181.84 64.888 182.064 65.416 182.224 65.896L181.168 66.28C180.96 65.608 180.72 64.952 180.432 64.328H179.216ZM185.952 64.328C185.664 64.888 185.36 65.416 185.024 65.896L184.048 65.272C184.8 64.248 185.344 63.128 185.68 61.88L186.784 62.12C186.656 62.536 186.528 62.92 186.4 63.304H191.072V64.328H188.528C188.88 64.936 189.152 65.496 189.36 66.04L188.304 66.424C188.016 65.704 187.696 65 187.344 64.328H185.952ZM183.632 65.912H184.368C186.352 67.368 188.656 68.52 191.264 69.352L190.704 70.344C188.08 69.448 185.856 68.296 184 66.856C182.304 68.2 180.064 69.352 177.28 70.328L176.736 69.336C179.488 68.408 181.792 67.272 183.632 65.912Z" fill="#3A4559"/>
<g clip-path="url(#clip2_2297_53572)">
<path d="M244 75.6663C245.841 75.6663 247.508 74.9201 248.714 73.7137C249.92 72.5073 250.667 70.8406 250.667 68.9997C250.667 67.1587 249.92 65.4921 248.714 64.2856C247.508 63.0792 245.841 62.333 244 62.333C242.159 62.333 240.492 63.0792 239.286 64.2856C238.079 65.4921 237.333 67.1587 237.333 68.9997C237.333 70.8406 238.079 72.5073 239.286 73.7137C240.492 74.9201 242.159 75.6663 244 75.6663Z" fill="#D8DDE6" stroke="#D8DDE6" stroke-width="1.33333" stroke-linejoin="round"/>
<path d="M241.333 69L243.333 71L247.333 67" stroke="white" stroke-width="1.33333" stroke-linecap="round" stroke-linejoin="round"/>
</g>
<path d="M268.704 71.64V76.648H267.584V75.96H260.704V76.648H259.584V71.64H268.704ZM260.704 74.92H267.584V72.68H260.704V74.92ZM261.984 64.504L263.104 64.744C262.864 65.112 262.624 65.464 262.368 65.8H268.272V66.728C267.616 67.64 266.672 68.44 265.44 69.144C267.184 69.832 269.136 70.248 271.296 70.408L271.04 71.448C268.48 71.256 266.224 70.696 264.24 69.736C262.352 70.6 259.968 71.272 257.088 71.768L256.656 70.744C259.232 70.328 261.376 69.8 263.072 69.128C262.256 68.648 261.504 68.104 260.816 67.496C260.192 68.056 259.52 68.552 258.816 69L258.08 68.104C259.664 67.192 260.96 65.992 261.984 64.504ZM264.256 68.616C265.36 68.072 266.24 67.448 266.896 66.776H261.536L261.488 66.824C262.336 67.528 263.264 68.12 264.256 68.616ZM270.496 63.128V66.152H269.328V64.168H258.672V66.152H257.504V63.128H263.36C263.168 62.712 262.976 62.344 262.768 62.008L264.032 61.816C264.224 62.2 264.4 62.648 264.592 63.128H270.496ZM284.784 65.032H275.648V68.152H284.784V65.032ZM275.648 69.272C275.568 72.136 274.816 74.6 273.376 76.664L272.528 75.896C273.824 74.104 274.48 71.768 274.512 68.904V63.896H279.728C279.44 63.224 279.136 62.6 278.8 62.024L280.032 61.832C280.32 62.44 280.608 63.128 280.896 63.896H285.952V69.272H275.648ZM292.688 66.504C293.92 66.504 294.912 66.92 295.648 67.784C296.352 68.6 296.704 69.624 296.704 70.872C296.704 72.104 296.352 73.128 295.664 73.928C294.912 74.792 293.92 75.224 292.688 75.224C291.44 75.224 290.464 74.792 289.728 73.928C289.024 73.128 288.672 72.104 288.672 70.872C288.672 69.624 289.024 68.6 289.728 67.784C290.464 66.92 291.44 66.504 292.688 66.504ZM292.688 67.576C291.808 67.576 291.12 67.912 290.64 68.584C290.192 69.192 289.984 69.944 289.984 70.872C289.984 71.784 290.192 72.536 290.64 73.144C291.12 73.816 291.808 74.152 292.688 74.152C293.552 74.152 294.24 73.816 294.752 73.144C295.184 72.536 295.408 71.768 295.408 70.872C295.408 69.944 295.184 69.192 294.752 68.584C294.24 67.912 293.552 67.576 292.688 67.576ZM302.319 66.504C303.503 66.504 304.447 66.936 305.135 67.832C305.759 68.632 306.079 69.64 306.079 70.888C306.079 72.104 305.759 73.112 305.151 73.912C304.479 74.776 303.567 75.224 302.383 75.224C301.199 75.224 300.287 74.648 299.647 73.496V78.168H298.367V66.728H299.567V68.088C300.159 67.032 301.071 66.504 302.319 66.504ZM302.159 67.56C301.327 67.56 300.671 67.88 300.223 68.536C299.807 69.112 299.599 69.88 299.599 70.808V70.968C299.599 71.928 299.823 72.696 300.303 73.288C300.751 73.864 301.343 74.168 302.111 74.168C303.007 74.168 303.679 73.848 304.143 73.24C304.559 72.664 304.767 71.88 304.767 70.888C304.767 69.912 304.559 69.128 304.175 68.552C303.711 67.88 303.039 67.56 302.159 67.56ZM311.15 66.504C312.478 66.504 313.486 66.952 314.158 67.848C314.766 68.648 315.086 69.784 315.118 71.224H308.59C308.654 72.152 308.894 72.872 309.342 73.384C309.79 73.896 310.414 74.152 311.198 74.152C311.87 74.152 312.43 73.976 312.846 73.64C313.198 73.352 313.47 72.92 313.678 72.344H314.958C314.766 73.144 314.398 73.784 313.838 74.296C313.15 74.904 312.27 75.224 311.198 75.224C310.014 75.224 309.054 74.824 308.35 74.056C307.614 73.256 307.262 72.2 307.262 70.856C307.262 69.64 307.598 68.616 308.302 67.8C309.006 66.936 309.95 66.504 311.15 66.504ZM311.182 67.576C310.446 67.576 309.854 67.816 309.406 68.296C308.958 68.776 308.702 69.416 308.622 70.232H313.79C313.63 68.456 312.75 67.576 311.182 67.576ZM320.489 66.504C322.537 66.504 323.577 67.64 323.577 69.912V75H322.297V70.008C322.297 68.392 321.561 67.592 320.121 67.592C319.545 67.592 319.049 67.8 318.633 68.216C318.185 68.664 317.945 69.256 317.897 70.008V75H316.617V66.728H317.897V67.944C318.185 67.48 318.553 67.128 319.001 66.888C319.449 66.632 319.945 66.504 320.489 66.504ZM325.811 63.576H327.107V75H325.811V63.576ZM329.511 63.576H333.607C335.415 63.576 336.775 64.088 337.703 65.144C338.551 66.104 338.983 67.496 338.983 69.288C338.983 71.048 338.519 72.44 337.607 73.432C336.647 74.472 335.271 75 333.479 75H329.511V63.576ZM330.823 64.712V73.864H333.255C334.743 73.864 335.863 73.464 336.615 72.68C337.319 71.912 337.687 70.776 337.687 69.288C337.687 67.752 337.351 66.616 336.695 65.88C335.991 65.096 334.903 64.712 333.399 64.712H330.823Z" fill="#3A4559"/>
<path d="M115.667 115.666C117.508 115.666 119.174 114.92 120.381 113.714C121.587 112.507 122.333 110.841 122.333 109C122.333 107.159 121.587 105.492 120.381 104.286C119.174 103.079 117.508 102.333 115.667 102.333C113.826 102.333 112.159 103.079 110.953 104.286C109.746 105.492 109 107.159 109 109C109 110.841 109.746 112.507 110.953 113.714C112.159 114.92 113.826 115.666 115.667 115.666Z" fill="#D8DDE6" stroke="#D8DDE6" stroke-width="1.33333" stroke-linejoin="round"/>
<path d="M113.333 109L115.333 111L119.333 107" stroke="white" stroke-width="1.33333" stroke-linecap="round" stroke-linejoin="round"/>
<path d="M134.8 102.952H142.464V104.088H134.8V102.952ZM134.368 107.016H143.168V108.152H140.576V115.144C140.576 116.072 140.048 116.536 139.024 116.536H136.672L136.432 115.4C137.2 115.448 137.92 115.48 138.624 115.48C139.136 115.48 139.408 115.272 139.408 114.856V108.152H134.368V107.016ZM132.272 102.072L133.312 102.552C132.416 104.328 130.976 105.896 128.992 107.256L128.656 106.104C130.32 104.92 131.52 103.576 132.272 102.072ZM133.024 105.72L134.064 106.2C133.6 107.096 133.024 107.96 132.32 108.76V116.6H131.184V109.928C130.544 110.504 129.856 111.064 129.088 111.592L128.752 110.44C130.704 109.064 132.128 107.496 133.024 105.72ZM146.944 102.328C147.872 103.288 148.592 104.136 149.104 104.872L148.208 105.496C147.648 104.696 146.928 103.848 146.064 102.952L146.944 102.328ZM152.576 109.08C153.728 110.344 154.608 111.448 155.232 112.376L154.224 113.08C153.584 112.056 152.736 110.904 151.648 109.656L152.576 109.08ZM150.576 101.928H151.712V103.832C151.696 104.536 151.664 105.224 151.616 105.88H158.208C158.208 110.456 158 113.368 157.6 114.616C157.184 115.864 156.432 116.488 155.36 116.488C154.576 116.488 153.92 116.456 153.376 116.424L153.072 115.304C153.888 115.368 154.624 115.4 155.296 115.4C156.192 115.336 156.72 114.424 156.848 112.696C156.976 110.952 157.04 109.048 157.04 107H151.504C151.248 109.016 150.8 110.696 150.144 112.072C149.2 113.976 147.648 115.464 145.472 116.536L144.816 115.512C146.96 114.424 148.464 112.984 149.296 111.176C149.792 109.992 150.144 108.6 150.352 107H145.376V105.88H150.48C150.528 105.208 150.56 104.536 150.576 103.832V101.928ZM161.44 103.048H167.232V104.152H161.44V103.048ZM160.816 107.368H167.84V108.488H164.144C163.504 110.92 162.944 112.648 162.464 113.704C163.728 113.448 164.992 113.08 166.24 112.616C165.824 111.752 165.424 110.968 165.008 110.232L165.984 109.752C166.752 111.128 167.472 112.616 168.144 114.232L167.152 114.744C166.992 114.328 166.832 113.944 166.672 113.576C164.976 114.184 163.12 114.664 161.136 115.016L160.864 113.928C160.976 113.896 161.056 113.864 161.12 113.832C161.6 113.176 162.24 111.4 163.04 108.488H160.816V107.368ZM170.24 101.976H171.392V105.208H174.88C174.88 110.216 174.8 113.304 174.656 114.488C174.496 115.784 173.712 116.44 172.336 116.44C172.064 116.44 171.6 116.424 170.928 116.392L170.672 115.368C171.248 115.4 171.76 115.432 172.192 115.432C172.976 115.432 173.44 114.968 173.568 114.056C173.664 113.208 173.728 110.632 173.76 106.328H171.392V106.52C171.344 111.128 170.224 114.504 168.048 116.632L167.184 115.88C169.184 113.944 170.208 110.824 170.24 106.52V106.328H168.08V105.208H170.24V101.976ZM183.744 105.32C183.008 106.872 182.16 108.216 181.2 109.368L180.384 108.392C181.792 106.728 182.96 104.536 183.856 101.832L185.008 102.088C184.752 102.824 184.496 103.528 184.24 104.184H191.152V105.32H185.776V107.96H190.448V109.08H185.776V111.784H190.544V112.888H185.776V116.616H184.608V105.32H183.744ZM178.624 107.624C178.112 108.296 177.552 108.936 176.944 109.544L176.56 108.328C178.288 106.456 179.552 104.312 180.336 101.88L181.424 102.392C180.992 103.64 180.448 104.808 179.808 105.896V116.616H178.624V107.624Z" fill="#3A4559"/>
<g filter="url(#filter2_d_2297_53572)">
<g clip-path="url(#clip3_2297_53572)">
<rect x="463" y="62" width="62" height="62" rx="15.5" fill="#E6EFFF"/>
<path fill-rule="evenodd" clip-rule="evenodd" d="M504.167 94.6066C504.167 94.6066 508.648 92.2072 509.784 94.371C510.921 96.5343 508.155 103.788 504.167 102.269V94.6066Z" fill="url(#paint1_linear_2297_53572)"/>
<path fill-rule="evenodd" clip-rule="evenodd" d="M483.938 102.269C479.95 103.788 477.184 96.5346 478.32 94.3708C479.457 92.2075 483.938 94.6064 483.938 94.6064V102.269Z" fill="url(#paint2_linear_2297_53572)"/>
<path fill-rule="evenodd" clip-rule="evenodd" d="M499.027 109.653L494.054 109.725L489.081 109.653C489.081 109.653 489.21 112.667 488.656 114.818C488.371 115.923 489.419 116.877 490.558 116.877H493.916H494.192H498.038C499.258 116.877 500 115.775 499.706 114.591C499.174 112.457 499.027 109.653 499.027 109.653Z" fill="url(#paint3_linear_2297_53572)"/>
<g filter="url(#filter3_i_2297_53572)">
<path fill-rule="evenodd" clip-rule="evenodd" d="M499.339 110.99C501.253 112.256 502.294 112.89 502.294 112.89C502.459 112.987 502.558 113.137 502.595 113.299C504.303 114.246 506.123 115.159 507.132 115.62C512.929 118.496 516.163 129.018 516.163 129.018H471.835C474.369 119.216 478.041 116.4 481.763 115.413C482.418 115.24 483.979 114.273 485.615 113.259C486.323 112.821 487.045 112.373 487.714 111.977C488.264 111.541 488.709 111.164 488.894 110.99C488.908 111.13 488.925 111.273 488.945 111.419C489.245 111.607 489.558 112.067 489.926 112.607C490.75 113.814 491.85 115.425 493.688 115.311C495.432 115.203 496.583 113.871 497.513 112.795C498.211 111.988 498.785 111.324 499.393 111.429C499.392 111.258 499.375 111.111 499.339 110.99Z" fill="#659EFC"/>
</g>
<path fill-rule="evenodd" clip-rule="evenodd" d="M489.14 113.263L493.626 124.685H494.969L499.096 113.379L489.14 113.263Z" fill="white"/>
<path fill-rule="evenodd" clip-rule="evenodd" d="M489.088 111.133C488.65 111.078 489.095 110.72 489.095 110.72L489.088 111.133Z" fill="url(#paint4_linear_2297_53572)"/>
<path fill-rule="evenodd" clip-rule="evenodd" d="M499.096 110.645C499.096 110.645 499.632 111.15 499.145 111.125L499.096 110.645Z" fill="url(#paint5_linear_2297_53572)"/>
<path fill-rule="evenodd" clip-rule="evenodd" d="M506.395 97.3488C506.395 98.6198 506.127 100.177 505.843 101.471C505.493 103.064 504.761 104.549 503.708 105.795L502.803 106.867C501.497 108.413 499.754 109.528 497.802 110.066L495.104 110.808C494.38 111.008 493.615 111.007 492.892 110.806L490.113 110.036C488.24 109.517 486.552 108.475 485.247 107.034L484.369 106.063C483.485 105.086 482.844 104.019 482.493 102.75C482.074 101.235 481.6 99.0414 481.6 97.3488C481.6 86.3867 482.122 77.5 493.998 77.5C504.585 77.5 506.395 86.3867 506.395 97.3488Z" fill="url(#paint6_linear_2297_53572)"/>
<path fill-rule="evenodd" clip-rule="evenodd" d="M492.954 114.981L491.211 123.073L493.999 124.555L497.271 122.713L495.463 115.017L492.954 114.981Z" fill="#E5EFFF"/>
<path fill-rule="evenodd" clip-rule="evenodd" d="M492.942 115.049L492.904 115.226C492.898 115.254 492.919 115.28 492.948 115.281L495.448 115.321C495.492 115.322 495.525 115.281 495.515 115.238L495.477 115.085L492.942 115.049Z" fill="#C8D4EE"/>
<path fill-rule="evenodd" clip-rule="evenodd" d="M489.412 113.596C489.412 113.596 491.702 115.275 492.15 115.292C492.598 115.309 492.748 114.582 492.748 114.582L492.526 114.028L489.412 113.596Z" fill="#C8D4EE"/>
<path fill-rule="evenodd" clip-rule="evenodd" d="M499.053 113.596C499.053 113.596 496.763 115.275 496.315 115.292C495.867 115.309 495.717 114.582 495.717 114.582L495.939 114.028L499.053 113.596Z" fill="#C8D4EE"/>
<path fill-rule="evenodd" clip-rule="evenodd" d="M492.948 112.376C492.948 112.376 495.044 112.505 495.487 112.364L495.858 113.869L495.491 115.052C495.474 115.107 495.424 115.143 495.367 115.142L493.04 115.109C492.987 115.108 492.941 115.076 492.922 115.027L492.5 113.943L492.948 112.376Z" fill="#E5EFFF"/>
<path fill-rule="evenodd" clip-rule="evenodd" d="M488.894 111.032C488.894 111.032 488.202 112.425 488.345 112.831C488.488 113.238 491.894 114.941 492.268 114.848C492.565 114.773 492.785 113.501 492.969 112.412C492.981 112.341 492.932 112.276 492.86 112.266C490.756 111.973 488.894 111.032 488.894 111.032Z" fill="white"/>
<path fill-rule="evenodd" clip-rule="evenodd" d="M499.339 111.033C499.433 111.007 500.219 112.513 500.106 112.835C499.964 113.242 496.558 114.945 496.183 114.852C495.886 114.777 495.559 114.213 495.478 112.454C495.473 112.341 495.561 112.245 495.674 112.238C497.434 112.124 499.339 111.033 499.339 111.033Z" fill="white"/>
<g opacity="0.7">
<mask id="mask0_2297_53572" style="mask-type:alpha" maskUnits="userSpaceOnUse" x="481" y="77" width="26" height="34">
<path fill-rule="evenodd" clip-rule="evenodd" d="M506.395 97.3488C506.395 98.6198 506.127 100.177 505.843 101.471C505.493 103.064 504.761 104.549 503.708 105.795L502.803 106.867C501.497 108.413 499.754 109.528 497.802 110.066L495.104 110.808C494.38 111.008 493.615 111.007 492.892 110.806L490.113 110.036C488.24 109.517 486.552 108.475 485.247 107.034L484.369 106.063C483.485 105.086 482.844 104.019 482.493 102.75C482.074 101.235 481.6 99.0414 481.6 97.3488C481.6 86.3867 482.122 77.5 493.998 77.5C504.585 77.5 506.395 86.3867 506.395 97.3488Z" fill="url(#paint7_linear_2297_53572)"/>
</mask>
<g mask="url(#mask0_2297_53572)">
<g filter="url(#filter4_f_2297_53572)">
<circle cx="515.418" cy="106.2" r="15.5" fill="white"/>
</g>
<g filter="url(#filter5_f_2297_53572)">
<circle cx="472.807" cy="106.2" r="15.5" fill="white"/>
</g>
</g>
</g>
<g filter="url(#filter6_ii_2297_53572)">
<path fill-rule="evenodd" clip-rule="evenodd" d="M501.403 76.1228C500.723 75.9996 500.274 75.9863 500.274 75.9863C496.315 71.9463 493.245 72.6641 489.671 73.5C489.337 73.5781 488.999 73.6573 488.655 73.7337C482.16 75.1855 477.531 79.2672 477.541 86.3455C477.546 89.74 478.729 91.9668 480.734 91.8687C480.974 91.8575 481.206 91.8474 481.432 91.8376C484.335 91.7117 486.25 91.6286 490.473 89.74C492.705 88.7428 493.501 82.9458 493.501 82.9458C495.423 86.8363 503.07 91.5432 506.325 92.1012C506.341 92.1039 506.358 92.4697 506.375 92.8189C506.391 93.1374 506.405 93.442 506.418 93.4445C506.447 93.4499 506.443 93.4482 506.44 93.4469C506.437 93.4457 506.434 93.4447 506.459 93.4497C507.249 93.5737 508.195 93.0208 508.195 93.0208C508.195 93.0208 509.047 84.5217 507.291 80.3315C506.684 78.8844 505.66 77.9186 504.578 77.2742C504.775 76.9047 505.367 76.113 506.809 76.185C506.809 76.185 505.371 74.6846 503.277 75.9974C503.277 75.9979 502.545 73.5283 499.269 73.2782C499.269 73.2782 500.634 74.421 501.403 76.1228Z" fill="#364A6A"/>
</g>
</g>
<rect x="463.646" y="62.6458" width="60.7083" height="60.7083" rx="14.8542" stroke="white" stroke-width="1.29167"/>
</g>
<circle cx="517.25" cy="69.75" r="7.75" fill="#FB363F"/>
<g filter="url(#filter7_d_2297_53572)">
<g clip-path="url(#clip4_2297_53572)">
<rect x="463" y="140" width="62" height="62" rx="15.5" fill="#E6EFFF"/>
<path fill-rule="evenodd" clip-rule="evenodd" d="M504.167 172.607C504.167 172.607 508.648 170.207 509.784 172.371C510.921 174.534 508.155 181.788 504.167 180.269V172.607Z" fill="url(#paint8_linear_2297_53572)"/>
<path fill-rule="evenodd" clip-rule="evenodd" d="M483.938 180.269C479.95 181.788 477.184 174.535 478.32 172.371C479.457 170.207 483.938 172.606 483.938 172.606V180.269Z" fill="url(#paint9_linear_2297_53572)"/>
<path fill-rule="evenodd" clip-rule="evenodd" d="M499.027 187.653L494.054 187.725L489.081 187.653C489.081 187.653 489.21 190.667 488.656 192.818C488.371 193.923 489.419 194.877 490.558 194.877H493.916H494.192H498.038C499.258 194.877 500 193.775 499.706 192.591C499.174 190.457 499.027 187.653 499.027 187.653Z" fill="url(#paint10_linear_2297_53572)"/>
<g filter="url(#filter8_i_2297_53572)">
<path fill-rule="evenodd" clip-rule="evenodd" d="M499.339 188.99C501.253 190.256 502.294 190.89 502.294 190.89C502.459 190.987 502.558 191.137 502.595 191.299C504.303 192.246 506.123 193.159 507.132 193.62C512.929 196.496 516.163 207.018 516.163 207.018H471.835C474.369 197.216 478.041 194.4 481.763 193.413C482.418 193.24 483.979 192.273 485.615 191.259C486.323 190.821 487.045 190.373 487.714 189.977C488.264 189.541 488.709 189.164 488.894 188.99C488.908 189.13 488.925 189.273 488.945 189.419C489.245 189.607 489.558 190.067 489.926 190.607C490.75 191.814 491.85 193.425 493.688 193.311C495.432 193.203 496.583 191.871 497.513 190.795C498.211 189.988 498.785 189.324 499.393 189.429C499.392 189.258 499.375 189.111 499.339 188.99Z" fill="#659EFC"/>
</g>
<path fill-rule="evenodd" clip-rule="evenodd" d="M489.14 191.263L493.626 202.685H494.969L499.096 191.379L489.14 191.263Z" fill="white"/>
<path fill-rule="evenodd" clip-rule="evenodd" d="M489.088 189.133C488.65 189.078 489.095 188.72 489.095 188.72L489.088 189.133Z" fill="url(#paint11_linear_2297_53572)"/>
<path fill-rule="evenodd" clip-rule="evenodd" d="M499.096 188.645C499.096 188.645 499.632 189.15 499.145 189.125L499.096 188.645Z" fill="url(#paint12_linear_2297_53572)"/>
<path fill-rule="evenodd" clip-rule="evenodd" d="M506.395 175.349C506.395 176.62 506.127 178.177 505.843 179.471C505.493 181.064 504.761 182.549 503.708 183.795L502.803 184.867C501.497 186.413 499.754 187.528 497.802 188.066L495.104 188.808C494.38 189.008 493.615 189.007 492.892 188.806L490.113 188.036C488.24 187.517 486.552 186.475 485.247 185.034L484.369 184.063C483.485 183.086 482.844 182.019 482.493 180.75C482.074 179.235 481.6 177.041 481.6 175.349C481.6 164.387 482.122 155.5 493.998 155.5C504.585 155.5 506.395 164.387 506.395 175.349Z" fill="url(#paint13_linear_2297_53572)"/>
<path fill-rule="evenodd" clip-rule="evenodd" d="M492.954 192.981L491.211 201.073L493.999 202.555L497.271 200.713L495.463 193.017L492.954 192.981Z" fill="#E5EFFF"/>
<path fill-rule="evenodd" clip-rule="evenodd" d="M492.942 193.049L492.904 193.226C492.898 193.254 492.919 193.28 492.948 193.281L495.448 193.321C495.492 193.322 495.525 193.281 495.515 193.238L495.477 193.085L492.942 193.049Z" fill="#C8D4EE"/>
<path fill-rule="evenodd" clip-rule="evenodd" d="M489.412 191.596C489.412 191.596 491.702 193.275 492.15 193.292C492.598 193.309 492.748 192.582 492.748 192.582L492.526 192.028L489.412 191.596Z" fill="#C8D4EE"/>
<path fill-rule="evenodd" clip-rule="evenodd" d="M499.053 191.596C499.053 191.596 496.763 193.275 496.315 193.292C495.867 193.309 495.717 192.582 495.717 192.582L495.939 192.028L499.053 191.596Z" fill="#C8D4EE"/>
<path fill-rule="evenodd" clip-rule="evenodd" d="M492.948 190.376C492.948 190.376 495.044 190.505 495.487 190.364L495.858 191.869L495.491 193.052C495.474 193.107 495.424 193.143 495.367 193.142L493.04 193.109C492.987 193.108 492.941 193.076 492.922 193.027L492.5 191.943L492.948 190.376Z" fill="#E5EFFF"/>
<path fill-rule="evenodd" clip-rule="evenodd" d="M488.894 189.032C488.894 189.032 488.202 190.425 488.345 190.831C488.488 191.238 491.894 192.941 492.268 192.848C492.565 192.773 492.785 191.501 492.969 190.412C492.981 190.341 492.932 190.276 492.86 190.266C490.756 189.973 488.894 189.032 488.894 189.032Z" fill="white"/>
<path fill-rule="evenodd" clip-rule="evenodd" d="M499.339 189.033C499.433 189.007 500.219 190.513 500.106 190.835C499.964 191.242 496.558 192.945 496.183 192.852C495.886 192.777 495.559 192.213 495.478 190.454C495.473 190.341 495.561 190.245 495.674 190.238C497.434 190.124 499.339 189.033 499.339 189.033Z" fill="white"/>
<g opacity="0.7">
<mask id="mask1_2297_53572" style="mask-type:alpha" maskUnits="userSpaceOnUse" x="481" y="155" width="26" height="34">
<path fill-rule="evenodd" clip-rule="evenodd" d="M506.395 175.349C506.395 176.62 506.127 178.177 505.843 179.471C505.493 181.064 504.761 182.549 503.708 183.795L502.803 184.867C501.497 186.413 499.754 187.528 497.802 188.066L495.104 188.808C494.38 189.008 493.615 189.007 492.892 188.806L490.113 188.036C488.24 187.517 486.552 186.475 485.247 185.034L484.369 184.063C483.485 183.086 482.844 182.019 482.493 180.75C482.074 179.235 481.6 177.041 481.6 175.349C481.6 164.387 482.122 155.5 493.998 155.5C504.585 155.5 506.395 164.387 506.395 175.349Z" fill="url(#paint14_linear_2297_53572)"/>
</mask>
<g mask="url(#mask1_2297_53572)">
<g filter="url(#filter9_f_2297_53572)">
<circle cx="515.418" cy="184.2" r="15.5" fill="white"/>
</g>
<g filter="url(#filter10_f_2297_53572)">
<circle cx="472.807" cy="184.2" r="15.5" fill="white"/>
</g>
</g>
</g>
<g filter="url(#filter11_ii_2297_53572)">
<path fill-rule="evenodd" clip-rule="evenodd" d="M501.403 154.123C500.723 154 500.274 153.986 500.274 153.986C496.315 149.946 493.245 150.664 489.671 151.5C489.337 151.578 488.999 151.657 488.655 151.734C482.16 153.185 477.531 157.267 477.541 164.345C477.546 167.74 478.729 169.967 480.734 169.869C480.974 169.857 481.206 169.847 481.432 169.838C484.335 169.712 486.25 169.629 490.473 167.74C492.705 166.743 493.501 160.946 493.501 160.946C495.423 164.836 503.07 169.543 506.325 170.101C506.341 170.104 506.358 170.47 506.375 170.819C506.391 171.137 506.405 171.442 506.418 171.444C506.447 171.45 506.443 171.448 506.44 171.447C506.437 171.446 506.434 171.445 506.459 171.45C507.249 171.574 508.195 171.021 508.195 171.021C508.195 171.021 509.047 162.522 507.291 158.331C506.684 156.884 505.66 155.919 504.578 155.274C504.775 154.905 505.367 154.113 506.809 154.185C506.809 154.185 505.371 152.685 503.277 153.997C503.277 153.998 502.545 151.528 499.269 151.278C499.269 151.278 500.634 152.421 501.403 154.123Z" fill="#364A6A"/>
</g>
</g>
<rect x="463.646" y="140.646" width="60.7083" height="60.7083" rx="14.8542" stroke="white" stroke-width="1.29167"/>
</g>
<circle cx="517.25" cy="147.75" r="7.75" fill="#FB363F"/>
<g filter="url(#filter12_d_2297_53572)">
<g clip-path="url(#clip5_2297_53572)">
<rect x="463" y="218" width="62" height="62" rx="15.5" fill="#E6EFFF"/>
<path fill-rule="evenodd" clip-rule="evenodd" d="M504.167 250.607C504.167 250.607 508.648 248.207 509.784 250.371C510.921 252.534 508.155 259.788 504.167 258.269V250.607Z" fill="url(#paint15_linear_2297_53572)"/>
<path fill-rule="evenodd" clip-rule="evenodd" d="M483.938 258.269C479.95 259.788 477.184 252.535 478.32 250.371C479.457 248.207 483.938 250.606 483.938 250.606V258.269Z" fill="url(#paint16_linear_2297_53572)"/>
<path fill-rule="evenodd" clip-rule="evenodd" d="M499.027 265.653L494.054 265.725L489.081 265.653C489.081 265.653 489.21 268.667 488.656 270.818C488.371 271.923 489.419 272.877 490.558 272.877H493.916H494.192H498.038C499.258 272.877 500 271.775 499.706 270.591C499.174 268.457 499.027 265.653 499.027 265.653Z" fill="url(#paint17_linear_2297_53572)"/>
<g filter="url(#filter13_i_2297_53572)">
<path fill-rule="evenodd" clip-rule="evenodd" d="M499.339 266.99C501.253 268.256 502.294 268.89 502.294 268.89C502.459 268.987 502.558 269.137 502.595 269.299C504.303 270.246 506.123 271.159 507.132 271.62C512.929 274.496 516.163 285.018 516.163 285.018H471.835C474.369 275.216 478.041 272.4 481.763 271.413C482.418 271.24 483.979 270.273 485.615 269.259C486.323 268.821 487.045 268.373 487.714 267.977C488.264 267.541 488.709 267.164 488.894 266.99C488.908 267.13 488.925 267.273 488.945 267.419C489.245 267.607 489.558 268.067 489.926 268.607C490.75 269.814 491.85 271.425 493.688 271.311C495.432 271.203 496.583 269.871 497.513 268.795C498.211 267.988 498.785 267.324 499.393 267.429C499.392 267.258 499.375 267.111 499.339 266.99Z" fill="#659EFC"/>
</g>
<path fill-rule="evenodd" clip-rule="evenodd" d="M489.14 269.263L493.626 280.685H494.969L499.096 269.379L489.14 269.263Z" fill="white"/>
<path fill-rule="evenodd" clip-rule="evenodd" d="M489.088 267.133C488.65 267.078 489.095 266.72 489.095 266.72L489.088 267.133Z" fill="url(#paint18_linear_2297_53572)"/>
<path fill-rule="evenodd" clip-rule="evenodd" d="M499.096 266.645C499.096 266.645 499.632 267.15 499.145 267.125L499.096 266.645Z" fill="url(#paint19_linear_2297_53572)"/>
<path fill-rule="evenodd" clip-rule="evenodd" d="M506.395 253.349C506.395 254.62 506.127 256.177 505.843 257.471C505.493 259.064 504.761 260.549 503.708 261.795L502.803 262.867C501.497 264.413 499.754 265.528 497.802 266.066L495.104 266.808C494.38 267.008 493.615 267.007 492.892 266.806L490.113 266.036C488.24 265.517 486.552 264.475 485.247 263.034L484.369 262.063C483.485 261.086 482.844 260.019 482.493 258.75C482.074 257.235 481.6 255.041 481.6 253.349C481.6 242.387 482.122 233.5 493.998 233.5C504.585 233.5 506.395 242.387 506.395 253.349Z" fill="url(#paint20_linear_2297_53572)"/>
<path fill-rule="evenodd" clip-rule="evenodd" d="M492.954 270.981L491.211 279.073L493.999 280.555L497.271 278.713L495.463 271.017L492.954 270.981Z" fill="#E5EFFF"/>
<path fill-rule="evenodd" clip-rule="evenodd" d="M492.942 271.049L492.904 271.226C492.898 271.254 492.919 271.28 492.948 271.281L495.448 271.321C495.492 271.322 495.525 271.281 495.515 271.238L495.477 271.085L492.942 271.049Z" fill="#C8D4EE"/>
<path fill-rule="evenodd" clip-rule="evenodd" d="M489.412 269.596C489.412 269.596 491.702 271.275 492.15 271.292C492.598 271.309 492.748 270.582 492.748 270.582L492.526 270.028L489.412 269.596Z" fill="#C8D4EE"/>
<path fill-rule="evenodd" clip-rule="evenodd" d="M499.053 269.596C499.053 269.596 496.763 271.275 496.315 271.292C495.867 271.309 495.717 270.582 495.717 270.582L495.939 270.028L499.053 269.596Z" fill="#C8D4EE"/>
<path fill-rule="evenodd" clip-rule="evenodd" d="M492.948 268.376C492.948 268.376 495.044 268.505 495.487 268.364L495.858 269.869L495.491 271.052C495.474 271.107 495.424 271.143 495.367 271.142L493.04 271.109C492.987 271.108 492.941 271.076 492.922 271.027L492.5 269.943L492.948 268.376Z" fill="#E5EFFF"/>
<path fill-rule="evenodd" clip-rule="evenodd" d="M488.894 267.032C488.894 267.032 488.202 268.425 488.345 268.831C488.488 269.238 491.894 270.941 492.268 270.848C492.565 270.773 492.785 269.501 492.969 268.412C492.981 268.341 492.932 268.276 492.86 268.266C490.756 267.973 488.894 267.032 488.894 267.032Z" fill="white"/>
<path fill-rule="evenodd" clip-rule="evenodd" d="M499.339 267.033C499.433 267.007 500.219 268.513 500.106 268.835C499.964 269.242 496.558 270.945 496.183 270.852C495.886 270.777 495.559 270.213 495.478 268.454C495.473 268.341 495.561 268.245 495.674 268.238C497.434 268.124 499.339 267.033 499.339 267.033Z" fill="white"/>
<g opacity="0.7">
<mask id="mask2_2297_53572" style="mask-type:alpha" maskUnits="userSpaceOnUse" x="481" y="233" width="26" height="34">
<path fill-rule="evenodd" clip-rule="evenodd" d="M506.395 253.349C506.395 254.62 506.127 256.177 505.843 257.471C505.493 259.064 504.761 260.549 503.708 261.795L502.803 262.867C501.497 264.413 499.754 265.528 497.802 266.066L495.104 266.808C494.38 267.008 493.615 267.007 492.892 266.806L490.113 266.036C488.24 265.517 486.552 264.475 485.247 263.034L484.369 262.063C483.485 261.086 482.844 260.019 482.493 258.75C482.074 257.235 481.6 255.041 481.6 253.349C481.6 242.387 482.122 233.5 493.998 233.5C504.585 233.5 506.395 242.387 506.395 253.349Z" fill="url(#paint21_linear_2297_53572)"/>
</mask>
<g mask="url(#mask2_2297_53572)">
<g filter="url(#filter14_f_2297_53572)">
<circle cx="515.418" cy="262.2" r="15.5" fill="white"/>
</g>
<g filter="url(#filter15_f_2297_53572)">
<circle cx="472.807" cy="262.2" r="15.5" fill="white"/>
</g>
</g>
</g>
<g filter="url(#filter16_ii_2297_53572)">
<path fill-rule="evenodd" clip-rule="evenodd" d="M501.403 232.123C500.723 232 500.274 231.986 500.274 231.986C496.315 227.946 493.245 228.664 489.671 229.5C489.337 229.578 488.999 229.657 488.655 229.734C482.16 231.185 477.531 235.267 477.541 242.345C477.546 245.74 478.729 247.967 480.734 247.869C480.974 247.857 481.206 247.847 481.432 247.838C484.335 247.712 486.25 247.629 490.473 245.74C492.705 244.743 493.501 238.946 493.501 238.946C495.423 242.836 503.07 247.543 506.325 248.101C506.341 248.104 506.358 248.47 506.375 248.819C506.391 249.137 506.405 249.442 506.418 249.444C506.447 249.45 506.443 249.448 506.44 249.447C506.437 249.446 506.434 249.445 506.459 249.45C507.249 249.574 508.195 249.021 508.195 249.021C508.195 249.021 509.047 240.522 507.291 236.331C506.684 234.884 505.66 233.919 504.578 233.274C504.775 232.905 505.367 232.113 506.809 232.185C506.809 232.185 505.371 230.685 503.277 231.997C503.277 231.998 502.545 229.528 499.269 229.278C499.269 229.278 500.634 230.421 501.403 232.123Z" fill="#364A6A"/>
</g>
</g>
<rect x="463.646" y="218.646" width="60.7083" height="60.7083" rx="14.8542" stroke="white" stroke-width="1.29167"/>
</g>
<circle cx="517.25" cy="225.75" r="7.75" fill="#FB363F"/>
<g filter="url(#filter17_d_2297_53572)">
<g clip-path="url(#clip6_2297_53572)">
<rect x="463" y="296" width="62" height="62" rx="15.5" fill="#E6EFFF"/>
<path fill-rule="evenodd" clip-rule="evenodd" d="M504.167 328.607C504.167 328.607 508.648 326.207 509.784 328.371C510.921 330.534 508.155 337.788 504.167 336.269V328.607Z" fill="url(#paint22_linear_2297_53572)"/>
<path fill-rule="evenodd" clip-rule="evenodd" d="M483.938 336.269C479.95 337.788 477.184 330.535 478.32 328.371C479.457 326.207 483.938 328.606 483.938 328.606V336.269Z" fill="url(#paint23_linear_2297_53572)"/>
<path fill-rule="evenodd" clip-rule="evenodd" d="M499.027 343.653L494.054 343.725L489.081 343.653C489.081 343.653 489.21 346.667 488.656 348.818C488.371 349.923 489.419 350.877 490.558 350.877H493.916H494.192H498.038C499.258 350.877 500 349.775 499.706 348.591C499.174 346.457 499.027 343.653 499.027 343.653Z" fill="url(#paint24_linear_2297_53572)"/>
<g filter="url(#filter18_i_2297_53572)">
<path fill-rule="evenodd" clip-rule="evenodd" d="M499.339 344.99C501.253 346.256 502.294 346.89 502.294 346.89C502.459 346.987 502.558 347.137 502.595 347.299C504.303 348.246 506.123 349.159 507.132 349.62C512.929 352.496 516.163 363.018 516.163 363.018H471.835C474.369 353.216 478.041 350.4 481.763 349.413C482.418 349.24 483.979 348.273 485.615 347.259C486.323 346.821 487.045 346.373 487.714 345.977C488.264 345.541 488.709 345.164 488.894 344.99C488.908 345.13 488.925 345.273 488.945 345.419C489.245 345.607 489.558 346.067 489.926 346.607C490.75 347.814 491.85 349.425 493.688 349.311C495.432 349.203 496.583 347.871 497.513 346.795C498.211 345.988 498.785 345.324 499.393 345.429C499.392 345.258 499.375 345.111 499.339 344.99Z" fill="#659EFC"/>
</g>
<path fill-rule="evenodd" clip-rule="evenodd" d="M489.14 347.263L493.626 358.685H494.969L499.096 347.379L489.14 347.263Z" fill="white"/>
<path fill-rule="evenodd" clip-rule="evenodd" d="M489.088 345.133C488.65 345.078 489.095 344.72 489.095 344.72L489.088 345.133Z" fill="url(#paint25_linear_2297_53572)"/>
<path fill-rule="evenodd" clip-rule="evenodd" d="M499.096 344.645C499.096 344.645 499.632 345.15 499.145 345.125L499.096 344.645Z" fill="url(#paint26_linear_2297_53572)"/>
<path fill-rule="evenodd" clip-rule="evenodd" d="M506.395 331.349C506.395 332.62 506.127 334.177 505.843 335.471C505.493 337.064 504.761 338.549 503.708 339.795L502.803 340.867C501.497 342.413 499.754 343.528 497.802 344.066L495.104 344.808C494.38 345.008 493.615 345.007 492.892 344.806L490.113 344.036C488.24 343.517 486.552 342.475 485.247 341.034L484.369 340.063C483.485 339.086 482.844 338.019 482.493 336.75C482.074 335.235 481.6 333.041 481.6 331.349C481.6 320.387 482.122 311.5 493.998 311.5C504.585 311.5 506.395 320.387 506.395 331.349Z" fill="url(#paint27_linear_2297_53572)"/>
<path fill-rule="evenodd" clip-rule="evenodd" d="M492.954 348.981L491.211 357.073L493.999 358.555L497.271 356.713L495.463 349.017L492.954 348.981Z" fill="#E5EFFF"/>
<path fill-rule="evenodd" clip-rule="evenodd" d="M492.942 349.049L492.904 349.226C492.898 349.254 492.919 349.28 492.948 349.281L495.448 349.321C495.492 349.322 495.525 349.281 495.515 349.238L495.477 349.085L492.942 349.049Z" fill="#C8D4EE"/>
<path fill-rule="evenodd" clip-rule="evenodd" d="M489.412 347.596C489.412 347.596 491.702 349.275 492.15 349.292C492.598 349.309 492.748 348.582 492.748 348.582L492.526 348.028L489.412 347.596Z" fill="#C8D4EE"/>
<path fill-rule="evenodd" clip-rule="evenodd" d="M499.053 347.596C499.053 347.596 496.763 349.275 496.315 349.292C495.867 349.309 495.717 348.582 495.717 348.582L495.939 348.028L499.053 347.596Z" fill="#C8D4EE"/>
<path fill-rule="evenodd" clip-rule="evenodd" d="M492.948 346.376C492.948 346.376 495.044 346.505 495.487 346.364L495.858 347.869L495.491 349.052C495.474 349.107 495.424 349.143 495.367 349.142L493.04 349.109C492.987 349.108 492.941 349.076 492.922 349.027L492.5 347.943L492.948 346.376Z" fill="#E5EFFF"/>
<path fill-rule="evenodd" clip-rule="evenodd" d="M488.894 345.032C488.894 345.032 488.202 346.425 488.345 346.831C488.488 347.238 491.894 348.941 492.268 348.848C492.565 348.773 492.785 347.501 492.969 346.412C492.981 346.341 492.932 346.276 492.86 346.266C490.756 345.973 488.894 345.032 488.894 345.032Z" fill="white"/>
<path fill-rule="evenodd" clip-rule="evenodd" d="M499.339 345.033C499.433 345.007 500.219 346.513 500.106 346.835C499.964 347.242 496.558 348.945 496.183 348.852C495.886 348.777 495.559 348.213 495.478 346.454C495.473 346.341 495.561 346.245 495.674 346.238C497.434 346.124 499.339 345.033 499.339 345.033Z" fill="white"/>
<g opacity="0.7">
<mask id="mask3_2297_53572" style="mask-type:alpha" maskUnits="userSpaceOnUse" x="481" y="311" width="26" height="34">
<path fill-rule="evenodd" clip-rule="evenodd" d="M506.395 331.349C506.395 332.62 506.127 334.177 505.843 335.471C505.493 337.064 504.761 338.549 503.708 339.795L502.803 340.867C501.497 342.413 499.754 343.528 497.802 344.066L495.104 344.808C494.38 345.008 493.615 345.007 492.892 344.806L490.113 344.036C488.24 343.517 486.552 342.475 485.247 341.034L484.369 340.063C483.485 339.086 482.844 338.019 482.493 336.75C482.074 335.235 481.6 333.041 481.6 331.349C481.6 320.387 482.122 311.5 493.998 311.5C504.585 311.5 506.395 320.387 506.395 331.349Z" fill="url(#paint28_linear_2297_53572)"/>
</mask>
<g mask="url(#mask3_2297_53572)">
<g filter="url(#filter19_f_2297_53572)">
<circle cx="515.418" cy="340.2" r="15.5" fill="white"/>
</g>
<g filter="url(#filter20_f_2297_53572)">
<circle cx="472.807" cy="340.2" r="15.5" fill="white"/>
</g>
</g>
</g>
<g filter="url(#filter21_ii_2297_53572)">
<path fill-rule="evenodd" clip-rule="evenodd" d="M501.403 310.123C500.723 310 500.274 309.986 500.274 309.986C496.315 305.946 493.245 306.664 489.671 307.5C489.337 307.578 488.999 307.657 488.655 307.734C482.16 309.185 477.531 313.267 477.541 320.345C477.546 323.74 478.729 325.967 480.734 325.869C480.974 325.857 481.206 325.847 481.432 325.838C484.335 325.712 486.25 325.629 490.473 323.74C492.705 322.743 493.501 316.946 493.501 316.946C495.423 320.836 503.07 325.543 506.325 326.101C506.341 326.104 506.358 326.47 506.375 326.819C506.391 327.137 506.405 327.442 506.418 327.444C506.447 327.45 506.443 327.448 506.44 327.447C506.437 327.446 506.434 327.445 506.459 327.45C507.249 327.574 508.195 327.021 508.195 327.021C508.195 327.021 509.047 318.522 507.291 314.331C506.684 312.884 505.66 311.919 504.578 311.274C504.775 310.905 505.367 310.113 506.809 310.185C506.809 310.185 505.371 308.685 503.277 309.997C503.277 309.998 502.545 307.528 499.269 307.278C499.269 307.278 500.634 308.421 501.403 310.123Z" fill="#364A6A"/>
</g>
</g>
<rect x="463.646" y="296.646" width="60.7083" height="60.7083" rx="14.8542" stroke="white" stroke-width="1.29167"/>
</g>
<circle cx="517.25" cy="303.75" r="7.75" fill="#FB363F"/>
<defs>
<filter id="filter0_d_2297_53572" x="44" y="9" width="374" height="409" filterUnits="userSpaceOnUse" color-interpolation-filters="sRGB">
<feFlood flood-opacity="0" result="BackgroundImageFix"/>
<feColorMatrix in="SourceAlpha" type="matrix" values="0 0 0 0 0 0 0 0 0 0 0 0 0 0 0 0 0 0 127 0" result="hardAlpha"/>
<feOffset dy="4"/>
<feGaussianBlur stdDeviation="12"/>
<feComposite in2="hardAlpha" operator="out"/>
<feColorMatrix type="matrix" values="0 0 0 0 0.143233 0 0 0 0 0.304677 0 0 0 0 0.562987 0 0 0 0.12 0"/>
<feBlend mode="normal" in2="BackgroundImageFix" result="effect1_dropShadow_2297_53572"/>
<feBlend mode="normal" in="SourceGraphic" in2="effect1_dropShadow_2297_53572" result="shape"/>
</filter>
<filter id="filter1_d_2297_53572" x="317.071" y="335.803" width="37.8589" height="43.3104" filterUnits="userSpaceOnUse" color-interpolation-filters="sRGB">
<feFlood flood-opacity="0" result="BackgroundImageFix"/>
<feColorMatrix in="SourceAlpha" type="matrix" values="0 0 0 0 0 0 0 0 0 0 0 0 0 0 0 0 0 0 127 0" result="hardAlpha"/>
<feOffset dy="1.7324"/>
<feGaussianBlur stdDeviation="2.5986"/>
<feColorMatrix type="matrix" values="0 0 0 0 0 0 0 0 0 0 0 0 0 0 0 0 0 0 0.2 0"/>
<feBlend mode="normal" in2="BackgroundImageFix" result="effect1_dropShadow_2297_53572"/>
<feBlend mode="normal" in="SourceGraphic" in2="effect1_dropShadow_2297_53572" result="shape"/>
</filter>
<filter id="filter2_d_2297_53572" x="432" y="36.1667" width="124" height="124" filterUnits="userSpaceOnUse" color-interpolation-filters="sRGB">
<feFlood flood-opacity="0" result="BackgroundImageFix"/>
<feColorMatrix in="SourceAlpha" type="matrix" values="0 0 0 0 0 0 0 0 0 0 0 0 0 0 0 0 0 0 127 0" result="hardAlpha"/>
<feOffset dy="5.16667"/>
<feGaussianBlur stdDeviation="15.5"/>
<feComposite in2="hardAlpha" operator="out"/>
<feColorMatrix type="matrix" values="0 0 0 0 0.143233 0 0 0 0 0.304677 0 0 0 0 0.562987 0 0 0 0.16 0"/>
<feBlend mode="normal" in2="BackgroundImageFix" result="effect1_dropShadow_2297_53572"/>
<feBlend mode="normal" in="SourceGraphic" in2="effect1_dropShadow_2297_53572" result="shape"/>
</filter>
<filter id="filter3_i_2297_53572" x="471.835" y="110.99" width="44.3285" height="19.9648" filterUnits="userSpaceOnUse" color-interpolation-filters="sRGB">
<feFlood flood-opacity="0" result="BackgroundImageFix"/>
<feBlend mode="normal" in="SourceGraphic" in2="BackgroundImageFix" result="shape"/>
<feColorMatrix in="SourceAlpha" type="matrix" values="0 0 0 0 0 0 0 0 0 0 0 0 0 0 0 0 0 0 127 0" result="hardAlpha"/>
<feOffset dy="1.9375"/>
<feGaussianBlur stdDeviation="1.9375"/>
<feComposite in2="hardAlpha" operator="arithmetic" k2="-1" k3="1"/>
<feColorMatrix type="matrix" values="0 0 0 0 0.8625 0 0 0 0 0.912759 0 0 0 0 1 0 0 0 0.7 0"/>
<feBlend mode="lighten" in2="shape" result="effect1_innerShadow_2297_53572"/>
</filter>
<filter id="filter4_f_2297_53572" x="492.168" y="82.9502" width="46.5" height="46.5" filterUnits="userSpaceOnUse" color-interpolation-filters="sRGB">
<feFlood flood-opacity="0" result="BackgroundImageFix"/>
<feBlend mode="normal" in="SourceGraphic" in2="BackgroundImageFix" result="shape"/>
<feGaussianBlur stdDeviation="3.875" result="effect1_foregroundBlur_2297_53572"/>
</filter>
<filter id="filter5_f_2297_53572" x="449.557" y="82.9502" width="46.5" height="46.5" filterUnits="userSpaceOnUse" color-interpolation-filters="sRGB">
<feFlood flood-opacity="0" result="BackgroundImageFix"/>
<feBlend mode="normal" in="SourceGraphic" in2="BackgroundImageFix" result="shape"/>
<feGaussianBlur stdDeviation="3.875" result="effect1_foregroundBlur_2297_53572"/>
</filter>
<filter id="filter6_ii_2297_53572" x="477.541" y="65.1006" width="30.8607" height="32.2422" filterUnits="userSpaceOnUse" color-interpolation-filters="sRGB">
<feFlood flood-opacity="0" result="BackgroundImageFix"/>
<feBlend mode="normal" in="SourceGraphic" in2="BackgroundImageFix" result="shape"/>
<feColorMatrix in="SourceAlpha" type="matrix" values="0 0 0 0 0 0 0 0 0 0 0 0 0 0 0 0 0 0 127 0" result="hardAlpha"/>
<feOffset dy="3.875"/>
<feGaussianBlur stdDeviation="1.9375"/>
<feComposite in2="hardAlpha" operator="arithmetic" k2="-1" k3="1"/>
<feColorMatrix type="matrix" values="0 0 0 0 0.9 0 0 0 0 0.928333 0 0 0 0 1 0 0 0 0.6 0"/>
<feBlend mode="lighten" in2="shape" result="effect1_innerShadow_2297_53572"/>
<feColorMatrix in="SourceAlpha" type="matrix" values="0 0 0 0 0 0 0 0 0 0 0 0 0 0 0 0 0 0 127 0" result="hardAlpha"/>
<feOffset dy="-7.75"/>
<feGaussianBlur stdDeviation="7.75"/>
<feComposite in2="hardAlpha" operator="arithmetic" k2="-1" k3="1"/>
<feColorMatrix type="matrix" values="0 0 0 0 0.097309 0 0 0 0 0.181891 0 0 0 0 0.395833 0 0 0 0.16 0"/>
<feBlend mode="multiply" in2="effect1_innerShadow_2297_53572" result="effect2_innerShadow_2297_53572"/>
</filter>
<filter id="filter7_d_2297_53572" x="432" y="114.167" width="124" height="124" filterUnits="userSpaceOnUse" color-interpolation-filters="sRGB">
<feFlood flood-opacity="0" result="BackgroundImageFix"/>
<feColorMatrix in="SourceAlpha" type="matrix" values="0 0 0 0 0 0 0 0 0 0 0 0 0 0 0 0 0 0 127 0" result="hardAlpha"/>
<feOffset dy="5.16667"/>
<feGaussianBlur stdDeviation="15.5"/>
<feComposite in2="hardAlpha" operator="out"/>
<feColorMatrix type="matrix" values="0 0 0 0 0.143233 0 0 0 0 0.304677 0 0 0 0 0.562987 0 0 0 0.16 0"/>
<feBlend mode="normal" in2="BackgroundImageFix" result="effect1_dropShadow_2297_53572"/>
<feBlend mode="normal" in="SourceGraphic" in2="effect1_dropShadow_2297_53572" result="shape"/>
</filter>
<filter id="filter8_i_2297_53572" x="471.835" y="188.99" width="44.3285" height="19.9648" filterUnits="userSpaceOnUse" color-interpolation-filters="sRGB">
<feFlood flood-opacity="0" result="BackgroundImageFix"/>
<feBlend mode="normal" in="SourceGraphic" in2="BackgroundImageFix" result="shape"/>
<feColorMatrix in="SourceAlpha" type="matrix" values="0 0 0 0 0 0 0 0 0 0 0 0 0 0 0 0 0 0 127 0" result="hardAlpha"/>
<feOffset dy="1.9375"/>
<feGaussianBlur stdDeviation="1.9375"/>
<feComposite in2="hardAlpha" operator="arithmetic" k2="-1" k3="1"/>
<feColorMatrix type="matrix" values="0 0 0 0 0.8625 0 0 0 0 0.912759 0 0 0 0 1 0 0 0 0.7 0"/>
<feBlend mode="lighten" in2="shape" result="effect1_innerShadow_2297_53572"/>
</filter>
<filter id="filter9_f_2297_53572" x="492.168" y="160.95" width="46.5" height="46.5" filterUnits="userSpaceOnUse" color-interpolation-filters="sRGB">
<feFlood flood-opacity="0" result="BackgroundImageFix"/>
<feBlend mode="normal" in="SourceGraphic" in2="BackgroundImageFix" result="shape"/>
<feGaussianBlur stdDeviation="3.875" result="effect1_foregroundBlur_2297_53572"/>
</filter>
<filter id="filter10_f_2297_53572" x="449.557" y="160.95" width="46.5" height="46.5" filterUnits="userSpaceOnUse" color-interpolation-filters="sRGB">
<feFlood flood-opacity="0" result="BackgroundImageFix"/>
<feBlend mode="normal" in="SourceGraphic" in2="BackgroundImageFix" result="shape"/>
<feGaussianBlur stdDeviation="3.875" result="effect1_foregroundBlur_2297_53572"/>
</filter>
<filter id="filter11_ii_2297_53572" x="477.541" y="143.101" width="30.8607" height="32.2422" filterUnits="userSpaceOnUse" color-interpolation-filters="sRGB">
<feFlood flood-opacity="0" result="BackgroundImageFix"/>
<feBlend mode="normal" in="SourceGraphic" in2="BackgroundImageFix" result="shape"/>
<feColorMatrix in="SourceAlpha" type="matrix" values="0 0 0 0 0 0 0 0 0 0 0 0 0 0 0 0 0 0 127 0" result="hardAlpha"/>
<feOffset dy="3.875"/>
<feGaussianBlur stdDeviation="1.9375"/>
<feComposite in2="hardAlpha" operator="arithmetic" k2="-1" k3="1"/>
<feColorMatrix type="matrix" values="0 0 0 0 0.9 0 0 0 0 0.928333 0 0 0 0 1 0 0 0 0.6 0"/>
<feBlend mode="lighten" in2="shape" result="effect1_innerShadow_2297_53572"/>
<feColorMatrix in="SourceAlpha" type="matrix" values="0 0 0 0 0 0 0 0 0 0 0 0 0 0 0 0 0 0 127 0" result="hardAlpha"/>
<feOffset dy="-7.75"/>
<feGaussianBlur stdDeviation="7.75"/>
<feComposite in2="hardAlpha" operator="arithmetic" k2="-1" k3="1"/>
<feColorMatrix type="matrix" values="0 0 0 0 0.097309 0 0 0 0 0.181891 0 0 0 0 0.395833 0 0 0 0.16 0"/>
<feBlend mode="multiply" in2="effect1_innerShadow_2297_53572" result="effect2_innerShadow_2297_53572"/>
</filter>
<filter id="filter12_d_2297_53572" x="432" y="192.167" width="124" height="124" filterUnits="userSpaceOnUse" color-interpolation-filters="sRGB">
<feFlood flood-opacity="0" result="BackgroundImageFix"/>
<feColorMatrix in="SourceAlpha" type="matrix" values="0 0 0 0 0 0 0 0 0 0 0 0 0 0 0 0 0 0 127 0" result="hardAlpha"/>
<feOffset dy="5.16667"/>
<feGaussianBlur stdDeviation="15.5"/>
<feComposite in2="hardAlpha" operator="out"/>
<feColorMatrix type="matrix" values="0 0 0 0 0.143233 0 0 0 0 0.304677 0 0 0 0 0.562987 0 0 0 0.16 0"/>
<feBlend mode="normal" in2="BackgroundImageFix" result="effect1_dropShadow_2297_53572"/>
<feBlend mode="normal" in="SourceGraphic" in2="effect1_dropShadow_2297_53572" result="shape"/>
</filter>
<filter id="filter13_i_2297_53572" x="471.835" y="266.99" width="44.3285" height="19.9648" filterUnits="userSpaceOnUse" color-interpolation-filters="sRGB">
<feFlood flood-opacity="0" result="BackgroundImageFix"/>
<feBlend mode="normal" in="SourceGraphic" in2="BackgroundImageFix" result="shape"/>
<feColorMatrix in="SourceAlpha" type="matrix" values="0 0 0 0 0 0 0 0 0 0 0 0 0 0 0 0 0 0 127 0" result="hardAlpha"/>
<feOffset dy="1.9375"/>
<feGaussianBlur stdDeviation="1.9375"/>
<feComposite in2="hardAlpha" operator="arithmetic" k2="-1" k3="1"/>
<feColorMatrix type="matrix" values="0 0 0 0 0.8625 0 0 0 0 0.912759 0 0 0 0 1 0 0 0 0.7 0"/>
<feBlend mode="lighten" in2="shape" result="effect1_innerShadow_2297_53572"/>
</filter>
<filter id="filter14_f_2297_53572" x="492.168" y="238.95" width="46.5" height="46.5" filterUnits="userSpaceOnUse" color-interpolation-filters="sRGB">
<feFlood flood-opacity="0" result="BackgroundImageFix"/>
<feBlend mode="normal" in="SourceGraphic" in2="BackgroundImageFix" result="shape"/>
<feGaussianBlur stdDeviation="3.875" result="effect1_foregroundBlur_2297_53572"/>
</filter>
<filter id="filter15_f_2297_53572" x="449.557" y="238.95" width="46.5" height="46.5" filterUnits="userSpaceOnUse" color-interpolation-filters="sRGB">
<feFlood flood-opacity="0" result="BackgroundImageFix"/>
<feBlend mode="normal" in="SourceGraphic" in2="BackgroundImageFix" result="shape"/>
<feGaussianBlur stdDeviation="3.875" result="effect1_foregroundBlur_2297_53572"/>
</filter>
<filter id="filter16_ii_2297_53572" x="477.541" y="221.101" width="30.8607" height="32.2422" filterUnits="userSpaceOnUse" color-interpolation-filters="sRGB">
<feFlood flood-opacity="0" result="BackgroundImageFix"/>
<feBlend mode="normal" in="SourceGraphic" in2="BackgroundImageFix" result="shape"/>
<feColorMatrix in="SourceAlpha" type="matrix" values="0 0 0 0 0 0 0 0 0 0 0 0 0 0 0 0 0 0 127 0" result="hardAlpha"/>
<feOffset dy="3.875"/>
<feGaussianBlur stdDeviation="1.9375"/>
<feComposite in2="hardAlpha" operator="arithmetic" k2="-1" k3="1"/>
<feColorMatrix type="matrix" values="0 0 0 0 0.9 0 0 0 0 0.928333 0 0 0 0 1 0 0 0 0.6 0"/>
<feBlend mode="lighten" in2="shape" result="effect1_innerShadow_2297_53572"/>
<feColorMatrix in="SourceAlpha" type="matrix" values="0 0 0 0 0 0 0 0 0 0 0 0 0 0 0 0 0 0 127 0" result="hardAlpha"/>
<feOffset dy="-7.75"/>
<feGaussianBlur stdDeviation="7.75"/>
<feComposite in2="hardAlpha" operator="arithmetic" k2="-1" k3="1"/>
<feColorMatrix type="matrix" values="0 0 0 0 0.097309 0 0 0 0 0.181891 0 0 0 0 0.395833 0 0 0 0.16 0"/>
<feBlend mode="multiply" in2="effect1_innerShadow_2297_53572" result="effect2_innerShadow_2297_53572"/>
</filter>
<filter id="filter17_d_2297_53572" x="432" y="270.167" width="124" height="124" filterUnits="userSpaceOnUse" color-interpolation-filters="sRGB">
<feFlood flood-opacity="0" result="BackgroundImageFix"/>
<feColorMatrix in="SourceAlpha" type="matrix" values="0 0 0 0 0 0 0 0 0 0 0 0 0 0 0 0 0 0 127 0" result="hardAlpha"/>
<feOffset dy="5.16667"/>
<feGaussianBlur stdDeviation="15.5"/>
<feComposite in2="hardAlpha" operator="out"/>
<feColorMatrix type="matrix" values="0 0 0 0 0.143233 0 0 0 0 0.304677 0 0 0 0 0.562987 0 0 0 0.16 0"/>
<feBlend mode="normal" in2="BackgroundImageFix" result="effect1_dropShadow_2297_53572"/>
<feBlend mode="normal" in="SourceGraphic" in2="effect1_dropShadow_2297_53572" result="shape"/>
</filter>
<filter id="filter18_i_2297_53572" x="471.835" y="344.99" width="44.3285" height="19.9648" filterUnits="userSpaceOnUse" color-interpolation-filters="sRGB">
<feFlood flood-opacity="0" result="BackgroundImageFix"/>
<feBlend mode="normal" in="SourceGraphic" in2="BackgroundImageFix" result="shape"/>
<feColorMatrix in="SourceAlpha" type="matrix" values="0 0 0 0 0 0 0 0 0 0 0 0 0 0 0 0 0 0 127 0" result="hardAlpha"/>
<feOffset dy="1.9375"/>
<feGaussianBlur stdDeviation="1.9375"/>
<feComposite in2="hardAlpha" operator="arithmetic" k2="-1" k3="1"/>
<feColorMatrix type="matrix" values="0 0 0 0 0.8625 0 0 0 0 0.912759 0 0 0 0 1 0 0 0 0.7 0"/>
<feBlend mode="lighten" in2="shape" result="effect1_innerShadow_2297_53572"/>
</filter>
<filter id="filter19_f_2297_53572" x="492.168" y="316.95" width="46.5" height="46.5" filterUnits="userSpaceOnUse" color-interpolation-filters="sRGB">
<feFlood flood-opacity="0" result="BackgroundImageFix"/>
<feBlend mode="normal" in="SourceGraphic" in2="BackgroundImageFix" result="shape"/>
<feGaussianBlur stdDeviation="3.875" result="effect1_foregroundBlur_2297_53572"/>
</filter>
<filter id="filter20_f_2297_53572" x="449.557" y="316.95" width="46.5" height="46.5" filterUnits="userSpaceOnUse" color-interpolation-filters="sRGB">
<feFlood flood-opacity="0" result="BackgroundImageFix"/>
<feBlend mode="normal" in="SourceGraphic" in2="BackgroundImageFix" result="shape"/>
<feGaussianBlur stdDeviation="3.875" result="effect1_foregroundBlur_2297_53572"/>
</filter>
<filter id="filter21_ii_2297_53572" x="477.541" y="299.101" width="30.8607" height="32.2422" filterUnits="userSpaceOnUse" color-interpolation-filters="sRGB">
<feFlood flood-opacity="0" result="BackgroundImageFix"/>
<feBlend mode="normal" in="SourceGraphic" in2="BackgroundImageFix" result="shape"/>
<feColorMatrix in="SourceAlpha" type="matrix" values="0 0 0 0 0 0 0 0 0 0 0 0 0 0 0 0 0 0 127 0" result="hardAlpha"/>
<feOffset dy="3.875"/>
<feGaussianBlur stdDeviation="1.9375"/>
<feComposite in2="hardAlpha" operator="arithmetic" k2="-1" k3="1"/>
<feColorMatrix type="matrix" values="0 0 0 0 0.9 0 0 0 0 0.928333 0 0 0 0 1 0 0 0 0.6 0"/>
<feBlend mode="lighten" in2="shape" result="effect1_innerShadow_2297_53572"/>
<feColorMatrix in="SourceAlpha" type="matrix" values="0 0 0 0 0 0 0 0 0 0 0 0 0 0 0 0 0 0 127 0" result="hardAlpha"/>
<feOffset dy="-7.75"/>
<feGaussianBlur stdDeviation="7.75"/>
<feComposite in2="hardAlpha" operator="arithmetic" k2="-1" k3="1"/>
<feColorMatrix type="matrix" values="0 0 0 0 0.097309 0 0 0 0 0.181891 0 0 0 0 0.395833 0 0 0 0.16 0"/>
<feBlend mode="multiply" in2="effect1_innerShadow_2297_53572" result="effect2_innerShadow_2297_53572"/>
</filter>
<linearGradient id="paint0_linear_2297_53572" x1="365" y1="209.5" x2="492.499" y2="209.174" gradientUnits="userSpaceOnUse">
<stop stop-color="#E6EFFF"/>
<stop offset="1" stop-color="white"/>
</linearGradient>
<linearGradient id="paint1_linear_2297_53572" x1="504.625" y1="101.692" x2="507.794" y2="94.2547" gradientUnits="userSpaceOnUse">
<stop offset="4.98403e-07" stop-color="#FFDBD4"/>
<stop offset="1" stop-color="#FFD1BF"/>
</linearGradient>
<linearGradient id="paint2_linear_2297_53572" x1="394.801" y1="101.691" x2="391.632" y2="94.2544" gradientUnits="userSpaceOnUse">
<stop offset="4.98403e-07" stop-color="#FFDBD4"/>
<stop offset="1" stop-color="#FFD1BF"/>
</linearGradient>
<linearGradient id="paint3_linear_2297_53572" x1="494.168" y1="116.601" x2="494.268" y2="109.713" gradientUnits="userSpaceOnUse">
<stop offset="9.92013e-07" stop-color="#FFDBD4"/>
<stop offset="1" stop-color="#FFBFAA"/>
</linearGradient>
<linearGradient id="paint4_linear_2297_53572" x1="488.895" y1="110.926" x2="489.095" y2="110.926" gradientUnits="userSpaceOnUse">
<stop offset="9.92013e-07" stop-color="#FFDBD4"/>
<stop offset="1" stop-color="#FFDCD1"/>
</linearGradient>
<linearGradient id="paint5_linear_2297_53572" x1="122.954" y1="110.885" x2="122.701" y2="110.885" gradientUnits="userSpaceOnUse">
<stop offset="9.92013e-07" stop-color="#FFDBD4"/>
<stop offset="1" stop-color="#FFDCD1"/>
</linearGradient>
<linearGradient id="paint6_linear_2297_53572" x1="493.952" y1="83.2943" x2="493.72" y2="110.853" gradientUnits="userSpaceOnUse">
<stop offset="4.98403e-07" stop-color="#D19083"/>
<stop offset="0.297551" stop-color="#FAC6BA"/>
<stop offset="1" stop-color="#FFD4C4"/>
</linearGradient>
<linearGradient id="paint7_linear_2297_53572" x1="493.952" y1="87.9178" x2="493.72" y2="110.853" gradientUnits="userSpaceOnUse">
<stop offset="4.98403e-07" stop-color="#FFDBD4"/>
<stop offset="1" stop-color="#FFC5AE"/>
</linearGradient>
<linearGradient id="paint8_linear_2297_53572" x1="504.625" y1="179.692" x2="507.794" y2="172.255" gradientUnits="userSpaceOnUse">
<stop offset="4.98403e-07" stop-color="#FFDBD4"/>
<stop offset="1" stop-color="#FFD1BF"/>
</linearGradient>
<linearGradient id="paint9_linear_2297_53572" x1="394.801" y1="179.691" x2="391.632" y2="172.254" gradientUnits="userSpaceOnUse">
<stop offset="4.98403e-07" stop-color="#FFDBD4"/>
<stop offset="1" stop-color="#FFD1BF"/>
</linearGradient>
<linearGradient id="paint10_linear_2297_53572" x1="494.168" y1="194.601" x2="494.268" y2="187.713" gradientUnits="userSpaceOnUse">
<stop offset="9.92013e-07" stop-color="#FFDBD4"/>
<stop offset="1" stop-color="#FFBFAA"/>
</linearGradient>
<linearGradient id="paint11_linear_2297_53572" x1="488.895" y1="188.926" x2="489.095" y2="188.926" gradientUnits="userSpaceOnUse">
<stop offset="9.92013e-07" stop-color="#FFDBD4"/>
<stop offset="1" stop-color="#FFDCD1"/>
</linearGradient>
<linearGradient id="paint12_linear_2297_53572" x1="122.954" y1="188.885" x2="122.701" y2="188.885" gradientUnits="userSpaceOnUse">
<stop offset="9.92013e-07" stop-color="#FFDBD4"/>
<stop offset="1" stop-color="#FFDCD1"/>
</linearGradient>
<linearGradient id="paint13_linear_2297_53572" x1="493.952" y1="161.294" x2="493.72" y2="188.853" gradientUnits="userSpaceOnUse">
<stop offset="4.98403e-07" stop-color="#D19083"/>
<stop offset="0.297551" stop-color="#FAC6BA"/>
<stop offset="1" stop-color="#FFD4C4"/>
</linearGradient>
<linearGradient id="paint14_linear_2297_53572" x1="493.952" y1="165.918" x2="493.72" y2="188.853" gradientUnits="userSpaceOnUse">
<stop offset="4.98403e-07" stop-color="#FFDBD4"/>
<stop offset="1" stop-color="#FFC5AE"/>
</linearGradient>
<linearGradient id="paint15_linear_2297_53572" x1="504.625" y1="257.692" x2="507.794" y2="250.255" gradientUnits="userSpaceOnUse">
<stop offset="4.98403e-07" stop-color="#FFDBD4"/>
<stop offset="1" stop-color="#FFD1BF"/>
</linearGradient>
<linearGradient id="paint16_linear_2297_53572" x1="394.801" y1="257.691" x2="391.632" y2="250.254" gradientUnits="userSpaceOnUse">
<stop offset="4.98403e-07" stop-color="#FFDBD4"/>
<stop offset="1" stop-color="#FFD1BF"/>
</linearGradient>
<linearGradient id="paint17_linear_2297_53572" x1="494.168" y1="272.601" x2="494.268" y2="265.713" gradientUnits="userSpaceOnUse">
<stop offset="9.92013e-07" stop-color="#FFDBD4"/>
<stop offset="1" stop-color="#FFBFAA"/>
</linearGradient>
<linearGradient id="paint18_linear_2297_53572" x1="488.895" y1="266.926" x2="489.095" y2="266.926" gradientUnits="userSpaceOnUse">
<stop offset="9.92013e-07" stop-color="#FFDBD4"/>
<stop offset="1" stop-color="#FFDCD1"/>
</linearGradient>
<linearGradient id="paint19_linear_2297_53572" x1="122.954" y1="266.885" x2="122.701" y2="266.885" gradientUnits="userSpaceOnUse">
<stop offset="9.92013e-07" stop-color="#FFDBD4"/>
<stop offset="1" stop-color="#FFDCD1"/>
</linearGradient>
<linearGradient id="paint20_linear_2297_53572" x1="493.952" y1="239.294" x2="493.72" y2="266.853" gradientUnits="userSpaceOnUse">
<stop offset="4.98403e-07" stop-color="#D19083"/>
<stop offset="0.297551" stop-color="#FAC6BA"/>
<stop offset="1" stop-color="#FFD4C4"/>
</linearGradient>
<linearGradient id="paint21_linear_2297_53572" x1="493.952" y1="243.918" x2="493.72" y2="266.853" gradientUnits="userSpaceOnUse">
<stop offset="4.98403e-07" stop-color="#FFDBD4"/>
<stop offset="1" stop-color="#FFC5AE"/>
</linearGradient>
<linearGradient id="paint22_linear_2297_53572" x1="504.625" y1="335.692" x2="507.794" y2="328.255" gradientUnits="userSpaceOnUse">
<stop offset="4.98403e-07" stop-color="#FFDBD4"/>
<stop offset="1" stop-color="#FFD1BF"/>
</linearGradient>
<linearGradient id="paint23_linear_2297_53572" x1="394.801" y1="335.691" x2="391.632" y2="328.254" gradientUnits="userSpaceOnUse">
<stop offset="4.98403e-07" stop-color="#FFDBD4"/>
<stop offset="1" stop-color="#FFD1BF"/>
</linearGradient>
<linearGradient id="paint24_linear_2297_53572" x1="494.168" y1="350.601" x2="494.268" y2="343.713" gradientUnits="userSpaceOnUse">
<stop offset="9.92013e-07" stop-color="#FFDBD4"/>
<stop offset="1" stop-color="#FFBFAA"/>
</linearGradient>
<linearGradient id="paint25_linear_2297_53572" x1="488.895" y1="344.926" x2="489.095" y2="344.926" gradientUnits="userSpaceOnUse">
<stop offset="9.92013e-07" stop-color="#FFDBD4"/>
<stop offset="1" stop-color="#FFDCD1"/>
</linearGradient>
<linearGradient id="paint26_linear_2297_53572" x1="122.954" y1="344.885" x2="122.701" y2="344.885" gradientUnits="userSpaceOnUse">
<stop offset="9.92013e-07" stop-color="#FFDBD4"/>
<stop offset="1" stop-color="#FFDCD1"/>
</linearGradient>
<linearGradient id="paint27_linear_2297_53572" x1="493.952" y1="317.294" x2="493.72" y2="344.853" gradientUnits="userSpaceOnUse">
<stop offset="4.98403e-07" stop-color="#D19083"/>
<stop offset="0.297551" stop-color="#FAC6BA"/>
<stop offset="1" stop-color="#FFD4C4"/>
</linearGradient>
<linearGradient id="paint28_linear_2297_53572" x1="493.952" y1="321.918" x2="493.72" y2="344.853" gradientUnits="userSpaceOnUse">
<stop offset="4.98403e-07" stop-color="#FFDBD4"/>
<stop offset="1" stop-color="#FFC5AE"/>
</linearGradient>
<clipPath id="clip0_2297_53572">
<rect width="14" height="14" fill="white" transform="translate(217 149)"/>
</clipPath>
<clipPath id="clip1_2297_53572">
<rect width="16" height="16" fill="white" transform="translate(108 61)"/>
</clipPath>
<clipPath id="clip2_2297_53572">
<rect width="16" height="16" fill="white" transform="translate(236 61)"/>
</clipPath>
<clipPath id="clip3_2297_53572">
<rect x="463" y="62" width="62" height="62" rx="15.5" fill="white"/>
</clipPath>
<clipPath id="clip4_2297_53572">
<rect x="463" y="140" width="62" height="62" rx="15.5" fill="white"/>
</clipPath>
<clipPath id="clip5_2297_53572">
<rect x="463" y="218" width="62" height="62" rx="15.5" fill="white"/>
</clipPath>
<clipPath id="clip6_2297_53572">
<rect x="463" y="296" width="62" height="62" rx="15.5" fill="white"/>
</clipPath>
</defs>
</svg>
