<svg width="40" height="40" viewBox="0 0 40 40" fill="none" xmlns="http://www.w3.org/2000/svg">
<rect width="40" height="40" rx="20" fill="#505CFF"/>
<path d="M14.5078 12.875H28.6094C28.8456 12.875 29.0721 12.9688 29.2391 13.1359C29.4062 13.3029 29.5 13.5294 29.5 13.7656V23.8594C29.5 24.0956 29.4062 24.3221 29.2391 24.4891C29.0721 24.6562 28.8456 24.75 28.6094 24.75H18.2188C17.9825 24.75 17.756 24.6562 17.589 24.4891C17.422 24.3221 17.3281 24.0956 17.3281 23.8594V17.7734C17.3281 17.5372 17.2343 17.3107 17.0673 17.1437C16.9002 16.9766 16.6737 16.8828 16.4375 16.8828H13.9141C13.8353 16.8828 13.7598 16.8515 13.7041 16.7959C13.6485 16.7402 13.6172 16.6647 13.6172 16.5859V13.7656C13.6172 13.5294 13.711 13.3029 13.878 13.1359C14.0451 12.9688 14.2716 12.875 14.5078 12.875ZM15.25 18.0703H11.3906C11.1544 18.0703 10.9279 18.1641 10.7609 18.3312C10.5938 18.4982 10.5 18.7247 10.5 18.9609V26.2344C10.5 26.4706 10.5938 26.6971 10.7609 26.8641C10.9279 27.0312 11.1544 27.125 11.3906 27.125H15.25C15.4862 27.125 15.7127 27.0312 15.8798 26.8641C16.0468 26.6971 16.1406 26.4706 16.1406 26.2344V18.9609C16.1406 18.7247 16.0468 18.4982 15.8798 18.3312C15.7127 18.1641 15.4862 18.0703 15.25 18.0703ZM19.6289 22.5234C19.5305 22.5234 19.4361 22.5625 19.3665 22.6321C19.2969 22.7017 19.2578 22.7961 19.2578 22.8945C19.2578 22.993 19.2969 23.0873 19.3665 23.1569C19.4361 23.2265 19.5305 23.2656 19.6289 23.2656H25.418C25.5164 23.2656 25.6108 23.2265 25.6804 23.1569C25.75 23.0873 25.7891 22.993 25.7891 22.8945C25.7891 22.7961 25.75 22.7017 25.6804 22.6321C25.6108 22.5625 25.5164 22.5234 25.418 22.5234H19.6289ZM13.7656 25.9375C13.7656 26.0556 13.7187 26.1689 13.6352 26.2524C13.5517 26.3359 13.4384 26.3828 13.3203 26.3828C13.2022 26.3828 13.0889 26.3359 13.0054 26.2524C12.9219 26.1689 12.875 26.0556 12.875 25.9375C12.875 25.8194 12.9219 25.7061 13.0054 25.6226C13.0889 25.5391 13.2022 25.4922 13.3203 25.4922C13.4384 25.4922 13.5517 25.5391 13.6352 25.6226C13.7187 25.7061 13.7656 25.8194 13.7656 25.9375ZM24.8242 25.7891H18.4414C18.3537 25.7891 18.2668 25.8063 18.1858 25.8399C18.1047 25.8735 18.0311 25.9227 17.9691 25.9847C17.9071 26.0467 17.8579 26.1204 17.8243 26.2014C17.7907 26.2825 17.7734 26.3693 17.7734 26.457C17.7734 26.5448 17.7907 26.6316 17.8243 26.7127C17.8579 26.7937 17.9071 26.8673 17.9691 26.9294C18.0311 26.9914 18.1047 27.0406 18.1858 27.0742C18.2668 27.1077 18.3537 27.125 18.4414 27.125H24.8242C24.9119 27.125 24.9988 27.1077 25.0798 27.0742C25.1609 27.0406 25.2345 26.9914 25.2965 26.9294C25.3586 26.8673 25.4078 26.7937 25.4413 26.7127C25.4749 26.6316 25.4922 26.5448 25.4922 26.457C25.4922 26.3693 25.4749 26.2825 25.4413 26.2014C25.4078 26.1204 25.3586 26.0467 25.2965 25.9847C25.2345 25.9227 25.1609 25.8735 25.0798 25.8399C24.9988 25.8063 24.9119 25.7891 24.8242 25.7891Z" fill="#EBECFF"/>
</svg>
