<svg fill="none" xmlns="http://www.w3.org/2000/svg" viewBox="0 0 80 80" class="design-iconfont">
  <path d="M54.5833 22.5V34.1667V35.625C50.2738 35.625 46.4009 37.4943 43.7312 40.4664C41.4114 43.0488 40 46.4638 40 50.2083C40 51.0526 40.0718 51.88 40.2094 52.685C40.9594 57.0692 43.6667 60.7855 47.3997 62.9025C43.5169 64.0765 38.3632 64.7917 32.7083 64.7917C20.6271 64.7917 10.8333 61.527 10.8333 57.5V45.8333V34.1667V22.5" stroke="#2475FC" stroke-width="5.83333" stroke-linecap="round" stroke-linejoin="round"/>
  <path d="M54.5835 22.5026C54.5835 26.5296 44.7898 29.7943 32.7085 29.7943C20.6272 29.7943 10.8335 26.5296 10.8335 22.5026C10.8335 18.4755 20.6272 15.2109 32.7085 15.2109C44.7898 15.2109 54.5835 18.4755 54.5835 22.5026Z" stroke="#2475FC" stroke-width="5.83333" stroke-linecap="round" stroke-linejoin="round"/>
  <path d="M10.8335 45.8359C10.8335 49.863 20.6272 53.1276 32.7085 53.1276C35.3437 53.1276 37.87 52.9723 40.2096 52.6876" stroke="#2475FC" stroke-width="5.83333" stroke-linecap="round" stroke-linejoin="round"/>
  <path d="M10.8335 34.1641C10.8335 38.1911 20.6272 41.4557 32.7085 41.4557C36.7281 41.4557 40.4945 41.0944 43.7313 40.4638" stroke="#2475FC" stroke-width="5.83333" stroke-linecap="round" stroke-linejoin="round"/>
  <path d="M69.1667 50.2083C69.1667 58.2624 62.6374 64.7917 54.5833 64.7917C51.9716 64.7917 49.5201 64.1051 47.3997 62.9025C43.6667 60.7855 40.9594 57.0692 40.2094 52.685C40.0718 51.88 40 51.0526 40 50.2083C40 46.4638 41.4114 43.0488 43.7311 40.4664C46.4009 37.4943 50.2738 35.625 54.5833 35.625C62.6374 35.625 69.1667 42.1543 69.1667 50.2083Z" stroke="#2475FC" stroke-width="5.83333" stroke-linecap="round" stroke-linejoin="round"/>
  <path d="M54.5834 56.0417V44.375L51.6667 47.2917M54.5834 56.0417H57.5M54.5834 56.0417H51.6667" stroke="#2475FC" stroke-width="5.83333" stroke-linecap="round" stroke-linejoin="round"/>
</svg>
