<svg width="640" height="420" viewBox="0 0 640 420" fill="none" xmlns="http://www.w3.org/2000/svg">
<rect x="84" y="34" width="88" height="88" rx="14.08" fill="#47C200"/>
<path d="M138.926 59.0005C145.033 59.0005 150 63.5152 150 69.0973C150 70.8322 149.49 72.5296 148.57 74.0595C147.178 76.2944 144.95 77.9493 142.255 78.7367C141.684 78.9159 141.09 79.0127 140.491 79.0242C140.216 79.0292 139.944 78.9794 139.689 78.8777C139.434 78.7759 139.202 78.6244 139.006 78.4318C138.811 78.2393 138.655 78.0097 138.55 77.7564C138.444 77.5031 138.39 77.2313 138.391 76.9568C138.391 75.7944 139.316 74.892 140.491 74.892C140.573 74.892 140.746 74.892 140.956 74.812C142.765 74.312 144.195 73.2821 144.995 71.9122C145.54 71.0472 145.795 70.0873 145.795 69.0973C145.795 65.8225 142.72 63.1402 138.971 63.1402C137.677 63.1421 136.405 63.4688 135.271 64.0902C133.286 65.2051 132.111 67.065 132.111 69.0973V86.4363C132.111 89.951 130.129 93.1808 126.844 95.0032C125.079 95.9957 123.094 96.4981 121.074 96.4981C114.97 96.4981 110 91.9809 110 86.3988C110 84.6664 110.512 82.9665 111.43 81.4366C112.822 79.2017 115.052 77.5468 117.745 76.7619C118.499 76.5544 119.009 76.4744 119.509 76.4744C120.692 76.4744 121.612 77.3868 121.612 78.5392C121.612 78.8137 121.558 79.0855 121.453 79.3388C121.347 79.5921 121.192 79.8217 120.996 80.0142C120.801 80.2068 120.569 80.3583 120.314 80.4601C120.059 80.5618 119.786 80.6116 119.512 80.6066C119.427 80.6066 119.254 80.6066 119.047 80.6866C117.235 81.2241 115.807 82.2615 115.007 83.5839C114.46 84.4514 114.207 85.4088 114.207 86.4013C114.207 89.6761 117.282 92.3559 121.067 92.3559C122.361 92.3551 123.634 92.0294 124.769 91.4084C126.751 90.291 127.926 88.4311 127.926 86.4013V69.1048C127.926 65.5901 129.909 62.3628 133.194 60.5379C134.929 59.5134 136.911 58.9819 138.926 59.0005Z" fill="white"/>
<rect x="264" y="34" width="88" height="88" rx="16" fill="#2F3DFF"/>
<path d="M292.604 72.882C293.182 77.9686 295.969 82.947 300.101 86.0848C300.277 86.1842 300.424 86.3382 300.526 86.529C300.628 86.7199 300.681 86.9398 300.678 87.1635C300.773 87.2738 300.678 87.4903 300.678 87.5966L300.528 88.2994L300.377 89.0494C300.237 89.7158 300.113 90.3867 300.007 91.0612C299.91 91.2777 299.91 91.386 299.91 91.6025C300.007 91.9273 300.294 92.2521 300.582 92.2521C300.773 92.2521 300.869 92.2521 300.966 92.1439L304.81 89.3289C305.093 89.1098 305.428 88.997 305.77 89.0061H306.252C307.406 89.2226 308.655 89.4391 309.905 89.4391C313.752 89.4391 316.73 88.3564 319.518 86.0848C319.422 87.384 319.039 89.0061 318.748 89.9785C316.058 97.8781 308.271 101.234 300.007 98.2029C292.893 95.6045 288.471 86.1911 290.49 78.2914C291.067 76.1261 291.548 74.7206 292.604 72.882ZM311.829 68.1182C317.5 65.8485 323.749 67.254 327.305 72.5572C331.822 79.1576 330.571 89.3328 324.227 94.8466C322.689 96.1458 320.862 97.012 319.036 97.5553C320.521 95.6642 321.665 93.4566 322.402 91.0592C323.068 88.818 323.337 86.4476 323.194 84.0863C323.051 81.7249 322.498 79.4198 321.567 77.305C320.637 75.1903 319.348 73.3082 317.775 71.7685C316.201 70.2288 314.376 69.0622 312.405 68.3367C312.213 68.2264 312.021 68.2264 311.829 68.1201V68.1182ZM309.905 56C314.904 56 319.518 58.9213 322.305 63.8996C322.305 63.8996 322.496 64.2264 322.689 64.6555C322.305 64.439 321.825 64.3327 321.346 64.2225C321.249 64.1162 321.249 64.1162 321.151 64.1162C320.767 64.0099 320.383 63.8996 319.902 63.7933H319.711C319.231 63.6831 318.845 63.5768 318.364 63.5768H318.171C317.693 63.4666 317.212 63.4666 316.731 63.4666C316.346 63.4666 315.865 63.5768 315.481 63.5768H314.961C314.589 63.5768 314.215 63.6122 313.846 63.6831H313.655C313.271 63.6831 312.885 63.7933 312.501 63.8996H312.405C312.021 64.0099 311.636 64.2264 311.252 64.3327C311.156 64.439 311.156 64.439 311.058 64.439C310.289 64.7658 309.523 65.0886 308.751 65.5217C308.751 65.6319 308.655 65.6319 308.655 65.6319C308.367 65.9548 307.983 66.1713 307.599 66.3878H307.504C307.12 66.7146 306.829 66.9312 306.445 67.254L305.88 67.7461C302.475 70.8454 300.237 75.3154 299.622 80.2403C297.797 78.1851 296.544 74.8308 296.257 72.3406C295.995 70.4808 296.091 68.5779 296.539 66.765C296.987 64.9521 297.776 63.2728 298.851 61.8445C302.315 57.189 306.926 56 309.905 56Z" fill="white"/>
<rect x="444" y="34" width="88" height="88" rx="16" fill="#FF6A00"/>
<path d="M485.263 83.8401V86.6823C485.263 90.3448 482.294 93.3139 478.632 93.3139C474.969 93.3139 472 90.3448 472 86.6823V73.4189" stroke="white" stroke-width="3.78949" stroke-linecap="round" stroke-linejoin="round"/>
<path d="M494.737 83.8401V86.6823C494.737 90.3448 497.706 93.3139 501.368 93.3139C505.031 93.3139 508 90.3448 508 86.6823V73.4189" stroke="white" stroke-width="3.78949" stroke-linecap="round" stroke-linejoin="round"/>
<path d="M497.579 63H482.421C476.666 63 472 67.6657 472 73.4212C472 79.1766 476.666 83.8423 482.421 83.8423H497.579C503.334 83.8423 508 79.1766 508 73.4212C508 67.6657 503.334 63 497.579 63Z" stroke="white" stroke-width="3.78949"/>
<path d="M487.157 73.4189H479.578" stroke="white" stroke-width="3.78949" stroke-linecap="round" stroke-linejoin="round"/>
<path d="M483.368 69.6299V77.2089" stroke="white" stroke-width="3.78949" stroke-linecap="round" stroke-linejoin="round"/>
<path d="M499.474 70.1036C500.258 70.1036 500.895 70.7398 500.895 71.5246C500.895 72.3095 500.258 72.9457 499.474 72.9457C498.689 72.9457 498.053 72.3095 498.053 71.5246C498.053 70.7398 498.689 70.1036 499.474 70.1036Z" fill="white" stroke="white" stroke-width="0.947374"/>
<path d="M495.684 74.8419C496.469 74.8419 497.105 75.4781 497.105 76.2629C497.105 77.0478 496.469 77.684 495.684 77.684C494.899 77.684 494.263 77.0478 494.263 76.2629C494.263 75.4781 494.899 74.8419 495.684 74.8419Z" fill="white" stroke="white" stroke-width="0.947374"/>
<path d="M129 139V139C129 178.212 160.788 210 200 210H309.249M488 142.087V142.087C488 179.594 457.594 210 420.087 210H309.249M309.249 142.087V210" stroke="#C4C7CD" stroke-width="4" stroke-linejoin="round" stroke-dasharray="12 12"/>
<circle cx="130" cy="142" r="10" fill="#C4C7CD" stroke="#8995AB" stroke-width="4" stroke-linejoin="round"/>
<circle cx="308" cy="142" r="10" fill="#C4C7CD" stroke="#8995AB" stroke-width="4" stroke-linejoin="round"/>
<circle cx="488" cy="142" r="10" fill="#C4C7CD" stroke="#8995AB" stroke-width="4" stroke-linejoin="round"/>
<g filter="url(#filter0_d_2233_55682)">
<rect x="128" y="267" width="384" height="116" rx="12" fill="white"/>
</g>
<path d="M128 279C128 272.373 133.373 267 140 267H244V383H140C133.373 383 128 377.627 128 371V279Z" fill="#E6EFFF"/>
<path fill-rule="evenodd" clip-rule="evenodd" d="M198.997 322.711C198.843 314.008 191.74 307 183 307C174.163 307 167 314.163 167 323C167 327.17 168.595 330.968 171.209 333.815L170.01 341.026L177.125 337.97C180.26 339.012 183.218 339.273 186 338.752" fill="#2475FC"/>
<path d="M198.997 322.711C198.843 314.008 191.74 307 183 307C174.163 307 167 314.163 167 323C167 327.17 168.595 330.968 171.209 333.815L170.01 341.026L177.125 337.97C180.26 339.012 183.218 339.273 186 338.752" stroke="#2475FC" stroke-width="4" stroke-linecap="round" stroke-linejoin="round"/>
<path d="M177.125 321.469C178.368 321.469 179.375 320.454 179.375 319.202C179.375 317.95 178.368 316.936 177.125 316.936C175.883 316.936 174.875 317.95 174.875 319.202C174.875 320.454 175.883 321.469 177.125 321.469Z" fill="white"/>
<path d="M186.125 321.469C187.368 321.469 188.375 320.454 188.375 319.202C188.375 317.95 187.368 316.936 186.125 316.936C184.883 316.936 183.875 317.95 183.875 319.202C183.875 320.454 184.883 321.469 186.125 321.469Z" fill="white"/>
<path fill-rule="evenodd" clip-rule="evenodd" d="M200.762 340.929C199.013 342.23 196.847 343 194.5 343C188.701 343 184 338.299 184 332.5C184 326.701 188.701 322 194.5 322C200.299 322 205 326.701 205 332.5C205 334.1 204.642 335.616 204.002 336.973" fill="#2475FC"/>
<path d="M200.762 340.929C199.013 342.23 196.847 343 194.5 343C188.701 343 184 338.299 184 332.5C184 326.701 188.701 322 194.5 322C200.299 322 205 326.701 205 332.5C205 334.1 204.642 335.616 204.002 336.973" stroke="#2475FC" stroke-width="4" stroke-linecap="round" stroke-linejoin="round"/>
<path fill-rule="evenodd" clip-rule="evenodd" d="M204.003 336.975L205 343.002L200.762 340.931" fill="#2475FC"/>
<path d="M204.003 336.975L205 343.002L200.762 340.931" stroke="#2475FC" stroke-width="4" stroke-linecap="round" stroke-linejoin="round"/>
<path d="M197.687 331.798C196.755 331.798 196 331.037 196 330.098C196 329.16 196.755 328.398 197.687 328.398C198.619 328.398 199.375 329.16 199.375 330.098C199.375 331.037 198.619 331.798 197.687 331.798Z" fill="white"/>
<path d="M190.937 331.798C190.005 331.798 189.25 331.037 189.25 330.098C189.25 329.16 190.005 328.398 190.937 328.398C191.869 328.398 192.625 329.16 192.625 330.098C192.625 331.037 191.869 331.798 190.937 331.798Z" fill="white"/>
<path d="M267.007 306.11H269.087L267.193 316.763H265.113L267.007 306.11ZM278.611 316.665H276.951L276.78 314.814L278.529 314.873C278.929 314.873 279.202 314.577 279.3 314.026L280.788 305.657H273.508L273.84 303.787H283.18L281.262 314.577C281.017 315.956 280.131 316.665 278.611 316.665ZM270.907 306.898H278.567L277.188 314.656H269.528L270.907 306.898ZM275.549 312.963L275.801 311.545H272.061L271.809 312.963H275.549ZM272.348 309.93H276.088L276.333 308.552H272.593L272.348 309.93ZM270.144 302.979C271.019 303.905 271.676 304.712 272.11 305.421L270.384 306.465C269.917 305.716 269.291 304.85 268.459 303.905L270.144 302.979ZM269.843 301.522C269.223 302.31 268.573 303.038 267.874 303.708L266.314 302.585C267.745 301.286 268.83 299.907 269.589 298.45L271.512 298.883C271.339 299.179 271.19 299.454 271.041 299.73H275.861L275.543 301.522H273.043C273.345 302.073 273.574 302.585 273.726 303.078L271.764 303.767C271.544 302.979 271.237 302.231 270.883 301.522H269.843ZM278.363 301.522C277.88 302.211 277.348 302.841 276.803 303.432L275.243 302.31C276.436 301.109 277.344 299.829 277.985 298.47L279.888 298.903C279.739 299.179 279.59 299.454 279.461 299.73H284.981L284.663 301.522H281.803C282.075 302.014 282.271 302.487 282.434 302.92L280.472 303.609C280.238 302.9 279.964 302.192 279.623 301.522H278.363ZM288.5 301.424H292.5C292.084 300.616 291.633 299.888 291.149 299.238L293.036 298.411C293.586 299.139 294.083 299.947 294.525 300.833L293.24 301.424H297.12C297.915 300.439 298.637 299.415 299.293 298.312L301.187 299.021C300.59 299.907 299.946 300.715 299.3 301.424H302.86L301.337 309.989H295.197L294.938 311.446H302.858L302.515 313.376H294.595L293.983 316.822H291.903L292.515 313.376H284.595L284.938 311.446H292.858L293.117 309.989H286.977L288.5 301.424ZM299.64 308.178L299.93 306.543H295.81L295.52 308.178H299.64ZM293.44 308.178L293.73 306.543H289.61L289.32 308.178H293.44ZM289.918 304.81H294.038L294.322 303.216H290.202L289.918 304.81ZM296.402 303.216L296.118 304.81H300.238L300.522 303.216H296.402ZM304.069 315.326C305.687 313.987 306.892 312.608 307.687 311.171C308.375 309.891 308.948 308.02 309.389 305.539L310.53 299.12H320.57L317.972 313.731C317.899 314.144 318.06 314.361 318.48 314.361H319.76C319.98 314.361 320.171 314.302 320.345 314.223C320.462 314.124 320.563 314.006 320.624 313.888C320.78 313.573 321.071 312.273 321.477 309.989L323.296 310.56C323.009 312.175 322.735 313.376 322.475 314.164C322.235 314.951 321.917 315.503 321.505 315.798C321.096 316.074 320.488 316.231 319.708 316.231H318.108C316.308 316.231 315.544 315.463 315.814 313.947L318.093 301.128H312.233L311.449 305.539C311.018 307.961 310.37 310.029 309.502 311.762C308.614 313.494 307.26 315.148 305.453 316.763L304.069 315.326ZM335.185 298.47H337.305L336.92 300.636H342.8L342.454 302.585H336.574L336.206 304.653H344.066L343.713 306.642H336.013L335.001 312.333H332.901L333.913 306.642H325.793L326.146 304.653H328.886L329.712 300.006H331.832L331.006 304.653H334.086L335.185 298.47ZM340.207 307.685L341.932 308.67C338.422 314.124 333.056 316.862 325.832 316.881L325.422 314.912C332.342 314.912 337.273 312.49 340.207 307.685ZM330.282 307.154L331.534 308.434C330.052 310.245 328.328 311.84 326.39 313.179L325.348 311.506C327.208 310.265 328.867 308.808 330.282 307.154ZM364.506 300.38L363.662 305.126H361.562L362.052 302.369H348.932L348.442 305.126H346.342L347.186 300.38H354.566C354.464 299.829 354.331 299.336 354.172 298.883L356.622 298.49C356.74 299.061 356.848 299.691 356.926 300.38H364.506ZM349.464 304.102H360.864L360.514 306.071H349.114L349.464 304.102ZM345.777 307.744H363.357L363.003 309.733H357.623L356.93 313.632C356.825 314.223 357.012 314.518 357.492 314.518H359.952C360.152 314.518 360.317 314.38 360.462 314.124C360.588 313.868 360.811 313.061 361.089 311.722L362.961 312.333C362.464 314.341 362.01 315.542 361.584 315.916C361.201 316.271 360.666 316.468 360.006 316.468H356.506C355.066 316.468 354.489 315.66 354.776 314.046L355.543 309.733H352.683C352.24 311.663 351.403 313.219 350.197 314.38C349.028 315.444 347.297 316.29 344.992 316.881L344.121 315.03C346.356 314.499 347.911 313.849 348.791 313.061C349.685 312.195 350.281 311.092 350.603 309.733H345.423L345.777 307.744ZM381.41 298.332C382.191 299.002 382.828 299.691 383.346 300.38L382.261 301.305H384.641L384.295 303.255H378.415C378.169 305.539 378.094 307.311 378.197 308.532C378.207 308.808 378.242 309.064 378.273 309.339C379.318 307.961 380.262 306.366 381.097 304.594L382.853 305.401C381.629 307.902 380.25 310.029 378.719 311.781C378.829 312.175 378.966 312.529 379.113 312.825C379.523 313.672 379.886 314.105 380.186 314.105C380.386 314.105 380.794 313.16 381.39 311.269L383.091 312.273C382.078 315.05 381.089 316.448 380.089 316.448C379.209 316.448 378.394 315.857 377.621 314.696C377.404 314.341 377.194 313.947 377.031 313.514C375.459 314.932 373.746 316.015 371.893 316.763L371.001 315.03C373.028 314.203 374.842 313.002 376.442 311.427C376.284 310.738 376.177 309.989 376.101 309.182C375.941 307.607 376.015 305.618 376.275 303.255H370.035L369.548 305.992H374.448C373.737 309.655 373.131 311.939 372.63 312.845C372.163 313.672 371.389 314.085 370.306 314.105C369.826 314.105 369.293 314.065 368.703 314.006L368.396 312.136C369.185 312.195 369.838 312.234 370.398 312.234C370.722 312.214 370.977 312.017 371.147 311.624C371.347 311.171 371.628 309.93 372.025 307.922H369.205C368.454 311.584 367.112 314.518 365.177 316.743L363.845 315.345C365.404 313.553 366.488 311.053 367.116 307.863L368.281 301.305H376.521C376.642 300.4 376.814 299.435 376.989 298.45H379.109C378.93 299.454 378.782 300.4 378.661 301.305H381.481C381.079 300.754 380.544 300.163 379.869 299.573L381.41 298.332ZM396.233 301.916H393.533L393.862 300.065H397.922C397.809 299.573 397.69 299.12 397.527 298.687L399.75 298.332C399.859 298.844 399.934 299.435 400.022 300.065H404.362L404.033 301.916H401.653L402.59 302.27C402.123 303.097 401.63 303.846 401.107 304.535H403.927L403.581 306.484H392.241L392.587 304.535H395.327C395.133 303.826 394.885 303.196 394.627 302.625L396.233 301.916ZM397.307 304.535H398.907C399.514 303.708 400.072 302.822 400.573 301.916H396.493C396.809 302.723 397.075 303.59 397.307 304.535ZM386.272 316.546H384.512L384.405 314.558C384.911 314.636 385.404 314.676 385.884 314.676C386.324 314.676 386.586 314.44 386.663 314.006L387.374 310.009C386.628 310.265 385.886 310.501 385.144 310.738L384.972 308.67C385.907 308.473 386.829 308.237 387.745 307.922L388.435 304.043H386.215L386.568 302.054H388.788L389.408 298.568H391.528L390.908 302.054H392.348L391.995 304.043H390.555L390.019 307.055C390.541 306.819 391.043 306.583 391.545 306.346L391.174 308.434C390.652 308.67 390.153 308.887 389.655 309.103L388.689 314.538C388.451 315.877 387.632 316.546 386.272 316.546ZM395.822 306.701L397.8 306.937C397.567 307.351 397.317 307.744 397.087 308.138H403.627L403.276 310.107H401.236C400.712 311.368 399.983 312.431 399.062 313.337C400.188 313.868 401.266 314.44 402.294 315.07L400.864 316.704C399.936 316.074 398.778 315.385 397.344 314.676C395.843 315.582 393.657 316.29 390.779 316.842L390.308 314.991C392.331 314.636 393.988 314.203 395.263 313.672C394.227 313.199 393.134 312.707 391.942 312.214C392.551 311.486 393.097 310.777 393.616 310.107H391.336L391.687 308.138H394.967C395.298 307.626 395.582 307.154 395.822 306.701ZM399.276 310.107H395.716C395.356 310.56 394.999 310.994 394.645 311.407C395.546 311.742 396.439 312.116 397.309 312.51C398.128 311.84 398.788 311.053 399.276 310.107ZM414.171 303.275C413.555 301.68 412.712 300.459 411.626 299.592L413.562 298.49C414.999 299.632 416.083 301.857 416.819 305.145C417.906 309.714 419.772 312.943 422.436 314.833L420.846 316.468C418.068 314.656 416.081 311.092 414.88 305.815L414.851 305.638C412.661 310.304 409.357 313.928 404.902 316.487L403.937 314.715C408.553 312.037 411.969 308.237 414.171 303.275Z" fill="black"/>
<rect x="262" y="338" width="234" height="12" rx="6" fill="#E4E6EB"/>
<rect x="262" y="338" width="170" height="12" rx="6" fill="url(#paint0_linear_2233_55682)"/>
<circle cx="485" cy="344" r="11" fill="#D8DDE6"/>
<circle cx="410" cy="344" r="11" fill="#2475FC"/>
<circle cx="320" cy="344" r="11" fill="#25CCFD"/>
<path d="M480 344L484 348L491 341" stroke="#7A8699" stroke-width="2" stroke-linecap="round" stroke-linejoin="round"/>
<path d="M307.586 256.414C308.367 257.195 309.633 257.195 310.414 256.414L323.142 243.686C323.923 242.905 323.923 241.639 323.142 240.858C322.361 240.077 321.095 240.077 320.314 240.858L309 252.172L297.686 240.858C296.905 240.077 295.639 240.077 294.858 240.858C294.077 241.639 294.077 242.905 294.858 243.686L307.586 256.414ZM307 215.188C307 216.292 307.895 217.188 309 217.188C310.105 217.188 311 216.292 311 215.188H307ZM311 226.562C311 225.458 310.105 224.562 309 224.562C307.895 224.562 307 225.458 307 226.562H311ZM307 237.938C307 239.042 307.895 239.938 309 239.938C310.105 239.938 311 239.042 311 237.938H307ZM311 249.312C311 248.208 310.105 247.312 309 247.312C307.895 247.312 307 248.208 307 249.312H311ZM307 209.5V215.188H311V209.5H307ZM307 226.562V237.938H311V226.562H307ZM307 249.312V255H311V249.312H307ZM307.586 256.414C308.367 257.195 309.633 257.195 310.414 256.414L323.142 243.686C323.923 242.905 323.923 241.639 323.142 240.858C322.361 240.077 321.095 240.077 320.314 240.858L309 252.172L297.686 240.858C296.905 240.077 295.639 240.077 294.858 240.858C294.077 241.639 294.077 242.905 294.858 243.686L307.586 256.414ZM307 215.188C307 216.292 307.895 217.188 309 217.188C310.105 217.188 311 216.292 311 215.188H307ZM311 226.562C311 225.458 310.105 224.562 309 224.562C307.895 224.562 307 225.458 307 226.562H311ZM307 237.938C307 239.042 307.895 239.938 309 239.938C310.105 239.938 311 239.042 311 237.938H307ZM311 249.312C311 248.208 310.105 247.312 309 247.312C307.895 247.312 307 248.208 307 249.312H311ZM307 209.5V215.188H311V209.5H307ZM307 226.562V237.938H311V226.562H307ZM307 249.312V255H311V249.312H307Z" fill="#C4C7CD"/>
<defs>
<filter id="filter0_d_2233_55682" x="104" y="247" width="432" height="164" filterUnits="userSpaceOnUse" color-interpolation-filters="sRGB">
<feFlood flood-opacity="0" result="BackgroundImageFix"/>
<feColorMatrix in="SourceAlpha" type="matrix" values="0 0 0 0 0 0 0 0 0 0 0 0 0 0 0 0 0 0 127 0" result="hardAlpha"/>
<feOffset dy="4"/>
<feGaussianBlur stdDeviation="12"/>
<feComposite in2="hardAlpha" operator="out"/>
<feColorMatrix type="matrix" values="0 0 0 0 0.143233 0 0 0 0 0.304677 0 0 0 0 0.562987 0 0 0 0.12 0"/>
<feBlend mode="normal" in2="BackgroundImageFix" result="effect1_dropShadow_2233_55682"/>
<feBlend mode="normal" in="SourceGraphic" in2="effect1_dropShadow_2233_55682" result="shape"/>
</filter>
<linearGradient id="paint0_linear_2233_55682" x1="262" y1="344" x2="432" y2="344" gradientUnits="userSpaceOnUse">
<stop stop-color="#24D4FC"/>
<stop offset="1" stop-color="#2476FF"/>
</linearGradient>
</defs>
</svg>
