<svg width="16" height="16" viewBox="0 0 16 16" fill="none" xmlns="http://www.w3.org/2000/svg">
<g clip-path="url(#clip0_2343_53402)">
<path d="M8 16C5.86667 16 3.86667 15.2 2.33333 13.6667C0.8 12.1333 0 10.1333 0 8C0 5.86667 0.8 3.86667 2.33333 2.33333C3.86667 0.8 5.86667 0 8 0C9.13333 0 10.2667 0.266667 11.2667 0.733333C11.6 0.866667 11.7333 1.26667 11.6 1.6C11.4667 1.93333 11.0667 2.06667 10.7333 1.93333C9.86667 1.53333 8.93333 1.33333 8 1.33333C6.2 1.33333 4.53333 2 3.26667 3.26667C2 4.53333 1.33333 6.2 1.33333 8C1.33333 9.8 2 11.4667 3.26667 12.7333C4.53333 14 6.2 14.6667 8 14.6667C9.8 14.6667 11.4667 14 12.7333 12.7333C14 11.4667 14.6667 9.8 14.6667 8C14.6667 7.6 14.9333 7.33333 15.3333 7.33333C15.7333 7.33333 16 7.6 16 8C16 10.1333 15.2 12.1333 13.6667 13.6667C12.1333 15.2 10.1333 16 8 16Z" fill="#3A4559"/>
<path d="M8.00004 10.6663C7.80004 10.6663 7.66671 10.5997 7.53337 10.4663L4.53337 7.46634C4.26671 7.19967 4.26671 6.79967 4.53337 6.53301C4.80004 6.26634 5.20004 6.26634 5.46671 6.53301L8.00004 9.06634L13.5334 3.53301C13.8 3.26634 14.2 3.26634 14.4667 3.53301C14.7334 3.79967 14.7334 4.19967 14.4667 4.46634L8.46671 10.4663C8.33337 10.5997 8.20004 10.6663 8.00004 10.6663Z" fill="#3A4559"/>
</g>
<defs>
<clipPath id="clip0_2343_53402">
<rect width="16" height="16" fill="white"/>
</clipPath>
</defs>
</svg>
