<svg width="640" height="420" viewBox="0 0 640 420" fill="none" xmlns="http://www.w3.org/2000/svg">
<path d="M211 44H590C596.627 44 602 49.3726 602 56V85H211V44Z" fill="#F2F4F7"/>
<g filter="url(#filter0_d_2297_54600)">
<path fill-rule="evenodd" clip-rule="evenodd" d="M38 82V44H214C220.075 44 225 48.9249 225 55V70C225 76.6274 230.373 82 237 82H602V369C602 375.627 596.627 381 590 381H50C43.3726 381 38 375.627 38 369V82Z" fill="white"/>
</g>
<rect x="74" y="55" width="100" height="17" rx="6" fill="#EDEFF2"/>
<path d="M64.0562 64.7487L59.7542 69.0507C59.5291 69.276 59.2237 69.4026 58.9052 69.4026C58.5867 69.4026 58.2813 69.276 58.0562 69.0507L52.6665 63.667V57.667H58.6665L64.0562 63.0567C64.5215 63.5247 64.5215 64.2807 64.0562 64.7487Z" fill="#A1A7B3" stroke="#A1A7B3" stroke-width="1.33333" stroke-linejoin="round"/>
<path fill-rule="evenodd" clip-rule="evenodd" d="M56.1668 61.9997C56.6271 61.9997 57.0002 61.6266 57.0002 61.1663C57.0002 60.7061 56.6271 60.333 56.1668 60.333C55.7066 60.333 55.3335 60.7061 55.3335 61.1663C55.3335 61.6266 55.7066 61.9997 56.1668 61.9997Z" fill="white"/>
<path d="M252.056 61.2487L247.754 65.5507C247.529 65.776 247.224 65.9026 246.905 65.9026C246.587 65.9026 246.282 65.776 246.056 65.5507L240.667 60.167V54.167H246.667L252.056 59.5567C252.522 60.0247 252.522 60.7807 252.056 61.2487Z" fill="#A1A7B3" stroke="#A1A7B3" stroke-width="1.33333" stroke-linejoin="round"/>
<path fill-rule="evenodd" clip-rule="evenodd" d="M244.167 58.4997C244.627 58.4997 245 58.1266 245 57.6663C245 57.2061 244.627 56.833 244.167 56.833C243.706 56.833 243.333 57.2061 243.333 57.6663C243.333 58.1266 243.706 58.4997 244.167 58.4997Z" fill="white"/>
<rect x="262" y="51" width="36" height="17" rx="6" fill="#D8DDE6"/>
<rect x="310" y="51.5" width="1" height="16" rx="0.5" fill="#D9D9D9"/>
<path d="M337.056 61.2487L332.754 65.5507C332.529 65.776 332.224 65.9026 331.905 65.9026C331.587 65.9026 331.282 65.776 331.056 65.5507L325.667 60.167V54.167H331.667L337.056 59.5567C337.522 60.0247 337.522 60.7807 337.056 61.2487Z" fill="#A1A7B3" stroke="#A1A7B3" stroke-width="1.33333" stroke-linejoin="round"/>
<path fill-rule="evenodd" clip-rule="evenodd" d="M329.167 58.4997C329.627 58.4997 330 58.1266 330 57.6663C330 57.2061 329.627 56.833 329.167 56.833C328.706 56.833 328.333 57.2061 328.333 57.6663C328.333 58.1266 328.706 58.4997 329.167 58.4997Z" fill="white"/>
<rect x="347" y="51" width="36" height="17" rx="6" fill="#D8DDE6"/>
<rect x="395" y="51.5" width="1" height="16" rx="0.5" fill="#D9D9D9"/>
<path d="M422.056 61.2487L417.754 65.5507C417.529 65.776 417.224 65.9026 416.905 65.9026C416.587 65.9026 416.282 65.776 416.056 65.5507L410.667 60.167V54.167H416.667L422.056 59.5567C422.522 60.0247 422.522 60.7807 422.056 61.2487Z" fill="#A1A7B3" stroke="#A1A7B3" stroke-width="1.33333" stroke-linejoin="round"/>
<path fill-rule="evenodd" clip-rule="evenodd" d="M414.167 58.4997C414.627 58.4997 415 58.1266 415 57.6663C415 57.2061 414.627 56.833 414.167 56.833C413.706 56.833 413.333 57.2061 413.333 57.6663C413.333 58.1266 413.706 58.4997 414.167 58.4997Z" fill="white"/>
<rect x="432" y="51" width="36" height="17" rx="6" fill="#D8DDE6"/>
<rect x="480" y="51.5" width="1" height="16" rx="0.5" fill="#D9D9D9"/>
<path d="M507.056 61.2487L502.754 65.5507C502.529 65.776 502.224 65.9026 501.905 65.9026C501.587 65.9026 501.282 65.776 501.056 65.5507L495.667 60.167V54.167H501.667L507.056 59.5567C507.522 60.0247 507.522 60.7807 507.056 61.2487Z" fill="#A1A7B3" stroke="#A1A7B3" stroke-width="1.33333" stroke-linejoin="round"/>
<path fill-rule="evenodd" clip-rule="evenodd" d="M499.167 58.4997C499.627 58.4997 500 58.1266 500 57.6663C500 57.2061 499.627 56.833 499.167 56.833C498.706 56.833 498.333 57.2061 498.333 57.6663C498.333 58.1266 498.706 58.4997 499.167 58.4997Z" fill="white"/>
<rect x="517" y="51" width="36" height="17" rx="6" fill="#D8DDE6"/>
<path d="M494.32 169.8L495.9 164.24L497.32 164.48L496.18 168.42H499.68C500.08 166.86 500.4 165.24 500.64 163.52L502.1 163.7C501.84 165.38 501.52 166.94 501.16 168.42H510.52V169.8H500.78C500.54 170.6 500.3 171.36 500.02 172.08H508.2V173.32C507.66 175.04 506.58 176.6 504.94 178C506.56 178.96 508.54 179.84 510.86 180.64L510.12 181.98C507.56 181.04 505.44 180.02 503.76 178.92C502.12 180.08 500.08 181.12 497.66 182.06L496.9 180.72C499.14 179.9 501 179 502.5 178.02C500.94 176.82 499.84 175.52 499.18 174.12C497.72 177.28 495.84 179.78 493.56 181.64L492.82 180.32C495.74 177.76 497.88 174.26 499.28 169.8H494.32ZM500.26 173.4C500.94 174.76 502.08 176.02 503.68 177.18C505.16 176.02 506.18 174.76 506.74 173.4H500.26ZM505.46 163.68C506.9 164.78 508.08 165.88 509.04 166.98L508.02 168C507.18 166.94 506 165.82 504.5 164.62L505.46 163.68ZM530.8 174.46C530.68 176.08 530.44 177.14 530.12 177.62C529.82 178.1 529.2 178.36 528.26 178.36H524.7C523.56 178.36 523 177.78 523 176.64V170.14H528.44V166.28H522.66V164.94H529.84V171.52H524.44V176.12C524.44 176.66 524.72 176.94 525.28 176.96H528C528.56 176.96 528.94 176.74 529.12 176.32C529.26 175.94 529.36 175.16 529.44 174L530.8 174.46ZM514.42 173.18L515.72 173.34C515.68 174.48 515.58 175.56 515.42 176.6C516.02 177.72 516.7 178.56 517.5 179.12V171.9H513.4V170.58H517.06V167.64H513.76V166.32H517.06V163.62H518.5V166.32H521.7V167.64H518.5V170.58H521.96V171.9H518.88V174.72H521.72V176.04H518.88V179.8C520.12 180.14 522.58 180.32 526.24 180.32C528.46 180.32 530.12 180.28 531.2 180.22L530.96 181.62H526.56C521.88 181.62 518.94 181.34 517.78 180.8C516.76 180.32 515.86 179.46 515.1 178.26C514.78 179.6 514.38 180.84 513.86 182L512.76 181.02C513.76 178.7 514.32 176.08 514.42 173.18ZM541.48 163.66H542.52C545.06 166.5 547.98 168.74 551.28 170.38L550.5 171.76C547.18 170.02 544.36 167.74 542 164.94C539.84 167.58 536.98 169.86 533.42 171.78L532.66 170.4C536.18 168.6 539.12 166.36 541.48 163.66ZM537.12 169.8H546.94V171.16H537.12V169.8ZM533.98 173.82H550.06V175.22H540.64C539.68 177.1 538.52 178.74 537.16 180.16C540.42 179.96 543.52 179.68 546.48 179.28C545.8 178.4 545.06 177.48 544.24 176.56L545.36 175.84C547.18 177.88 548.58 179.64 549.56 181.14L548.36 181.98C548.02 181.44 547.66 180.9 547.26 180.34C544.14 180.84 540.2 181.24 535.42 181.52L535.02 180.26C535.38 180.16 535.62 180.04 535.78 179.88C537.06 178.4 538.14 176.86 539 175.22H533.98V173.82ZM559.2 169.5H564.68V166.34C563.24 166.48 561.68 166.56 560.02 166.56L559.6 165.26C563.74 165.26 567.18 164.8 569.9 163.88L570.6 165.1C569.32 165.56 567.82 165.92 566.14 166.16V169.5H571.3V170.9H566.14V174.12H569.94V181.94H568.5V180.94H562.36V181.94H560.94V174.12H564.68V170.9H559.2V169.5ZM562.36 179.58H568.5V175.42H562.36V179.58ZM555.24 163.86C556.6 164.88 557.74 165.9 558.66 166.94L557.68 167.94C556.84 166.96 555.68 165.92 554.24 164.84L555.24 163.86ZM552.84 169.78H557.16V178.7C557.84 178.14 558.6 177.46 559.4 176.68L559.78 178.2C558.58 179.36 557.28 180.38 555.9 181.28L555.34 180C555.62 179.74 555.78 179.46 555.78 179.16V171.16H552.84V169.78Z" fill="#2475FC"/>
<rect x="158.5" y="154.5" width="102" height="37" rx="7.5" fill="#F5F5F5"/>
<rect x="158.5" y="154.5" width="102" height="37" rx="7.5" stroke="#D9D9D9"/>
<path d="M174.1 165.72H175.9L180.36 178.22H180.42L184.88 165.72H186.68L181.4 180H179.38L174.1 165.72ZM188.333 165.72H189.953V180H188.333V165.72ZM192.96 165.72H198.8C202.08 165.72 203.72 167.12 203.72 169.92C203.72 172.74 202.06 174.16 198.78 174.16H194.6V180H192.96V165.72ZM194.6 167.14V172.74H198.7C199.86 172.74 200.7 172.5 201.26 172.04C201.8 171.58 202.08 170.88 202.08 169.92C202.08 168.96 201.8 168.26 201.24 167.84C200.68 167.36 199.84 167.14 198.7 167.14H194.6ZM220.232 175.8V182.06H218.832V181.2H210.232V182.06H208.832V175.8H220.232ZM210.232 179.9H218.832V177.1H210.232V179.9ZM211.832 166.88L213.232 167.18C212.932 167.64 212.632 168.08 212.312 168.5H219.692V169.66C218.872 170.8 217.692 171.8 216.152 172.68C218.332 173.54 220.772 174.06 223.472 174.26L223.152 175.56C219.952 175.32 217.132 174.62 214.652 173.42C212.292 174.5 209.312 175.34 205.712 175.96L205.172 174.68C208.392 174.16 211.072 173.5 213.192 172.66C212.172 172.06 211.232 171.38 210.372 170.62C209.592 171.32 208.752 171.94 207.872 172.5L206.952 171.38C208.932 170.24 210.552 168.74 211.832 166.88ZM214.672 172.02C216.052 171.34 217.152 170.56 217.972 169.72H211.272L211.212 169.78C212.272 170.66 213.432 171.4 214.672 172.02ZM222.472 165.16V168.94H221.012V166.46H207.692V168.94H206.232V165.16H213.552C213.312 164.64 213.072 164.18 212.812 163.76L214.392 163.52C214.632 164 214.852 164.56 215.092 165.16H222.472ZM240.332 167.54H228.912V171.44H240.332V167.54ZM228.912 172.84C228.812 176.42 227.872 179.5 226.072 182.08L225.012 181.12C226.632 178.88 227.452 175.96 227.492 172.38V166.12H234.012C233.652 165.28 233.272 164.5 232.852 163.78L234.392 163.54C234.752 164.3 235.112 165.16 235.472 166.12H241.792V172.84H228.912Z" fill="#595959"/>
<rect x="282.5" y="154.5" width="111" height="37" rx="7.5" fill="#F5F5F5"/>
<rect x="282.5" y="154.5" width="111" height="37" rx="7.5" stroke="#D9D9D9"/>
<path d="M314.98 166.84V181.96H313.52V180.38H302.5V182H301.04V166.84H305.8C306.24 165.8 306.58 164.7 306.8 163.58L308.38 163.8C308.16 164.88 307.84 165.9 307.4 166.84H314.98ZM302.5 178.98H313.52V174.1H302.5V178.98ZM302.5 172.74H313.52V168.22H302.5V172.74ZM322.76 169.38C321.8 169.96 320.8 170.5 319.76 170.98L318.92 169.78C322.4 168.22 325.24 166.24 327.44 163.82H328.6C330.52 166.2 333.34 168.16 337.06 169.72L336.24 170.92C335.18 170.48 334.2 169.98 333.28 169.44V170.54H328.74V173.42H335.86V174.76H328.74V180.1H330.96C331.64 178.8 332.24 177.4 332.76 175.9L334.08 176.36C333.58 177.76 333.02 179.02 332.42 180.1H336.56V181.48H319.46V180.1H323.6C323.18 178.82 322.64 177.64 322 176.52L323.3 176.04C323.92 177.16 324.48 178.52 325 180.1H327.3V174.76H320.16V173.42H327.3V170.54H322.76V169.38ZM332.94 169.24C330.98 168.08 329.34 166.72 328.02 165.18C326.52 166.74 324.84 168.1 322.98 169.24H332.94ZM347.48 163.66H348.52C351.06 166.5 353.98 168.74 357.28 170.38L356.5 171.76C353.18 170.02 350.36 167.74 348 164.94C345.84 167.58 342.98 169.86 339.42 171.78L338.66 170.4C342.18 168.6 345.12 166.36 347.48 163.66ZM343.12 169.8H352.94V171.16H343.12V169.8ZM339.98 173.82H356.06V175.22H346.64C345.68 177.1 344.52 178.74 343.16 180.16C346.42 179.96 349.52 179.68 352.48 179.28C351.8 178.4 351.06 177.48 350.24 176.56L351.36 175.84C353.18 177.88 354.58 179.64 355.56 181.14L354.36 181.98C354.02 181.44 353.66 180.9 353.26 180.34C350.14 180.84 346.2 181.24 341.42 181.52L341.02 180.26C341.38 180.16 341.62 180.04 341.78 179.88C343.06 178.4 344.14 176.86 345 175.22H339.98V173.82ZM374.74 170.92V178.38H373.32V172.24H362.7V178.62H361.28V170.92H374.74ZM362.48 164.4H373.54V169.42H362.48V164.4ZM372.14 168.16V165.68H363.88V168.16H372.14ZM367.46 173.54L368.92 173.66C368.64 176.6 368.02 178.58 367.06 179.62C366.02 180.86 363.64 181.66 359.92 182L359.36 180.7C362.6 180.5 364.76 179.86 365.82 178.76C366.74 177.74 367.3 176 367.46 173.54ZM369.44 178.18C372.04 178.92 374.42 179.82 376.58 180.86L375.8 182.06C373.5 180.86 371.14 179.94 368.72 179.26L369.44 178.18Z" fill="#595959"/>
<rect x="409.5" y="154.5" width="42" height="37" rx="7.5" fill="#E6EFFF"/>
<rect x="409.5" y="154.5" width="42" height="37" rx="7.5" stroke="#2475FC"/>
<path d="M430.5 166.75V179.25" stroke="#659EFC" stroke-width="1.625" stroke-linecap="round" stroke-linejoin="round"/>
<path d="M424.25 173H436.75" stroke="#659EFC" stroke-width="1.625" stroke-linecap="round" stroke-linejoin="round"/>
<g clip-path="url(#clip0_2297_54600)">
<rect x="69" y="115" width="81" height="81" rx="15.5" fill="#E6EFFF"/>
<path fill-rule="evenodd" clip-rule="evenodd" d="M122.782 157.598C122.782 157.598 128.637 154.464 130.122 157.291C131.607 160.117 127.993 169.593 122.782 167.609V157.598Z" fill="url(#paint0_linear_2297_54600)"/>
<path fill-rule="evenodd" clip-rule="evenodd" d="M96.3547 167.608C91.1444 169.593 87.5311 160.117 89.0154 157.29C90.5004 154.464 96.3547 157.598 96.3547 157.598V167.608Z" fill="url(#paint1_linear_2297_54600)"/>
<path fill-rule="evenodd" clip-rule="evenodd" d="M116.068 177.256L109.571 177.349L103.074 177.256C103.074 177.256 103.243 181.193 102.518 184.004C102.146 185.446 103.515 186.694 105.004 186.694H109.391H109.751H114.775C116.369 186.694 117.339 185.253 116.955 183.706C116.26 180.919 116.068 177.256 116.068 177.256Z" fill="url(#paint2_linear_2297_54600)"/>
<g filter="url(#filter1_i_2297_54600)">
<path fill-rule="evenodd" clip-rule="evenodd" d="M116.475 179.003C118.976 180.657 120.336 181.484 120.336 181.484C120.551 181.612 120.681 181.808 120.729 182.019C122.96 183.256 125.338 184.449 126.656 185.051C134.229 188.809 138.455 202.555 138.455 202.555H80.5425C83.8527 189.749 88.6506 186.07 93.5126 184.782C94.3691 184.555 96.4082 183.291 98.545 181.968C99.4704 181.394 100.414 180.809 101.288 180.293C102.007 179.723 102.587 179.231 102.83 179.003C102.847 179.186 102.869 179.373 102.896 179.563C103.287 179.809 103.697 180.409 104.178 181.115C105.255 182.692 106.691 184.797 109.092 184.648C111.371 184.506 112.875 182.767 114.09 181.361C115.002 180.306 115.752 179.439 116.545 179.576C116.545 179.353 116.522 179.161 116.475 179.003Z" fill="#659EFC"/>
</g>
<path fill-rule="evenodd" clip-rule="evenodd" d="M103.151 181.973L109.011 196.896H110.767L116.157 182.125L103.151 181.973Z" fill="white"/>
<path fill-rule="evenodd" clip-rule="evenodd" d="M103.082 179.19C102.511 179.119 103.092 178.65 103.092 178.65L103.082 179.19Z" fill="url(#paint3_linear_2297_54600)"/>
<path fill-rule="evenodd" clip-rule="evenodd" d="M116.158 178.552C116.158 178.552 116.858 179.213 116.221 179.18L116.158 178.552Z" fill="url(#paint4_linear_2297_54600)"/>
<path fill-rule="evenodd" clip-rule="evenodd" d="M125.693 161.181C125.693 162.842 125.343 164.876 124.972 166.567C124.515 168.648 123.559 170.588 122.183 172.216L121.001 173.616C119.294 175.637 117.017 177.093 114.467 177.795L110.942 178.766C109.996 179.026 108.997 179.025 108.052 178.763L104.422 177.757C101.974 177.078 99.7699 175.718 98.0649 173.834L96.9174 172.566C95.7624 171.29 94.9248 169.896 94.4664 168.238C93.9197 166.258 93.3 163.393 93.3 161.181C93.3 146.86 93.9818 135.25 109.497 135.25C123.328 135.25 125.693 146.86 125.693 161.181Z" fill="url(#paint5_linear_2297_54600)"/>
<path fill-rule="evenodd" clip-rule="evenodd" d="M108.134 184.217L105.856 194.788L109.498 196.725L113.773 194.317L111.412 184.263L108.134 184.217Z" fill="#E5EFFF"/>
<path fill-rule="evenodd" clip-rule="evenodd" d="M108.118 184.307L108.068 184.537C108.06 184.575 108.087 184.609 108.125 184.61L111.392 184.662C111.449 184.663 111.492 184.61 111.478 184.554L111.43 184.354L108.118 184.307Z" fill="#C8D4EE"/>
<path fill-rule="evenodd" clip-rule="evenodd" d="M103.506 182.408C103.506 182.408 106.498 184.602 107.083 184.624C107.669 184.647 107.865 183.697 107.865 183.697L107.575 182.973L103.506 182.408Z" fill="#C8D4EE"/>
<path fill-rule="evenodd" clip-rule="evenodd" d="M116.101 182.408C116.101 182.408 113.11 184.602 112.525 184.624C111.939 184.647 111.743 183.697 111.743 183.697L112.033 182.973L116.101 182.408Z" fill="#C8D4EE"/>
<path fill-rule="evenodd" clip-rule="evenodd" d="M108.125 180.815C108.125 180.815 110.864 180.983 111.443 180.8L111.928 182.766L111.448 184.312C111.426 184.383 111.36 184.43 111.286 184.429L108.245 184.385C108.177 184.385 108.117 184.342 108.092 184.279L107.541 182.862L108.125 180.815Z" fill="#E5EFFF"/>
<path fill-rule="evenodd" clip-rule="evenodd" d="M102.829 179.06C102.829 179.06 101.926 180.879 102.112 181.41C102.298 181.941 106.748 184.167 107.237 184.044C107.626 183.947 107.913 182.285 108.153 180.862C108.168 180.77 108.104 180.684 108.011 180.671C105.262 180.288 102.829 179.06 102.829 179.06Z" fill="white"/>
<path fill-rule="evenodd" clip-rule="evenodd" d="M116.475 179.06C116.598 179.026 117.625 180.995 117.478 181.415C117.291 181.946 112.842 184.172 112.352 184.05C111.964 183.952 111.536 183.215 111.432 180.918C111.425 180.769 111.539 180.644 111.687 180.635C113.987 180.486 116.475 179.06 116.475 179.06Z" fill="white"/>
<g opacity="0.7">
<mask id="mask0_2297_54600" style="mask-type:alpha" maskUnits="userSpaceOnUse" x="93" y="135" width="33" height="44">
<path fill-rule="evenodd" clip-rule="evenodd" d="M125.693 161.181C125.693 162.842 125.343 164.876 124.972 166.567C124.515 168.648 123.559 170.588 122.183 172.216L121.001 173.616C119.294 175.637 117.017 177.093 114.467 177.795L110.942 178.766C109.996 179.026 108.997 179.025 108.052 178.763L104.422 177.757C101.974 177.078 99.7699 175.718 98.0649 173.834L96.9174 172.566C95.7624 171.29 94.9248 169.896 94.4664 168.238C93.9197 166.258 93.3 163.393 93.3 161.181C93.3 146.86 93.9818 135.25 109.497 135.25C123.328 135.25 125.693 146.86 125.693 161.181Z" fill="url(#paint6_linear_2297_54600)"/>
</mask>
<g mask="url(#mask0_2297_54600)">
<g filter="url(#filter2_f_2297_54600)">
<circle cx="121.418" cy="159.2" r="15.5" fill="white"/>
</g>
<g filter="url(#filter3_f_2297_54600)">
<circle cx="78.8071" cy="159.2" r="15.5" fill="white"/>
</g>
</g>
</g>
<g filter="url(#filter4_ii_2297_54600)">
<path fill-rule="evenodd" clip-rule="evenodd" d="M119.172 133.451C118.284 133.29 117.697 133.272 117.697 133.272C112.524 127.994 108.514 128.932 103.844 130.024C103.408 130.126 102.966 130.23 102.517 130.329C94.0318 132.226 87.9838 137.559 87.9973 146.806C88.0041 151.241 89.5498 154.15 92.1688 154.022C92.4818 154.007 92.785 153.994 93.0803 153.981C96.8736 153.817 99.3754 153.708 104.893 151.241C107.809 149.938 108.848 142.365 108.848 142.365C111.359 147.447 121.349 153.597 125.602 154.326C125.623 154.329 125.646 154.807 125.668 155.263C125.688 155.68 125.707 156.078 125.723 156.081C125.762 156.088 125.756 156.086 125.752 156.084C125.748 156.082 125.745 156.081 125.777 156.087C126.81 156.249 128.045 155.527 128.045 155.527C128.045 155.527 129.159 144.423 126.864 138.949C126.071 137.059 124.733 135.797 123.32 134.955C123.577 134.473 124.35 133.438 126.235 133.532C126.235 133.532 124.356 131.572 121.62 133.287C121.621 133.288 120.664 130.061 116.384 129.734C116.384 129.734 118.168 131.228 119.172 133.451Z" fill="#364A6A"/>
</g>
</g>
<rect x="158" y="119" width="102" height="29" rx="8" fill="#D8DDE6"/>
<path d="M494.32 290.8L495.9 285.24L497.32 285.48L496.18 289.42H499.68C500.08 287.86 500.4 286.24 500.64 284.52L502.1 284.7C501.84 286.38 501.52 287.94 501.16 289.42H510.52V290.8H500.78C500.54 291.6 500.3 292.36 500.02 293.08H508.2V294.32C507.66 296.04 506.58 297.6 504.94 299C506.56 299.96 508.54 300.84 510.86 301.64L510.12 302.98C507.56 302.04 505.44 301.02 503.76 299.92C502.12 301.08 500.08 302.12 497.66 303.06L496.9 301.72C499.14 300.9 501 300 502.5 299.02C500.94 297.82 499.84 296.52 499.18 295.12C497.72 298.28 495.84 300.78 493.56 302.64L492.82 301.32C495.74 298.76 497.88 295.26 499.28 290.8H494.32ZM500.26 294.4C500.94 295.76 502.08 297.02 503.68 298.18C505.16 297.02 506.18 295.76 506.74 294.4H500.26ZM505.46 284.68C506.9 285.78 508.08 286.88 509.04 287.98L508.02 289C507.18 287.94 506 286.82 504.5 285.62L505.46 284.68ZM530.8 295.46C530.68 297.08 530.44 298.14 530.12 298.62C529.82 299.1 529.2 299.36 528.26 299.36H524.7C523.56 299.36 523 298.78 523 297.64V291.14H528.44V287.28H522.66V285.94H529.84V292.52H524.44V297.12C524.44 297.66 524.72 297.94 525.28 297.96H528C528.56 297.96 528.94 297.74 529.12 297.32C529.26 296.94 529.36 296.16 529.44 295L530.8 295.46ZM514.42 294.18L515.72 294.34C515.68 295.48 515.58 296.56 515.42 297.6C516.02 298.72 516.7 299.56 517.5 300.12V292.9H513.4V291.58H517.06V288.64H513.76V287.32H517.06V284.62H518.5V287.32H521.7V288.64H518.5V291.58H521.96V292.9H518.88V295.72H521.72V297.04H518.88V300.8C520.12 301.14 522.58 301.32 526.24 301.32C528.46 301.32 530.12 301.28 531.2 301.22L530.96 302.62H526.56C521.88 302.62 518.94 302.34 517.78 301.8C516.76 301.32 515.86 300.46 515.1 299.26C514.78 300.6 514.38 301.84 513.86 303L512.76 302.02C513.76 299.7 514.32 297.08 514.42 294.18ZM541.48 284.66H542.52C545.06 287.5 547.98 289.74 551.28 291.38L550.5 292.76C547.18 291.02 544.36 288.74 542 285.94C539.84 288.58 536.98 290.86 533.42 292.78L532.66 291.4C536.18 289.6 539.12 287.36 541.48 284.66ZM537.12 290.8H546.94V292.16H537.12V290.8ZM533.98 294.82H550.06V296.22H540.64C539.68 298.1 538.52 299.74 537.16 301.16C540.42 300.96 543.52 300.68 546.48 300.28C545.8 299.4 545.06 298.48 544.24 297.56L545.36 296.84C547.18 298.88 548.58 300.64 549.56 302.14L548.36 302.98C548.02 302.44 547.66 301.9 547.26 301.34C544.14 301.84 540.2 302.24 535.42 302.52L535.02 301.26C535.38 301.16 535.62 301.04 535.78 300.88C537.06 299.4 538.14 297.86 539 296.22H533.98V294.82ZM559.2 290.5H564.68V287.34C563.24 287.48 561.68 287.56 560.02 287.56L559.6 286.26C563.74 286.26 567.18 285.8 569.9 284.88L570.6 286.1C569.32 286.56 567.82 286.92 566.14 287.16V290.5H571.3V291.9H566.14V295.12H569.94V302.94H568.5V301.94H562.36V302.94H560.94V295.12H564.68V291.9H559.2V290.5ZM562.36 300.58H568.5V296.42H562.36V300.58ZM555.24 284.86C556.6 285.88 557.74 286.9 558.66 287.94L557.68 288.94C556.84 287.96 555.68 286.92 554.24 285.84L555.24 284.86ZM552.84 290.78H557.16V299.7C557.84 299.14 558.6 298.46 559.4 297.68L559.78 299.2C558.58 300.36 557.28 301.38 555.9 302.28L555.34 301C555.62 300.74 555.78 300.46 555.78 300.16V292.16H552.84V290.78Z" fill="#2475FC"/>
<rect x="158.5" y="275.5" width="111" height="37" rx="7.5" fill="#F5F5F5"/>
<rect x="158.5" y="275.5" width="111" height="37" rx="7.5" stroke="#D9D9D9"/>
<path d="M177.44 284.7L178.84 284.98C178.66 285.66 178.48 286.3 178.28 286.92H182.16V288.3H177.8C177.28 289.68 176.66 290.94 175.96 292.08L174.8 291.34C176.02 289.34 176.9 287.14 177.44 284.7ZM176.92 290.8H181.72V292.12H179.62V294.74H182.38V296.08H179.62V300.78C180.36 300.54 181.1 300.2 181.86 299.8L182.1 301.04C180.96 301.64 179.64 302.12 178.16 302.5L177.6 301.32C178.04 301.2 178.26 301 178.26 300.72V296.08H175.32V294.74H178.26V292.12H176.92V290.8ZM184.66 290.36V292.64H190.38V290.36H184.66ZM190.38 289.08V286.76H184.66V289.08H190.38ZM192.02 294.98L192.94 295.9C192.04 296.98 191.02 297.8 189.9 298.36C190.72 299.64 191.82 300.72 193.18 301.62L192.42 302.84C189.36 300.68 187.52 297.72 186.88 293.94H184.66V300.98C185.82 300.66 186.98 300.26 188.12 299.76L188.44 301.02C187.04 301.6 185.28 302.16 183.16 302.68L182.86 301.48C183.14 301.38 183.3 301.24 183.3 301.04V285.46H191.7V293.94H188.16C188.38 295.16 188.74 296.26 189.26 297.26C190.22 296.74 191.14 295.98 192.02 294.98ZM199.6 284.88H200.98V290.22H202.1V291.56H197.48V292.56C197.48 293.22 197.46 293.84 197.44 294.44H201.2V302.72H199.8V295.78H197.38C197.14 299 196.58 301.46 195.68 303.16L194.62 302.24C195.58 300.24 196.08 297 196.1 292.56V285.28H197.48V290.22H199.6V284.88ZM203.04 286.44H206.14C206.42 285.8 206.64 285.16 206.78 284.5L208.22 284.68C208.06 285.3 207.86 285.88 207.6 286.44H212.08V294.9H207.46L207.22 295.38C206.62 296.4 205.66 297.2 204.34 297.78H208.24V295.7H209.64V297.78H213.1V299.16H209.64V302.94H208.24V299.16H202.12V297.78H204.1L203.52 296.86C204.66 296.34 205.48 295.7 206 294.9H203.04V286.44ZM210.76 293.64V291.26H208.2C208.16 292.14 208.04 292.94 207.88 293.64H210.76ZM206.54 293.64C206.74 292.92 206.86 292.14 206.9 291.26H204.34V293.64H206.54ZM204.34 290.04H206.92V287.72H204.34V290.04ZM208.22 287.72V290.04H210.76V287.72H208.22ZM223.48 284.66H224.52C227.06 287.5 229.98 289.74 233.28 291.38L232.5 292.76C229.18 291.02 226.36 288.74 224 285.94C221.84 288.58 218.98 290.86 215.42 292.78L214.66 291.4C218.18 289.6 221.12 287.36 223.48 284.66ZM219.12 290.8H228.94V292.16H219.12V290.8ZM215.98 294.82H232.06V296.22H222.64C221.68 298.1 220.52 299.74 219.16 301.16C222.42 300.96 225.52 300.68 228.48 300.28C227.8 299.4 227.06 298.48 226.24 297.56L227.36 296.84C229.18 298.88 230.58 300.64 231.56 302.14L230.36 302.98C230.02 302.44 229.66 301.9 229.26 301.34C226.14 301.84 222.2 302.24 217.42 302.52L217.02 301.26C217.38 301.16 217.62 301.04 217.78 300.88C219.06 299.4 220.14 297.86 221 296.22H215.98V294.82ZM250.74 291.92V299.38H249.32V293.24H238.7V299.62H237.28V291.92H250.74ZM238.48 285.4H249.54V290.42H238.48V285.4ZM248.14 289.16V286.68H239.88V289.16H248.14ZM243.46 294.54L244.92 294.66C244.64 297.6 244.02 299.58 243.06 300.62C242.02 301.86 239.64 302.66 235.92 303L235.36 301.7C238.6 301.5 240.76 300.86 241.82 299.76C242.74 298.74 243.3 297 243.46 294.54ZM245.44 299.18C248.04 299.92 250.42 300.82 252.58 301.86L251.8 303.06C249.5 301.86 247.14 300.94 244.72 300.26L245.44 299.18Z" fill="#595959"/>
<rect x="282.5" y="275.5" width="102" height="37" rx="7.5" fill="#F5F5F5"/>
<rect x="282.5" y="275.5" width="102" height="37" rx="7.5" stroke="#D9D9D9"/>
<path d="M298.1 286.72H299.9L304.36 299.22H304.42L308.88 286.72H310.68L305.4 301H303.38L298.1 286.72ZM312.333 286.72H313.953V301H312.333V286.72ZM316.96 286.72H322.8C326.08 286.72 327.72 288.12 327.72 290.92C327.72 293.74 326.06 295.16 322.78 295.16H318.6V301H316.96V286.72ZM318.6 288.14V293.74H322.7C323.86 293.74 324.7 293.5 325.26 293.04C325.8 292.58 326.08 291.88 326.08 290.92C326.08 289.96 325.8 289.26 325.24 288.84C324.68 288.36 323.84 288.14 322.7 288.14H318.6ZM344.232 296.8V303.06H342.832V302.2H334.232V303.06H332.832V296.8H344.232ZM334.232 300.9H342.832V298.1H334.232V300.9ZM335.832 287.88L337.232 288.18C336.932 288.64 336.632 289.08 336.312 289.5H343.692V290.66C342.872 291.8 341.692 292.8 340.152 293.68C342.332 294.54 344.772 295.06 347.472 295.26L347.152 296.56C343.952 296.32 341.132 295.62 338.652 294.42C336.292 295.5 333.312 296.34 329.712 296.96L329.172 295.68C332.392 295.16 335.072 294.5 337.192 293.66C336.172 293.06 335.232 292.38 334.372 291.62C333.592 292.32 332.752 292.94 331.872 293.5L330.952 292.38C332.932 291.24 334.552 289.74 335.832 287.88ZM338.672 293.02C340.052 292.34 341.152 291.56 341.972 290.72H335.272L335.212 290.78C336.272 291.66 337.432 292.4 338.672 293.02ZM346.472 286.16V289.94H345.012V287.46H331.692V289.94H330.232V286.16H337.552C337.312 285.64 337.072 285.18 336.812 284.76L338.392 284.52C338.632 285 338.852 285.56 339.092 286.16H346.472ZM364.332 288.54H352.912V292.44H364.332V288.54ZM352.912 293.84C352.812 297.42 351.872 300.5 350.072 303.08L349.012 302.12C350.632 299.88 351.452 296.96 351.492 293.38V287.12H358.012C357.652 286.28 357.272 285.5 356.852 284.78L358.392 284.54C358.752 285.3 359.112 286.16 359.472 287.12H365.792V293.84H352.912Z" fill="#595959"/>
<path d="M379 291C381.761 291 384.261 289.881 386.071 288.071C387.881 286.261 389 283.761 389 281C389 278.239 387.881 275.739 386.071 273.929C384.261 272.119 381.761 271 379 271C376.239 271 373.739 272.119 371.929 273.929C370.119 275.739 369 278.239 369 281C369 283.761 370.119 286.261 371.929 288.071C373.739 289.881 376.239 291 379 291Z" fill="#FB363F"/>
<path d="M374.5 276.5L383.5 285.5" stroke="white" stroke-width="1.95" stroke-linecap="round" stroke-linejoin="round"/>
<path d="M374.5 285.5L383.5 276.5" stroke="white" stroke-width="1.95" stroke-linecap="round" stroke-linejoin="round"/>
<rect x="409.5" y="275.5" width="42" height="37" rx="7.5" fill="#E6EFFF"/>
<rect x="409.5" y="275.5" width="42" height="37" rx="7.5" stroke="#2475FC"/>
<path d="M430.5 287.75V300.25" stroke="#659EFC" stroke-width="1.625" stroke-linecap="round" stroke-linejoin="round"/>
<path d="M424.25 294H436.75" stroke="#659EFC" stroke-width="1.625" stroke-linecap="round" stroke-linejoin="round"/>
<g clip-path="url(#clip1_2297_54600)">
<rect x="69" y="236" width="81" height="81" rx="15.5" fill="#E6EFFF"/>
<path fill-rule="evenodd" clip-rule="evenodd" d="M122.782 278.598C122.782 278.598 128.637 275.464 130.122 278.291C131.607 281.117 127.993 290.593 122.782 288.609V278.598Z" fill="url(#paint7_linear_2297_54600)"/>
<path fill-rule="evenodd" clip-rule="evenodd" d="M96.3547 288.608C91.1444 290.593 87.5311 281.117 89.0154 278.29C90.5004 275.464 96.3547 278.598 96.3547 278.598V288.608Z" fill="url(#paint8_linear_2297_54600)"/>
<path fill-rule="evenodd" clip-rule="evenodd" d="M116.068 298.256L109.571 298.349L103.074 298.256C103.074 298.256 103.243 302.193 102.518 305.004C102.146 306.446 103.515 307.694 105.004 307.694H109.391H109.751H114.775C116.369 307.694 117.339 306.253 116.955 304.706C116.26 301.919 116.068 298.256 116.068 298.256Z" fill="url(#paint9_linear_2297_54600)"/>
<g filter="url(#filter5_i_2297_54600)">
<path fill-rule="evenodd" clip-rule="evenodd" d="M116.475 300.003C118.976 301.657 120.336 302.484 120.336 302.484C120.551 302.612 120.681 302.808 120.729 303.019C122.96 304.256 125.338 305.449 126.656 306.051C134.229 309.809 138.455 323.555 138.455 323.555H80.5425C83.8527 310.749 88.6506 307.07 93.5126 305.782C94.3691 305.555 96.4082 304.291 98.545 302.968C99.4704 302.394 100.414 301.809 101.288 301.293C102.007 300.723 102.587 300.231 102.83 300.003C102.847 300.186 102.869 300.373 102.896 300.563C103.287 300.809 103.697 301.409 104.178 302.115C105.255 303.692 106.691 305.797 109.092 305.648C111.371 305.506 112.875 303.767 114.09 302.361C115.002 301.306 115.752 300.439 116.545 300.576C116.545 300.353 116.522 300.161 116.475 300.003Z" fill="#659EFC"/>
</g>
<path fill-rule="evenodd" clip-rule="evenodd" d="M103.151 302.973L109.011 317.896H110.767L116.157 303.125L103.151 302.973Z" fill="white"/>
<path fill-rule="evenodd" clip-rule="evenodd" d="M103.082 300.19C102.511 300.119 103.092 299.65 103.092 299.65L103.082 300.19Z" fill="url(#paint10_linear_2297_54600)"/>
<path fill-rule="evenodd" clip-rule="evenodd" d="M116.158 299.552C116.158 299.552 116.858 300.213 116.221 300.18L116.158 299.552Z" fill="url(#paint11_linear_2297_54600)"/>
<path fill-rule="evenodd" clip-rule="evenodd" d="M125.693 282.181C125.693 283.842 125.343 285.876 124.972 287.567C124.515 289.648 123.559 291.588 122.183 293.216L121.001 294.616C119.294 296.637 117.017 298.093 114.467 298.795L110.942 299.766C109.996 300.026 108.997 300.025 108.052 299.763L104.422 298.757C101.974 298.078 99.7699 296.718 98.0649 294.834L96.9174 293.566C95.7624 292.29 94.9248 290.896 94.4664 289.238C93.9197 287.258 93.3 284.393 93.3 282.181C93.3 267.86 93.9818 256.25 109.497 256.25C123.328 256.25 125.693 267.86 125.693 282.181Z" fill="url(#paint12_linear_2297_54600)"/>
<path fill-rule="evenodd" clip-rule="evenodd" d="M108.134 305.217L105.856 315.788L109.498 317.725L113.773 315.317L111.412 305.263L108.134 305.217Z" fill="#E5EFFF"/>
<path fill-rule="evenodd" clip-rule="evenodd" d="M108.118 305.307L108.068 305.537C108.06 305.575 108.087 305.609 108.125 305.61L111.392 305.662C111.449 305.663 111.492 305.61 111.478 305.554L111.43 305.354L108.118 305.307Z" fill="#C8D4EE"/>
<path fill-rule="evenodd" clip-rule="evenodd" d="M103.506 303.408C103.506 303.408 106.498 305.602 107.083 305.624C107.669 305.647 107.865 304.697 107.865 304.697L107.575 303.973L103.506 303.408Z" fill="#C8D4EE"/>
<path fill-rule="evenodd" clip-rule="evenodd" d="M116.101 303.408C116.101 303.408 113.11 305.602 112.525 305.624C111.939 305.647 111.743 304.697 111.743 304.697L112.033 303.973L116.101 303.408Z" fill="#C8D4EE"/>
<path fill-rule="evenodd" clip-rule="evenodd" d="M108.125 301.815C108.125 301.815 110.864 301.983 111.443 301.8L111.928 303.766L111.448 305.312C111.426 305.383 111.36 305.43 111.286 305.429L108.245 305.385C108.177 305.385 108.117 305.342 108.092 305.279L107.541 303.862L108.125 301.815Z" fill="#E5EFFF"/>
<path fill-rule="evenodd" clip-rule="evenodd" d="M102.829 300.06C102.829 300.06 101.926 301.879 102.112 302.41C102.298 302.941 106.748 305.167 107.237 305.044C107.626 304.947 107.913 303.285 108.153 301.862C108.168 301.77 108.104 301.684 108.011 301.671C105.262 301.288 102.829 300.06 102.829 300.06Z" fill="white"/>
<path fill-rule="evenodd" clip-rule="evenodd" d="M116.475 300.06C116.598 300.026 117.625 301.995 117.478 302.415C117.291 302.946 112.842 305.172 112.352 305.05C111.964 304.952 111.536 304.215 111.432 301.918C111.425 301.769 111.539 301.644 111.687 301.635C113.987 301.486 116.475 300.06 116.475 300.06Z" fill="white"/>
<g opacity="0.7">
<mask id="mask1_2297_54600" style="mask-type:alpha" maskUnits="userSpaceOnUse" x="93" y="256" width="33" height="44">
<path fill-rule="evenodd" clip-rule="evenodd" d="M125.693 282.181C125.693 283.842 125.343 285.876 124.972 287.567C124.515 289.648 123.559 291.588 122.183 293.216L121.001 294.616C119.294 296.637 117.017 298.093 114.467 298.795L110.942 299.766C109.996 300.026 108.997 300.025 108.052 299.763L104.422 298.757C101.974 298.078 99.7699 296.718 98.0649 294.834L96.9174 293.566C95.7624 292.29 94.9248 290.896 94.4664 289.238C93.9197 287.258 93.3 284.393 93.3 282.181C93.3 267.86 93.9818 256.25 109.497 256.25C123.328 256.25 125.693 267.86 125.693 282.181Z" fill="url(#paint13_linear_2297_54600)"/>
</mask>
<g mask="url(#mask1_2297_54600)">
<g filter="url(#filter6_f_2297_54600)">
<circle cx="121.418" cy="280.2" r="15.5" fill="white"/>
</g>
<g filter="url(#filter7_f_2297_54600)">
<circle cx="78.8071" cy="280.2" r="15.5" fill="white"/>
</g>
</g>
</g>
<g filter="url(#filter8_ii_2297_54600)">
<path fill-rule="evenodd" clip-rule="evenodd" d="M119.172 254.451C118.284 254.29 117.697 254.272 117.697 254.272C112.524 248.994 108.514 249.932 103.844 251.024C103.408 251.126 102.966 251.23 102.517 251.329C94.0318 253.226 87.9838 258.559 87.9973 267.806C88.0041 272.241 89.5498 275.15 92.1688 275.022C92.4818 275.007 92.785 274.994 93.0803 274.981C96.8736 274.817 99.3754 274.708 104.893 272.241C107.809 270.938 108.848 263.365 108.848 263.365C111.359 268.447 121.349 274.597 125.602 275.326C125.623 275.329 125.646 275.807 125.668 276.263C125.688 276.68 125.707 277.078 125.723 277.081C125.762 277.088 125.756 277.086 125.752 277.084C125.748 277.082 125.745 277.081 125.777 277.087C126.81 277.249 128.045 276.527 128.045 276.527C128.045 276.527 129.159 265.423 126.864 259.949C126.071 258.059 124.733 256.797 123.32 255.955C123.577 255.473 124.35 254.438 126.235 254.532C126.235 254.532 124.356 252.572 121.62 254.287C121.621 254.288 120.664 251.061 116.384 250.734C116.384 250.734 118.168 252.228 119.172 254.451Z" fill="#364A6A"/>
</g>
</g>
<rect x="158" y="240" width="102" height="29" rx="8" fill="#D8DDE6"/>
<g filter="url(#filter9_d_2297_54600)">
<path fill-rule="evenodd" clip-rule="evenodd" d="M355.07 316.368L364 313.195L340 300L346.997 326.479L352.236 318.583L358.51 326.612L361.343 324.398L355.07 316.368Z" fill="white"/>
<path d="M356.648 316.828L364.322 314.1L366.338 313.384L364.463 312.353L340.463 299.158L338.498 298.078L339.071 300.246L346.068 326.725L346.614 328.794L347.798 327.011L352.3 320.225L357.752 327.203L358.344 327.961L359.101 327.369L361.935 325.155L362.692 324.563L362.101 323.806L356.648 316.828Z" stroke="black" stroke-opacity="0.8" stroke-width="1.92207"/>
</g>
<defs>
<filter id="filter0_d_2297_54600" x="14" y="24" width="612" height="385" filterUnits="userSpaceOnUse" color-interpolation-filters="sRGB">
<feFlood flood-opacity="0" result="BackgroundImageFix"/>
<feColorMatrix in="SourceAlpha" type="matrix" values="0 0 0 0 0 0 0 0 0 0 0 0 0 0 0 0 0 0 127 0" result="hardAlpha"/>
<feOffset dy="4"/>
<feGaussianBlur stdDeviation="12"/>
<feComposite in2="hardAlpha" operator="out"/>
<feColorMatrix type="matrix" values="0 0 0 0 0.143233 0 0 0 0 0.304677 0 0 0 0 0.562987 0 0 0 0.12 0"/>
<feBlend mode="normal" in2="BackgroundImageFix" result="effect1_dropShadow_2297_54600"/>
<feBlend mode="normal" in="SourceGraphic" in2="effect1_dropShadow_2297_54600" result="shape"/>
</filter>
<filter id="filter1_i_2297_54600" x="80.5425" y="179.003" width="57.913" height="25.4893" filterUnits="userSpaceOnUse" color-interpolation-filters="sRGB">
<feFlood flood-opacity="0" result="BackgroundImageFix"/>
<feBlend mode="normal" in="SourceGraphic" in2="BackgroundImageFix" result="shape"/>
<feColorMatrix in="SourceAlpha" type="matrix" values="0 0 0 0 0 0 0 0 0 0 0 0 0 0 0 0 0 0 127 0" result="hardAlpha"/>
<feOffset dy="1.9375"/>
<feGaussianBlur stdDeviation="1.9375"/>
<feComposite in2="hardAlpha" operator="arithmetic" k2="-1" k3="1"/>
<feColorMatrix type="matrix" values="0 0 0 0 0.8625 0 0 0 0 0.912759 0 0 0 0 1 0 0 0 0.7 0"/>
<feBlend mode="lighten" in2="shape" result="effect1_innerShadow_2297_54600"/>
</filter>
<filter id="filter2_f_2297_54600" x="98.1677" y="135.95" width="46.5" height="46.5" filterUnits="userSpaceOnUse" color-interpolation-filters="sRGB">
<feFlood flood-opacity="0" result="BackgroundImageFix"/>
<feBlend mode="normal" in="SourceGraphic" in2="BackgroundImageFix" result="shape"/>
<feGaussianBlur stdDeviation="3.875" result="effect1_foregroundBlur_2297_54600"/>
</filter>
<filter id="filter3_f_2297_54600" x="55.5571" y="135.95" width="46.5" height="46.5" filterUnits="userSpaceOnUse" color-interpolation-filters="sRGB">
<feFlood flood-opacity="0" result="BackgroundImageFix"/>
<feBlend mode="normal" in="SourceGraphic" in2="BackgroundImageFix" result="shape"/>
<feGaussianBlur stdDeviation="3.875" result="effect1_foregroundBlur_2297_54600"/>
</filter>
<filter id="filter4_ii_2297_54600" x="87.9973" y="121.426" width="40.318" height="38.5605" filterUnits="userSpaceOnUse" color-interpolation-filters="sRGB">
<feFlood flood-opacity="0" result="BackgroundImageFix"/>
<feBlend mode="normal" in="SourceGraphic" in2="BackgroundImageFix" result="shape"/>
<feColorMatrix in="SourceAlpha" type="matrix" values="0 0 0 0 0 0 0 0 0 0 0 0 0 0 0 0 0 0 127 0" result="hardAlpha"/>
<feOffset dy="3.875"/>
<feGaussianBlur stdDeviation="1.9375"/>
<feComposite in2="hardAlpha" operator="arithmetic" k2="-1" k3="1"/>
<feColorMatrix type="matrix" values="0 0 0 0 0.9 0 0 0 0 0.928333 0 0 0 0 1 0 0 0 0.6 0"/>
<feBlend mode="lighten" in2="shape" result="effect1_innerShadow_2297_54600"/>
<feColorMatrix in="SourceAlpha" type="matrix" values="0 0 0 0 0 0 0 0 0 0 0 0 0 0 0 0 0 0 127 0" result="hardAlpha"/>
<feOffset dy="-7.75"/>
<feGaussianBlur stdDeviation="7.75"/>
<feComposite in2="hardAlpha" operator="arithmetic" k2="-1" k3="1"/>
<feColorMatrix type="matrix" values="0 0 0 0 0.097309 0 0 0 0 0.181891 0 0 0 0 0.395833 0 0 0 0.16 0"/>
<feBlend mode="multiply" in2="effect1_innerShadow_2297_54600" result="effect2_innerShadow_2297_54600"/>
</filter>
<filter id="filter5_i_2297_54600" x="80.5425" y="300.003" width="57.913" height="25.4893" filterUnits="userSpaceOnUse" color-interpolation-filters="sRGB">
<feFlood flood-opacity="0" result="BackgroundImageFix"/>
<feBlend mode="normal" in="SourceGraphic" in2="BackgroundImageFix" result="shape"/>
<feColorMatrix in="SourceAlpha" type="matrix" values="0 0 0 0 0 0 0 0 0 0 0 0 0 0 0 0 0 0 127 0" result="hardAlpha"/>
<feOffset dy="1.9375"/>
<feGaussianBlur stdDeviation="1.9375"/>
<feComposite in2="hardAlpha" operator="arithmetic" k2="-1" k3="1"/>
<feColorMatrix type="matrix" values="0 0 0 0 0.8625 0 0 0 0 0.912759 0 0 0 0 1 0 0 0 0.7 0"/>
<feBlend mode="lighten" in2="shape" result="effect1_innerShadow_2297_54600"/>
</filter>
<filter id="filter6_f_2297_54600" x="98.1677" y="256.95" width="46.5" height="46.5" filterUnits="userSpaceOnUse" color-interpolation-filters="sRGB">
<feFlood flood-opacity="0" result="BackgroundImageFix"/>
<feBlend mode="normal" in="SourceGraphic" in2="BackgroundImageFix" result="shape"/>
<feGaussianBlur stdDeviation="3.875" result="effect1_foregroundBlur_2297_54600"/>
</filter>
<filter id="filter7_f_2297_54600" x="55.5571" y="256.95" width="46.5" height="46.5" filterUnits="userSpaceOnUse" color-interpolation-filters="sRGB">
<feFlood flood-opacity="0" result="BackgroundImageFix"/>
<feBlend mode="normal" in="SourceGraphic" in2="BackgroundImageFix" result="shape"/>
<feGaussianBlur stdDeviation="3.875" result="effect1_foregroundBlur_2297_54600"/>
</filter>
<filter id="filter8_ii_2297_54600" x="87.9973" y="242.426" width="40.318" height="38.5605" filterUnits="userSpaceOnUse" color-interpolation-filters="sRGB">
<feFlood flood-opacity="0" result="BackgroundImageFix"/>
<feBlend mode="normal" in="SourceGraphic" in2="BackgroundImageFix" result="shape"/>
<feColorMatrix in="SourceAlpha" type="matrix" values="0 0 0 0 0 0 0 0 0 0 0 0 0 0 0 0 0 0 127 0" result="hardAlpha"/>
<feOffset dy="3.875"/>
<feGaussianBlur stdDeviation="1.9375"/>
<feComposite in2="hardAlpha" operator="arithmetic" k2="-1" k3="1"/>
<feColorMatrix type="matrix" values="0 0 0 0 0.9 0 0 0 0 0.928333 0 0 0 0 1 0 0 0 0.6 0"/>
<feBlend mode="lighten" in2="shape" result="effect1_innerShadow_2297_54600"/>
<feColorMatrix in="SourceAlpha" type="matrix" values="0 0 0 0 0 0 0 0 0 0 0 0 0 0 0 0 0 0 127 0" result="hardAlpha"/>
<feOffset dy="-7.75"/>
<feGaussianBlur stdDeviation="7.75"/>
<feComposite in2="hardAlpha" operator="arithmetic" k2="-1" k3="1"/>
<feColorMatrix type="matrix" values="0 0 0 0 0.097309 0 0 0 0 0.181891 0 0 0 0 0.395833 0 0 0 0.16 0"/>
<feBlend mode="multiply" in2="effect1_innerShadow_2297_54600" result="effect2_innerShadow_2297_54600"/>
</filter>
<filter id="filter9_d_2297_54600" x="331.23" y="292.311" width="43.2131" height="46.4855" filterUnits="userSpaceOnUse" color-interpolation-filters="sRGB">
<feFlood flood-opacity="0" result="BackgroundImageFix"/>
<feColorMatrix in="SourceAlpha" type="matrix" values="0 0 0 0 0 0 0 0 0 0 0 0 0 0 0 0 0 0 127 0" result="hardAlpha"/>
<feOffset dy="1.92207"/>
<feGaussianBlur stdDeviation="2.8831"/>
<feColorMatrix type="matrix" values="0 0 0 0 0 0 0 0 0 0 0 0 0 0 0 0 0 0 0.2 0"/>
<feBlend mode="normal" in2="BackgroundImageFix" result="effect1_dropShadow_2297_54600"/>
<feBlend mode="normal" in="SourceGraphic" in2="effect1_dropShadow_2297_54600" result="shape"/>
</filter>
<linearGradient id="paint0_linear_2297_54600" x1="123.38" y1="166.855" x2="127.521" y2="157.139" gradientUnits="userSpaceOnUse">
<stop offset="4.98403e-07" stop-color="#FFDBD4"/>
<stop offset="1" stop-color="#FFD1BF"/>
</linearGradient>
<linearGradient id="paint1_linear_2297_54600" x1="-20.0983" y1="166.854" x2="-24.2393" y2="157.138" gradientUnits="userSpaceOnUse">
<stop offset="4.98403e-07" stop-color="#FFDBD4"/>
<stop offset="1" stop-color="#FFD1BF"/>
</linearGradient>
<linearGradient id="paint2_linear_2297_54600" x1="109.719" y1="186.332" x2="109.85" y2="177.334" gradientUnits="userSpaceOnUse">
<stop offset="9.92013e-07" stop-color="#FFDBD4"/>
<stop offset="1" stop-color="#FFBFAA"/>
</linearGradient>
<linearGradient id="paint3_linear_2297_54600" x1="102.831" y1="178.92" x2="103.092" y2="178.92" gradientUnits="userSpaceOnUse">
<stop offset="9.92013e-07" stop-color="#FFDBD4"/>
<stop offset="1" stop-color="#FFDCD1"/>
</linearGradient>
<linearGradient id="paint4_linear_2297_54600" x1="-375.254" y1="178.866" x2="-375.585" y2="178.866" gradientUnits="userSpaceOnUse">
<stop offset="9.92013e-07" stop-color="#FFDBD4"/>
<stop offset="1" stop-color="#FFDCD1"/>
</linearGradient>
<linearGradient id="paint5_linear_2297_54600" x1="109.437" y1="142.82" x2="109.134" y2="178.825" gradientUnits="userSpaceOnUse">
<stop offset="4.98403e-07" stop-color="#D19083"/>
<stop offset="0.297551" stop-color="#FAC6BA"/>
<stop offset="1" stop-color="#FFD4C4"/>
</linearGradient>
<linearGradient id="paint6_linear_2297_54600" x1="109.437" y1="148.86" x2="109.134" y2="178.825" gradientUnits="userSpaceOnUse">
<stop offset="4.98403e-07" stop-color="#FFDBD4"/>
<stop offset="1" stop-color="#FFC5AE"/>
</linearGradient>
<linearGradient id="paint7_linear_2297_54600" x1="123.38" y1="287.855" x2="127.521" y2="278.139" gradientUnits="userSpaceOnUse">
<stop offset="4.98403e-07" stop-color="#FFDBD4"/>
<stop offset="1" stop-color="#FFD1BF"/>
</linearGradient>
<linearGradient id="paint8_linear_2297_54600" x1="-20.0983" y1="287.854" x2="-24.2393" y2="278.138" gradientUnits="userSpaceOnUse">
<stop offset="4.98403e-07" stop-color="#FFDBD4"/>
<stop offset="1" stop-color="#FFD1BF"/>
</linearGradient>
<linearGradient id="paint9_linear_2297_54600" x1="109.719" y1="307.332" x2="109.85" y2="298.334" gradientUnits="userSpaceOnUse">
<stop offset="9.92013e-07" stop-color="#FFDBD4"/>
<stop offset="1" stop-color="#FFBFAA"/>
</linearGradient>
<linearGradient id="paint10_linear_2297_54600" x1="102.831" y1="299.92" x2="103.092" y2="299.92" gradientUnits="userSpaceOnUse">
<stop offset="9.92013e-07" stop-color="#FFDBD4"/>
<stop offset="1" stop-color="#FFDCD1"/>
</linearGradient>
<linearGradient id="paint11_linear_2297_54600" x1="-375.254" y1="299.866" x2="-375.585" y2="299.866" gradientUnits="userSpaceOnUse">
<stop offset="9.92013e-07" stop-color="#FFDBD4"/>
<stop offset="1" stop-color="#FFDCD1"/>
</linearGradient>
<linearGradient id="paint12_linear_2297_54600" x1="109.437" y1="263.82" x2="109.134" y2="299.825" gradientUnits="userSpaceOnUse">
<stop offset="4.98403e-07" stop-color="#D19083"/>
<stop offset="0.297551" stop-color="#FAC6BA"/>
<stop offset="1" stop-color="#FFD4C4"/>
</linearGradient>
<linearGradient id="paint13_linear_2297_54600" x1="109.437" y1="269.86" x2="109.134" y2="299.825" gradientUnits="userSpaceOnUse">
<stop offset="4.98403e-07" stop-color="#FFDBD4"/>
<stop offset="1" stop-color="#FFC5AE"/>
</linearGradient>
<clipPath id="clip0_2297_54600">
<rect x="69" y="115" width="81" height="81" rx="15.5" fill="white"/>
</clipPath>
<clipPath id="clip1_2297_54600">
<rect x="69" y="236" width="81" height="81" rx="15.5" fill="white"/>
</clipPath>
</defs>
</svg>
