<svg width="40" height="40" viewBox="0 0 40 40" fill="none" xmlns="http://www.w3.org/2000/svg">
<rect width="40" height="40" rx="20" fill="#FF5900"/>
<path d="M19.6426 16.6074L14.9285 21.3214C14.2776 21.9723 14.2776 23.0275 14.9285 23.6784L19.0533 27.8032C19.7042 28.4541 20.7595 28.4541 21.4104 27.8032L25.5352 23.6784C26.186 23.0275 26.186 21.9723 25.5352 21.3214L20.8211 16.6074C20.4957 16.2819 19.968 16.2819 19.6426 16.6074Z" fill="#FFF2EB" stroke="#FFF2EB" stroke-width="1.66667" stroke-linecap="round" stroke-linejoin="round"/>
<path d="M20.4167 15.7669C20.4167 15.7669 22.3143 13.6381 23.072 12.7396C23.8297 11.8411 24.6419 11.957 25.3189 12.5413C25.9958 13.1255 26.0139 14.048 25.3189 14.9067C24.6239 15.7654 22.7319 17.9173 22.7319 17.9173" stroke="#FFF2EB" stroke-width="1.66667" stroke-linecap="round" stroke-linejoin="round"/>
<path d="M20.4167 15.7659C20.4167 15.7659 18.519 13.6371 17.7613 12.7386C17.0036 11.8401 16.1915 11.9561 15.5145 12.5403C14.8375 13.1245 14.8195 14.047 15.5145 14.9057C16.2095 15.7644 18.1015 17.9163 18.1015 17.9163" stroke="#FFF2EB" stroke-width="1.66667" stroke-linecap="round" stroke-linejoin="round"/>
</svg>
