<svg fill="none" xmlns="http://www.w3.org/2000/svg" viewBox="0 0 200 200" class="design-iconfont">
  <path d="M120.936 49.9375C111.344 57.51 90.7512 58.39 75.6437 49.3825C60.5362 40.375 32.6437 41.5375 25.0887 58.1C17.5337 74.6625 34.3862 90.9325 28.2837 102.845C22.1812 114.758 1.8437 131.608 15.7912 151.945C29.7387 172.282 47.4412 167.1 58.0962 165.058C79.1387 161.025 105.544 193.975 135.251 169.09C152.369 154.753 177.861 179.613 187.794 148.75C195.989 123.285 166.376 113.875 175.301 96.7425C184.791 78.5225 182.969 56.9325 172.686 46.4775C163.109 36.7375 137.499 36.8625 120.936 49.9375Z" fill="url(#mgnp530vr__paint0_linear_4032_3969)"/>
  <path d="M82.3162 122.895L95.0712 92.915H171.266L145.426 149.565L82.3162 122.895Z" fill="url(#mgnp530vr__paint1_linear_4032_3969)"/>
  <path d="M29.0887 100.463C29.0887 100.463 29.0337 100.32 28.9587 100.473C28.2837 101.845 22.1712 116.713 21.6862 128.188C21.6862 128.188 20.6662 134.78 29.2137 134.693C36.3487 134.62 36.1587 128.543 36.1337 126.495C36.0387 118.19 29.0887 100.463 29.0887 100.463Z" fill="url(#mgnp530vr__paint2_linear_4032_3969)"/>
  <path d="M28.8937 141.992C28.7562 141.992 28.6437 141.88 28.6437 141.742V104.46C28.6437 104.322 28.7562 104.21 28.8937 104.21C29.0312 104.21 29.1437 104.322 29.1437 104.46V141.742C29.1437 141.88 29.0312 141.992 28.8937 141.992Z" fill="url(#mgnp530vr__paint3_linear_4032_3969)"/>
  <path d="M154.301 89.7724C154.301 89.7724 154.266 89.6799 154.219 89.7799C153.784 90.6624 149.849 100.237 149.536 107.625C149.536 107.625 148.879 111.87 154.384 111.815C158.979 111.77 158.856 107.855 158.839 106.537C158.776 101.187 154.301 89.7724 154.301 89.7724Z" fill="url(#mgnp530vr__paint4_linear_4032_3969)"/>
  <path d="M154.176 116.515C154.086 116.515 154.016 116.442 154.016 116.355V92.3499C154.016 92.2599 154.089 92.1899 154.176 92.1899C154.264 92.1899 154.336 92.2624 154.336 92.3499V116.355C154.336 116.442 154.264 116.515 154.176 116.515Z" fill="url(#mgnp530vr__paint5_linear_4032_3969)"/>
  <path d="M111.311 37.375C116.109 37.375 119.999 33.4855 119.999 28.6875C119.999 23.8895 116.109 20 111.311 20C106.513 20 102.624 23.8895 102.624 28.6875C102.624 33.4855 106.513 37.375 111.311 37.375Z" fill="url(#mgnp530vr__paint6_linear_4032_3969)"/>
  <path d="M116.254 33.425H107.611C107.054 30.7725 104.699 28.78 101.879 28.78C99.0587 28.78 96.7062 30.7725 96.1462 33.425H93.8837C91.2012 33.425 89.0237 35.6 89.0237 38.285C89.0237 40.9675 91.1987 43.145 93.8837 43.145H116.251C118.934 43.145 121.111 40.97 121.111 38.285C121.114 35.6 118.939 33.425 116.254 33.425Z" fill="url(#mgnp530vr__paint7_linear_4032_3969)"/>
  <path d="M171.826 134.125C173.747 134.125 175.304 132.568 175.304 130.647C175.304 128.727 173.747 127.17 171.826 127.17C169.906 127.17 168.349 128.727 168.349 130.647C168.349 132.568 169.906 134.125 171.826 134.125Z" fill="url(#mgnp530vr__paint8_linear_4032_3969)"/>
  <path d="M171.839 139.245C171.779 139.245 171.731 139.197 171.731 139.137V128.152C171.731 128.092 171.779 128.045 171.839 128.045C171.899 128.045 171.946 128.092 171.946 128.152V139.137C171.946 139.197 171.896 139.245 171.839 139.245Z" fill="url(#mgnp530vr__paint9_linear_4032_3969)"/>
  <path d="M128.126 154.102H63.1312C55.2087 154.102 48.7862 147.68 48.7862 139.757V83.0474C48.7862 75.1249 55.2087 68.7024 63.1312 68.7024H128.126C136.049 68.7024 142.471 75.1249 142.471 83.0474V139.757C142.471 147.68 136.049 154.102 128.126 154.102Z" fill="#94B3F4"/>
  <path d="M127.464 154.102H61.6437C54.5412 154.102 48.7837 148.345 48.7837 141.242V83.5199C48.7837 76.4174 54.5412 70.6599 61.6437 70.6599H127.464C134.566 70.6599 140.324 76.4174 140.324 83.5199V141.242C140.324 148.345 134.566 154.102 127.464 154.102Z" fill="url(#mgnp530vr__paint10_linear_4032_3969)"/>
  <path d="M127.134 70.6599H61.9762C54.6912 70.6599 48.7862 76.0099 48.7862 82.6074V96.2099H140.324V82.6074C140.324 76.0099 134.419 70.6599 127.134 70.6599Z" fill="url(#mgnp530vr__paint11_linear_4032_3969)"/>
  <path d="M92.5937 116.757H66.1062C63.9437 116.757 62.1912 114.812 62.1912 112.412C62.1912 110.012 63.9437 108.067 66.1062 108.067H92.5937C94.7562 108.067 96.5087 110.012 96.5087 112.412C96.5087 114.812 94.7562 116.757 92.5937 116.757Z" fill="#94B3F4"/>
  <path d="M79.0387 134.013H66.1062C63.9437 134.013 62.1912 132.068 62.1912 129.668C62.1912 127.268 63.9437 125.323 66.1062 125.323H79.0387C81.2012 125.323 82.9537 127.268 82.9537 129.668C82.9537 132.068 81.2012 134.013 79.0387 134.013Z" fill="#94B3F4"/>
  <path d="M91.2687 116.757H65.9362C63.8687 116.757 62.1912 115.08 62.1912 113.012C62.1912 110.945 63.8687 109.267 65.9362 109.267H91.2687C93.3362 109.267 95.0137 110.945 95.0137 113.012C95.0137 115.08 93.3362 116.757 91.2687 116.757Z" fill="#fff"/>
  <path d="M77.5137 133.907H65.9362C63.8687 133.907 62.1912 132.23 62.1912 130.162C62.1912 128.095 63.8687 126.417 65.9362 126.417H77.5137C79.5812 126.417 81.2587 128.095 81.2587 130.162C81.2587 132.23 79.5812 133.907 77.5137 133.907Z" fill="#fff"/>
  <path d="M128.621 87.8975C130.623 87.8975 132.246 86.2745 132.246 84.2725C132.246 82.2704 130.623 80.6475 128.621 80.6475C126.619 80.6475 124.996 82.2704 124.996 84.2725C124.996 86.2745 126.619 87.8975 128.621 87.8975Z" fill="#94B3F4"/>
  <path d="M128.154 87.8973C129.898 87.8973 131.311 86.4836 131.311 84.7398C131.311 82.9959 129.898 81.5823 128.154 81.5823C126.41 81.5823 124.996 82.9959 124.996 84.7398C124.996 86.4836 126.41 87.8973 128.154 87.8973Z" fill="#fff"/>
  <path d="M116.041 87.8975C118.043 87.8975 119.666 86.2745 119.666 84.2725C119.666 82.2704 118.043 80.6475 116.041 80.6475C114.039 80.6475 112.416 82.2704 112.416 84.2725C112.416 86.2745 114.039 87.8975 116.041 87.8975Z" fill="#94B3F4"/>
  <path d="M115.574 87.8973C117.318 87.8973 118.731 86.4836 118.731 84.7398C118.731 82.9959 117.318 81.5823 115.574 81.5823C113.83 81.5823 112.416 82.9959 112.416 84.7398C112.416 86.4836 113.83 87.8973 115.574 87.8973Z" fill="#fff"/>
  <path d="M103.826 87.8975C105.828 87.8975 107.451 86.2745 107.451 84.2725C107.451 82.2704 105.828 80.6475 103.826 80.6475C101.824 80.6475 100.201 82.2704 100.201 84.2725C100.201 86.2745 101.824 87.8975 103.826 87.8975Z" fill="#94B3F4"/>
  <path d="M103.359 87.8973C105.103 87.8973 106.516 86.4836 106.516 84.7398C106.516 82.9959 105.103 81.5823 103.359 81.5823C101.615 81.5823 100.201 82.9959 100.201 84.7398C100.201 86.4836 101.615 87.8973 103.359 87.8973Z" fill="#fff"/>
  <path d="M75.0512 85.73C75.0512 85.73 74.8037 84.8675 73.9312 84.9875C73.0587 85.11 72.7837 85.865 72.5762 85.81C72.3687 85.755 72.3637 85.2025 72.2587 85.4725C72.1537 85.7425 72.0912 86.315 72.0912 86.315C72.0912 86.315 72.0537 86.7975 72.1237 87.495C72.1937 88.1925 72.1262 89.16 72.6537 89.45C73.8362 90.1 74.4362 89.9275 75.1387 89.6825C75.8712 89.4275 75.8012 88.1825 75.7062 87.8075C75.6337 87.515 75.0512 85.73 75.0512 85.73Z" fill="url(#mgnp530vr__paint12_linear_4032_3969)"/>
  <path d="M72.1037 87.3274C72.1037 87.3274 71.9762 89.7324 74.3387 89.7324C75.1812 89.7324 75.9287 89.0924 75.5762 87.3424C75.9762 88.6224 76.2437 90.0624 74.3537 90.3024C72.5412 90.5299 71.8737 88.7199 72.1037 87.3274Z" fill="#D4E4FE"/>
  <path d="M71.2212 62.9924C70.9737 62.9924 70.3912 64.3324 70.0987 66.6699C68.4937 68.6999 61.2087 72.2799 62.4487 75.1324C63.6887 77.9849 72.0287 85.8074 72.0287 85.8074L75.1912 85.6224C75.1912 85.6224 70.2387 77.2274 68.8662 75.0174C72.3312 73.3899 76.5537 70.3824 77.1112 70.0724C77.6687 69.7624 78.1037 63.0549 78.1037 63.0549L71.2212 62.9924Z" fill="url(#mgnp530vr__paint13_linear_4032_3969)"/>
  <path d="M78.7937 85.6875C78.7937 85.6875 79.0337 84.82 79.8762 84.9425C80.7187 85.065 80.9837 85.825 81.1837 85.77C81.3837 85.715 81.3887 85.16 81.4887 85.43C81.5887 85.7025 81.6512 86.2775 81.6512 86.2775C81.6512 86.2775 81.6862 86.7625 81.6212 87.465C81.5562 88.1675 81.6187 89.14 81.1087 89.4325C79.9662 90.0875 79.3862 89.9125 78.7087 89.665C78.0012 89.4075 78.0687 88.1575 78.1587 87.78C78.2337 87.4825 78.7937 85.6875 78.7937 85.6875Z" fill="url(#mgnp530vr__paint14_linear_4032_3969)"/>
  <path d="M81.6387 87.2949C81.6387 87.2949 81.7612 89.7124 79.4812 89.7124C78.6662 89.7124 77.9462 89.0699 78.2862 87.3074C77.8987 88.5949 77.6412 90.0449 79.4662 90.2849C81.2187 90.5149 81.8637 88.6949 81.6387 87.2949Z" fill="#D4E4FE"/>
  <path d="M82.6037 62.9924C82.8512 62.9924 83.4337 64.3324 83.7262 66.6699C85.3312 68.6999 92.6162 72.2799 91.3762 75.1324C90.1362 77.9849 81.7137 85.8274 81.7137 85.8274L78.5512 85.6424C78.5512 85.6424 83.5862 77.2249 84.9587 75.0174C81.4937 73.3899 77.2712 70.3824 76.7137 70.0724C76.1562 69.7624 75.7212 63.0549 75.7212 63.0549L82.6037 62.9924Z" fill="url(#mgnp530vr__paint15_linear_4032_3969)"/>
  <path d="M74.9737 46.5599C74.9737 46.5599 70.9987 46.4499 69.6862 48.3099C68.3737 50.1674 67.8212 54.4749 67.8212 54.4749L70.8662 54.3149L69.8412 66.7549L83.8362 66.6624L83.0087 53.8274L85.7762 53.3699C85.7762 53.3699 86.5112 47.6549 81.9437 46.5849C80.3737 46.3874 78.8487 46.4899 78.7462 46.5524C78.7462 46.5524 78.3637 48.6449 76.7137 48.5124C75.0612 48.3824 74.9737 46.5599 74.9737 46.5599Z" fill="url(#mgnp530vr__paint16_linear_4032_3969)"/>
  <path d="M75.3762 44.27L74.5362 48.0175C74.4962 48.1925 74.5887 48.3725 74.7562 48.44C75.1912 48.6175 76.0587 48.9175 76.9537 48.9175C77.8812 48.9175 78.7562 48.41 79.1587 48.14C79.2962 48.0475 79.3562 47.8725 79.3012 47.715L78.0162 43.8925C77.9587 43.7175 77.7812 43.6125 77.6012 43.645L75.6762 43.9875C75.5262 44.0125 75.4087 44.125 75.3762 44.27Z" fill="url(#mgnp530vr__paint17_linear_4032_3969)"/>
  <path d="M80.2312 42.7699C80.3562 42.5924 80.4362 42.1349 80.3337 41.9999C80.1487 41.8499 79.9737 41.9374 79.8412 42.0674C79.8712 40.9749 79.7737 40.0674 79.7487 39.8374C79.6812 39.1674 78.9987 37.9424 76.7737 37.9424C74.5487 37.9424 74.1162 39.5474 74.1162 39.5474C74.1162 39.5474 73.9712 40.6824 74.0137 42.0624C73.8812 41.9349 73.7087 41.8524 73.5262 41.9999C73.4237 42.1349 73.5037 42.5899 73.6287 42.7699C73.7537 42.9474 73.8337 43.3724 73.8562 43.6074C73.8787 43.8299 73.7162 44.4224 74.3037 44.3474C74.6537 45.7474 76.0687 46.9124 76.9462 46.9124C77.9087 46.9124 79.1837 45.7374 79.5487 44.3449C80.1462 44.4274 79.9837 43.8299 80.0062 43.6049C80.0262 43.3724 80.1062 42.9499 80.2312 42.7699Z" fill="url(#mgnp530vr__paint18_linear_4032_3969)"/>
  <path d="M78.3787 37.4649C78.3787 37.4649 77.9437 36.0974 76.2787 36.4249C74.6137 36.7524 74.5012 37.5399 73.8487 37.5699C72.7337 37.6224 71.8412 39.0124 73.2737 40.4849C73.9112 41.1399 73.3712 41.4224 73.6762 42.0024C73.9812 42.5824 73.9762 43.1474 73.9762 43.1474C73.9762 43.1474 74.5087 41.4474 74.1587 40.7249C73.9787 40.3524 74.7787 40.2499 75.7787 40.3374C76.7787 40.4249 78.3512 40.0949 78.4762 39.4149C78.7712 40.8099 79.0662 40.9549 79.4412 41.1649C79.8162 41.3749 79.8387 43.0599 79.8387 43.0599C79.8387 43.0599 79.9062 41.8224 80.1662 41.5424C80.3812 41.0849 80.8037 39.2899 80.3262 38.8549C79.8487 38.4199 80.2462 37.0249 78.3787 37.4649Z" fill="url(#mgnp530vr__paint19_linear_4032_3969)"/>
  <path d="M64.2887 66.725C64.2887 66.725 64.3237 67.545 63.9512 67.9425C63.5787 68.34 62.8362 69.185 62.9637 69.7C63.0912 70.2125 63.3787 70.7525 63.5487 70.7C63.7187 70.6475 63.6887 70.4525 63.7262 70.5025C63.7637 70.555 63.9887 70.785 64.0912 70.5875C64.1937 70.39 64.1912 71.0225 64.5937 70.45C64.7712 70.685 65.0037 70.6475 65.0812 70.2875C65.1587 69.9275 65.2587 69.45 65.2662 69.3975C65.2937 69.645 65.1612 70.2775 65.4762 70.1975C65.6062 70.165 65.9262 69.595 65.9887 68.86C66.0512 68.125 65.7712 67.98 65.9962 67.1C66.2212 66.22 64.2887 66.725 64.2887 66.725Z" fill="url(#mgnp530vr__paint20_linear_4032_3969)"/>
  <path d="M70.4912 47.575C70.4912 47.575 72.2612 51.4549 70.8637 54.3149C69.4687 57.1749 67.8087 60.9725 67.6687 61.8725C67.5362 62.73 66.2587 67.61 66.2587 67.61L63.8087 67.6399C63.8087 67.6399 64.2737 62.4125 65.1737 59.1575C66.0737 55.905 68.0887 48.3575 70.4912 47.575Z" fill="url(#mgnp530vr__paint21_linear_4032_3969)"/>
  <path d="M89.8387 66.725C89.8387 66.725 89.8037 67.545 90.1762 67.9425C90.5487 68.34 91.2912 69.185 91.1637 69.7C91.0362 70.2125 90.7487 70.7525 90.5787 70.7C90.4087 70.6475 90.4387 70.4525 90.4012 70.5025C90.3637 70.555 90.1387 70.785 90.0362 70.5875C89.9337 70.39 89.9362 71.0225 89.5337 70.45C89.3562 70.685 89.1237 70.6475 89.0462 70.2875C88.9687 69.9275 88.8687 69.45 88.8612 69.3975C88.8337 69.645 88.9662 70.2775 88.6512 70.1975C88.5212 70.165 88.2012 69.595 88.1387 68.86C88.0762 68.125 88.3562 67.98 88.1312 67.1C87.9062 66.22 89.8387 66.725 89.8387 66.725Z" fill="url(#mgnp530vr__paint22_linear_4032_3969)"/>
  <path d="M83.7912 47.4324C83.7912 47.4324 81.8662 51.4524 83.2637 54.3149C84.6587 57.1749 86.3187 60.9724 86.4587 61.8724C86.5912 62.7299 87.8687 67.6099 87.8687 67.6099L90.3187 67.6399C90.3187 67.6399 89.8537 62.4124 88.9537 59.1574C88.0537 55.9049 86.0462 48.4799 83.7912 47.4324Z" fill="url(#mgnp530vr__paint23_linear_4032_3969)"/>
  <path d="M155.479 128.937C154.311 126.114 155.009 122.066 152.974 120.034C150.865 117.927 146.785 118.651 144.072 117.526C141.359 116.401 138.988 113.002 136.005 113C133.128 112.998 130.76 116.351 127.937 117.521C125.114 118.689 121.066 117.991 119.034 120.026C116.927 122.135 117.651 126.215 116.526 128.928C115.401 131.639 112.002 134.012 112 136.995C111.998 139.872 115.351 142.24 116.521 145.063C117.689 147.886 116.991 151.934 119.026 153.966C121.135 156.074 125.215 155.349 127.928 156.474C130.639 157.599 133.012 160.998 135.995 161C138.872 161.002 141.24 157.649 144.063 156.479C146.886 155.311 150.934 156.009 152.966 153.974C155.073 151.865 154.349 147.785 155.474 145.072C156.599 142.361 159.998 139.988 160 137.005C160.002 134.128 156.647 131.76 155.479 128.937Z" fill="#94B3F4"/>
  <path d="M153.668 130.273C152.548 127.567 153.217 123.688 151.267 121.739C149.246 119.718 145.334 120.413 142.736 119.336C140.138 118.259 137.863 115.002 135.005 115C132.248 114.998 129.978 118.212 127.273 119.332C124.567 120.452 120.688 119.783 118.739 121.733C116.718 123.754 117.413 127.666 116.336 130.264C115.259 132.862 112.002 135.137 112 137.995C111.998 140.752 115.212 143.022 116.332 145.727C117.452 148.433 116.783 152.312 118.733 154.261C120.754 156.282 124.666 155.587 127.264 156.664C129.862 157.741 132.137 160.998 134.995 161C137.752 161.002 140.022 157.788 142.727 156.668C145.433 155.548 149.312 156.217 151.261 154.267C153.282 152.246 152.587 148.334 153.664 145.736C154.741 143.138 157.998 140.863 158 138.005C158.002 135.25 154.788 132.98 153.668 130.273Z" fill="url(#mgnp530vr__paint24_linear_4032_3969)"/>
  <path d="M138.409 137L143.293 132.116C144.236 131.173 144.236 129.647 143.293 128.707C142.351 127.764 140.825 127.764 139.884 128.707L135 133.591L130.116 128.707C129.173 127.764 127.647 127.764 126.707 128.707C125.764 129.649 125.764 131.175 126.707 132.116L131.591 137L126.707 141.884C125.764 142.827 125.764 144.353 126.707 145.293C127.178 145.764 127.796 146 128.411 146C129.029 146 129.645 145.764 130.116 145.293L135 140.409L139.884 145.293C140.355 145.764 140.973 146 141.589 146C142.204 146 142.822 145.764 143.293 145.293C144.236 144.351 144.236 142.825 143.293 141.884L138.409 137Z" fill="url(#mgnp530vr__paint25_linear_4032_3969)"/>
  <defs>
    <linearGradient id="mgnp530vr__paint0_linear_4032_3969" x1="100.123" y1="39.5989" x2="100.123" y2="178.472" gradientUnits="userSpaceOnUse">
      <stop offset="1e-7" stop-color="#F4F2FB"/>
      <stop offset="1" stop-color="#E1EEF5"/>
    </linearGradient>
    <linearGradient id="mgnp530vr__paint1_linear_4032_3969" x1="126.784" y1="149.567" x2="126.784" y2="92.9133" gradientUnits="userSpaceOnUse">
      <stop offset=".2267" stop-color="#ACBFE0"/>
      <stop offset=".7893" stop-color="#E7EEFA"/>
    </linearGradient>
    <linearGradient id="mgnp530vr__paint2_linear_4032_3969" x1="28.8926" y1="134.695" x2="28.8926" y2="100.401" gradientUnits="userSpaceOnUse">
      <stop offset=".2267" stop-color="#ACBFE0"/>
      <stop offset=".7893" stop-color="#E7EEFA"/>
    </linearGradient>
    <linearGradient id="mgnp530vr__paint3_linear_4032_3969" x1="28.8936" y1="104.21" x2="28.8936" y2="141.993" gradientUnits="userSpaceOnUse">
      <stop stop-color="#ECF1FB"/>
      <stop offset=".818" stop-color="#AFB0E7"/>
    </linearGradient>
    <linearGradient id="mgnp530vr__paint4_linear_4032_3969" x1="154.176" y1="111.816" x2="154.176" y2="89.7327" gradientUnits="userSpaceOnUse">
      <stop offset=".2267" stop-color="#ACBFE0"/>
      <stop offset=".7893" stop-color="#E7EEFA"/>
    </linearGradient>
    <linearGradient id="mgnp530vr__paint5_linear_4032_3969" x1="154.176" y1="92.1856" x2="154.176" y2="116.514" gradientUnits="userSpaceOnUse">
      <stop stop-color="#ECF1FB"/>
      <stop offset="1" stop-color="#A6A8E2"/>
    </linearGradient>
    <linearGradient id="mgnp530vr__paint6_linear_4032_3969" x1="115.655" y1="21.1633" x2="106.966" y2="36.2123" gradientUnits="userSpaceOnUse">
      <stop stop-color="#FFDB80"/>
      <stop offset="1" stop-color="#FFBB24"/>
    </linearGradient>
    <linearGradient id="mgnp530vr__paint7_linear_4032_3969" x1="105.071" y1="28.7799" x2="105.071" y2="43.1434" gradientUnits="userSpaceOnUse">
      <stop stop-color="#F9FAFE"/>
      <stop offset="1" stop-color="#E5EDF7"/>
    </linearGradient>
    <linearGradient id="mgnp530vr__paint8_linear_4032_3969" x1="171.826" y1="134.125" x2="171.826" y2="127.17" gradientUnits="userSpaceOnUse">
      <stop offset=".2267" stop-color="#ACBFE0"/>
      <stop offset=".7893" stop-color="#E7EEFA"/>
    </linearGradient>
    <linearGradient id="mgnp530vr__paint9_linear_4032_3969" x1="171.838" y1="128.046" x2="171.838" y2="139.245" gradientUnits="userSpaceOnUse">
      <stop offset="1e-7" stop-color="#DDE1F6"/>
      <stop offset=".818" stop-color="#A6A8E2"/>
    </linearGradient>
    <linearGradient id="mgnp530vr__paint10_linear_4032_3969" x1="-115.35" y1="79.2857" x2="-110.724" y2="167.296" gradientUnits="userSpaceOnUse">
      <stop offset=".1157" stop-color="#DEEAFF"/>
      <stop offset=".8472" stop-color="#BACDEE"/>
    </linearGradient>
    <linearGradient id="mgnp530vr__paint11_linear_4032_3969" x1="94.5546" y1="70.66" x2="94.5546" y2="96.2106" gradientUnits="userSpaceOnUse">
      <stop offset=".1157" stop-color="#D5DDFB"/>
      <stop offset=".8472" stop-color="#BACBEE"/>
    </linearGradient>
    <linearGradient id="mgnp530vr__paint12_linear_4032_3969" x1="73.922" y1="89.9076" x2="73.922" y2="84.977" gradientUnits="userSpaceOnUse">
      <stop stop-color="#FFDB80"/>
      <stop offset="1" stop-color="#FFBB24"/>
    </linearGradient>
    <linearGradient id="mgnp530vr__paint13_linear_4032_3969" x1="70.2041" y1="85.8087" x2="70.2041" y2="62.9933" gradientUnits="userSpaceOnUse">
      <stop stop-color="#18264B"/>
      <stop offset=".652" stop-color="#2D3C65"/>
    </linearGradient>
    <linearGradient id="mgnp530vr__paint14_linear_4032_3969" x1="79.885" y1="89.8897" x2="79.885" y2="84.9305" gradientUnits="userSpaceOnUse">
      <stop stop-color="#FFDB80"/>
      <stop offset="1" stop-color="#FFBB24"/>
    </linearGradient>
    <linearGradient id="mgnp530vr__paint15_linear_4032_3969" x1="83.619" y1="85.8294" x2="83.619" y2="62.9933" gradientUnits="userSpaceOnUse">
      <stop stop-color="#18264B"/>
      <stop offset=".652" stop-color="#2D3C65"/>
    </linearGradient>
    <linearGradient id="mgnp530vr__paint16_linear_4032_3969" x1="76.8198" y1="66.7545" x2="76.8198" y2="46.4686" gradientUnits="userSpaceOnUse">
      <stop stop-color="#C3D5FD"/>
      <stop offset="1" stop-color="#1A90FC"/>
    </linearGradient>
    <linearGradient id="mgnp530vr__paint17_linear_4032_3969" x1="76.9238" y1="43.6392" x2="76.9238" y2="48.9195" gradientUnits="userSpaceOnUse">
      <stop stop-color="#F4AE98"/>
      <stop offset="1" stop-color="#FAD1BB"/>
    </linearGradient>
    <linearGradient id="mgnp530vr__paint18_linear_4032_3969" x1="80.3799" y1="42.4278" x2="73.4792" y2="42.4278" gradientUnits="userSpaceOnUse">
      <stop stop-color="#F4B9A4"/>
      <stop offset=".652" stop-color="#FAD1BB"/>
    </linearGradient>
    <linearGradient id="mgnp530vr__paint19_linear_4032_3969" x1="72.5296" y1="39.7605" x2="80.5412" y2="39.7605" gradientUnits="userSpaceOnUse">
      <stop stop-color="#4F5C7C"/>
      <stop offset="1" stop-color="#274168"/>
    </linearGradient>
    <linearGradient id="mgnp530vr__paint20_linear_4032_3969" x1="64.4816" y1="66.5803" x2="64.4816" y2="70.7018" gradientUnits="userSpaceOnUse">
      <stop stop-color="#F4B9A4"/>
      <stop offset=".652" stop-color="#FAD1BB"/>
    </linearGradient>
    <linearGradient id="mgnp530vr__paint21_linear_4032_3969" x1="67.6064" y1="67.6419" x2="67.6064" y2="47.5737" gradientUnits="userSpaceOnUse">
      <stop stop-color="#C3D5FD"/>
      <stop offset="1" stop-color="#1A90FC"/>
    </linearGradient>
    <linearGradient id="mgnp530vr__paint22_linear_4032_3969" x1="89.6456" y1="66.5803" x2="89.6456" y2="70.7018" gradientUnits="userSpaceOnUse">
      <stop stop-color="#F4B9A4"/>
      <stop offset=".652" stop-color="#FAD1BB"/>
    </linearGradient>
    <linearGradient id="mgnp530vr__paint23_linear_4032_3969" x1="86.5351" y1="67.6418" x2="86.5351" y2="47.4328" gradientUnits="userSpaceOnUse">
      <stop stop-color="#C3D5FD"/>
      <stop offset="1" stop-color="#1A90FC"/>
    </linearGradient>
    <linearGradient id="mgnp530vr__paint24_linear_4032_3969" x1="29.5209" y1="119.755" x2="32.3167" y2="168.246" gradientUnits="userSpaceOnUse">
      <stop offset=".1157" stop-color="#DEEAFF"/>
      <stop offset=".8472" stop-color="#BACDEE"/>
    </linearGradient>
    <linearGradient id="mgnp530vr__paint25_linear_4032_3969" x1="125.998" y1="136.999" x2="144" y2="136.999" gradientUnits="userSpaceOnUse">
      <stop stop-color="#EBF2FA"/>
      <stop offset=".5247" stop-color="#FDFEFF"/>
      <stop offset="1" stop-color="#E9EFFB"/>
    </linearGradient>
  </defs>
</svg>
