<svg fill="none" xmlns="http://www.w3.org/2000/svg" viewBox="0 0 20 20" class="design-iconfont">
  <path d="M19 13.323V4.46076C19 2.55032 17.4498 1 15.5383 1H4.46053C2.55031 1 1 2.55032 1 4.46076V15.5393C1 17.4497 2.54908 19 4.46053 19H15.5383C17.2404 19 18.6569 17.7692 18.9459 16.1503C18.0279 15.7531 14.05 14.035 11.9776 13.0461C10.4005 14.9566 8.7489 16.103 6.25929 16.103C3.76969 16.103 2.10803 14.5695 2.30715 12.6928C2.43877 11.4609 3.28366 9.44704 6.95335 9.79238C8.88724 9.97353 9.77266 10.3348 11.35 10.8556C11.7582 10.1076 12.0967 9.28388 12.3544 8.40749H5.36053V7.71443H8.82096V6.47006H4.6V5.70731H8.82096V3.91173C8.82096 3.91173 8.85921 3.6304 9.16978 3.6304H10.9V5.70731H15.3998V6.47006H10.9V7.71443H14.5709C14.2334 9.08815 13.7215 10.3504 13.0803 11.453C14.1467 11.8389 19 13.323 19 13.323ZM5.98376 14.9148C3.35354 14.9148 2.9373 13.2544 3.07677 12.5601C3.21511 11.8693 3.97677 10.9682 5.43931 10.9682C7.12 10.9682 8.62524 11.3979 10.432 12.2776C9.16297 13.9305 7.60376 14.9148 5.98376 14.9148Z" fill="#1890FF"/>
</svg>
