<svg fill="none" xmlns="http://www.w3.org/2000/svg" viewBox="0 0 231 272" class="design-iconfont">
  <g opacity=".3" filter="url(#i1vtztu0r__filter0_f_6640_50117)">
    <path fill="#23406F" d="M63.7773 238.683341A6.45893 0.717659 0 1 0 63.7773 240.118659A6.45893 0.717659 0 1 0 63.7773 238.683341Z"/>
  </g>
  <path d="M26.2537 99.5391H171.602L172.809 99.69L173.888 100.143L174.513 100.596L175.052 101.135L175.505 101.782L175.958 102.839L176.13 104.068V195.719L176.087 196.344L175.764 197.466L175.505 198.005L175.052 198.63L174.513 199.169L173.888 199.622L172.809 200.075L172.227 200.204L171.602 200.248H26.2537L25.0461 200.075L23.9679 199.622L23.3209 199.169L22.7818 198.63L22.3505 198.005L21.8976 196.927L21.7251 195.719V104.068L21.7682 103.442L22.0701 102.299L22.3505 101.782L22.7818 101.135L23.3209 100.596L23.9679 100.143L24.4854 99.8841L25.6284 99.5822L26.2537 99.5391Z" fill="#D9E7FE"/>
  <path d="M41.9963 73.7266H189.717L190.342 73.7697L191.485 74.0716L192.002 74.3304L192.628 74.7832L193.167 75.3224L193.62 75.9693L193.879 76.4869L194.202 77.6298L194.245 78.2552V184.571H37.4677V78.2552L37.5108 77.6298L37.8127 76.4869L38.093 75.9693L38.5243 75.3224L39.0635 74.7832L39.7104 74.3304L40.228 74.0716L41.3709 73.7697L41.9963 73.7266Z" fill="#E6EEFD"/>
  <path d="M41.9963 73.9414H189.717L190.493 74.0061L191.226 74.2002L191.895 74.5237L192.498 74.955L193.016 75.4725L193.447 76.0763L193.749 76.7449L193.965 77.4565L194.03 78.2544V184.354H37.6833V78.2544L37.748 77.4565L37.9421 76.7449L38.2656 76.0763L38.6969 75.4725L39.2145 74.955L39.8183 74.5237L40.4868 74.2002L41.1984 74.0061L41.9963 73.9414Z" stroke="#fff" stroke-width=".4313"/>
  <path d="M41.9963 74.1602H189.716L190.471 74.2249L191.14 74.4189L191.787 74.7208L192.347 75.109L192.843 75.605L193.253 76.1873L193.555 76.8127L193.749 77.5027L193.814 78.2575V93.353H37.8989V78.2575L37.9636 77.5027L38.1577 76.8127L38.4596 76.1873L38.8694 75.605L39.3438 75.109L39.926 74.7208L40.5514 74.4189L41.2415 74.2249L41.9963 74.1602Z" fill="#C0CCE3"/>
  <path d="M182.816 84.1871L182.751 84.8341L182.579 85.4163L182.32 85.977L181.953 86.473L181.522 86.9043L181.004 87.2494L180.422 87.5081L179.818 87.6807L179.15 87.7454L178.481 87.6807L177.856 87.5081L177.295 87.2494L176.778 86.9043L176.346 86.473L175.98 85.977L175.721 85.4163L175.548 84.8341L175.484 84.1871L175.548 83.5402L175.721 82.9364L175.98 82.3757L176.346 81.8797L176.778 81.4699L177.295 81.1033L177.856 80.8446L178.481 80.672L179.15 80.6289L179.818 80.672L180.422 80.8446L181.004 81.1033L181.522 81.4699L181.953 81.8797L182.32 82.3757L182.579 82.9364L182.751 83.5402L182.816 84.1871Z" fill="#fff"/>
  <path d="M52.5631 84.1871L52.4984 84.8341L52.3258 85.4163L52.0671 85.977L51.7005 86.473L51.2692 86.9043L50.7516 87.2494L50.1693 87.5081L49.5655 87.6807L48.897 87.7454L48.2285 87.6807L47.6031 87.5081L47.0424 87.2494L46.5249 86.9043L46.0936 86.473L45.7269 85.977L45.4682 85.4163L45.2956 84.8341L45.231 84.1871L45.2956 83.5402L45.4682 82.9364L45.7269 82.3757L46.0936 81.8797L46.5249 81.4699L47.0424 81.1033L47.6031 80.8446L48.2285 80.672L48.897 80.6289L49.5655 80.672L50.1693 80.8446L50.7516 81.1033L51.2692 81.4699L51.7005 81.8797L52.0671 82.3757L52.3258 82.9364L52.4984 83.5402L52.5631 84.1871Z" fill="#fff"/>
  <path d="M123.296 138.314L123.232 140.406L123.016 142.433L122.671 144.417L122.218 146.358L121.614 148.277L120.924 150.11L120.105 151.879L119.177 153.604L118.142 155.243L116.999 156.817L115.77 158.305L114.455 159.728L113.031 161.066L111.543 162.295L109.991 163.416L108.352 164.473L106.627 165.4L104.858 166.22L103.025 166.931L101.127 167.513L99.2082 167.988L97.2242 168.333L95.1971 168.527L93.1053 168.613L91.0135 168.527L88.9864 168.333L87.0024 167.988L85.0831 167.513L83.1854 166.931L81.3524 166.22L79.584 165.4L77.8588 164.473L76.2199 163.416L74.6457 162.295L73.1577 161.066L71.756 159.728L70.4405 158.305L69.2113 156.817L68.0683 155.243L67.0332 153.604L66.1059 151.879L65.2865 150.11L64.5748 148.277L63.9926 146.358L63.5181 144.417L63.1946 142.433L62.979 140.406L62.9143 138.314L62.979 136.201L63.1946 134.174L63.5181 132.19L63.9926 130.249L64.5748 128.351L65.2865 126.497L66.1059 124.728L67.0332 123.003L68.0683 121.364L69.2113 119.79L70.4405 118.302L71.756 116.879L73.1577 115.563L74.6457 114.313L76.2199 113.191L77.8588 112.135L79.584 111.207L81.3524 110.388L83.1854 109.676L85.0831 109.094L87.0024 108.619L88.9864 108.296L91.0135 108.08L93.1053 108.016L95.1971 108.08L97.2242 108.296L99.2082 108.619L101.127 109.094L103.025 109.676L104.858 110.388L106.627 111.207L108.352 112.135L109.991 113.191L111.543 114.313L113.031 115.563L114.455 116.879L115.77 118.302L116.999 119.79L118.142 121.364L119.177 123.003L120.105 124.728L120.924 126.497L121.614 128.351L122.218 130.249L122.671 132.19L123.016 134.174L123.232 136.201L123.296 138.314Z" fill="#fff"/>
  <path d="M114.67 138.206L114.627 139.629L114.476 141.031L114.261 142.389L113.959 143.726L113.57 145.02L112.967 146.594L112.255 148.126L111.436 149.549L110.508 150.929L109.473 152.244L108.352 153.452L107.144 154.573L105.829 155.609L104.47 156.536L103.025 157.355L101.516 158.067L99.9198 158.671L98.6259 159.059L97.2889 159.361L95.9303 159.577L94.5501 159.706L93.1053 159.771L91.6604 159.706L90.2587 159.577L88.9001 159.361L87.5846 159.059L86.2907 158.671L84.6949 158.067L83.1854 157.355L81.7405 156.536L80.3604 155.609L79.0665 154.573L77.8588 153.452L76.7374 152.244L75.7023 150.929L74.775 149.549L73.9556 148.126L73.2439 146.594L72.6401 145.02L72.2519 143.726L71.95 142.389L71.7344 141.031L71.5834 139.629L71.5403 138.206L71.5834 136.761L71.7344 135.359L71.95 134L72.2519 132.685L72.6401 131.391L73.2439 129.795L73.9556 128.286L74.775 126.841L75.7023 125.461L76.7374 124.167L77.8588 122.959L79.0665 121.838L80.3604 120.803L81.7405 119.854L83.1854 119.034L84.6949 118.323L86.2907 117.74L87.5846 117.352L88.9001 117.029L90.2587 116.813L91.6604 116.684L93.1053 116.641L94.5501 116.684L95.9303 116.813L97.2889 117.029L98.6259 117.352L99.9198 117.74L101.516 118.323L103.025 119.034L104.47 119.854L105.829 120.803L107.144 121.838L108.352 122.959L109.473 124.167L110.508 125.461L111.436 126.841L112.255 128.286L112.967 129.795L113.57 131.391L113.959 132.685L114.261 134L114.476 135.359L114.627 136.761L114.67 138.206Z" fill="#EEF2FE"/>
  <path d="M93.062 124.102L91.9621 124.145L90.8839 124.317L89.8703 124.554L88.8999 124.921L87.9511 125.352L87.0669 125.891L86.2474 126.474L85.4926 127.164L84.8026 127.919L84.1772 128.716L83.6596 129.579L83.2068 130.485L82.8401 131.455L82.5814 132.447L82.4088 133.482L82.3657 134.582L82.4088 135.66L82.5814 136.696L82.8401 137.688L83.2068 138.658L83.6596 139.585L84.1772 140.448L84.8026 141.246L85.4926 141.979L86.2474 142.669L87.0669 143.273L87.9511 143.79L88.8999 144.243L89.8703 144.588L90.8839 144.847L91.9621 144.998L93.062 145.063L94.1833 144.998L95.24 144.847L96.2536 144.588L97.224 144.243L98.1729 143.79L99.057 143.273L99.8765 142.669L100.631 141.979L101.321 141.246L101.947 140.426L102.486 139.585L102.939 138.658L103.284 137.688L103.543 136.696L103.715 135.66L103.78 134.582L103.715 133.482L103.564 132.447L103.284 131.455L102.939 130.485L102.486 129.579L101.947 128.716L101.321 127.919L100.631 127.164L99.8765 126.474L99.057 125.891L98.1729 125.352L97.224 124.921L96.2536 124.554L95.24 124.317L94.1833 124.145L93.062 124.102Z" fill="#2F7FFD"/>
  <path d="M80.7053 138.594V128.911L80.2956 128.933L80.9425 127.725L81.6757 126.625L82.5168 125.59L83.4441 124.641L84.4361 123.8L85.5143 123.045L86.6573 122.398L87.8433 121.859L89.0941 121.428L90.388 121.105L91.7035 120.932L93.0621 120.846L94.4207 120.932L95.7577 121.105L97.03 121.428L98.2808 121.859L99.4884 122.398L100.631 123.045L101.688 123.8L102.702 124.641L103.629 125.59L104.448 126.625L105.203 127.725L105.829 128.933L105.44 128.911V138.594L106.109 138.551L107.338 138.227L107.92 137.947L108.912 137.214L109.689 136.222L109.969 135.661L110.314 134.432L110.379 133.763L110.228 132.62L109.84 131.542L109.193 130.615L108.805 130.205L107.856 129.537L107.403 128.437L106.885 127.38L106.281 126.366L105.613 125.396L104.858 124.49L104.039 123.649L103.176 122.873L102.227 122.14L101.235 121.493L100.2 120.932L99.1003 120.436L97.9573 120.005L96.7928 119.681L95.6067 119.444L94.356 119.293L93.0621 119.25L91.7897 119.293L90.539 119.444L89.3313 119.681L88.1668 120.005L87.0239 120.436L85.9456 120.932L84.8889 121.493L83.9185 122.14L82.9696 122.873L82.0855 123.649L81.2876 124.49L80.5328 125.396L79.8643 126.366L79.2605 127.358L78.7429 128.415L78.29 129.537L77.3412 130.205L76.953 130.615L76.3061 131.542L75.8963 132.599L75.7454 133.763L75.9394 135.057L76.457 136.222L77.2333 137.214L78.2253 137.947L79.3898 138.443L80.7053 138.594Z" fill="#2F7FFD"/>
  <path d="M103.758 144.156L102.81 144.933L101.839 145.644L100.826 146.248L98.7122 147.24L96.491 147.887L95.3697 148.103L93.0838 148.275L90.7979 148.103L89.6549 147.909L87.4553 147.24L86.3555 146.787L85.3204 146.27L84.3068 145.644L83.3364 144.954L82.3875 144.156L81.1583 144.846L80.0369 145.601L78.9803 146.421L78.0314 147.326L77.1472 148.318L76.3709 149.375L75.7024 150.496L75.1417 151.726L74.7751 152.718L74.4947 153.774L74.2791 154.874L74.1497 156.039L74.1066 157.268H112.147L112.104 156.039L111.975 154.874L111.759 153.753L111.479 152.718L111.091 151.704L110.53 150.496L109.84 149.353L109.063 148.297L108.179 147.305L107.209 146.399L106.152 145.58L104.988 144.825L103.758 144.156Z" fill="#2F7FFD"/>
  <path d="M194.267 124.666H210.419L203.41 119.469V102.778L203.367 102.174L203.216 101.635L202.979 101.139L202.656 100.686L202.267 100.298L201.815 99.9743L201.319 99.7371L200.779 99.5861L200.176 99.543H165.758L165.176 99.5861L164.615 99.7371L164.119 99.9743L163.666 100.298L163.278 100.686L162.954 101.139L162.717 101.635L162.566 102.174L162.523 102.778V121.431L162.566 122.014L162.717 122.553L162.954 123.07L163.278 123.523L163.666 123.911L164.119 124.213L164.615 124.472L165.176 124.601L165.758 124.666H194.267Z" fill="#307EFF"/>
  <path d="M198.537 108.45C198.537 107.736 197.957 107.156 197.243 107.156H167.914C167.2 107.156 166.62 107.736 166.62 108.45V108.45C166.62 109.165 167.2 109.744 167.914 109.744H197.243C197.957 109.744 198.537 109.165 198.537 108.45V108.45Z" fill="#fff"/>
  <path d="M198.537 115.782C198.537 115.068 197.957 114.488 197.243 114.488H167.914C167.2 114.488 166.62 115.068 166.62 115.782V115.782C166.62 116.497 167.2 117.076 167.914 117.076H197.243C197.957 117.076 198.537 116.497 198.537 115.782V115.782Z" fill="#fff"/>
  <path d="M142.813 159.834H126.639L133.669 154.659V137.946L133.712 137.363L133.863 136.824L134.1 136.307L134.424 135.854L134.812 135.466L135.265 135.164L135.761 134.905L136.3 134.776L136.904 134.711H207.184L207.766 134.776L208.327 134.905L208.823 135.164L209.276 135.466L209.664 135.854L209.988 136.307L210.225 136.824L210.376 137.363L210.419 137.946V156.599L210.376 157.203L210.225 157.742L209.988 158.238L209.664 158.691L209.276 159.079L208.823 159.403L208.327 159.64L207.766 159.791L207.184 159.834H142.813Z" fill="#2DDB9C"/>
  <path d="M138.392 143.703C138.392 142.928 139.019 142.301 139.794 142.301H202.548C203.322 142.301 203.949 142.928 203.949 143.703V143.703C203.949 144.477 203.322 145.104 202.548 145.104H139.794C139.019 145.104 138.392 144.477 138.392 143.703V143.703Z" fill="#fff"/>
  <path d="M138.392 150.927C138.392 150.212 138.971 149.633 139.686 149.633H202.656C203.37 149.633 203.949 150.212 203.949 150.927V150.927C203.949 151.641 203.37 152.221 202.656 152.221H139.686C138.971 152.221 138.392 151.641 138.392 150.927V150.927Z" fill="#fff"/>
  <g filter="url(#i1vtztu0r__filter1_i_6640_50117)">
    <path d="M61.712 107.547C61.712 107.547 66.6218 106.929 68.2914 110.622C69.961 114.315 66.768 115.866 66.768 115.866L68.414 123.064C68.414 123.064 71.2957 124.611 70.56 131.379C69.8195 138.147 62.528 143.674 62.528 143.674L59.5708 112.409L61.712 107.547Z" fill="#334666"/>
  </g>
  <path d="M66.4098 112.68C66.4098 112.68 72.0412 124.499 68.8387 126.329C65.6316 128.154 64.0516 126.796 64.0516 126.796L60.6228 116.599L66.4098 112.68Z" fill="url(#i1vtztu0r__paint0_linear_6640_50117)"/>
  <path d="M64.683 198.784C64.683 198.784 63.4709 232.534 63.5936 233.732C63.7162 234.93 67.2912 237.986 67.2912 237.986L65.1405 239.029L60.7732 235.397C60.7732 235.397 54.4108 198.925 55.7361 195.916C57.0614 192.907 64.683 198.784 64.683 198.784Z" fill="url(#i1vtztu0r__paint1_linear_6640_50117)"/>
  <path d="M50.7225 197.94C50.7225 197.94 52.543 201.091 48.7604 202.563C44.9779 204.034 24.6692 212.472 24.6692 212.472L23.3816 218.721C23.3816 218.721 25.8577 220.938 25.7398 220.348C25.2446 217.938 26.3105 214.877 27.0698 214.721C36.6818 212.731 58.1555 208.628 60.5278 204.869C63.7491 199.756 57.5188 194.648 57.5188 194.648L50.7225 197.94Z" fill="url(#i1vtztu0r__paint2_linear_6640_50117)"/>
  <path d="M45.3127 152.18C45.3127 152.18 46.4683 155.67 54.6276 164.617C56.915 162.306 56.8632 161.74 56.8632 161.74L51.0148 152.548L45.3127 152.18Z" fill="url(#i1vtztu0r__paint3_linear_6640_50117)"/>
  <path d="M54.5001 128.449C54.5001 128.449 48.831 137.269 54.7123 149.555C56.6036 153.022 56.6366 156.87 53.3823 162.822C49.9252 169.142 50.51 175.618 50.1987 181.494C49.8874 187.371 48.7272 196.827 44.1099 197.035C46.4209 200.709 55.764 205.015 68.437 203.477C67.3192 201.237 69.7387 185.782 69.4557 177.311C69.1774 168.84 68.1398 166.067 69.4557 157.851C70.5971 150.739 70.6065 147.631 70.6065 147.631C70.6065 147.631 75.7851 143.362 71.3753 136.92C66.9607 130.477 61.4331 125.157 54.5001 128.449Z" fill="#FFAA01"/>
  <g filter="url(#i1vtztu0r__filter2_i_6640_50117)">
    <path d="M67.5979 110.805C67.5979 110.805 68.013 114.375 64.2351 118.158C68.1261 124.666 68.5412 131.038 63.4664 134.401C58.3915 137.759 56.8021 132.722 56.8021 132.722C56.8021 132.722 53.9723 138.391 55.7975 141.405C57.6275 144.414 59.7499 151.483 59.8065 154.356C54.7316 156.667 46.1808 155.615 43.8226 146.795C43.351 144.206 43.1812 141.975 43.9547 139.325C44.7282 136.674 45.0395 136.514 44.1999 133.523C43.3604 130.529 42.054 125.095 47.775 119.006C47.5957 112.847 51.5481 108.437 58.5708 109.277C60.5186 106.324 67.0131 105.975 67.5979 110.805Z" fill="#334666"/>
  </g>
  <path d="M83.9587 116.167C83.9587 116.167 80.7704 117.454 80.3931 119.162C80.3176 119.511 80.2422 121.572 79.8932 123.156C79.0442 127.014 77.7566 133.136 77.4453 134.589C77.0114 136.64 75.5729 136.546 74.1533 136.461C72.3186 136.353 67.1495 135.221 63.216 136.442C59.9947 137.456 60.1928 142.8 66.126 142.319C70.6821 141.946 81.11 142.239 81.5062 138.178C81.9023 134.117 82.473 123.746 82.473 123.746C82.473 123.746 84.4728 121.237 84.303 120.543C84.1332 119.845 84.8029 119.827 84.7369 119.303C84.6708 118.779 84.9302 118.596 84.6661 118.124C84.086 117.072 87.7176 115.549 87.1187 114.907C86.8215 114.582 83.9587 116.167 83.9587 116.167Z" fill="url(#i1vtztu0r__paint4_linear_6640_50117)"/>
  <path d="M60.3107 233.351C60.3107 233.351 59.4523 234.662 59.5231 235.832C59.6268 236.331 60.056 236.322 60.1834 237.143C60.3107 237.963 60.3437 239.935 60.3437 239.935H60.7729C60.7729 239.935 60.7729 237.713 60.8059 237.435C60.8389 237.157 61.0417 236.699 61.5747 237.086C62.1076 237.473 63.3339 238.609 63.6923 239.053C64.0508 239.496 64.6451 239.972 65.8524 239.869C67.0598 239.765 69.8284 239.322 69.7152 238.831C69.602 238.341 67.9937 237.666 67.0881 237.614C66.7108 237.803 65.5836 238.341 64.5366 237.473C63.4895 236.605 61.0087 234.016 60.8437 233.808C60.6786 233.601 60.3626 233.261 60.3107 233.351Z" fill="url(#i1vtztu0r__paint5_linear_6640_50117)"/>
  <path d="M25.3342 211.848C25.3342 211.848 23.7684 211.914 22.8581 212.65C22.5138 213.022 22.7685 213.366 22.179 213.947C21.5894 214.527 20 215.701 20 215.701L20.25 216.05C20.25 216.05 22.0563 214.758 22.3016 214.621C22.5468 214.484 23.0421 214.385 23.0326 215.045C23.0279 215.706 22.8204 217.366 22.6648 217.913C22.5091 218.46 22.4714 219.224 23.259 220.144C24.0467 221.064 26.0181 223.059 26.353 222.681C26.6878 222.304 26.2964 220.601 25.8153 219.837C25.4427 219.644 24.3485 219.036 24.4428 217.682C24.5372 216.324 25.2022 212.801 25.2729 212.546C25.3437 212.291 25.438 211.838 25.3342 211.848Z" fill="url(#i1vtztu0r__paint6_linear_6640_50117)"/>
  <path d="M149.713 189.918L149.649 191.299L149.498 192.657L149.217 193.951L148.851 195.223L148.376 196.474L147.837 197.639L147.19 198.76L146.479 199.838L145.659 200.852L144.797 201.801L143.848 202.685L142.834 203.483L141.756 204.216L140.635 204.841L139.448 205.402L138.219 205.876L136.947 206.243L135.631 206.502L134.294 206.674L132.893 206.739L131.491 206.674L130.154 206.502L128.839 206.243L127.566 205.876L126.337 205.402L125.151 204.841L124.03 204.216L122.951 203.483L121.938 202.685L120.989 201.801L120.126 200.852L119.307 199.838L118.595 198.76L117.948 197.639L117.409 196.474L116.935 195.223L116.568 193.951L116.288 192.657L116.137 191.299L116.072 189.918L116.137 188.517L116.288 187.158L116.568 185.864L116.935 184.592L117.409 183.363L117.948 182.177L118.595 181.055L119.307 179.977L120.126 178.963L120.989 178.014L121.938 177.152L122.951 176.332L124.03 175.599L125.151 174.974L126.337 174.413L127.566 173.939L128.839 173.572L130.154 173.313L131.491 173.141L132.893 173.098L134.294 173.141L135.631 173.313L136.947 173.572L138.219 173.939L139.448 174.413L140.635 174.974L141.756 175.599L142.834 176.332L143.848 177.152L144.797 178.014L145.659 178.963L146.479 179.977L147.19 181.055L147.837 182.177L148.376 183.363L148.851 184.592L149.217 185.864L149.498 187.158L149.649 188.517L149.713 189.918Z" fill="#307EFF"/>
  <path d="M128.041 189.846L132.499 194.315C132.668 194.484 132.941 194.484 133.11 194.315L142.058 185.348" stroke="#EAF2FF" stroke-width="4.313" stroke-linecap="round"/>
  <g opacity=".3" filter="url(#i1vtztu0r__filter3_f_6640_50117)">
    <path fill="#17489A" d="M179.339 234.81638999999998A24.404 2.55661 0 1 0 179.339 239.92961A24.404 2.55661 0 1 0 179.339 234.81638999999998Z"/>
  </g>
  <g filter="url(#i1vtztu0r__filter4_i_6640_50117)">
    <path fill-rule="evenodd" clip-rule="evenodd" d="M166.711 165.716C166.711 165.716 164.098 168.997 165.107 171.329C166.115 173.661 166.413 176.362 166.001 177.282C165.588 178.202 163.68 180.165 164.726 181.986C165.772 183.806 165.17 189.499 164.417 189.543C163.663 189.587 162.243 194.209 164.213 194.613H179.262L178.631 164.102L166.711 165.716Z" fill="#334666"/>
  </g>
  <g filter="url(#i1vtztu0r__filter5_i_6640_50117)">
    <path fill-rule="evenodd" clip-rule="evenodd" d="M189.781 165.727C189.781 165.727 191.168 166.569 191.274 171.628C191.327 174.157 189.747 175.133 190.22 177.351C190.4 178.196 192.541 180.222 191.495 182.035C190.449 183.848 191.051 189.517 191.804 189.56C192.557 189.604 193.978 194.207 192.007 194.609H176.959L177.59 164.227L189.781 165.727Z" fill="#334666"/>
  </g>
  <path fill-rule="evenodd" clip-rule="evenodd" d="M166.727 166.217C166.727 166.217 166.191 173.005 168.185 175.985C168.65 176.681 169.557 176.91 170.293 177.093L169.693 166.946C169.694 166.946 166.702 164.272 166.727 166.217Z" fill="#3D3F47"/>
  <path fill-rule="evenodd" clip-rule="evenodd" d="M189.369 166.443C189.369 166.443 189.904 173.231 187.91 176.212C187.445 176.907 186.538 177.137 185.802 177.319L186.402 167.172C186.402 167.172 189.393 164.498 189.369 166.443Z" fill="#32333F"/>
  <path fill-rule="evenodd" clip-rule="evenodd" d="M185.802 169.476C185.802 169.476 189.087 167.717 189.921 169.304C190.754 170.89 188.726 176.207 185.802 175.094V169.476Z" fill="url(#i1vtztu0r__paint7_linear_6640_50117)"/>
  <path fill-rule="evenodd" clip-rule="evenodd" d="M187.911 169.619C187.911 169.619 189.646 169.141 189.537 170.47C189.429 171.799 188.651 174.504 186.279 174.598L187.911 169.619Z" fill="url(#i1vtztu0r__paint8_linear_6640_50117)"/>
  <path fill-rule="evenodd" clip-rule="evenodd" d="M187.911 169.619C187.911 169.619 189.646 169.141 189.537 170.47C189.429 171.799 188.651 174.504 186.279 174.598L187.911 169.619Z" fill="url(#i1vtztu0r__paint9_linear_6640_50117)"/>
  <path fill-rule="evenodd" clip-rule="evenodd" d="M170.339 175.004C167.415 176.117 165.388 170.8 166.221 169.214C167.054 167.628 170.339 169.386 170.339 169.386V175.004Z" fill="url(#i1vtztu0r__paint10_linear_6640_50117)"/>
  <path fill-rule="evenodd" clip-rule="evenodd" d="M168.23 169.529C168.23 169.529 166.495 169.051 166.603 170.38C166.712 171.709 167.49 174.415 169.861 174.509L168.23 169.529Z" fill="url(#i1vtztu0r__paint11_linear_6640_50117)"/>
  <path fill-rule="evenodd" clip-rule="evenodd" d="M181.801 180.414L178.155 180.466L174.509 180.414C174.509 180.414 174.28 182.535 173.873 184.112C173.664 184.922 174.274 185.71 175.109 185.71H178.054H178.256H181.075C181.97 185.71 182.625 184.87 182.409 184.002C182.019 182.438 181.801 180.414 181.801 180.414Z" fill="url(#i1vtztu0r__paint12_linear_6640_50117)"/>
  <path fill-rule="evenodd" clip-rule="evenodd" d="M181.802 180.414L178.157 180.466L174.511 180.414C174.511 180.414 174.606 182.624 174.199 184.201C173.99 185.01 174.758 185.71 175.594 185.71H178.056H178.258H181.077C181.972 185.71 182.516 184.902 182.3 184.034C181.91 182.47 181.802 180.414 181.802 180.414Z" fill="#FFC7B6"/>
  <path fill-rule="evenodd" clip-rule="evenodd" d="M188.042 171.766C188.042 179.803 182.04 181.857 178.079 181.857C174.21 181.857 168.116 179.803 168.116 171.766C168.116 163.73 168.535 157.215 178.079 157.215C186.587 157.215 188.042 163.73 188.042 171.766Z" fill="url(#i1vtztu0r__paint13_linear_6640_50117)"/>
  <g opacity=".7">
    <mask id="i1vtztu0r__klg2u60ata" style="mask-type:alpha" maskUnits="userSpaceOnUse" x="168" y="157" width="21" height="25">
      <path fill-rule="evenodd" clip-rule="evenodd" d="M188.042 171.762C188.042 179.799 182.04 181.853 178.079 181.853C174.21 181.853 168.116 179.799 168.116 171.762C168.116 163.726 168.535 157.211 178.079 157.211C186.587 157.211 188.042 163.726 188.042 171.762Z" fill="url(#i1vtztu0r__paint14_linear_6640_50117)"/>
    </mask>
    <g mask="url(#i1vtztu0r__klg2u60ata)">
      <g filter="url(#i1vtztu0r__filter6_f_6640_50117)">
        <path fill="#fff" d="M194.978 162.2856A12.4994 12.4994 0 1 0 194.978 187.2844A12.4994 12.4994 0 1 0 194.978 162.2856Z"/>
      </g>
      <g filter="url(#i1vtztu0r__filter7_f_6640_50117)">
        <path fill="#fff" d="M160.616 162.2856A12.4994 12.4994 0 1 0 160.616 187.2844A12.4994 12.4994 0 1 0 160.616 162.2856Z"/>
      </g>
    </g>
  </g>
  <g filter="url(#i1vtztu0r__filter8_ii_6640_50117)">
    <path fill-rule="evenodd" clip-rule="evenodd" d="M183.966 155.474C183.966 155.474 187.454 156.273 188.789 159.346C190.125 162.418 190.903 168.16 190.903 168.16C190.903 168.16 188.607 168.526 188.042 168.687C188.001 168.681 188.077 167.98 188.055 167.976C185.582 167.565 179.777 166.959 178.318 164.103C178.318 164.103 177.715 165.51 176.02 166.242C172.564 167.735 164.666 171.033 164.663 168.547C164.657 163.358 167.298 153.182 174.877 154.282C177.967 154.731 180.371 152.448 183.966 155.474Z" fill="#364A6A"/>
  </g>
  <path fill-rule="evenodd" clip-rule="evenodd" d="M164.703 168.368C164.703 168.368 164.196 174.216 165.124 176.141C166.052 178.066 166.87 179.069 166.338 180.412C164.959 183.894 168.569 187.125 169.222 187.95C169.222 187.95 166.03 181.913 168.614 179.483C169.938 178.238 166.75 174.309 166.66 173.165C166.339 169.103 167.098 169.486 169.004 168.766C168.964 168.266 164.703 168.368 164.703 168.368Z" fill="#32333F"/>
  <path d="M191.027 168.358C191.027 160.133 185.207 153.465 178.028 153.465C170.849 153.465 165.029 160.133 165.029 168.358" stroke="#164799" stroke-width="1.11213"/>
  <path d="M163.48 170.366C163.48 168.831 164.725 167.586 166.26 167.586H167.043C167.452 167.586 167.784 167.918 167.784 168.327V175.453C167.784 175.863 167.452 176.195 167.043 176.195H166.26C164.725 176.195 163.48 174.95 163.48 173.414V170.366Z" fill="#164799"/>
  <path d="M190.944 168.531C190.944 176.757 186.932 181.049 179.752 181.049" stroke="#3C3425" stroke-width="1.22335"/>
  <rect x="176.912" y="180.016" width="4.3044" height="2.23829" rx="1.11915" fill="url(#i1vtztu0r__paint15_linear_6640_50117)"/>
  <path d="M192.923 170.366C192.923 168.831 191.678 167.586 190.143 167.586H189.36C188.951 167.586 188.619 167.918 188.619 168.327V175.453C188.619 175.863 188.951 176.195 189.36 176.195H190.143C191.678 176.195 192.923 174.95 192.923 173.414V170.366Z" fill="#164799"/>
  <path d="M191.183 224.766H164.594V230.871H191.183V224.766Z" fill="#072C3D"/>
  <path d="M193.113 223.786L164.061 222.801L162.23 197.59H195.319L193.113 223.786Z" fill="#EDF0FB"/>
  <path fill="#FEBE26" d="M165.626 197.629H191.6569V209.7148H165.626z"/>
  <path d="M198.274 197.687C198.018 205.329 194.433 214.527 192.424 217.521C191.636 218.703 191.104 219.353 191.104 219.353H184.467C184.467 219.353 184.486 219.313 184.526 219.254C184.526 219.235 184.545 219.215 184.545 219.215C184.88 218.624 186.22 216.201 187.362 212.951C188.721 209.091 189.804 204.049 188.662 199.46H167.804C165.539 208.52 171.999 219.353 171.999 219.353H165.361C165.361 219.353 158.547 208.323 158.212 197.687C157.857 187.051 169.734 185.081 176.116 184.688H180.37C180.587 184.707 180.823 184.727 181.059 184.747C187.559 185.416 198.609 187.425 198.274 197.687Z" fill="#FEBE26"/>
  <path d="M188.721 206.628C190.277 202.236 190.434 197.993 190.08 196.91" stroke="#FFCF5E" stroke-width=".787846" stroke-miterlimit="10" stroke-linecap="round"/>
  <path d="M166.996 206.628C165.44 202.236 165.282 197.993 165.637 196.91" stroke="#FFCF5E" stroke-width=".787846" stroke-miterlimit="10" stroke-linecap="round"/>
  <path d="M192.227 226.931H164.239C163.373 226.931 162.683 226.241 162.683 225.375L161.895 206.427C161.895 205.56 162.585 204.871 163.451 204.871H193.035C193.902 204.871 194.591 205.56 194.591 206.427L193.803 225.375C193.803 226.241 193.094 226.931 192.227 226.931Z" fill="#96BDFF"/>
  <path d="M178.184 218.858C179.816 218.858 181.138 217.535 181.138 215.904C181.138 214.272 179.816 212.949 178.184 212.949C176.552 212.949 175.23 214.272 175.23 215.904C175.23 217.535 176.552 218.858 178.184 218.858Z" fill="#6B91D0"/>
  <path fill-rule="evenodd" clip-rule="evenodd" d="M174.812 185.074L178.1 193.448H179.086L182.111 185.159L174.812 185.074Z" fill="#fff"/>
  <path fill-rule="evenodd" clip-rule="evenodd" d="M177.607 186.336L176.329 192.268L178.372 193.355L180.771 192.004L179.446 186.362L177.607 186.336Z" fill="#FFF7E5"/>
  <path fill-rule="evenodd" clip-rule="evenodd" d="M177.598 186.387L177.57 186.516C177.565 186.537 177.581 186.556 177.602 186.557L179.435 186.586C179.467 186.587 179.491 186.557 179.484 186.526L179.457 186.413L177.598 186.387Z" fill="#EEE3C8"/>
  <path fill-rule="evenodd" clip-rule="evenodd" d="M175.01 185.32C175.01 185.32 176.688 186.551 177.017 186.564C177.345 186.577 177.455 186.043 177.455 186.043L177.293 185.637L175.01 185.32Z" fill="#EEE3C8"/>
  <path fill-rule="evenodd" clip-rule="evenodd" d="M182.079 185.32C182.079 185.32 180.4 186.551 180.072 186.564C179.744 186.577 179.633 186.043 179.633 186.043L179.796 185.637L182.079 185.32Z" fill="#EEE3C8"/>
  <path fill-rule="evenodd" clip-rule="evenodd" d="M177.603 184.426C177.603 184.426 179.14 184.521 179.465 184.418L179.737 185.521L179.468 186.389C179.455 186.429 179.419 186.455 179.377 186.455L177.67 186.43C177.632 186.43 177.599 186.406 177.584 186.37L177.275 185.575L177.603 184.426Z" fill="#FFF7E5"/>
  <path fill-rule="evenodd" clip-rule="evenodd" d="M174.631 183.445C174.631 183.445 174.124 184.467 174.228 184.764C174.333 185.062 176.83 186.311 177.105 186.243C177.322 186.188 177.484 185.255 177.618 184.457C177.627 184.405 177.591 184.357 177.539 184.349C175.996 184.135 174.631 183.445 174.631 183.445Z" fill="#fff"/>
  <path fill-rule="evenodd" clip-rule="evenodd" d="M182.287 183.442C182.356 183.423 182.932 184.527 182.849 184.763C182.745 185.061 180.248 186.31 179.973 186.242C179.755 186.187 179.515 185.773 179.457 184.484C179.453 184.401 179.517 184.331 179.6 184.325C180.89 184.242 182.287 183.442 182.287 183.442Z" fill="#EAEAEA"/>
  <path fill-rule="evenodd" clip-rule="evenodd" d="M182.289 183.406C183.692 184.334 184.456 184.799 184.456 184.799C184.79 184.998 184.758 185.491 184.402 185.646L182.651 186.405L183.93 188.027C184.07 188.204 184.067 188.455 183.923 188.628C183.923 188.628 180.198 193.299 177.705 194.45C178.375 193.551 182.791 185.074 182.289 183.406Z" fill="#fff"/>
  <path fill-rule="evenodd" clip-rule="evenodd" d="M174.63 183.406C174.378 183.643 173.473 184.39 172.633 184.98C172.279 185.229 172.098 185.624 172.514 185.743L174.215 186.229L172.954 187.827C172.804 188.018 172.808 188.288 172.963 188.475L177.875 194.148L178.373 193.323C178.373 193.322 174.973 186.97 174.63 183.406Z" fill="#fff"/>
  <path d="M170.021 231.387C170.021 231.387 166.135 232.258 164.743 232.133C163.355 232.003 164.517 237.606 164.517 237.606C164.517 237.606 168.23 237.862 171.513 236.912C172.623 232.618 170.021 231.387 170.021 231.387Z" fill="url(#i1vtztu0r__paint16_linear_6640_50117)"/>
  <path d="M168.629 231.183L170.65 237.467C170.65 237.467 214.078 231.746 207.872 217.655C202.684 205.871 168.629 231.183 168.629 231.183Z" fill="url(#i1vtztu0r__paint17_linear_6640_50117)"/>
  <path d="M165.778 231.668C165.778 231.668 167.37 232.292 167.57 234.509C167.774 236.729 167.114 238.217 163.731 238.629C160.348 239.041 159.49 238.885 157.369 238.937C155.248 238.989 152.168 239.193 151.713 235.159C151.258 231.126 155.382 230.098 159.659 231.126C161.008 231.386 165.778 231.668 165.778 231.668Z" fill="#131D7E"/>
  <path d="M188.279 231.387C188.279 231.387 192.165 232.258 193.558 232.133C194.946 232.003 193.783 237.606 193.783 237.606C193.783 237.606 190.071 237.862 186.787 236.912C185.681 232.618 188.279 231.387 188.279 231.387Z" fill="url(#i1vtztu0r__paint18_linear_6640_50117)"/>
  <path d="M189.672 231.183L187.651 237.467C187.651 237.467 144.222 231.746 150.429 217.655C155.62 205.871 189.672 231.183 189.672 231.183Z" fill="url(#i1vtztu0r__paint19_linear_6640_50117)"/>
  <path d="M192.522 231.668C192.522 231.668 190.93 232.292 190.73 234.509C190.526 236.729 191.186 238.217 194.569 238.629C197.952 239.041 198.81 238.885 200.931 238.937C203.052 238.989 206.132 239.193 206.587 235.159C207.042 231.126 202.918 230.098 198.641 231.126C197.297 231.386 192.522 231.668 192.522 231.668Z" fill="#0D187E"/>
  <defs>
    <linearGradient id="i1vtztu0r__paint0_linear_6640_50117" x1="65.2223" y1="127.281" x2="65.2223" y2="112.68" gradientUnits="userSpaceOnUse">
      <stop stop-color="#F4B9A4"/>
      <stop offset=".652" stop-color="#FAD1BB"/>
    </linearGradient>
    <linearGradient id="i1vtztu0r__paint1_linear_6640_50117" x1="61.4235" y1="195.058" x2="61.4235" y2="239.03" gradientUnits="userSpaceOnUse">
      <stop stop-color="#F4B9A4"/>
      <stop offset=".652" stop-color="#FAD1BB"/>
    </linearGradient>
    <linearGradient id="i1vtztu0r__paint2_linear_6640_50117" x1="42.4141" y1="194.652" x2="42.4141" y2="220.449" gradientUnits="userSpaceOnUse">
      <stop stop-color="#F4B9A4"/>
      <stop offset=".652" stop-color="#FAD1BB"/>
    </linearGradient>
    <linearGradient id="i1vtztu0r__paint3_linear_6640_50117" x1="51.0892" y1="164.617" x2="51.0892" y2="152.182" gradientUnits="userSpaceOnUse">
      <stop stop-color="#F4B9A4"/>
      <stop offset=".652" stop-color="#FAD1BB"/>
    </linearGradient>
    <linearGradient id="i1vtztu0r__paint4_linear_6640_50117" x1="74.1641" y1="142.352" x2="74.1641" y2="114.861" gradientUnits="userSpaceOnUse">
      <stop stop-color="#F4B9A4"/>
      <stop offset=".652" stop-color="#FAD1BB"/>
    </linearGradient>
    <linearGradient id="i1vtztu0r__paint5_linear_6640_50117" x1="59.5196" y1="236.635" x2="69.7149" y2="236.635" gradientUnits="userSpaceOnUse">
      <stop stop-color="#FFDB80"/>
      <stop offset="1" stop-color="#FFBB24"/>
    </linearGradient>
    <linearGradient id="i1vtztu0r__paint6_linear_6640_50117" x1="22.2103" y1="213.08" x2="28.147" y2="221.369" gradientUnits="userSpaceOnUse">
      <stop stop-color="#FFDB80"/>
      <stop offset="1" stop-color="#FFBB24"/>
    </linearGradient>
    <linearGradient id="i1vtztu0r__paint7_linear_6640_50117" x1="186.138" y1="174.67" x2="188.462" y2="169.218" gradientUnits="userSpaceOnUse">
      <stop offset="5e-7" stop-color="#FFDBD4"/>
      <stop offset="1" stop-color="#FFD1BF"/>
    </linearGradient>
    <linearGradient id="i1vtztu0r__paint8_linear_6640_50117" x1="187.966" y1="169.618" x2="187.87" y2="174.614" gradientUnits="userSpaceOnUse">
      <stop offset="2.6e-7" stop-color="#FAC1B6"/>
      <stop offset="1" stop-color="#FFDED1"/>
    </linearGradient>
    <linearGradient id="i1vtztu0r__paint9_linear_6640_50117" x1="187.966" y1="169.618" x2="187.87" y2="174.614" gradientUnits="userSpaceOnUse">
      <stop offset="2.6e-7" stop-color="#FAC1B6"/>
      <stop offset="1" stop-color="#FFDED1"/>
    </linearGradient>
    <linearGradient id="i1vtztu0r__paint10_linear_6640_50117" x1="104.99" y1="174.58" x2="102.666" y2="169.128" gradientUnits="userSpaceOnUse">
      <stop offset="5e-7" stop-color="#FFDBD4"/>
      <stop offset="1" stop-color="#FFD1BF"/>
    </linearGradient>
    <linearGradient id="i1vtztu0r__paint11_linear_6640_50117" x1="103.161" y1="169.528" x2="103.257" y2="174.524" gradientUnits="userSpaceOnUse">
      <stop offset="2.6e-7" stop-color="#FAC1B6"/>
      <stop offset="1" stop-color="#FFDED1"/>
    </linearGradient>
    <linearGradient id="i1vtztu0r__paint12_linear_6640_50117" x1="178.124" y1="185.512" x2="178.198" y2="180.456" gradientUnits="userSpaceOnUse">
      <stop offset="9.9e-7" stop-color="#FFDBD4"/>
      <stop offset="1" stop-color="#FFBFAA"/>
    </linearGradient>
    <linearGradient id="i1vtztu0r__paint13_linear_6640_50117" x1="178.042" y1="161.482" x2="177.886" y2="181.781" gradientUnits="userSpaceOnUse">
      <stop offset="5e-7" stop-color="#D19083"/>
      <stop offset=".35817" stop-color="#FAC6BA"/>
      <stop offset="1" stop-color="#FFD4C4"/>
    </linearGradient>
    <linearGradient id="i1vtztu0r__paint14_linear_6640_50117" x1="178.042" y1="161.479" x2="177.886" y2="181.777" gradientUnits="userSpaceOnUse">
      <stop offset="5e-7" stop-color="#D19083"/>
      <stop offset=".35817" stop-color="#FAC6BA"/>
      <stop offset="1" stop-color="#FFD4C4"/>
    </linearGradient>
    <linearGradient id="i1vtztu0r__paint15_linear_6640_50117" x1="179.065" y1="180.016" x2="179.065" y2="182.254" gradientUnits="userSpaceOnUse">
      <stop stop-color="#305188"/>
      <stop offset="1" stop-color="#123164"/>
    </linearGradient>
    <linearGradient id="i1vtztu0r__paint16_linear_6640_50117" x1="171.787" y1="234.511" x2="164.062" y2="234.511" gradientUnits="userSpaceOnUse">
      <stop stop-color="#F4B9A4"/>
      <stop offset=".652" stop-color="#FAD1BB"/>
    </linearGradient>
    <linearGradient id="i1vtztu0r__paint17_linear_6640_50117" x1="205.37" y1="217.153" x2="183.988" y2="230.866" gradientUnits="userSpaceOnUse">
      <stop stop-color="#83AEFF"/>
      <stop offset="1" stop-color="#3778F6"/>
    </linearGradient>
    <linearGradient id="i1vtztu0r__paint18_linear_6640_50117" x1="186.515" y1="234.511" x2="194.24" y2="234.511" gradientUnits="userSpaceOnUse">
      <stop stop-color="#F4B9A4"/>
      <stop offset=".652" stop-color="#FAD1BB"/>
    </linearGradient>
    <linearGradient id="i1vtztu0r__paint19_linear_6640_50117" x1="186.563" y1="217.153" x2="165.18" y2="230.866" gradientUnits="userSpaceOnUse">
      <stop stop-color="#83AEFF"/>
      <stop offset="1" stop-color="#3778F6"/>
    </linearGradient>
    <filter id="i1vtztu0r__filter0_f_6640_50117" x="53.4908" y="234.856" width="20.5729" height="9.08863" filterUnits="userSpaceOnUse" color-interpolation-filters="sRGB">
      <feFlood flood-opacity="0" result="BackgroundImageFix"/>
      <feBlend in="SourceGraphic" in2="BackgroundImageFix" result="shape"/>
      <feGaussianBlur stdDeviation="1.91376" result="effect1_foregroundBlur_6640_50117"/>
    </filter>
    <filter id="i1vtztu0r__filter1_i_6640_50117" x="59.5708" y="105.238" width="13.3795" height="38.4381" filterUnits="userSpaceOnUse" color-interpolation-filters="sRGB">
      <feFlood flood-opacity="0" result="BackgroundImageFix"/>
      <feBlend in="SourceGraphic" in2="BackgroundImageFix" result="shape"/>
      <feColorMatrix in="SourceAlpha" values="0 0 0 0 0 0 0 0 0 0 0 0 0 0 0 0 0 0 127 0" result="hardAlpha"/>
      <feOffset dx="2.27017" dy="-5.67541"/>
      <feGaussianBlur stdDeviation="1.13508"/>
      <feComposite in2="hardAlpha" operator="arithmetic" k2="-1" k3="1"/>
      <feColorMatrix values="0 0 0 0 1 0 0 0 0 1 0 0 0 0 1 0 0 0 0.3 0"/>
      <feBlend mode="lighten" in2="shape" result="effect1_innerShadow_6640_50117"/>
    </filter>
    <filter id="i1vtztu0r__filter2_i_6640_50117" x="43.4216" y="104.835" width="26.4599" height="50.5749" filterUnits="userSpaceOnUse" color-interpolation-filters="sRGB">
      <feFlood flood-opacity="0" result="BackgroundImageFix"/>
      <feBlend in="SourceGraphic" in2="BackgroundImageFix" result="shape"/>
      <feColorMatrix in="SourceAlpha" values="0 0 0 0 0 0 0 0 0 0 0 0 0 0 0 0 0 0 127 0" result="hardAlpha"/>
      <feOffset dx="2.27017" dy="-5.67541"/>
      <feGaussianBlur stdDeviation="1.13508"/>
      <feComposite in2="hardAlpha" operator="arithmetic" k2="-1" k3="1"/>
      <feColorMatrix values="0 0 0 0 1 0 0 0 0 1 0 0 0 0 1 0 0 0 0.3 0"/>
      <feBlend mode="lighten" in2="shape" result="effect1_innerShadow_6640_50117"/>
    </filter>
    <filter id="i1vtztu0r__filter3_f_6640_50117" x="151.216" y="231.098" width="56.2454" height="12.5507" filterUnits="userSpaceOnUse" color-interpolation-filters="sRGB">
      <feFlood flood-opacity="0" result="BackgroundImageFix"/>
      <feBlend in="SourceGraphic" in2="BackgroundImageFix" result="shape"/>
      <feGaussianBlur stdDeviation="1.85935" result="effect1_foregroundBlur_6640_50117"/>
    </filter>
    <filter id="i1vtztu0r__filter4_i_6640_50117" x="158.32" y="164.102" width="20.9426" height="35.4051" filterUnits="userSpaceOnUse" color-interpolation-filters="sRGB">
      <feFlood flood-opacity="0" result="BackgroundImageFix"/>
      <feBlend in="SourceGraphic" in2="BackgroundImageFix" result="shape"/>
      <feColorMatrix in="SourceAlpha" values="0 0 0 0 0 0 0 0 0 0 0 0 0 0 0 0 0 0 127 0" result="hardAlpha"/>
      <feOffset dx="-4.89339" dy="12.2335"/>
      <feGaussianBlur stdDeviation="2.4467"/>
      <feComposite in2="hardAlpha" operator="arithmetic" k2="-1" k3="1"/>
      <feColorMatrix values="0 0 0 0 1 0 0 0 0 1 0 0 0 0 1 0 0 0 0.3 0"/>
      <feBlend mode="lighten" in2="shape" result="effect1_innerShadow_6640_50117"/>
    </filter>
    <filter id="i1vtztu0r__filter5_i_6640_50117" x="176.959" y="159.333" width="20.9426" height="35.2762" filterUnits="userSpaceOnUse" color-interpolation-filters="sRGB">
      <feFlood flood-opacity="0" result="BackgroundImageFix"/>
      <feBlend in="SourceGraphic" in2="BackgroundImageFix" result="shape"/>
      <feColorMatrix in="SourceAlpha" values="0 0 0 0 0 0 0 0 0 0 0 0 0 0 0 0 0 0 127 0" result="hardAlpha"/>
      <feOffset dx="4.89339" dy="-12.2335"/>
      <feGaussianBlur stdDeviation="2.4467"/>
      <feComposite in2="hardAlpha" operator="arithmetic" k2="-1" k3="1"/>
      <feColorMatrix values="0 0 0 0 1 0 0 0 0 1 0 0 0 0 1 0 0 0 0.3 0"/>
      <feBlend mode="lighten" in2="shape" result="effect1_innerShadow_6640_50117"/>
    </filter>
    <filter id="i1vtztu0r__filter6_f_6640_50117" x="176.362" y="156.168" width="37.2323" height="37.2335" filterUnits="userSpaceOnUse" color-interpolation-filters="sRGB">
      <feFlood flood-opacity="0" result="BackgroundImageFix"/>
      <feBlend in="SourceGraphic" in2="BackgroundImageFix" result="shape"/>
      <feGaussianBlur stdDeviation="3.05837" result="effect1_foregroundBlur_6640_50117"/>
    </filter>
    <filter id="i1vtztu0r__filter7_f_6640_50117" x="142" y="156.168" width="37.2323" height="37.2335" filterUnits="userSpaceOnUse" color-interpolation-filters="sRGB">
      <feFlood flood-opacity="0" result="BackgroundImageFix"/>
      <feBlend in="SourceGraphic" in2="BackgroundImageFix" result="shape"/>
      <feGaussianBlur stdDeviation="3.05837" result="effect1_foregroundBlur_6640_50117"/>
    </filter>
    <filter id="i1vtztu0r__filter8_ii_6640_50117" x="164.663" y="147.758" width="26.2401" height="24.7454" filterUnits="userSpaceOnUse" color-interpolation-filters="sRGB">
      <feFlood flood-opacity="0" result="BackgroundImageFix"/>
      <feBlend in="SourceGraphic" in2="BackgroundImageFix" result="shape"/>
      <feColorMatrix in="SourceAlpha" values="0 0 0 0 0 0 0 0 0 0 0 0 0 0 0 0 0 0 127 0" result="hardAlpha"/>
      <feOffset dy="3.05837"/>
      <feGaussianBlur stdDeviation="1.52918"/>
      <feComposite in2="hardAlpha" operator="arithmetic" k2="-1" k3="1"/>
      <feColorMatrix values="0 0 0 0 0.9 0 0 0 0 0.928333 0 0 0 0 1 0 0 0 0.6 0"/>
      <feBlend mode="lighten" in2="shape" result="effect1_innerShadow_6640_50117"/>
      <feColorMatrix in="SourceAlpha" values="0 0 0 0 0 0 0 0 0 0 0 0 0 0 0 0 0 0 127 0" result="hardAlpha"/>
      <feOffset dy="-6.11674"/>
      <feGaussianBlur stdDeviation="6.11674"/>
      <feComposite in2="hardAlpha" operator="arithmetic" k2="-1" k3="1"/>
      <feColorMatrix values="0 0 0 0 0.097309 0 0 0 0 0.181891 0 0 0 0 0.395833 0 0 0 0.16 0"/>
      <feBlend mode="multiply" in2="effect1_innerShadow_6640_50117" result="effect2_innerShadow_6640_50117"/>
    </filter>
  </defs>
</svg>
