<?xml version="1.0" standalone="no"?><!DOCTYPE svg PUBLIC "-//W3C//DTD SVG 1.1//EN" "http://www.w3.org/Graphics/SVG/1.1/DTD/svg11.dtd"><svg t="1733293668698" class="icon" viewBox="0 0 1024 1024" version="1.1" xmlns="http://www.w3.org/2000/svg" p-id="5084" xmlns:xlink="http://www.w3.org/1999/xlink" width="128" height="128"><path d="M515.2 0C246.4 0 28.8 217.6 28.8 486.4s217.6 486.4 486.4 486.4 486.4-217.6 486.4-486.4S784 0 515.2 0z m182.4 758.4c-16 16-44.8 16-60.8 0L480 601.6c-11.2-11.2-11.2-27.2-11.2-52.8 0-25.6-4.8-310.4-4.8-310.4 0-25.6 19.2-44.8 44.8-44.8 25.6 0 44.8 19.2 44.8 44.8v310.4l147.2 147.2c12.8 14.4 12.8 41.6-3.2 62.4z" p-id="5085" fill="#3A4559"></path></svg>