<?xml version="1.0" encoding="UTF-8"?>
<svg width="32px" height="32px" viewBox="0 0 32 32" version="1.1" xmlns="http://www.w3.org/2000/svg" xmlns:xlink="http://www.w3.org/1999/xlink">
    <title>客户</title>
    <g id="Page-1" stroke="none" stroke-width="1" fill="none" fill-rule="evenodd">
        <g id="员工管理" transform="translate(-356.000000, -508.000000)">
            <g id="客户" transform="translate(356.000000, 508.000000)">
                <rect id="Rectangle-6" fill="#D4E4F9" x="0" y="0" width="32" height="32"></rect>
                <polygon id="路径" fill="#D4E4F9" fill-rule="nonzero" points="14.4900708 22.2107309 16.0603218 24.4277388 17.4129143 22.1081205 15.8426632 19.8911125"></polygon>
                <path d="M10.5473414,12.1704524 C10.5473414,15.1550826 12.9668623,17.5746035 15.9514925,17.5746035 C18.9361228,17.5746035 21.3556437,15.1550826 21.3556437,12.1704524 C21.3556437,9.18582208 18.9361228,6.76630118 15.9514925,6.76630118 C12.9668623,6.76630118 10.5473414,9.18582208 10.5473414,12.1704524 Z" id="路径" fill="#3A7EED" fill-rule="nonzero"></path>
                <path d="M22.2200591,16.5080766 C20.839482,18.507426 18.5354106,19.8195961 15.9235079,19.8195961 C13.3178239,19.8195961 11.0230808,18.5167542 9.64250364,16.526733 C8.73144708,16.9807066 8.10334664,17.9104196 8.10334664,18.995603 L8.10334664,25.1366839 L23.8058572,25.1366839 L23.8058572,18.995603 C23.8027478,17.8917632 23.1528816,16.9527219 22.2200591,16.5080766 L22.2200591,16.5080766 Z M16.0603218,24.4277388 L14.4900708,22.2107309 L15.8457727,19.8942219 L17.4129143,22.1081205 L16.0603218,24.4277388 Z" id="形状" fill="#3A7EED" fill-rule="nonzero"></path>
            </g>
        </g>
    </g>
</svg>