<svg fill="none" xmlns="http://www.w3.org/2000/svg" viewBox="0 0 15 15" class="design-iconfont">
  <path d="M14.3829 5.75997L10.2917 5.16539L8.46284 1.45772C8.41288 1.35621 8.33071 1.27403 8.22919 1.22408C7.9746 1.09839 7.66523 1.20313 7.53793 1.45772L5.70908 5.16539L1.61791 5.75997C1.50512 5.77608 1.402 5.82925 1.32304 5.90982C1.22759 6.00793 1.17499 6.13992 1.1768 6.27679C1.17862 6.41366 1.23469 6.54421 1.33271 6.63975L4.29272 9.52564L3.5934 13.6007C3.577 13.6955 3.58749 13.793 3.62368 13.8821C3.65987 13.9712 3.72031 14.0485 3.79815 14.105C3.87599 14.1615 3.96811 14.1951 4.06407 14.202C4.16003 14.2088 4.25599 14.1886 4.34106 14.1437L8.00038 12.2198L11.6597 14.1437C11.7596 14.1969 11.8756 14.2146 11.9868 14.1953C12.2672 14.1469 12.4557 13.8811 12.4074 13.6007L11.7081 9.52564L14.6681 6.63975C14.7486 6.5608 14.8018 6.45767 14.8179 6.34488C14.8614 6.0629 14.6648 5.80186 14.3829 5.75997V5.75997Z" fill="#BFBFBF"/>
</svg>
